<?xml version="1.0" encoding="utf-8"?>
<!-- Generator: Adobe Illustrator 16.0.0, SVG Export Plug-In . SVG Version: 6.00 Build 0)  -->
<!DOCTYPE svg PUBLIC "-//W3C//DTD SVG 1.1//EN" "http://www.w3.org/Graphics/SVG/1.1/DTD/svg11.dtd">
<svg version="1.1" id="Layer_1" xmlns="http://www.w3.org/2000/svg" xmlns:xlink="http://www.w3.org/1999/xlink" x="0px" y="0px"
	 width="33.167px" height="28.021px" viewBox="0 0 33.167 28.021" enable-background="new 0 0 33.167 28.021" xml:space="preserve">
<path fill-rule="evenodd" clip-rule="evenodd" fill="#757575" d="M32.991,19.445c-3.312,5.145-9.165,8.576-15.853,8.576
	c-7.661,0-14.238-4.493-17.138-10.92c1.588-3.85,4.14-8.602,6.639-10.673c4.421-3.665,9.666-6.526,14.807-6.425
	c5.141,0.1,8.226,3.255,8.226,4.819c0,1.908-1.131,3.062-3.291,3.213c-2.159,0.15-2.827-1.958-1.645-3.213
	c-1.542-1.104-3.001-0.701-4.347,0.204C19.356,5.72,17.957,9.51,19.8,12.853C21.243,15.469,26.517,18.902,32.991,19.445z"/>
</svg>
