<?xml version="1.0" encoding="utf-8"?>
<!-- Generator: Adobe Illustrator 16.0.0, SVG Export Plug-In . SVG Version: 6.00 Build 0)  -->
<!DOCTYPE svg PUBLIC "-//W3C//DTD SVG 1.1//EN" "http://www.w3.org/Graphics/SVG/1.1/DTD/svg11.dtd">
<svg version="1.1" id="Layer_1" xmlns="http://www.w3.org/2000/svg" xmlns:xlink="http://www.w3.org/1999/xlink" x="0px" y="0px"
	 width="29.917px" height="20.071px" viewBox="0 0 29.917 20.071" enable-background="new 0 0 29.917 20.071" xml:space="preserve">
<path fill-rule="evenodd" clip-rule="evenodd" fill="#757575" d="M23.888,13.68c-1.322,0-2.467-0.718-3.099-1.779
	c0.083-0.12,0.146-0.252,0.222-0.377c0.143-0.237,0.279-0.477,0.395-0.73c0.069-0.152,0.128-0.308,0.188-0.465
	c0.1-0.264,0.182-0.533,0.251-0.811c0.035-0.142,0.074-0.281,0.101-0.426c0.079-0.428,0.132-0.865,0.132-1.315V5.96
	c0-0.279-0.051-0.543-0.082-0.814c0.552-0.342,1.196-0.548,1.893-0.548c2,0,3.622,1.626,3.622,3.633v1.816
	C27.509,12.053,25.888,13.68,23.888,13.68z M5.722,19.98l3.622-5.449h2.863h5.253h2.806l3.622,5.449H5.722z M14.833,13.623
	c-3,0-5.433-3.348-5.433-6.357V5.449C9.4,2.439,11.833,0,14.833,0s5.433,2.439,5.433,5.449v1.816
	C20.266,10.275,17.833,13.623,14.833,13.623z M8.877,11.901L8.877,11.901c-0.307,0.514-0.732,0.942-1.244,1.251
	c-0.045,0.027-0.091,0.049-0.137,0.074c-0.202,0.11-0.414,0.2-0.637,0.27c-0.071,0.023-0.139,0.047-0.211,0.066
	c-0.28,0.07-0.569,0.118-0.871,0.118c-2,0-3.622-1.626-3.622-3.633V8.23c0-2.006,1.622-3.633,3.622-3.633
	c0.323,0,0.63,0.056,0.928,0.136C6.76,4.748,6.812,4.765,6.864,4.782C7.15,4.873,7.421,4.991,7.671,5.146l0,0
	C7.641,5.417,7.589,5.681,7.589,5.96v1.816C7.589,9.31,8.069,10.729,8.877,11.901z M7.589,14.531L3.911,19.98H2.156H0.345
	l2.717-5.449H7.589z M26.604,14.531l2.716,5.449h-3.622l-3.622-5.449H26.604z"/>
</svg>
