<?xml version="1.0" encoding="utf-8"?>
<!-- Generator: Adobe Illustrator 16.0.0, SVG Export Plug-In . SVG Version: 6.00 Build 0)  -->
<!DOCTYPE svg PUBLIC "-//W3C//DTD SVG 1.1//EN" "http://www.w3.org/Graphics/SVG/1.1/DTD/svg11.dtd">
<svg version="1.1" id="Layer_1" xmlns="http://www.w3.org/2000/svg" xmlns:xlink="http://www.w3.org/1999/xlink" x="0px" y="0px"
	 width="27.042px" height="37.257px" viewBox="0 0 27.042 37.257" enable-background="new 0 0 27.042 37.257" xml:space="preserve">
<path fill-rule="evenodd" clip-rule="evenodd" fill="#757575" d="M1.728,33.259c4.269-3.761,6.802-6.685,6.802-6.685l1.125,1.376
	l2.815-3.859c0.509,0.203,1.06,0.318,1.641,0.318c0.566,0,1.108-0.113,1.606-0.308l2.979,3.95l1.489-0.917
	c0,0,2.063,2.791,5.744,6.1c-3.428,2.438-7.603,3.886-12.117,3.886C9.313,37.12,5.149,35.682,1.728,33.259z M22.56,12.185
	c-1.37,0-2.594-0.627-3.413-1.613c-0.456,0.79-1.145,1.423-1.97,1.808c-1.092,4.167-2.917,11.075-2.917,11.075l-0.682-7.406
	c0,0-0.399,6.881-0.387,7.215c0.015,0.285-2.862-8.076-3.687-10.479c-0.076,0.004-0.149,0.012-0.228,0.012
	c-0.699,0-1.359-0.168-1.95-0.46c-0.776,0.667-1.781,1.071-2.879,1.071c-2.457,0-4.45-2.018-4.45-4.508c0-2.441,1.913-4.42,4.3-4.5
	c0.388-2.092,2.197-3.675,4.375-3.675c0.855,0,1.649,0.248,2.328,0.67c0.802-0.793,1.898-1.281,3.108-1.281
	c1.376,0,2.606,0.631,3.423,1.624c0.413-0.159,0.862-0.249,1.332-0.249c1.317,0,2.473,0.684,3.149,1.719
	c0.181-0.023,0.361-0.039,0.549-0.039c2.459,0,4.453,2.02,4.453,4.508S25.02,12.185,22.56,12.185z"/>
</svg>
