<?xml version="1.0" standalone="no"?>
<!DOCTYPE svg PUBLIC "-//W3C//DTD SVG 1.1//EN" "http://www.w3.org/Graphics/SVG/1.1/DTD/svg11.dtd" >
<svg xmlns="http://www.w3.org/2000/svg" xmlns:xlink="http://www.w3.org/1999/xlink" version="1.1">
<metadata></metadata>
<defs>
<font id="variablelight" horiz-adv-x="1097" >
<font-face units-per-em="2048" ascent="1516" descent="-532" />
<missing-glyph horiz-adv-x="491" />
<glyph horiz-adv-x="0" />
<glyph horiz-adv-x="682" />
<glyph unicode=" "  horiz-adv-x="491" />
<glyph unicode="&#x09;" horiz-adv-x="491" />
<glyph unicode="&#xa0;" horiz-adv-x="491" />
<glyph unicode="!" horiz-adv-x="327" d="M125 39q0 15 12 27t27 12t27 -12t12 -27t-12 -27t-27 -12t-27 12t-12 27zM143 522v973q0 10 6.5 15.5t14.5 5.5q20 0 20 -21v-973q0 -20 -20 -20q-21 0 -21 20z" />
<glyph unicode="&#x22;" horiz-adv-x="555" d="M123 1167v328q0 21 20 21q8 0 14.5 -5.5t6.5 -15.5v-328q0 -20 -21 -20q-20 0 -20 20zM391 1167v328q0 10 6.5 15.5t14.5 5.5q20 0 20 -21v-328q0 -20 -20 -20q-21 0 -21 20z" />
<glyph unicode="#" horiz-adv-x="1445" d="M41 506q0 20 20 20h365l49 463h-360q-10 0 -15.5 6.5t-5.5 14.5q0 20 21 20h364l49 467q0 9 6.5 14t14.5 5q20 0 20 -21v-2l-49 -463h463l49 467q0 9 6.5 14t14.5 5q20 0 20 -21v-2l-49 -463h360q21 0 21 -20q0 -8 -5.5 -14.5t-15.5 -6.5h-364l-49 -463h360q21 0 21 -20 q0 -8 -5.5 -14.5t-15.5 -6.5h-364l-49 -467q-3 -18 -21 -18q-20 0 -20 20v3l49 462h-463l-49 -467q-3 -18 -21 -18q-20 0 -20 20v3l49 462h-361q-20 0 -20 21zM467 526h463l49 463h-463z" />
<glyph unicode="$" horiz-adv-x="1126" d="M123 166q0 9 6 14.5t14 5.5q12 0 17 -8q6 -10 20 -24q64 -67 154 -100.5t188 -33.5h21v756q-57 22 -88.5 34.5t-81.5 36t-78.5 43.5t-63.5 51t-53.5 63t-31.5 76t-13 94q0 83 34 152t90.5 114.5t130.5 70.5t155 25v162q0 20 20 20q21 0 21 -20v-164q105 -9 207.5 -63 t162.5 -136q4 -4 4 -12q0 -7 -6 -13.5t-14 -6.5q-11 0 -16 8q-9 12 -25 28q-136 139 -313 154v-688q56 -21 90 -35.5t83.5 -39t80.5 -46.5t66 -55.5t54.5 -69.5t32.5 -84t13 -104q0 -160 -118.5 -265.5t-301.5 -123.5v-168q0 -10 -6.5 -15.5t-14.5 -5.5q-20 0 -20 21v166 h-21q-210 0 -350 126q-19 18 -45 48q-4 8 -4 12zM174 1174q0 -43 11 -80.5t28 -66.5t47 -56t57.5 -45.5t70 -39t74.5 -33.5t81 -32v674q-155 0 -262 -88t-107 -233zM584 23q168 17 273.5 112.5t105.5 235.5q0 67 -22 122.5t-54 92.5t-87 72t-100.5 55t-115.5 47v-737z" />
<glyph unicode="%" horiz-adv-x="1632" d="M102 1227q0 127 91 218t219 91t218.5 -91t90.5 -218t-90.5 -218t-218.5 -91t-219 91t-91 218zM143 1227q0 -110 79.5 -189.5t189.5 -79.5t189 79.5t79 189.5t-79 189t-189 79t-189.5 -79t-79.5 -189zM281 25q0 4 4 12l1015 1448q5 8 17 8q8 0 14 -5.5t6 -14.5 q0 -5 -4 -13l-1016 -1448q-5 -8 -16 -8q-8 0 -14 6t-6 15zM911 289q0 127 91 218t219 91q127 0 218 -91t91 -218t-91 -218t-218 -91q-128 0 -219 91t-91 218zM952 289q0 -110 79.5 -189.5t189.5 -79.5t189 79.5t79 189.5t-79 189t-189 79t-189.5 -79t-79.5 -189z" />
<glyph unicode="&#x26;" horiz-adv-x="1183" d="M133 397q0 76 21 140t62.5 115.5t84 88.5t102.5 78l-51 60q-62 73 -101.5 154.5t-39.5 150.5q0 149 83.5 250.5t227.5 101.5q117 0 204 -85t87 -206q0 -60 -18.5 -113t-44.5 -90.5t-72.5 -78t-82 -65.5t-93.5 -63q-25 -16 -37 -24l461 -543q32 56 57 119t34 96.5t9 38.5 q1 7 8 12t13 5q8 0 14 -5t6 -14v-6q-9 -35 -25 -84q-40 -116 -88 -197l172 -202q7 -7 7 -13q0 -7 -7.5 -14.5t-15.5 -7.5q-9 0 -14 8l-164 195q-146 -219 -361 -219q-188 0 -313 116.5t-125 300.5zM174 397q0 -166 112.5 -271.5t284.5 -105.5q195 0 332 211l-473 557 q-58 -39 -99 -74t-79.5 -82.5t-58 -106t-19.5 -128.5zM252 1184q0 -60 36 -133.5t95 -143.5l55 -65q12 8 48.5 32t50 33t45.5 31.5t45.5 35t38.5 35t36.5 39.5t28 41.5t23.5 47t12.5 50.5t5.5 58q0 103 -74.5 176.5t-175.5 73.5q-123 0 -196.5 -88t-73.5 -223z" />
<glyph unicode="'" horiz-adv-x="286" d="M123 1167v328q0 21 20 21q8 0 14.5 -5.5t6.5 -15.5v-328q0 -20 -21 -20q-20 0 -20 20z" />
<glyph unicode="(" horiz-adv-x="497" d="M102 584q0 171 27 331.5t62.5 265t76 189.5t62.5 118.5t28 39.5q5 8 17 8q8 0 14 -5.5t6 -14.5q0 -5 -4 -13q-16 -20 -39 -59q-106 -181 -157.5 -406t-51.5 -454t51.5 -454t157.5 -406l39 -60q4 -8 4 -12q0 -9 -6 -15t-14 -6q-11 0 -17 9q-6 6 -28 39.5t-62.5 118.5 t-76 189.5t-62.5 265t-27 331.5z" />
<glyph unicode=")" horiz-adv-x="497" d="M102 -348q0 4 4 12q16 21 39 60q106 181 157.5 406t51.5 454t-51.5 454t-157.5 406l-39 59q-4 8 -4 13q0 9 6.5 14.5t14.5 5.5q11 0 16 -8q6 -6 28 -39.5t62.5 -118.5t76 -189.5t62.5 -265t27 -331.5t-27 -331.5t-62.5 -265t-76 -189.5t-62.5 -118.5t-28 -39.5 q-6 -9 -16 -9q-8 0 -14.5 6t-6.5 15z" />
<glyph unicode="*" horiz-adv-x="1089" d="M102 766q0 9 11 16l391 226l-391 227q-11 7 -11 16q0 8 6 14.5t15 6.5q6 0 10 -2l391 -226v451q0 10 6.5 15.5t14.5 5.5q20 0 20 -21v-451l389 226q4 2 13 2q7 0 13.5 -6.5t6.5 -14.5q0 -10 -12 -16l-389 -225l389 -228q12 -6 12 -16q0 -8 -6.5 -14.5t-13.5 -6.5t-13 3 l-389 225v-451q0 -20 -20 -20q-21 0 -21 20v451l-391 -225q-6 -3 -10 -3q-9 0 -15 6.5t-6 14.5z" />
<glyph unicode="+" horiz-adv-x="1392" d="M41 737q0 21 20 21h615v614q0 21 20 21q8 0 14.5 -5.5t6.5 -15.5v-614h614q10 0 15.5 -6.5t5.5 -14.5q0 -20 -21 -20h-614v-615q0 -20 -21 -20q-20 0 -20 20v615h-615q-20 0 -20 20z" />
<glyph unicode="," horiz-adv-x="348" d="M0 -352q0 11 8 16q11 9 27 25q72 71 110.5 167.5t38.5 200.5q0 10 6.5 15.5t14.5 5.5q20 0 20 -21q0 -117 -51.5 -238.5t-140.5 -187.5q-4 -4 -13 -4t-14.5 6.5t-5.5 14.5z" />
<glyph unicode="-" horiz-adv-x="696" d="M102 735q0 8 5.5 14.5t15.5 6.5h450q10 0 15.5 -6.5t5.5 -14.5q0 -20 -21 -20h-450q-21 0 -21 20z" />
<glyph unicode="." horiz-adv-x="286" d="M104 39q0 15 12 27t27 12t27 -12t12 -27t-12 -27t-27 -12t-27 12t-12 27z" />
<glyph unicode="/" horiz-adv-x="606" d="M41 -215l483 1696q3 14 21 14q8 0 14 -5.5t6 -14.5v-7l-483 -1695q-3 -15 -21 -15q-8 0 -14 6t-6 15v6z" />
<glyph unicode="0" d="M123 406v704q0 177 124.5 301.5t301.5 124.5t301.5 -124.5t124.5 -301.5v-704q0 -177 -124.5 -301.5t-301.5 -124.5t-301.5 124.5t-124.5 301.5zM164 406q0 -160 112.5 -273t272.5 -113t272.5 113t112.5 273v704q0 160 -112.5 272.5t-272.5 112.5t-272.5 -112.5 t-112.5 -272.5v-704z" />
<glyph unicode="1" d="M184 20q0 8 5.5 14.5t15.5 6.5h385v1421l-332 -182q-2 -2 -8 -2q-9 0 -15 6t-6 14q0 12 13 19l340 192q18 11 28 11q9 0 15 -7t6 -18v-1454h385q20 0 20 -21q0 -20 -20 -20h-811q-21 0 -21 20z" />
<glyph unicode="2" d="M102 16q0 6 7 17l573 725q96 123 123 166q78 125 78 262q0 133 -99 221t-247 88q-61 0 -118 -19.5t-99 -51t-69.5 -59t-47.5 -56.5q-6 -9 -17 -9q-7 0 -13.5 6.5t-6.5 14.5q0 4 4 12q65 91 165 147t202 56q163 0 275 -98.5t112 -251.5q0 -89 -31 -172t-62 -128t-103 -136 l-4.5 -6t-4 -5t-4.5 -6l-547 -692h766q20 0 20 -21q0 -20 -20 -20h-809q-23 0 -23 16z" />
<glyph unicode="3" d="M143 201q0 7 6.5 13.5t14.5 6.5q13 0 18 -10q7 -11 19 -29q56 -75 134 -118.5t167 -43.5q163 0 274 104t111 261v2q0 157 -111 261t-274 104q-21 0 -21 20q0 8 5.5 14.5t15.5 6.5q161 0 262.5 97.5t101.5 254.5v2q0 157 -100.5 250.5t-263.5 93.5q-95 0 -184.5 -53.5 t-135.5 -137.5q-5 -10 -16 -10q-8 0 -15.5 6t-7.5 15q0 6 2 10q51 93 151 152t206 59q178 0 291.5 -104.5t113.5 -280.5v-2q0 -138 -72 -237t-194 -136q127 -39 207 -143t80 -242v-2q0 -116 -58 -209.5t-155 -144.5t-213 -51q-106 0 -206 58.5t-151 151.5q-2 4 -2 11z" />
<glyph unicode="4" d="M92 424q0 1 1 4t1 4q20 64 92 217q239 492 586 860q9 9 16 9q8 0 13.5 -7.5t5.5 -15.5v-1049h178q21 0 21 -20t-21 -20h-178v-386q0 -20 -21 -20q-20 0 -20 20v386h-653q-21 0 -21 18zM141 446h625v996q-195 -216 -359.5 -476t-265.5 -520z" />
<glyph unicode="5" d="M123 406q0 20 20 20q21 0 21 -20q0 -160 112.5 -273t272.5 -113t272.5 113t112.5 273v161q0 160 -112.5 272.5t-272.5 112.5q-90 0 -188.5 -31t-161.5 -87q-9 -9 -19 -9q-16 0 -16 21v6l102 647q2 6 8.5 11.5t12.5 5.5h620q10 0 15.5 -6.5t5.5 -14.5q0 -20 -21 -20h-602 l-92 -582q148 100 336 100q177 0 301.5 -124.5t124.5 -301.5v-161q0 -177 -124.5 -301.5t-301.5 -124.5t-301.5 124.5t-124.5 301.5z" />
<glyph unicode="6" d="M143 406v161q0 138 21.5 259.5t57.5 210t84 163.5t98.5 125t104.5 89.5t99 61.5t84 36.5t58 19t22 4.5h4q21 0 21 -20q0 -18 -17 -21q-37 -6 -92 -29q-109 -43 -195.5 -114.5t-145 -162t-95 -193t-53.5 -218.5q56 98 154.5 156.5t215.5 58.5q177 0 301.5 -124.5 t124.5 -301.5v-161q0 -177 -124.5 -301.5t-301.5 -124.5t-301.5 124.5t-124.5 301.5zM184 406q0 -160 112.5 -273t272.5 -113t272.5 113t112.5 273v161q0 160 -112.5 272.5t-272.5 112.5t-272.5 -112.5t-112.5 -272.5v-161z" />
<glyph unicode="7" d="M82 1495q0 21 20 21h852q9 0 15 -5.5t6 -13.5v-2v-2q-25 -180 -101 -453q-153 -550 -413 -1030q-5 -10 -17 -10q-8 0 -15 5.5t-7 14.5q0 7 2 11q179 330 314 710t192 734h-828q-20 0 -20 20z" />
<glyph unicode="8" d="M143 369q0 56 13 105t42 89.5t58 71t77.5 62.5t82 51t90.5 49q-56 30 -95.5 54.5t-83 61t-70.5 75t-44.5 91t-17.5 113.5q0 152 100 248t254 96q156 0 255 -95.5t99 -248.5q0 -61 -17.5 -113.5t-44.5 -91t-70.5 -75t-83 -61t-95.5 -54.5q48 -25 77.5 -41.5t72 -43.5 t69 -50t57 -56t47 -67t28 -77.5t11.5 -92.5q0 -163 -117.5 -274t-287.5 -111q-167 0 -286.5 112t-119.5 273zM184 369q0 -144 107 -244t258 -100q154 0 259 99t105 245q0 32 -4.5 61.5t-16.5 56t-22.5 48t-33 44.5t-36.5 38t-45.5 36t-46 31.5t-52.5 31t-52 28t-55 28.5 l-1 -1h-1l-1 -1h-1l-1 -1h-1l-1 -1h-1l-1 -1l-2 -1q-155 -80 -217 -130q-137 -109 -137 -267zM236 1192q0 -57 18 -106.5t44 -84.5t71 -70.5t83 -58t97 -53.5q59 31 97 53.5t83 58t71 70.5t44 84.5t18 106.5q0 135 -87 219t-226 84q-137 0 -225 -84.5t-88 -218.5z" />
<glyph unicode="9" d="M102 948v162q0 177 124.5 301.5t301.5 124.5t301.5 -124.5t124.5 -301.5v-162q0 -138 -21.5 -259.5t-57.5 -210t-83.5 -163.5t-98.5 -125t-104.5 -89t-99 -61t-84 -36.5t-57.5 -19t-22 -4.5h-4q-21 0 -21 20q0 17 16 20q38 6 93 29q109 43 195.5 114.5t145 162t95 193 t53.5 218.5q-56 -98 -155 -156.5t-216 -58.5q-177 0 -301.5 124.5t-124.5 301.5zM143 948q0 -160 112.5 -272.5t272.5 -112.5t272.5 112.5t112.5 272.5v162q0 160 -112.5 272.5t-272.5 112.5t-272.5 -112.5t-112.5 -272.5v-162z" />
<glyph unicode=":" horiz-adv-x="286" d="M104 39q0 15 12 27t27 12t27 -12t12 -27t-12 -27t-27 -12t-27 12t-12 27zM104 995q0 15 12 27t27 12t27 -12t12 -27t-12 -27t-27 -12t-27 12t-12 27z" />
<glyph unicode=";" horiz-adv-x="348" d="M0 -352q0 11 8 16q11 9 27 25q72 71 110.5 167.5t38.5 200.5q0 10 6.5 15.5t14.5 5.5q20 0 20 -21q0 -117 -51.5 -238.5t-140.5 -187.5q-4 -4 -13 -4t-14.5 6.5t-5.5 14.5zM166 995q0 15 12 27t27 12t27 -12t12 -27t-12 -27t-27 -12t-27 12t-12 27z" />
<glyph unicode="&#x3c;" horiz-adv-x="980" d="M61 743q0 8 7 15l755 682q6 6 15 6q7 0 13.5 -6.5t6.5 -14.5t-6 -14l-739 -668l739 -667q6 -6 6 -15q0 -7 -6 -13.5t-14 -6.5q-9 0 -15 6l-755 682q-7 7 -7 14z" />
<glyph unicode="=" horiz-adv-x="1228" d="M102 512q0 20 21 20h983q20 0 20 -20t-20 -20h-983q-21 0 -21 20zM102 963q0 20 21 20h983q20 0 20 -20q0 -21 -20 -21h-983q-10 0 -15.5 6.5t-5.5 14.5z" />
<glyph unicode="&#x3e;" horiz-adv-x="980" d="M123 61q0 9 6 15l739 667l-739 668q-6 6 -6 14t6.5 14.5t13.5 6.5q9 0 15 -6l755 -682q7 -7 7 -15q0 -7 -7 -14l-755 -682q-6 -6 -15 -6q-7 0 -13.5 6.5t-6.5 13.5z" />
<glyph unicode="?" horiz-adv-x="921" d="M102 1300q0 7 2 9q7 14 19 37q55 89 140.5 139.5t189.5 50.5q160 0 253 -90t93 -240q0 -83 -28.5 -153.5t-76.5 -124.5t-98.5 -101t-107 -106.5t-89.5 -116.5q-14 -24 -24 -46t-13 -32l-4 -10q-3 -14 -20 -14q-8 0 -14.5 5.5t-6.5 14.5v6q17 56 51 109t73.5 95t84 84.5 t85.5 84.5t74 87t53 101t20 117q0 132 -80.5 210.5t-224.5 78.5q-99 0 -186.5 -56.5t-125.5 -146.5q-6 -12 -18 -12q-8 0 -14.5 5.5t-6.5 14.5zM279 39q0 15 11.5 27t26.5 12t27 -12t12 -27t-12 -27t-27 -12t-26.5 12t-11.5 27z" />
<glyph unicode="@" horiz-adv-x="1703" d="M123 449v352q0 200 98.5 369t267.5 267.5t369 98.5t366.5 -99t261.5 -268t95 -368v-477q0 -108 -67 -190.5t-173 -82.5q-104 0 -164.5 61.5t-60.5 166.5v14q-53 -86 -143 -138.5t-191 -52.5q-137 0 -231 93t-94 231q0 51 6.5 115.5t17.5 142.5t15 117q15 148 129.5 252 t263.5 104q102 0 183 -53.5t118 -142.5l14 137q4 18 21 18q9 0 15 -6.5t5 -15.5l-84 -793q-8 -90 41 -149.5t139 -59.5q88 0 143.5 71t55.5 161v477q0 188 -89.5 347.5t-246.5 253t-346 93.5q-188 0 -348 -93t-253 -253t-93 -348v-352q0 -141 55 -269.5t148 -222 t221.5 -148.5t269.5 -55q157 0 293 74q8 4 10 4q9 0 15 -6.5t6 -15.5q0 -10 -11 -17q-126 -80 -313 -80q-150 0 -286 58.5t-234.5 157t-156.5 234.5t-58 286zM498 426q0 -121 82 -202t202 -81q130 0 234 88.5t117 214.5l38 353q14 130 -69 223.5t-213 93.5 q-132 0 -235.5 -93.5t-116.5 -225.5q-4 -38 -15 -115.5t-17.5 -141.5t-6.5 -114z" />
<glyph unicode="A" horiz-adv-x="1146" d="M61 18l2 9l492 1474q6 19 18 19q13 0 19 -19l491 -1474q2 -7 2 -11q0 -16 -20 -16q-12 0 -18 14l-164 490h-619l-164 -490q-6 -14 -18 -14q-21 0 -21 18zM279 545h589l-295 885z" />
<glyph unicode="B" horiz-adv-x="1118" d="M164 20v1475q0 8 6.5 14.5t13.5 6.5h426q155 0 265 -109t110 -264q0 -120 -70 -218t-180 -137q124 -40 202.5 -144.5t78.5 -237.5q0 -167 -119.5 -286.5t-286.5 -119.5h-426q-8 0 -14 6t-6 14zM205 41h405q151 0 258 107t107 258q0 150 -107 256t-258 106h-405v-727z M205 809h405q138 0 236 98t98 236t-98 235t-236 97h-405v-666z" />
<glyph unicode="C" horiz-adv-x="1140" d="M123 467v582q0 132 65.5 244t177.5 177.5t244 65.5q113 0 234 -48.5t188 -131.5q4 -4 4 -13q0 -7 -6 -13.5t-14 -6.5q-12 0 -17 8q-6 11 -22 25q-72 68 -168.5 103.5t-198.5 35.5q-184 0 -315 -130.5t-131 -315.5v-582q0 -185 131 -316t315 -131q106 0 217 43.5 t172 120.5q6 9 17 9q8 0 15 -7t7 -14q0 -6 -6 -12q-10 -13 -28 -29q-77 -74 -180 -112.5t-214 -38.5q-132 0 -244 65.5t-177.5 177.5t-65.5 244z" />
<glyph unicode="D" horiz-adv-x="1230" d="M164 20v1475q0 8 6.5 14.5t13.5 6.5h426q99 0 189 -39t155.5 -104.5t104.5 -155.5t39 -189v-541q0 -132 -65.5 -244t-178 -177.5t-244.5 -65.5h-426q-8 0 -14 6t-6 14zM205 41h405q185 0 316 131t131 315v541q0 184 -131.5 315.5t-315.5 131.5h-405v-1434z" />
<glyph unicode="E" horiz-adv-x="1075" d="M164 20v1475q0 8 6.5 14.5t13.5 6.5h768q10 0 15.5 -6.5t5.5 -14.5q0 -20 -21 -20h-747v-660h686q20 0 20 -20q0 -21 -20 -21h-686v-733h747q10 0 15.5 -6.5t5.5 -14.5q0 -20 -21 -20h-768q-8 0 -14 6t-6 14z" />
<glyph unicode="F" horiz-adv-x="1054" d="M164 20v1475q0 8 6.5 14.5t13.5 6.5h768q10 0 15.5 -6.5t5.5 -14.5q0 -20 -21 -20h-747v-660h686q20 0 20 -20q0 -21 -20 -21h-686v-754q0 -20 -21 -20q-20 0 -20 20z" />
<glyph unicode="G" horiz-adv-x="1220" d="M123 467v582q0 132 65.5 244t177.5 177.5t244 65.5q215 0 371 -130q26 -22 51 -50q8 -9 2.5 -20t-16 -13t-19.5 8q-8 11 -22 25q-72 68 -168.5 103.5t-198.5 35.5q-184 0 -315 -130.5t-131 -315.5v-582q0 -185 131 -316t315 -131t315.5 131t131.5 316v262h-430 q-20 0 -20 20.5t20 20.5h450q8 0 14.5 -6.5t6.5 -13.5v-283q0 -132 -65.5 -244t-178 -177.5t-244.5 -65.5t-244 65.5t-177.5 177.5t-65.5 244z" />
<glyph unicode="H" horiz-adv-x="1261" d="M164 20v1475q0 21 20 21q8 0 14.5 -5.5t6.5 -15.5v-676h852v676q0 21 20 21q8 0 14.5 -5.5t6.5 -15.5v-1475q0 -20 -21 -20q-20 0 -20 20v758h-852v-758q0 -20 -21 -20q-20 0 -20 20z" />
<glyph unicode="I" horiz-adv-x="860" d="M82 20q0 21 20 21h308v1434h-308q-20 0 -20 20q0 21 20 21h656q20 0 20 -21q0 -20 -20 -20h-307v-1434h307q20 0 20 -21q0 -20 -20 -20h-656q-20 0 -20 20z" />
<glyph unicode="J" horiz-adv-x="1046" d="M82 172q0 9 6 15t14 6q14 0 19 -11q6 -10 18 -24q56 -67 136.5 -102.5t170.5 -35.5q117 0 210.5 61t144.5 162.5t51 223.5v1008h-549q-20 0 -20 20q0 21 20 21h569q8 0 14.5 -7t6.5 -14v-1028q0 -130 -55 -241t-158.5 -178.5t-233.5 -67.5q-71 0 -134 19t-102.5 44.5 t-69 53.5t-42 45.5t-12.5 19.5q-4 4 -4 10z" />
<glyph unicode="K" horiz-adv-x="1224" d="M164 20v1475q0 21 20 21q8 0 14.5 -5.5t6.5 -15.5v-977l858 991q11 7 16 7q7 0 14 -7t7 -14q0 -2 -4 -14l-547 -629l610 -819q4 -4 4 -13t-6 -14.5t-14 -5.5q-12 0 -17 8l-604 813l-317 -366v-435q0 -20 -21 -20q-20 0 -20 20z" />
<glyph unicode="L" horiz-adv-x="1034" d="M164 20v1475q0 21 20 21q9 0 15 -6t6 -15v-1454h747q9 0 15 -6t6 -15q0 -20 -21 -20h-768q-8 0 -14 6t-6 14z" />
<glyph unicode="M" horiz-adv-x="1597" d="M164 25v1470q0 10 6 17.5t12 7.5q14 0 21 -17l596 -1425l596 1425q7 17 20 17q6 0 12.5 -7.5t6.5 -17.5v-1470q0 -10 -6.5 -15.5t-14.5 -5.5q-20 0 -20 21v1368l-576 -1377q-6 -16 -18 -16q-13 0 -19 16l-575 1377v-1368q0 -10 -6.5 -15.5t-14.5 -5.5q-20 0 -20 21z" />
<glyph unicode="N" horiz-adv-x="1261" d="M164 20v1475q0 10 5 17.5t13 7.5q12 0 21 -15l854 -1411v1401q0 21 20 21q8 0 14.5 -5.5t6.5 -15.5v-1475q0 -10 -5.5 -17t-13.5 -7q-12 0 -20 14l-854 1411v-1401q0 -20 -21 -20q-20 0 -20 20z" />
<glyph unicode="O" horiz-adv-x="1220" d="M123 467v582q0 132 65.5 244t177.5 177.5t244 65.5t244.5 -65.5t178 -177.5t65.5 -244v-582q0 -132 -65.5 -244t-178 -177.5t-244.5 -65.5t-244 65.5t-177.5 177.5t-65.5 244zM164 467q0 -185 131 -316t315 -131t315.5 131t131.5 316v582q0 184 -131 315t-316 131 q-184 0 -315 -130.5t-131 -315.5v-582z" />
<glyph unicode="P" horiz-adv-x="1099" d="M164 20v1475q0 8 6.5 14.5t13.5 6.5h365q127 0 235 -62.5t171 -170t63 -234.5q0 -193 -138 -331t-331 -138h-344v-560q0 -20 -21 -20q-20 0 -20 20zM205 621h344q177 0 302.5 125.5t125.5 302.5t-125.5 301.5t-302.5 124.5h-344v-854z" />
<glyph unicode="Q" horiz-adv-x="1220" d="M123 467v582q0 132 65.5 244t177.5 177.5t244 65.5t244.5 -65.5t178 -177.5t65.5 -244v-582q0 -196 -136 -337.5t-331 -149.5v-82q0 -98 69 -167t166 -69q21 0 21 -20q0 -8 -5.5 -14.5t-15.5 -6.5q-114 0 -195 81t-81 196v82q-195 8 -331 149.5t-136 337.5zM164 467 q0 -185 131 -316t315 -131t315.5 131t131.5 316v582q0 184 -131 315t-316 131q-184 0 -315 -130.5t-131 -315.5v-582z" />
<glyph unicode="R" horiz-adv-x="1122" d="M164 20v1475q0 8 6.5 14.5t13.5 6.5h365q127 0 235 -62.5t171 -170t63 -234.5q0 -163 -100.5 -289.5t-255.5 -165.5l354 -563q4 -8 4 -11q0 -9 -6.5 -14.5t-14.5 -5.5q-9 0 -16 10l-365 574q-23 -4 -69 -4h-344v-560q0 -20 -21 -20q-20 0 -20 20zM205 621h344 q177 0 302.5 125.5t125.5 302.5t-125.5 301.5t-302.5 124.5h-344v-854z" />
<glyph unicode="S" horiz-adv-x="1126" d="M123 166q0 9 6 14.5t14 5.5q12 0 17 -8q6 -10 20 -24q64 -67 154 -100.5t188 -33.5q192 0 316.5 98.5t124.5 252.5q0 78 -28.5 140t-76.5 103.5t-110 74.5t-131 59.5t-138 52.5t-131 59t-110 74t-76.5 102t-28.5 138q0 83 34 152t90.5 114.5t130.5 70.5t155 25 q112 0 228.5 -56t182.5 -145q4 -4 4 -12q0 -7 -6 -13.5t-14 -6.5q-11 0 -16 8q-9 12 -25 28q-70 73 -162 114.5t-192 41.5q-155 0 -262 -88t-107 -233q0 -90 46 -156t119 -106t161.5 -74t177 -71t161.5 -84t119 -126t46 -186q0 -116 -65 -206t-174.5 -137.5t-242.5 -47.5 q-210 0 -350 126q-19 18 -45 48q-4 8 -4 12z" />
<glyph unicode="T" horiz-adv-x="1064" d="M20 1495q0 8 5.5 14.5t15.5 6.5h983q20 0 20 -21q0 -20 -20 -20h-471v-1455q0 -20 -21 -20q-20 0 -20 20v1455h-471q-21 0 -21 20z" />
<glyph unicode="U" horiz-adv-x="1261" d="M143 467v1028q0 10 6.5 15.5t14.5 5.5q20 0 20 -21v-1028q0 -121 60 -224t163 -163t224 -60q184 0 315 131t131 316v1028q0 10 6.5 15.5t14.5 5.5q20 0 20 -21v-1028q0 -132 -65.5 -244t-177.5 -177.5t-244 -65.5t-244.5 65.5t-178 177.5t-65.5 244z" />
<glyph unicode="V" horiz-adv-x="1107" d="M41 1497q0 9 6 14t14 5q15 0 21 -15l471 -1431l473 1431q6 15 21 15q20 0 20 -17l-2 -10l-492 -1491q-6 -18 -20 -18q-12 0 -18 18l-492 1491q-2 4 -2 8z" />
<glyph unicode="W" horiz-adv-x="1847" d="M41 1497q0 8 7 13.5t15 5.5q6 0 13 -5t8 -12l389 -1421l430 1423q6 19 21 19q14 0 20 -19l430 -1423l389 1421q1 7 8 12t13 5q8 0 15 -5.5t7 -13.5l-2 -10l-409 -1489q-6 -18 -19 -18q-16 0 -22 18l-430 1425l-430 -1425q-6 -18 -21 -18q-14 0 -20 18l-410 1489 q-2 6 -2 10z" />
<glyph unicode="X" horiz-adv-x="1103" d="M82 20q0 3 4 11l442 757l-407 697q-4 8 -4 10q0 9 6 15t14 6q13 0 19 -11l397 -678l397 678q6 11 17 11q8 0 14 -6t6 -15q0 -6 -2 -10l-410 -697l445 -757q2 -4 2 -11q0 -9 -6.5 -14.5t-14.5 -5.5q-11 0 -16 10l-432 738l-432 -738q-5 -10 -19 -10q-8 0 -14 5.5t-6 14.5z " />
<glyph unicode="Y" horiz-adv-x="1105" d="M41 1495q0 9 6 15t14 6q13 0 19 -11l473 -792l473 792q6 11 18 11q8 0 14.5 -6t6.5 -15q0 -6 -2 -10l-490 -819v-646q0 -20 -20 -20q-21 0 -21 20v646l-489 819q-2 4 -2 10z" />
<glyph unicode="Z" horiz-adv-x="1116" d="M92 18q0 5 4 13l862 1444h-796q-21 0 -21 20q0 8 5.5 14.5t15.5 6.5h833q10 0 16.5 -5.5t6.5 -13.5q0 -4 -4 -12l-862 -1444h852q20 0 20 -21q0 -20 -20 -20h-889q-23 0 -23 18z" />
<glyph unicode="[" horiz-adv-x="559" d="M123 -369v1885q0 8 6.5 14t13.5 6h334q21 0 21 -20q0 -8 -5.5 -14.5t-15.5 -6.5h-313v-1843h313q10 0 15.5 -6.5t5.5 -14.5q0 -20 -21 -20h-334q-7 0 -13.5 6.5t-6.5 13.5z" />
<glyph unicode="\" horiz-adv-x="606" d="M41 1468v7q0 9 6 14.5t14 5.5q18 0 21 -14l483 -1696v-6q0 -9 -6 -15t-14 -6q-18 0 -21 15z" />
<glyph unicode="]" horiz-adv-x="559" d="M61 -369q0 8 5.5 14.5t15.5 6.5h313v1843h-313q-10 0 -15.5 6.5t-5.5 14.5q0 20 21 20h334q8 0 14 -6t6 -14v-1885q0 -7 -6 -13.5t-14 -6.5h-334q-21 0 -21 20z" />
<glyph unicode="^" horiz-adv-x="1011" d="M123 799q0 6 2 10l362 676q6 12 19 12q12 0 18 -12l363 -676q2 -4 2 -10q0 -9 -6.5 -15t-14.5 -6q-13 0 -18 10l-344 644l-344 -644q-5 -10 -19 -10q-8 0 -14 6t-6 15z" />
<glyph unicode="_" horiz-adv-x="942" d="M-41 -389q0 20 21 20h983q20 0 20 -20q0 -21 -20 -21h-983q-10 0 -15.5 6.5t-5.5 14.5z" />
<glyph unicode="`" horiz-adv-x="825" d="M281 1380q0 8 5.5 14.5t14.5 6.5l12 -4l224 -178q8 -5 8 -17q0 -8 -6 -14t-15 -6l-12 4l-223 178q-8 5 -8 16z" />
<glyph unicode="a" horiz-adv-x="897" d="M102 268q0 117 85 192.5t212 104.5l324 72v106q0 123 -73.5 197t-211.5 74q-166 0 -243 -119q-12 -16 -29 -6q-16 6 -8 26q84 140 280 140q152 0 239 -86.5t87 -225.5v-452q0 -137 -96 -224t-234 -87q-141 0 -236.5 77.5t-95.5 210.5zM143 270q0 -116 81.5 -183 t207.5 -67q124 0 207.5 76t83.5 195v305l-315 -72q-117 -26 -191 -91.5t-74 -162.5z" />
<glyph unicode="b" horiz-adv-x="993" d="M143 338v1157q0 9 6 15t15 6q20 0 20 -21v-633q45 87 130.5 140t187.5 53q149 0 253.5 -105t104.5 -254v-358q0 -149 -104.5 -253.5t-253.5 -104.5t-254 104.5t-105 253.5zM184 338q0 -132 93 -225t225 -93t224.5 93t92.5 225v358q0 132 -92.5 225t-224.5 93t-225 -93 t-93 -225v-358z" />
<glyph unicode="c" horiz-adv-x="864" d="M133 291v452q0 139 95 225.5t251 86.5q58 0 108 -13.5t78.5 -29.5t53 -39.5t30 -32t11.5 -18.5q8 -21 -8 -27q-17 -10 -29 6q-30 54 -95 83.5t-149 29.5q-139 0 -222 -75.5t-83 -195.5v-452q0 -120 83 -195.5t222 -75.5q84 0 149 29.5t95 83.5q12 16 29 6q16 -6 8 -26 q-6 -10 -11.5 -18.5t-30 -32t-53 -39.5t-78.5 -29.5t-108 -13.5q-156 0 -251 86t-95 225z" />
<glyph unicode="d" horiz-adv-x="993" d="M133 338v358q0 149 105 254t254 105q101 0 186.5 -53t130.5 -140v633q0 21 20 21q9 0 15 -6t6 -15v-1157q0 -149 -104.5 -253.5t-253.5 -104.5t-254 104.5t-105 253.5zM174 338q0 -132 93 -225t225 -93t224.5 93t92.5 225v358q0 132 -92.5 225t-224.5 93t-225 -93 t-93 -225v-358z" />
<glyph unicode="e" horiz-adv-x="972" d="M133 338v358q0 149 105 254t254 105t253.5 -105t104.5 -254v-123q0 -7 -6.5 -13.5t-14.5 -6.5h-655v-215q0 -129 102 -223.5t236 -94.5q74 0 151.5 29.5t114.5 85.5q5 6 13 8.5t14 -0.5q18 -11 8 -28l-1 -1q-56 -75 -158 -111q-66 -23 -142 -23q-150 0 -264.5 105.5 t-114.5 252.5zM174 594h635v102q0 132 -92.5 225t-224.5 93t-225 -93t-93 -225v-102z" />
<glyph unicode="f" horiz-adv-x="690" d="M20 1014q0 20 21 20h227v254q0 106 76 177t195 71q89 0 161 -47q11 -5 11 -16q0 -8 -6 -14.5t-13 -6.5q-8 0 -12 2q-68 41 -141 41q-102 0 -166 -59.5t-64 -147.5v-254h348q21 0 21 -20q0 -8 -5.5 -14.5t-15.5 -6.5h-348v-973q0 -20 -20 -20q-21 0 -21 20v973h-227 q-10 0 -15.5 6.5t-5.5 14.5z" />
<glyph unicode="g" horiz-adv-x="993" d="M133 369v327q0 149 105 254t254 105t253.5 -105t104.5 -254v-747q0 -149 -104.5 -254t-253.5 -105q-56 0 -107 13t-81.5 28.5t-58.5 38t-35.5 31.5t-15.5 19h-1v1q-4 8 -2 16t10 13q13 10 26 -8q97 -111 265 -111q132 0 224.5 93t92.5 225v254q-45 -87 -130.5 -140 t-186.5 -53q-149 0 -254 105t-105 254zM174 369q0 -132 93 -225t225 -93t224.5 93t92.5 225v327q0 132 -92.5 225t-224.5 93t-225 -93t-93 -225v-327z" />
<glyph unicode="h" horiz-adv-x="1003" d="M143 20v1475q0 9 6 15t15 6q20 0 20 -21v-633q45 87 130.5 140t187.5 53q149 0 253.5 -105t104.5 -254v-676q0 -20 -20 -20q-21 0 -21 20v676q0 132 -92.5 225t-224.5 93t-225 -93t-93 -225v-676q0 -20 -20 -20q-21 0 -21 20z" />
<glyph unicode="i" horiz-adv-x="323" d="M123 1448q0 15 12 27t27 12t27 -12t12 -27t-12 -27t-27 -12t-27 12t-12 27zM141 20v994q0 7 6.5 13.5t14.5 6.5t14 -6t6 -14v-994q0 -8 -6 -14t-14 -6t-14.5 6.5t-6.5 13.5z" />
<glyph unicode="j" horiz-adv-x="346" d="M-20 -389q0 3 19 20.5t46 49.5t54 76.5t46 114t19 148.5v994q0 8 6 14t14 6q9 0 15 -6t6 -14v-994q0 -119 -52 -240t-141 -186q-8 -4 -12 -4q-20 0 -20 21zM145 1448q0 15 12 27t27 12t27 -12t12 -27t-12 -27t-27 -12t-27 12t-12 27z" />
<glyph unicode="k" horiz-adv-x="882" d="M143 20v1475q0 9 6 15t15 6q20 0 20 -21v-1112l555 649q15 16 29 2q15 -15 2 -28l-352 -414l420 -557q11 -18 -4 -29q-6 -6 -15 -5t-14 7l-416 553l-205 -242v-299q0 -20 -20 -20q-21 0 -21 20z" />
<glyph unicode="l" horiz-adv-x="368" d="M143 281v1214q0 7 6.5 14t14.5 7q7 0 13.5 -6.5t6.5 -14.5v-1214q0 -86 31 -156.5t100 -106.5q13 -6 13 -18q0 -8 -6 -14t-15 -6q-17 0 -33 16q-67 41 -99 119t-32 166z" />
<glyph unicode="m" horiz-adv-x="1515" d="M143 20v717q0 132 93 225t225 93q100 0 181.5 -57t115.5 -148q34 91 115.5 148t181.5 57q132 0 224.5 -93t92.5 -225v-717q0 -20 -20 -20q-21 0 -21 20v717q0 116 -80.5 196.5t-195.5 80.5t-196 -81t-81 -196v-717q0 -20 -20 -20q-21 0 -21 20v717q0 116 -80.5 196.5 t-195.5 80.5t-196 -81t-81 -196v-717q0 -20 -20 -20q-21 0 -21 20z" />
<glyph unicode="n" horiz-adv-x="1003" d="M143 20v676q0 149 105 254t254 105t253.5 -105t104.5 -254v-676q0 -20 -20 -20q-21 0 -21 20v676q0 132 -92.5 225t-224.5 93t-225 -93t-93 -225v-676q0 -20 -20 -20q-21 0 -21 20z" />
<glyph unicode="o" horiz-adv-x="983" d="M133 338v358q0 149 105 254t254 105t253.5 -105t104.5 -254v-358q0 -149 -104.5 -253.5t-253.5 -104.5t-254 104.5t-105 253.5zM174 338q0 -132 93 -225t225 -93t224.5 93t92.5 225v358q0 132 -92.5 225t-224.5 93t-225 -93t-93 -225v-358z" />
<glyph unicode="p" horiz-adv-x="993" d="M143 -389v1085q0 149 105 254t254 105t253.5 -105t104.5 -254v-358q0 -149 -104.5 -253.5t-253.5 -104.5q-102 0 -187.5 52.5t-130.5 139.5v-561q0 -21 -20 -21q-9 0 -15 6t-6 15zM184 338q0 -132 93 -225t225 -93t224.5 93t92.5 225v358q0 132 -92.5 225t-224.5 93 t-225 -93t-93 -225v-358z" />
<glyph unicode="q" horiz-adv-x="993" d="M133 338v358q0 149 105 254t254 105t253.5 -105t104.5 -254v-1085q0 -9 -6 -15t-15 -6q-20 0 -20 21v561q-45 -87 -130 -139.5t-187 -52.5q-149 0 -254 104.5t-105 253.5zM174 338q0 -132 93 -225t225 -93t224.5 93t92.5 225v358q0 132 -92.5 225t-224.5 93t-225 -93 t-93 -225v-358z" />
<glyph unicode="r" horiz-adv-x="735" d="M143 20v662q0 165 83.5 269t234.5 104q59 0 122 -24t103 -64q14 -15 0 -29t-29 0q-4 4 -12 10q-82 66 -184 66q-131 0 -204 -90t-73 -242v-662q0 -20 -20 -20q-21 0 -21 20z" />
<glyph unicode="s" horiz-adv-x="827" d="M102 115q0 7 6.5 13.5t14.5 6.5q11 0 16 -8q95 -107 246 -107q55 0 107.5 15.5t95.5 44.5t69.5 76.5t26.5 105.5q0 53 -19.5 95t-53 69t-76.5 48.5t-90.5 38t-95.5 33.5t-91 39t-76.5 50t-53 70.5t-19.5 97.5q0 116 85.5 184t204.5 68q80 0 158.5 -39.5t120.5 -104.5 q2 -4 2 -10q0 -9 -6.5 -14.5t-14.5 -5.5q-9 0 -16 10q-104 123 -244 123q-102 0 -175.5 -56t-73.5 -155q0 -54 24.5 -94.5t65 -64.5t92.5 -46.5t105.5 -38.5t105.5 -42t92.5 -56.5t65 -81.5t24.5 -117q0 -88 -51 -154t-127 -97t-162 -31q-79 0 -158 32t-121 90q-4 8 -4 13z " />
<glyph unicode="t" horiz-adv-x="794" d="M20 1014q0 20 21 20h227v301q0 9 6 15t15 6q20 0 20 -21v-301h404q20 0 20 -20q0 -21 -20 -21h-404v-766q0 -94 67 -150.5t163 -56.5q95 0 180 68q6 6 14 6t14.5 -6.5t6.5 -13.5q0 -12 -23 -29q-87 -65 -192 -65q-113 0 -192 68t-79 179v766h-227q-9 0 -15 6t-6 15z" />
<glyph unicode="u" horiz-adv-x="1003" d="M143 338v676q0 20 21 20q20 0 20 -20v-676q0 -130 94 -224t224 -94t223.5 93.5t93.5 224.5v676q0 20 21 20q20 0 20 -20v-676q0 -149 -104.5 -253.5t-253.5 -104.5t-254 104.5t-105 253.5z" />
<glyph unicode="v" horiz-adv-x="942" d="M61 1014q0 9 6.5 14.5t14.5 5.5q15 0 18 -12l371 -965l371 965q3 12 18 12q8 0 14.5 -5.5t6.5 -14.5q0 -4 -89.5 -237.5t-194 -503t-108.5 -281.5q-9 -17 -18 -17t-18 17q-4 12 -108.5 281.5t-194 503t-89.5 237.5z" />
<glyph unicode="w" horiz-adv-x="1433" d="M61 1014q0 9 6.5 14.5t14.5 5.5q16 0 20 -14l287 -952l309 952q4 18 19 18t20 -18l307 -952l289 952q3 14 19 14q8 0 14 -5.5t6 -14.5q0 -6 -307 -1020q-2 -7 -8 -13t-13 -6q-13 0 -18 19l-309 952l-307 -952q-2 -7 -8 -13t-13 -6q-13 0 -18 19q-2 8 -85.5 279.5 t-154 503.5t-70.5 237z" />
<glyph unicode="x" horiz-adv-x="872" d="M82 20q0 3 4 11l328 497l-314 476q-4 8 -4 10q0 9 6.5 14.5t14.5 5.5q9 0 16 -10l303 -461l303 461q7 10 17 10q8 0 14 -5.5t6 -14.5q0 -2 -4 -10l-313 -476l327 -497q5 -10 5 -11q0 -9 -6.5 -14.5t-14.5 -5.5q-9 0 -16 10l-318 484l-317 -484q-7 -10 -17 -10 q-8 0 -14 5.5t-6 14.5z" />
<glyph unicode="y" horiz-adv-x="903" d="M61 1014q0 9 6.5 14.5t14.5 5.5q14 0 20 -14l342 -957l359 957q6 14 18 14q8 0 14.5 -5.5t6.5 -14.5q0 -6 -2 -8l-531 -1424q-5 -12 -18 -12q-8 0 -14.5 5.5t-6.5 14.5q0 5 2 7l152 407l-361 1004q0 1 -1 3t-1 3z" />
<glyph unicode="z" horiz-adv-x="854" d="M72 16q0 11 4 15l629 962h-564q-20 0 -20 21q0 20 20 20h602q21 0 21 -16q0 -10 -4 -14l-629 -963h621q20 0 20 -21q0 -20 -20 -20h-658q-22 0 -22 16z" />
<glyph unicode="{" horiz-adv-x="688" d="M20 584q0 20 21 20q88 0 149.5 60.5t61.5 148.5v473q0 104 73 177t177 73h104q21 0 21 -20q0 -8 -5.5 -14.5t-15.5 -6.5h-104q-88 0 -148.5 -60.5t-60.5 -148.5v-473q0 -76 -42 -137.5t-110 -91.5q68 -30 110 -93t42 -139v-471q0 -87 59.5 -149t145.5 -62h108 q21 0 21 -20q0 -8 -5.5 -14.5t-15.5 -6.5h-108q-102 0 -174 74.5t-72 177.5v471q0 88 -61.5 149.5t-149.5 61.5q-10 0 -15.5 6.5t-5.5 14.5z" />
<glyph unicode="|" horiz-adv-x="450" d="M205 -389v1884q0 21 20 21q8 0 14.5 -5.5t6.5 -15.5v-1884q0 -10 -6.5 -15.5t-14.5 -5.5q-20 0 -20 21z" />
<glyph unicode="}" horiz-adv-x="688" d="M61 -350q0 20 21 20h108q86 0 145.5 62t59.5 149v471q0 76 42 139t110 93q-68 30 -110 91.5t-42 137.5v473q0 88 -60.5 148.5t-148.5 60.5h-104q-10 0 -15.5 6.5t-5.5 14.5q0 20 21 20h104q104 0 177 -73t73 -177v-473q0 -88 61.5 -148.5t149.5 -60.5q21 0 21 -20 q0 -8 -5.5 -14.5t-15.5 -6.5q-88 0 -149.5 -61.5t-61.5 -149.5v-471q0 -103 -72 -177.5t-174 -74.5h-108q-10 0 -15.5 6.5t-5.5 14.5z" />
<glyph unicode="~" horiz-adv-x="890" d="M102 782q0 6 17 31q84 105 192 105q48 0 86.5 -18t60 -39.5t53 -39.5t67.5 -18q54 0 102.5 27.5t67.5 74.5q6 13 18 13q8 0 15 -6t7 -15q0 -8 -14 -29q-62 -106 -196 -106q-43 0 -78.5 18t-56.5 39.5t-55.5 39.5t-76.5 18q-49 0 -96 -30t-74 -75q-5 -10 -16 -10 q-9 0 -16 5.5t-7 14.5z" />
<glyph unicode="&#xa1;" horiz-adv-x="286" d="M104 1067q0 15 12 27t27 12t27 -12t12 -27t-12 -27t-27 -12t-27 12t-12 27zM123 -389v973q0 20 20 20q21 0 21 -20v-973q0 -10 -6.5 -15.5t-14.5 -5.5q-20 0 -20 21z" />
<glyph unicode="&#xa2;" horiz-adv-x="831" d="M123 526v453q0 134 87.5 219t233.5 92v226q0 20 21 20q20 0 20 -20v-226q55 -2 102 -16t73.5 -29.5t50 -38.5t28.5 -31t11 -18q8 -20 -9 -27q-16 -9 -28 7q-28 51 -89.5 80t-138.5 32v-993q77 3 138 32.5t90 80.5q12 16 28 6q17 -7 9 -27q-6 -10 -11 -18t-28.5 -31 t-50 -38.5t-73.5 -29.5t-102 -16v-215q0 -20 -20 -20q-21 0 -21 20v215q-146 7 -233.5 92t-87.5 219zM164 526q0 -115 75.5 -189t204.5 -81v993q-129 -7 -204.5 -81t-75.5 -189v-453z" />
<glyph unicode="&#xa3;" horiz-adv-x="1099" d="M102 12q0 10 25 43q100 126 100 305v273h-102q-21 0 -21 20q0 8 5.5 14.5t15.5 6.5h102v416q0 188 113 317t293 129q111 0 202 -48.5t144 -141.5l16 -37q2 -2 2 -6q0 -9 -6 -15t-14 -6q-13 0 -19 14q-6 11 -16 29q-46 83 -127.5 126.5t-181.5 43.5q-160 0 -262.5 -116 t-102.5 -289v-416h310q20 0 20 -21q0 -20 -20 -20h-310v-273q0 -184 -100 -319h485q97 0 194 40.5t132 119.5q6 12 18 12q8 0 14.5 -5.5t6.5 -14.5q0 -5 -2 -9q-6 -12 -11.5 -22t-36 -43.5t-67 -56t-103 -42.5t-145.5 -20h-528q-23 0 -23 12z" />
<glyph unicode="&#xa5;" horiz-adv-x="1126" d="M51 1495q0 9 6.5 15t14.5 6q12 0 18 -11l473 -792l475 792q6 11 17 11q8 0 14 -6t6 -15q0 -6 -2 -10l-489 -819v-99h305q20 0 20 -20q0 -21 -20 -21h-305v-211h305q20 0 20 -20q0 -21 -20 -21h-305v-254q0 -20 -21 -20q-20 0 -20 20v254h-305q-10 0 -15.5 6.5t-5.5 14.5 q0 20 21 20h305v211h-305q-10 0 -15.5 6.5t-5.5 14.5q0 20 21 20h305v99l-488 819q-4 8 -4 10z" />
<glyph unicode="&#xa6;" horiz-adv-x="450" d="M205 -389v829q0 21 20 21q8 0 14.5 -5.5t6.5 -15.5v-829q0 -10 -6.5 -15.5t-14.5 -5.5q-20 0 -20 21zM205 666v829q0 21 20 21q8 0 14.5 -5.5t6.5 -15.5v-829q0 -10 -6.5 -15.5t-14.5 -5.5q-20 0 -20 21z" />
<glyph unicode="&#xa7;" horiz-adv-x="1126" d="M125.5 -193.5q5.5 10.5 16 11.5t18.5 -8q8 -11 20 -25q64 -66 154 -99.5t188 -33.5q192 0 316.5 98t124.5 252q0 78 -28.5 138.5t-76.5 99.5t-110 69t-131 53t-138 45.5t-131 52.5t-110 68.5t-76.5 98.5t-28.5 137q0 122 68 209q-68 81 -68 201q0 83 34 152t90.5 114.5 t130.5 70.5t155 25q112 0 228.5 -56t182.5 -145q8 -9 3 -19.5t-15 -12t-20 7.5q-9 12 -25 28q-71 72 -163 114t-191 42q-155 0 -262 -88t-107 -233q0 -71 28.5 -125.5t76.5 -89.5t110 -62.5t131 -50t138 -46t131 -56t110 -75t76.5 -108t28.5 -149.5q0 -112 -62 -203 q62 -84 62 -207q0 -116 -65 -206t-174.5 -137.5t-242.5 -47.5q-210 0 -350 126q-19 18 -45 48q-7 11 -1.5 21.5zM174 764q0 -72 29.5 -127.5t80.5 -91t114 -63t136 -51.5t140 -48t132 -60t107 -81q50 79 50 170q0 79 -28.5 139.5t-78.5 99.5t-111.5 68.5t-133.5 53.5 t-138.5 46t-132.5 54t-109 71q-57 -75 -57 -180z" />
<glyph unicode="&#xa8;" horiz-adv-x="825" d="M225 1255q0 15 12 27t27 12t27 -12t12 -27t-12 -26.5t-27 -11.5t-27 11.5t-12 26.5zM514 1255q0 15 12 27t27 12t27 -12t12 -27t-12 -26.5t-27 -11.5t-27 11.5t-12 26.5z" />
<glyph unicode="&#xa9;" horiz-adv-x="1736" d="M102 756q0 156 60.5 299t163 247.5t244.5 167t298 62.5t298 -62.5t244.5 -167t163 -247.5t60.5 -299t-60.5 -299t-163 -247.5t-244.5 -167t-298 -62.5t-298 62.5t-244.5 167t-163 247.5t-60.5 299zM143 756q0 -148 57.5 -284t155 -235t231.5 -158t281 -59t281 59 t231.5 158t155 235t57.5 284t-57.5 283.5t-155 234.5t-231.5 158t-281 59t-281 -59t-231.5 -158t-155 -234.5t-57.5 -283.5zM559 592v323q0 125 88.5 213.5t212.5 88.5q70 0 143.5 -29.5t114.5 -81.5q6 -6 6 -12q0 -8 -7.5 -15.5t-14.5 -7.5q-10 0 -15 8q-6 7 -14 15 q-88 82 -213 82q-107 0 -183.5 -77t-76.5 -184v-323q0 -107 76.5 -183.5t183.5 -76.5q61 0 126 25.5t101 70.5q4 6 15 6q8 0 15 -6.5t7 -13.5t-6 -13q-4 -8 -16 -18q-100 -92 -242 -92q-124 0 -212.5 88.5t-88.5 212.5z" />
<glyph unicode="&#xaa;" horiz-adv-x="907" d="M123 750q0 117 85 192.5t212 104.5l323 71v107q0 123 -73.5 196.5t-210.5 73.5q-167 0 -244 -119q-12 -16 -29 -6q-16 6 -8 27q7 12 11.5 19t30 33t53 42t78 30.5t108.5 14.5q152 0 238.5 -86t86.5 -225v-453q0 -137 -95.5 -224t-233.5 -87q-141 0 -236.5 78t-95.5 211z M164 752q0 -116 81.5 -183t207.5 -67q124 0 207 75.5t83 194.5v305l-315 -71q-117 -26 -190.5 -91.5t-73.5 -162.5z" />
<glyph unicode="&#xab;" horiz-adv-x="925" d="M102 516q0 7 7 14l364 326q6 6 14 6t14.5 -6.5t6.5 -13.5q0 -9 -6 -15l-348 -311l348 -311q6 -6 6 -15q0 -7 -6.5 -13.5t-14.5 -6.5t-14 6l-364 326q-7 7 -7 14zM377 516q0 8 6 14l365 326q6 6 14 6t14 -6t6 -14q0 -9 -6 -15l-348 -311l348 -311q6 -6 6 -15q0 -8 -6 -14 t-14 -6t-14 6l-365 326q-6 6 -6 14z" />
<glyph unicode="&#xad;" horiz-adv-x="696" d="M102 735q0 8 5.5 14.5t15.5 6.5h450q10 0 15.5 -6.5t5.5 -14.5q0 -20 -21 -20h-450q-21 0 -21 20z" />
<glyph unicode="&#xae;" horiz-adv-x="1736" d="M102 756q0 156 60.5 299t163 247.5t244.5 167t298 62.5t298 -62.5t244.5 -167t163 -247.5t60.5 -299t-60.5 -299t-163 -247.5t-244.5 -167t-298 -62.5t-298 62.5t-244.5 167t-163 247.5t-60.5 299zM143 756q0 -148 57.5 -284t155 -235t231.5 -158t281 -59t281 59 t231.5 158t155 235t57.5 284t-57.5 283.5t-155 234.5t-231.5 158t-281 59t-281 -59t-231.5 -158t-155 -234.5t-57.5 -283.5zM625 307v885q0 8 6.5 14t13.5 6h219q120 0 204.5 -84t84.5 -204q0 -97 -58.5 -175t-150.5 -104l207 -328q4 -8 4 -10q0 -9 -6 -14.5t-14 -5.5 q-12 0 -19 10l-215 340q-12 -2 -37 -2h-198v-328q0 -20 -21 -20q-20 0 -20 20zM666 676h198q103 0 175.5 72.5t72.5 175.5t-72.5 175t-175.5 72h-198v-495z" />
<glyph unicode="&#xaf;" horiz-adv-x="825" d="M231 1264q0 20 21 20h323q19 0 19 -20q0 -21 -19 -21h-323q-10 0 -15.5 6.5t-5.5 14.5z" />
<glyph unicode="&#xb0;" horiz-adv-x="735" d="M102 1270q0 110 78 188t187 78q110 0 188 -77.5t78 -186.5q0 -110 -77.5 -188t-186.5 -78q-110 0 -188.5 77.5t-78.5 186.5zM143 1272q0 -94 65.5 -159.5t158.5 -65.5q94 0 159.5 65.5t65.5 159.5v-2q0 94 -65.5 159.5t-157.5 65.5q-94 0 -160 -65.5t-66 -157.5z" />
<glyph unicode="&#xb1;" horiz-adv-x="1392" d="M41 737q0 21 20 21h615v614q0 21 20 21q8 0 14.5 -5.5t6.5 -15.5v-614h614q10 0 15.5 -6.5t5.5 -14.5q0 -20 -21 -20h-614v-594q0 -10 -6.5 -15.5t-14.5 -5.5q-20 0 -20 21v594h-615q-20 0 -20 20zM47 20q0 8 5.5 14.5t15.5 6.5h1269q10 0 15.5 -6.5t5.5 -14.5 q0 -20 -21 -20h-1269q-21 0 -21 20z" />
<glyph unicode="&#xb4;" horiz-adv-x="825" d="M281 1202q0 12 8 17l223 178q4 4 12 4q9 0 15 -6.5t6 -14.5q0 -11 -8 -16l-224 -178q-6 -4 -12 -4q-9 0 -14.5 6t-5.5 14z" />
<glyph unicode="&#xb6;" horiz-adv-x="1089" d="M61 1049q0 127 63 234.5t171 170t235 62.5h365q7 0 13.5 -6.5t6.5 -14.5v-1700q0 -20 -20 -20q-21 0 -21 20v1680h-260v-1680q0 -20 -20 -20q-21 0 -21 20v785h-43q-127 0 -235 63t-171 171t-63 235z" />
<glyph unicode="&#xb7;" horiz-adv-x="286" d="M104 727q0 15 12 27t27 12t27 -12t12 -27t-12 -27t-27 -12t-27 12t-12 27z" />
<glyph unicode="&#xb8;" horiz-adv-x="813" d="M362 -127l48 131q6 14 18 14q21 0 21 -18l-3 -8l-34 -105q43 -9 71.5 -44.5t28.5 -80.5q0 -54 -37.5 -91.5t-91.5 -37.5q-10 0 -15.5 6.5t-5.5 14.5q0 20 21 20q35 0 61.5 26.5t26.5 61.5t-26.5 60.5t-61.5 25.5q-11 0 -17.5 8t-3.5 17z" />
<glyph unicode="&#xba;" horiz-adv-x="962" d="M123 819v359q0 149 104.5 253.5t253.5 104.5t254 -104.5t105 -253.5v-359q0 -149 -105 -253.5t-254 -104.5t-253.5 104.5t-104.5 253.5zM164 819q0 -132 92.5 -224.5t224.5 -92.5t225 92.5t93 224.5v359q0 132 -93 224.5t-225 92.5t-224.5 -92.5t-92.5 -224.5v-359z" />
<glyph unicode="&#xbb;" horiz-adv-x="925" d="M143 190q0 8 7 15l348 311l-348 311q-7 7 -7 15q0 7 6.5 13.5t14.5 6.5t14 -6l365 -326q6 -6 6 -14t-6 -14l-365 -326q-6 -6 -14 -6t-14.5 6.5t-6.5 13.5zM418 190q0 9 6 15l348 311l-348 311q-6 6 -6 15q0 8 6 14t14 6q9 0 15 -6l364 -326q6 -6 6 -14t-6 -14l-364 -326 q-6 -6 -15 -6q-8 0 -14 6t-6 14z" />
<glyph unicode="&#xbf;" horiz-adv-x="880" d="M102 -100q0 83 28.5 153.5t76.5 124.5t98.5 101t107 106.5t89.5 116.5q14 24 24 46t14 32l3 10q3 14 20 14q8 0 14.5 -5.5t6.5 -14.5v-6q-17 -56 -51 -109t-73.5 -95t-84 -84.5t-85.5 -84.5t-74 -87t-53 -101t-20 -117q0 -132 81 -210.5t225 -78.5q99 0 186 56.5 t125 146.5q6 12 18 12q8 0 14.5 -6t6.5 -15q0 -6 -2 -8q-7 -14 -19 -37q-55 -89 -140 -139.5t-189 -50.5q-160 0 -253.5 90t-93.5 240zM524 1067q0 15 12 27t27 12t27 -12t12 -27t-12 -27t-27 -12t-27 12t-12 27z" />
<glyph unicode="&#xc0;" horiz-adv-x="1146" d="M61 18l2 9l492 1474q6 19 18 19q13 0 19 -19l491 -1474q2 -7 2 -11q0 -16 -20 -16q-12 0 -18 14l-164 490h-619l-164 -490q-6 -14 -18 -14q-21 0 -21 18zM279 545h589l-295 885zM440 1862q0 8 6 14t15 6l12 -4l223 -178q9 -6 9 -17q0 -8 -6 -14t-15 -6l-12 4l-223 178 q-9 6 -9 17z" />
<glyph unicode="&#xc1;" horiz-adv-x="1146" d="M61 18l2 9l492 1474q6 19 18 19q13 0 19 -19l491 -1474q2 -7 2 -11q0 -16 -20 -16q-12 0 -18 14l-164 490h-619l-164 -490q-6 -14 -18 -14q-21 0 -21 18zM279 545h589l-295 885zM440 1683q0 11 9 17l223 178q4 4 12 4q9 0 15 -6t6 -14q0 -11 -9 -17l-223 -178 q-6 -4 -12 -4q-9 0 -15 6t-6 14z" />
<glyph unicode="&#xc2;" horiz-adv-x="1146" d="M61 18l2 9l492 1474q6 19 18 19q13 0 19 -19l491 -1474q2 -7 2 -11q0 -16 -20 -16q-12 0 -18 14l-164 490h-619l-164 -490q-6 -14 -18 -14q-21 0 -21 18zM279 545h589l-295 885zM389 1704q0 6 8 14l162 158q6 6 14 6q7 0 13 -6l162 -158q8 -8 8 -14q0 -7 -7.5 -14 t-15.5 -7q-5 0 -12 7l-148 143l-149 -143q-7 -7 -12 -7q-8 0 -15.5 7t-7.5 14z" />
<glyph unicode="&#xc3;" horiz-adv-x="1146" d="M61 18l2 9l492 1474q6 19 18 19q13 0 19 -19l491 -1474q2 -7 2 -11q0 -16 -20 -16q-12 0 -18 14l-164 490h-619l-164 -490q-6 -14 -18 -14q-21 0 -21 18zM279 545h589l-295 885zM346 1700q0 2 4 10q2 4 8 14q53 82 129 82q32 0 57.5 -12.5t39.5 -27.5t33.5 -27.5 t41.5 -12.5q34 0 59 18t34 36l8 18q6 14 18 14q8 0 15.5 -6t7.5 -14q0 -1 -1 -3t-1 -3q-4 -7 -8 -17q-44 -83 -132 -83q-28 0 -52 12.5t-38 27t-35.5 27t-46.5 12.5q-31 0 -58 -21.5t-42 -51.5q-7 -13 -18 -13q-8 0 -15.5 7t-7.5 14z" />
<glyph unicode="&#xc4;" horiz-adv-x="1146" d="M61 18l2 9l492 1474q6 19 18 19q13 0 19 -19l491 -1474q2 -7 2 -11q0 -16 -20 -16q-12 0 -18 14l-164 490h-619l-164 -490q-6 -14 -18 -14q-21 0 -21 18zM279 545h589l-295 885zM389 1737q0 15 12 27t27 12t27 -12t12 -27t-12 -27t-27 -12t-27 12t-12 27zM678 1737 q0 15 12 27t27 12t27 -12t12 -27t-12 -27t-27 -12t-27 12t-12 27z" />
<glyph unicode="&#xc5;" horiz-adv-x="1146" d="M61 18l2 9l492 1474q6 19 18 19q13 0 19 -19l491 -1474q2 -7 2 -11q0 -16 -20 -16q-12 0 -18 14l-164 490h-619l-164 -490q-6 -14 -18 -14q-21 0 -21 18zM279 545h589l-295 885zM434 1802q0 57 40 97t97 40t98.5 -40t41.5 -97t-41.5 -98t-98.5 -41t-97 41t-40 98z M475 1802q0 -40 28 -69t68 -29t69.5 29t29.5 69q0 39 -29.5 67.5t-69.5 28.5t-68 -28t-28 -68z" />
<glyph unicode="&#xc6;" horiz-adv-x="1914" d="M0 20q0 5 4 13l975 1462q13 21 37 21h756q20 0 20 -21q0 -20 -20 -20h-748v-660h686q21 0 21 -20q0 -8 -5.5 -14.5t-15.5 -6.5h-686v-733h748q20 0 20 -21q0 -20 -20 -20h-768q-21 0 -21 20v484h-614l-332 -496q-5 -8 -17 -8q-8 0 -14 5.5t-6 14.5zM395 545h588v882z" />
<glyph unicode="&#xc7;" horiz-adv-x="1140" d="M123 467v582q0 132 65.5 244t177.5 177.5t244 65.5q113 0 234 -48.5t188 -131.5q4 -4 4 -13q0 -7 -6 -13.5t-14 -6.5q-12 0 -17 8q-6 11 -22 25q-72 68 -168.5 103.5t-198.5 35.5q-184 0 -315 -130.5t-131 -315.5v-582q0 -185 131 -316t315 -131q106 0 217 43.5 t172 120.5q6 9 17 9q8 0 15 -7t7 -14q0 -6 -6 -12q-10 -13 -28 -29q-144 -138 -363 -151l-33 -99q43 -9 72 -44.5t29 -80.5q0 -54 -37.5 -91.5t-91.5 -37.5q-10 0 -15.5 6.5t-5.5 14.5q0 20 21 20q35 0 61.5 26.5t26.5 61.5t-26.5 60.5t-61.5 25.5q-11 0 -17.5 8t-3.5 17 l41 113q-198 5 -337.5 146.5t-139.5 340.5z" />
<glyph unicode="&#xc8;" horiz-adv-x="1075" d="M164 20v1475q0 8 6.5 14.5t13.5 6.5h768q10 0 15.5 -6.5t5.5 -14.5q0 -20 -21 -20h-747v-660h686q20 0 20 -20q0 -21 -20 -21h-686v-733h747q10 0 15.5 -6.5t5.5 -14.5q0 -20 -21 -20h-768q-8 0 -14 6t-6 14zM406 1862q0 8 5.5 14t14.5 6l12 -4l224 -178q8 -5 8 -17 q0 -8 -6 -14t-15 -6l-12 4l-223 178q-8 5 -8 17z" />
<glyph unicode="&#xc9;" horiz-adv-x="1075" d="M164 20v1475q0 8 6.5 14.5t13.5 6.5h768q10 0 15.5 -6.5t5.5 -14.5q0 -20 -21 -20h-747v-660h686q20 0 20 -20q0 -21 -20 -21h-686v-733h747q10 0 15.5 -6.5t5.5 -14.5q0 -20 -21 -20h-768q-8 0 -14 6t-6 14zM446 1683q0 11 9 17l223 178q4 4 12 4q9 0 15 -6t6 -14 q0 -11 -9 -17l-223 -178q-6 -4 -12 -4q-9 0 -15 6t-6 14z" />
<glyph unicode="&#xca;" horiz-adv-x="1075" d="M164 20v1475q0 8 6.5 14.5t13.5 6.5h768q10 0 15.5 -6.5t5.5 -14.5q0 -20 -21 -20h-747v-660h686q20 0 20 -20q0 -21 -20 -21h-686v-733h747q10 0 15.5 -6.5t5.5 -14.5q0 -20 -21 -20h-768q-8 0 -14 6t-6 14zM395 1704q0 6 8 14l162 158q6 6 15 6q6 0 12 -6l162 -158 q8 -8 8 -14q0 -7 -7.5 -14t-15.5 -7q-5 0 -12 7l-147 143l-150 -143q-7 -7 -12 -7q-8 0 -15.5 7t-7.5 14z" />
<glyph unicode="&#xcb;" horiz-adv-x="1075" d="M164 20v1475q0 8 6.5 14.5t13.5 6.5h768q10 0 15.5 -6.5t5.5 -14.5q0 -20 -21 -20h-747v-660h686q20 0 20 -20q0 -21 -20 -21h-686v-733h747q10 0 15.5 -6.5t5.5 -14.5q0 -20 -21 -20h-768q-8 0 -14 6t-6 14zM354 1737q0 15 12 27t27 12t27 -12t12 -27t-12 -27t-27 -12 t-27 12t-12 27zM643 1737q0 15 12 27t27 12t27 -12t12 -27t-12 -27t-27 -12t-27 12t-12 27z" />
<glyph unicode="&#xcc;" horiz-adv-x="860" d="M82 20q0 21 20 21h308v1434h-308q-20 0 -20 20q0 21 20 21h656q20 0 20 -21q0 -20 -20 -20h-307v-1434h307q20 0 20 -21q0 -20 -20 -20h-656q-20 0 -20 20zM297 1862q0 8 5.5 14t14.5 6l13 -4l223 -178q8 -5 8 -17q0 -8 -5.5 -14t-14.5 -6l-13 4l-223 178q-8 5 -8 17z " />
<glyph unicode="&#xcd;" horiz-adv-x="860" d="M82 20q0 21 20 21h308v1434h-308q-20 0 -20 20q0 21 20 21h656q20 0 20 -21q0 -20 -20 -20h-307v-1434h307q20 0 20 -21q0 -20 -20 -20h-656q-20 0 -20 20zM297 1683q0 12 8 17l223 178q5 4 13 4q9 0 14.5 -6t5.5 -14q0 -12 -8 -17l-223 -178q-7 -4 -13 -4q-9 0 -14.5 6 t-5.5 14z" />
<glyph unicode="&#xce;" horiz-adv-x="860" d="M82 20q0 21 20 21h308v1434h-308q-20 0 -20 20q0 21 20 21h656q20 0 20 -21q0 -20 -20 -20h-307v-1434h307q20 0 20 -21q0 -20 -20 -20h-656q-20 0 -20 20zM246 1704q0 6 8 14l162 158q6 6 14 6q6 0 12 -6l162 -158q8 -8 8 -14q0 -7 -7 -14t-15 -7q-5 0 -12 7l-148 143 l-149 -143q-7 -7 -13 -7q-8 0 -15 7t-7 14z" />
<glyph unicode="&#xcf;" horiz-adv-x="860" d="M82 20q0 21 20 21h308v1434h-308q-20 0 -20 20q0 21 20 21h656q20 0 20 -21q0 -20 -20 -20h-307v-1434h307q20 0 20 -21q0 -20 -20 -20h-656q-20 0 -20 20zM246 1737q0 15 12 27t27 12t27 -12t12 -27t-12 -27t-27 -12t-27 12t-12 27zM535 1737q0 15 11.5 27t26.5 12 t27 -12t12 -27t-12 -27t-27 -12t-26.5 12t-11.5 27z" />
<glyph unicode="&#xd0;" horiz-adv-x="1230" d="M0 819q0 21 20 21h144v655q0 8 6.5 14.5t13.5 6.5h426q99 0 189 -39t155.5 -104.5t104.5 -155.5t39 -189v-541q0 -132 -65.5 -244t-178 -177.5t-244.5 -65.5h-426q-8 0 -14 6t-6 14v779h-144q-20 0 -20 20zM205 41h405q185 0 316 131t131 315v541q0 184 -131.5 315.5 t-315.5 131.5h-405v-635h194q10 0 15.5 -6.5t5.5 -14.5q0 -20 -21 -20h-194v-758z" />
<glyph unicode="&#xd1;" horiz-adv-x="1261" d="M164 20v1475q0 10 5 17.5t13 7.5q12 0 21 -15l854 -1411v1401q0 21 20 21q8 0 14.5 -5.5t6.5 -15.5v-1475q0 -10 -5.5 -17t-13.5 -7q-12 0 -20 14l-854 1411v-1401q0 -20 -21 -20q-20 0 -20 20zM403 1700l5 10q2 4 8 14q53 82 129 82q32 0 57.5 -12.5t39.5 -27.5 t33.5 -27.5t41.5 -12.5q34 0 59 18t33 36l8 18q6 14 19 14q8 0 15 -5.5t7 -14.5q0 -1 -1 -3t-1 -3q-4 -7 -8 -17q-44 -83 -131 -83q-28 0 -52 12.5t-38 27t-35.5 27t-46.5 12.5q-31 0 -59 -21.5t-42 -51.5q-6 -13 -18 -13q-8 0 -15.5 7t-7.5 14z" />
<glyph unicode="&#xd2;" horiz-adv-x="1220" d="M123 467v582q0 132 65.5 244t177.5 177.5t244 65.5t244.5 -65.5t178 -177.5t65.5 -244v-582q0 -132 -65.5 -244t-178 -177.5t-244.5 -65.5t-244 65.5t-177.5 177.5t-65.5 244zM164 467q0 -185 131 -316t315 -131t315.5 131t131.5 316v582q0 184 -131 315t-316 131 q-184 0 -315 -130.5t-131 -315.5v-582zM477 1862q0 8 6 14t15 6l12 -4l223 -178q8 -5 8 -17q0 -8 -5.5 -14t-14.5 -6l-12 4l-224 178q-8 5 -8 17z" />
<glyph unicode="&#xd3;" horiz-adv-x="1220" d="M123 467v582q0 132 65.5 244t177.5 177.5t244 65.5t244.5 -65.5t178 -177.5t65.5 -244v-582q0 -132 -65.5 -244t-178 -177.5t-244.5 -65.5t-244 65.5t-177.5 177.5t-65.5 244zM164 467q0 -185 131 -316t315 -131t315.5 131t131.5 316v582q0 184 -131 315t-316 131 q-184 0 -315 -130.5t-131 -315.5v-582zM477 1683q0 12 8 17l224 178q4 4 12 4q9 0 14.5 -6t5.5 -14q0 -12 -8 -17l-223 -178q-6 -4 -12 -4q-9 0 -15 6t-6 14z" />
<glyph unicode="&#xd4;" horiz-adv-x="1220" d="M123 467v582q0 132 65.5 244t177.5 177.5t244 65.5t244.5 -65.5t178 -177.5t65.5 -244v-582q0 -132 -65.5 -244t-178 -177.5t-244.5 -65.5t-244 65.5t-177.5 177.5t-65.5 244zM164 467q0 -185 131 -316t315 -131t315.5 131t131.5 316v582q0 184 -131 315t-316 131 q-184 0 -315 -130.5t-131 -315.5v-582zM426 1704q0 6 8 14l162 158q6 6 14 6q7 0 13 -6l161 -158q9 -9 9 -14q0 -7 -7.5 -14t-15.5 -7q-5 0 -12 7l-148 143l-149 -143q-7 -7 -12 -7q-8 0 -15.5 7t-7.5 14z" />
<glyph unicode="&#xd5;" horiz-adv-x="1220" d="M123 467v582q0 132 65.5 244t177.5 177.5t244 65.5t244.5 -65.5t178 -177.5t65.5 -244v-582q0 -132 -65.5 -244t-178 -177.5t-244.5 -65.5t-244 65.5t-177.5 177.5t-65.5 244zM164 467q0 -185 131 -316t315 -131t315.5 131t131.5 316v582q0 184 -131 315t-316 131 q-184 0 -315 -130.5t-131 -315.5v-582zM383 1700q0 2 4 10q2 4 8 14q53 82 129 82q32 0 57.5 -12.5t39.5 -27.5t33.5 -27.5t41.5 -12.5q34 0 59 18t33 36l9 18q6 14 18 14q8 0 15.5 -6t7.5 -14q0 -1 -1 -3t-1 -3q-5 -7 -9 -17q-44 -83 -131 -83q-28 0 -52 12.5t-38 27 t-35.5 27t-46.5 12.5q-31 0 -58 -21.5t-42 -51.5q-6 -13 -18 -13q-8 0 -15.5 7t-7.5 14z" />
<glyph unicode="&#xd6;" horiz-adv-x="1220" d="M123 467v582q0 132 65.5 244t177.5 177.5t244 65.5t244.5 -65.5t178 -177.5t65.5 -244v-582q0 -132 -65.5 -244t-178 -177.5t-244.5 -65.5t-244 65.5t-177.5 177.5t-65.5 244zM164 467q0 -185 131 -316t315 -131t315.5 131t131.5 316v582q0 184 -131 315t-316 131 q-184 0 -315 -130.5t-131 -315.5v-582zM426 1737q0 15 12 27t27 12t27 -12t12 -27t-12 -27t-27 -12t-27 12t-12 27zM715 1737q0 15 12 27t27 12t27 -12t12 -27t-12 -27t-27 -12t-27 12t-12 27z" />
<glyph unicode="&#xd7;" horiz-adv-x="1185" d="M82 207q0 8 6 14l477 516l-477 516q-6 6 -6 15q0 8 6 14t14 6q11 0 17 -6l473 -514l475 514q6 6 14 6t15.5 -6.5t7.5 -13.5q0 -9 -6 -15l-477 -516l477 -516q6 -6 6 -14q0 -7 -7.5 -14t-15.5 -7q-7 0 -14 7l-473 514l-475 -514q-7 -7 -17 -7q-7 0 -13.5 6.5t-6.5 14.5z " />
<glyph unicode="&#xd8;" horiz-adv-x="1220" d="M123 20q0 3 4 11l92 145q-96 129 -96 291v582q0 132 65.5 244t177.5 177.5t244 65.5q107 0 202.5 -44t162.5 -122l86 135q7 11 16 11q8 0 14.5 -6t6.5 -15q0 -2 -4 -10l-93 -146q97 -130 97 -290v-582q0 -132 -65.5 -244t-178 -177.5t-244.5 -65.5q-107 0 -202 43.5 t-162 121.5l-86 -135q-7 -10 -17 -10q-8 0 -14 5.5t-6 14.5zM164 467q0 -141 80 -254l708 1122q-63 75 -152 117.5t-190 42.5q-184 0 -315 -130.5t-131 -315.5v-582zM268 180q63 -75 152 -117.5t190 -42.5q184 0 315.5 131t131.5 316v582q0 141 -80 254z" />
<glyph unicode="&#xd9;" horiz-adv-x="1261" d="M143 467v1028q0 10 6.5 15.5t14.5 5.5q20 0 20 -21v-1028q0 -121 60 -224t163 -163t224 -60q184 0 315 131t131 316v1028q0 10 6.5 15.5t14.5 5.5q20 0 20 -21v-1028q0 -132 -65.5 -244t-177.5 -177.5t-244 -65.5t-244.5 65.5t-178 177.5t-65.5 244zM457 1862q0 8 5.5 14 t14.5 6l12 -4l224 -178q8 -5 8 -17q0 -8 -6 -14t-15 -6l-12 4l-223 178q-8 5 -8 17z" />
<glyph unicode="&#xda;" horiz-adv-x="1261" d="M143 467v1028q0 10 6.5 15.5t14.5 5.5q20 0 20 -21v-1028q0 -121 60 -224t163 -163t224 -60q184 0 315 131t131 316v1028q0 10 6.5 15.5t14.5 5.5q20 0 20 -21v-1028q0 -132 -65.5 -244t-177.5 -177.5t-244 -65.5t-244.5 65.5t-178 177.5t-65.5 244zM539 1683q0 12 8 17 l223 178q4 4 12 4q9 0 15 -6t6 -14q0 -12 -8 -17l-224 -178q-6 -4 -12 -4q-9 0 -14.5 6t-5.5 14z" />
<glyph unicode="&#xdb;" horiz-adv-x="1261" d="M143 467v1028q0 10 6.5 15.5t14.5 5.5q20 0 20 -21v-1028q0 -121 60 -224t163 -163t224 -60q184 0 315 131t131 316v1028q0 10 6.5 15.5t14.5 5.5q20 0 20 -21v-1028q0 -132 -65.5 -244t-177.5 -177.5t-244 -65.5t-244.5 65.5t-178 177.5t-65.5 244zM446 1704q0 5 9 14 l161 158q6 6 15 6q6 0 12 -6l162 -158q8 -8 8 -14q0 -7 -7 -14t-15 -7q-6 0 -13 7l-147 143l-150 -143q-7 -7 -12 -7q-8 0 -15.5 7t-7.5 14z" />
<glyph unicode="&#xdc;" horiz-adv-x="1261" d="M143 467v1028q0 10 6.5 15.5t14.5 5.5q20 0 20 -21v-1028q0 -121 60 -224t163 -163t224 -60q184 0 315 131t131 316v1028q0 10 6.5 15.5t14.5 5.5q20 0 20 -21v-1028q0 -132 -65.5 -244t-177.5 -177.5t-244 -65.5t-244.5 65.5t-178 177.5t-65.5 244zM446 1737q0 15 12 27 t27 12t27 -12t12 -27t-12 -27t-27 -12t-27 12t-12 27zM735 1737q0 15 12 27t27 12t27 -12t12 -27t-12 -27t-27 -12t-27 12t-12 27z" />
<glyph unicode="&#xdd;" horiz-adv-x="1105" d="M41 1495q0 9 6 15t14 6q13 0 19 -11l473 -792l473 792q6 11 18 11q8 0 14.5 -6t6.5 -15q0 -6 -2 -10l-490 -819v-646q0 -20 -20 -20q-21 0 -21 20v646l-489 819q-2 4 -2 10zM481 1683q0 12 8 17l224 178q4 4 12 4q9 0 14.5 -6t5.5 -14q0 -12 -8 -17l-223 -178 q-6 -4 -12 -4q-9 0 -15 6t-6 14z" />
<glyph unicode="&#xde;" horiz-adv-x="1120" d="M164 20v1475q0 21 20 21q8 0 14.5 -5.5t6.5 -15.5v-225h344q127 0 235 -62.5t171 -170t63 -234.5q0 -193 -138 -331t-331 -138h-344v-314q0 -20 -21 -20q-20 0 -20 20zM205 375h344q177 0 302.5 125.5t125.5 302.5t-125.5 301.5t-302.5 124.5h-344v-854z" />
<glyph unicode="&#xdf;" horiz-adv-x="1114" d="M41 936q0 20 20 20h125v187q0 178 103.5 285.5t275.5 107.5q178 0 292 -104.5t114 -280.5v-2q0 -138 -72 -237t-194 -136q127 -39 206.5 -143t79.5 -242v-2q0 -116 -58 -209.5t-155 -144.5t-213 -51q-20 0 -20 20q0 21 20 21q163 0 274 103.5t111 260.5v2q0 157 -111 261 t-274 104q-20 0 -20 20q0 21 20 21q161 0 263 97.5t102 254.5v2q0 157 -101 250.5t-264 93.5q-154 0 -246 -95t-92 -257v-1139q0 -20 -20 -20q-21 0 -21 20v911h-125q-20 0 -20 21z" />
<glyph unicode="&#xe0;" horiz-adv-x="897" d="M102 268q0 117 85 192.5t212 104.5l324 72v106q0 123 -73.5 197t-211.5 74q-166 0 -243 -119q-12 -16 -29 -6q-16 6 -8 26q84 140 280 140q152 0 239 -86.5t87 -225.5v-452q0 -137 -96 -224t-234 -87q-141 0 -236.5 77.5t-95.5 210.5zM143 270q0 -116 81.5 -183 t207.5 -67q124 0 207.5 76t83.5 195v305l-315 -72q-117 -26 -191 -91.5t-74 -162.5zM311 1380q0 8 6 14.5t15 6.5l12 -4l223 -178q8 -5 8 -17q0 -8 -5.5 -14t-14.5 -6l-12 4l-224 178q-8 5 -8 16z" />
<glyph unicode="&#xe1;" horiz-adv-x="897" d="M102 268q0 117 85 192.5t212 104.5l324 72v106q0 123 -73.5 197t-211.5 74q-166 0 -243 -119q-12 -16 -29 -6q-16 6 -8 26q84 140 280 140q152 0 239 -86.5t87 -225.5v-452q0 -137 -96 -224t-234 -87q-141 0 -236.5 77.5t-95.5 210.5zM143 270q0 -116 81.5 -183 t207.5 -67q124 0 207.5 76t83.5 195v305l-315 -72q-117 -26 -191 -91.5t-74 -162.5zM311 1202q0 12 8 17l224 178q4 4 12 4q9 0 14.5 -6.5t5.5 -14.5q0 -11 -8 -16l-223 -178q-6 -4 -12 -4q-9 0 -15 6t-6 14z" />
<glyph unicode="&#xe2;" horiz-adv-x="897" d="M102 268q0 117 85 192.5t212 104.5l324 72v106q0 123 -73.5 197t-211.5 74q-166 0 -243 -119q-12 -16 -29 -6q-16 6 -8 26q84 140 280 140q152 0 239 -86.5t87 -225.5v-452q0 -137 -96 -224t-234 -87q-141 0 -236.5 77.5t-95.5 210.5zM143 270q0 -116 81.5 -183 t207.5 -67q124 0 207.5 76t83.5 195v305l-315 -72q-117 -26 -191 -91.5t-74 -162.5zM260 1223q0 6 8 14l162 158q6 6 14 6q7 0 13 -6l161 -158q9 -9 9 -14q0 -7 -7.5 -14t-15.5 -7q-6 0 -12 6l-148 144l-149 -144q-6 -6 -12 -6q-8 0 -15.5 7t-7.5 14z" />
<glyph unicode="&#xe3;" horiz-adv-x="897" d="M102 268q0 117 85 192.5t212 104.5l324 72v106q0 123 -73.5 197t-211.5 74q-166 0 -243 -119q-12 -16 -29 -6q-16 6 -8 26q84 140 280 140q152 0 239 -86.5t87 -225.5v-452q0 -137 -96 -224t-234 -87q-141 0 -236.5 77.5t-95.5 210.5zM143 270q0 -116 81.5 -183 t207.5 -67q124 0 207.5 76t83.5 195v305l-315 -72q-117 -26 -191 -91.5t-74 -162.5zM217 1219q0 2 4 10q2 4 8 14q53 82 129 82q32 0 57.5 -12.5t39.5 -27.5t33.5 -27.5t41.5 -12.5q34 0 59 18t33 36l9 18q6 14 18 14q8 0 15.5 -6t7.5 -14q0 -1 -1 -3t-1 -3q-4 -7 -8 -17 q-44 -84 -132 -84q-28 0 -52 12.5t-38 27.5t-35.5 27.5t-46.5 12.5q-30 0 -57.5 -22t-42.5 -52q-6 -12 -18 -12q-8 0 -15.5 7t-7.5 14z" />
<glyph unicode="&#xe4;" horiz-adv-x="897" d="M102 268q0 117 85 192.5t212 104.5l324 72v106q0 123 -73.5 197t-211.5 74q-166 0 -243 -119q-12 -16 -29 -6q-16 6 -8 26q84 140 280 140q152 0 239 -86.5t87 -225.5v-452q0 -137 -96 -224t-234 -87q-141 0 -236.5 77.5t-95.5 210.5zM143 270q0 -116 81.5 -183 t207.5 -67q124 0 207.5 76t83.5 195v305l-315 -72q-117 -26 -191 -91.5t-74 -162.5zM260 1255q0 15 12 27t27 12t27 -12t12 -27t-12 -26.5t-27 -11.5t-27 11.5t-12 26.5zM549 1255q0 15 12 27t27 12t27 -12t12 -27t-12 -26.5t-27 -11.5t-27 11.5t-12 26.5z" />
<glyph unicode="&#xe5;" horiz-adv-x="897" d="M102 268q0 117 85 192.5t212 104.5l324 72v106q0 123 -73.5 197t-211.5 74q-166 0 -243 -119q-12 -16 -29 -6q-16 6 -8 26q84 140 280 140q152 0 239 -86.5t87 -225.5v-452q0 -137 -96 -224t-234 -87q-141 0 -236.5 77.5t-95.5 210.5zM143 270q0 -116 81.5 -183 t207.5 -67q124 0 207.5 76t83.5 195v305l-315 -72q-117 -26 -191 -91.5t-74 -162.5zM305 1321q0 57 40 97t97 40t98.5 -40t41.5 -97t-41.5 -98t-98.5 -41t-97 41t-40 98zM346 1321q0 -40 28 -69t68 -29t69.5 29t29.5 69q0 39 -29.5 67.5t-69.5 28.5t-68 -28t-28 -68z" />
<glyph unicode="&#xe6;" horiz-adv-x="1562" d="M102 268q0 117 85 192.5t212 104.5l324 72v106q0 123 -73.5 197t-211.5 74q-166 0 -243 -119q-12 -16 -29 -6q-16 6 -8 26q84 140 280 140q124 0 205.5 -58.5t108.5 -158.5q42 97 131 157t198 60q149 0 254 -105t105 -254v-123q0 -7 -6.5 -13.5t-14.5 -6.5h-655v-215 q0 -129 102 -223.5t236 -94.5q74 0 151.5 29.5t114.5 85.5q5 6 13 8.5t14 -0.5q18 -11 8 -28l-1 -1q-56 -75 -158 -111q-66 -23 -142 -23q-112 0 -209 62t-141 161q-29 -101 -117 -162t-201 -61q-141 0 -236.5 77.5t-95.5 210.5zM143 270q0 -116 81.5 -183t207.5 -67 q124 0 207.5 76t83.5 193v307l-315 -72q-117 -26 -191 -91.5t-74 -162.5zM764 594h635v102q0 132 -93 225t-225 93t-224.5 -93t-92.5 -225v-102z" />
<glyph unicode="&#xe7;" horiz-adv-x="831" d="M123 291v452q0 139 95 225.5t251 86.5q58 0 108 -13.5t78.5 -29.5t53 -39.5t30 -32t11.5 -18.5q8 -20 -9 -27q-16 -10 -28 6q-30 54 -95 83.5t-149 29.5q-139 0 -222 -75.5t-83 -195.5v-452q0 -120 83 -195.5t222 -75.5q84 0 149 29.5t95 83.5q12 16 28 6q17 -7 9 -26 q-6 -10 -11.5 -18t-28 -30.5t-49 -38t-73.5 -30t-101 -16.5l-32 -101q43 -9 71.5 -44.5t28.5 -80.5q0 -54 -37.5 -91.5t-91.5 -37.5q-20 0 -20 21q0 20 20 20q35 0 61.5 26.5t26.5 61.5t-26.5 60.5t-61.5 25.5q-10 0 -16.5 8t-3.5 17l40 115q-147 7 -235 92t-88 219z" />
<glyph unicode="&#xe8;" horiz-adv-x="972" d="M133 338v358q0 149 105 254t254 105t253.5 -105t104.5 -254v-123q0 -7 -6.5 -13.5t-14.5 -6.5h-655v-215q0 -129 102 -223.5t236 -94.5q74 0 151.5 29.5t114.5 85.5q5 6 13 8.5t14 -0.5q18 -11 8 -28l-1 -1q-56 -75 -158 -111q-66 -23 -142 -23q-150 0 -264.5 105.5 t-114.5 252.5zM174 594h635v102q0 132 -92.5 225t-224.5 93t-225 -93t-93 -225v-102zM348 1380q0 8 6 14.5t15 6.5l12 -4l223 -178q8 -5 8 -17q0 -8 -5.5 -14t-14.5 -6l-12 4l-224 178q-8 5 -8 16z" />
<glyph unicode="&#xe9;" horiz-adv-x="972" d="M133 338v358q0 149 105 254t254 105t253.5 -105t104.5 -254v-123q0 -7 -6.5 -13.5t-14.5 -6.5h-655v-215q0 -129 102 -223.5t236 -94.5q74 0 151.5 29.5t114.5 85.5q5 6 13 8.5t14 -0.5q18 -11 8 -28l-1 -1q-56 -75 -158 -111q-66 -23 -142 -23q-150 0 -264.5 105.5 t-114.5 252.5zM174 594h635v102q0 132 -92.5 225t-224.5 93t-225 -93t-93 -225v-102zM348 1202q0 12 8 17l224 178q4 4 12 4q9 0 14.5 -6.5t5.5 -14.5q0 -11 -8 -16l-223 -178q-6 -4 -12 -4q-9 0 -15 6t-6 14z" />
<glyph unicode="&#xea;" horiz-adv-x="972" d="M133 338v358q0 149 105 254t254 105t253.5 -105t104.5 -254v-123q0 -7 -6.5 -13.5t-14.5 -6.5h-655v-215q0 -129 102 -223.5t236 -94.5q74 0 151.5 29.5t114.5 85.5q5 6 13 8.5t14 -0.5q18 -11 8 -28l-1 -1q-56 -75 -158 -111q-66 -23 -142 -23q-150 0 -264.5 105.5 t-114.5 252.5zM174 594h635v102q0 132 -92.5 225t-224.5 93t-225 -93t-93 -225v-102zM297 1223q0 6 8 14l162 158q6 6 14 6q7 0 13 -6l161 -158q9 -9 9 -14q0 -7 -7.5 -14t-15.5 -7q-6 0 -12 6l-148 144l-149 -144q-6 -6 -13 -6q-8 0 -15 7t-7 14z" />
<glyph unicode="&#xeb;" horiz-adv-x="972" d="M133 338v358q0 149 105 254t254 105t253.5 -105t104.5 -254v-123q0 -7 -6.5 -13.5t-14.5 -6.5h-655v-215q0 -129 102 -223.5t236 -94.5q74 0 151.5 29.5t114.5 85.5q5 6 13 8.5t14 -0.5q18 -11 8 -28l-1 -1q-56 -75 -158 -111q-66 -23 -142 -23q-150 0 -264.5 105.5 t-114.5 252.5zM174 594h635v102q0 132 -92.5 225t-224.5 93t-225 -93t-93 -225v-102zM297 1255q0 15 12 27t27 12t27 -12t12 -27t-12 -26.5t-27 -11.5t-27 11.5t-12 26.5zM586 1255q0 15 12 27t27 12t27 -12t12 -27t-12 -26.5t-27 -11.5t-27 11.5t-12 26.5z" />
<glyph unicode="&#xec;" horiz-adv-x="327" d="M33 1380q0 8 5.5 14.5t14.5 6.5l13 -4l223 -178q8 -5 8 -17q0 -8 -6 -14t-15 -6l-12 4l-223 178q-8 5 -8 16zM143 20v994q0 7 6.5 13.5t14.5 6.5t14 -6t6 -14v-994q0 -8 -6 -14t-14 -6t-14.5 6.5t-6.5 13.5z" />
<glyph unicode="&#xed;" horiz-adv-x="327" d="M33 1202q0 12 8 17l223 178q4 4 12 4q9 0 15 -6.5t6 -14.5q0 -11 -8 -16l-223 -178q-7 -4 -13 -4q-9 0 -14.5 6t-5.5 14zM143 20v994q0 7 6.5 13.5t14.5 6.5t14 -6t6 -14v-994q0 -8 -6 -14t-14 -6t-14.5 6.5t-6.5 13.5z" />
<glyph unicode="&#xee;" horiz-adv-x="327" d="M-18 1223q0 6 8 14l162 158q6 6 14 6q6 0 12 -6l162 -158q8 -8 8 -14q0 -7 -7 -14t-15 -7q-7 0 -13 6l-147 144l-150 -144q-6 -6 -12 -6q-8 0 -15 7t-7 14zM143 20v994q0 7 6.5 13.5t14.5 6.5t14 -6t6 -14v-994q0 -8 -6 -14t-14 -6t-14.5 6.5t-6.5 13.5z" />
<glyph unicode="&#xef;" horiz-adv-x="327" d="M-18 1255q0 15 11.5 27t26.5 12t27 -12t12 -27t-12 -26.5t-27 -11.5t-26.5 11.5t-11.5 26.5zM143 20v994q0 7 6.5 13.5t14.5 6.5t14 -6t6 -14v-994q0 -8 -6 -14t-14 -6t-14.5 6.5t-6.5 13.5zM270 1255q0 15 12 27t27 12t27 -12t12 -27t-12 -26.5t-27 -11.5t-27 11.5 t-12 26.5z" />
<glyph unicode="&#xf0;" horiz-adv-x="983" d="M133 338v358q0 149 105 254t254 105q95 0 175.5 -46t127.5 -122q-47 322 -232 485l-106 -125q-8 -8 -17 -8q-7 0 -13.5 6.5t-6.5 14.5q0 4 4 12l106 127q-69 52 -139 76q-20 7 -38.5 12t-26.5 7l-9 1q-18 3 -18 21q0 20 20 20h3q35 -5 84 -23q92 -37 151 -83l82 98 q8 8 16 8t14.5 -6.5t6.5 -13.5q0 -5 -4 -13l-84 -98q135 -119 198.5 -307.5t63.5 -401.5v-358q0 -149 -104.5 -253.5t-253.5 -104.5t-254 104.5t-105 253.5zM174 338q0 -132 93 -225t225 -93t224.5 93t92.5 225v358q0 132 -92.5 225t-224.5 93t-225 -93t-93 -225v-358z" />
<glyph unicode="&#xf1;" horiz-adv-x="1003" d="M143 20v676q0 149 105 254t254 105t253.5 -105t104.5 -254v-676q0 -20 -20 -20q-21 0 -21 20v676q0 132 -92.5 225t-224.5 93t-225 -93t-93 -225v-676q0 -20 -20 -20q-21 0 -21 20zM274 1219l5 10q2 4 8 14q53 82 129 82q32 0 57.5 -12.5t39.5 -27.5t33.5 -27.5 t41.5 -12.5q34 0 59 18t33 36l8 18q6 14 19 14q8 0 15 -5.5t7 -14.5q0 -1 -1 -3t-1 -3q-4 -7 -8 -17q-44 -84 -131 -84q-28 0 -52 12.5t-38 27.5t-35.5 27.5t-46.5 12.5q-30 0 -58 -22t-43 -52q-6 -12 -18 -12q-8 0 -15.5 7t-7.5 14z" />
<glyph unicode="&#xf2;" horiz-adv-x="983" d="M133 338v358q0 149 105 254t254 105t253.5 -105t104.5 -254v-358q0 -149 -104.5 -253.5t-253.5 -104.5t-254 104.5t-105 253.5zM174 338q0 -132 93 -225t225 -93t224.5 93t92.5 225v358q0 132 -92.5 225t-224.5 93t-225 -93t-93 -225v-358zM358 1380q0 8 6 14.5t15 6.5 l12 -4l223 -178q9 -6 9 -17q0 -8 -6 -14t-15 -6l-12 4l-223 178q-9 6 -9 16z" />
<glyph unicode="&#xf3;" horiz-adv-x="983" d="M133 338v358q0 149 105 254t254 105t253.5 -105t104.5 -254v-358q0 -149 -104.5 -253.5t-253.5 -104.5t-254 104.5t-105 253.5zM174 338q0 -132 93 -225t225 -93t224.5 93t92.5 225v358q0 132 -92.5 225t-224.5 93t-225 -93t-93 -225v-358zM358 1202q0 11 9 17l223 178 q4 4 12 4q9 0 15 -6.5t6 -14.5q0 -10 -9 -16l-223 -178q-6 -4 -12 -4q-9 0 -15 6t-6 14z" />
<glyph unicode="&#xf4;" horiz-adv-x="983" d="M133 338v358q0 149 105 254t254 105t253.5 -105t104.5 -254v-358q0 -149 -104.5 -253.5t-253.5 -104.5t-254 104.5t-105 253.5zM174 338q0 -132 93 -225t225 -93t224.5 93t92.5 225v358q0 132 -92.5 225t-224.5 93t-225 -93t-93 -225v-358zM307 1223q0 6 8 14l162 158 q6 6 15 6q6 0 12 -6l162 -158q8 -8 8 -14q0 -7 -7.5 -14t-15.5 -7q-6 0 -12 6l-147 144l-150 -144q-6 -6 -12 -6q-8 0 -15.5 7t-7.5 14z" />
<glyph unicode="&#xf5;" horiz-adv-x="983" d="M133 338v358q0 149 105 254t254 105t253.5 -105t104.5 -254v-358q0 -149 -104.5 -253.5t-253.5 -104.5t-254 104.5t-105 253.5zM174 338q0 -132 93 -225t225 -93t224.5 93t92.5 225v358q0 132 -92.5 225t-224.5 93t-225 -93t-93 -225v-358zM264 1219q0 2 4 10q2 4 8 14 q53 82 130 82q32 0 57.5 -12.5t39.5 -27.5t33.5 -27.5t41.5 -12.5q34 0 59 18t33 36l8 18q6 14 18 14q8 0 15.5 -6t7.5 -14q0 -1 -1 -3t-1 -3q-4 -7 -8 -17q-44 -84 -131 -84q-28 0 -52 12.5t-38 27.5t-35.5 27.5t-46.5 12.5q-31 0 -58.5 -22t-42.5 -52q-6 -12 -18 -12 q-8 0 -15.5 7t-7.5 14z" />
<glyph unicode="&#xf6;" horiz-adv-x="983" d="M133 338v358q0 149 105 254t254 105t253.5 -105t104.5 -254v-358q0 -149 -104.5 -253.5t-253.5 -104.5t-254 104.5t-105 253.5zM174 338q0 -132 93 -225t225 -93t224.5 93t92.5 225v358q0 132 -92.5 225t-224.5 93t-225 -93t-93 -225v-358zM307 1255q0 15 12 27t27 12 t27 -12t12 -27t-12 -26.5t-27 -11.5t-27 11.5t-12 26.5zM596 1255q0 15 12 27t27 12t27 -12t12 -27t-12 -26.5t-27 -11.5t-27 11.5t-12 26.5z" />
<glyph unicode="&#xf7;" horiz-adv-x="1228" d="M102 743q0 8 5.5 14.5t15.5 6.5h983q20 0 20 -21q0 -20 -20 -20h-983q-21 0 -21 20zM575 326q0 15 12 27t27 12t27 -12t12 -27t-12 -27t-27 -12t-27 12t-12 27zM575 1161q0 15 12 27t27 12t27 -12t12 -27t-12 -27t-27 -12t-27 12t-12 27z" />
<glyph unicode="&#xf8;" horiz-adv-x="962" d="M123 338v358q0 149 104.5 254t253.5 105q152 0 260 -111l54 82q5 8 16 8q8 0 15.5 -6t7.5 -14q0 -3 -5 -13l-61 -90q72 -94 72 -215v-358q0 -149 -105 -253.5t-254 -104.5q-151 0 -258 110l-55 -84q-5 -8 -16 -8q-8 0 -15.5 6t-7.5 14q0 5 4 13l62 92q-72 94 -72 215z M164 338q0 -98 55 -178l498 749q-91 105 -236 105q-132 0 -224.5 -93t-92.5 -225v-358zM246 125q95 -105 235 -105q132 0 225 93t93 225v358q0 96 -56 178z" />
<glyph unicode="&#xf9;" horiz-adv-x="1003" d="M143 338v676q0 20 21 20q20 0 20 -20v-676q0 -130 94 -224t224 -94t223.5 93.5t93.5 224.5v676q0 20 21 20q20 0 20 -20v-676q0 -149 -104.5 -253.5t-253.5 -104.5t-254 104.5t-105 253.5zM328 1380q0 8 5.5 14.5t14.5 6.5l12 -4l224 -178q8 -5 8 -17q0 -8 -6 -14t-15 -6 l-12 4l-223 178q-8 5 -8 16z" />
<glyph unicode="&#xfa;" horiz-adv-x="1003" d="M143 338v676q0 20 21 20q20 0 20 -20v-676q0 -130 94 -224t224 -94t223.5 93.5t93.5 224.5v676q0 20 21 20q20 0 20 -20v-676q0 -149 -104.5 -253.5t-253.5 -104.5t-254 104.5t-105 253.5zM410 1202q0 12 8 17l223 178q4 4 12 4q9 0 15 -6.5t6 -14.5q0 -11 -8 -16 l-224 -178q-6 -4 -12 -4q-9 0 -14.5 6t-5.5 14z" />
<glyph unicode="&#xfb;" horiz-adv-x="1003" d="M143 338v676q0 20 21 20q20 0 20 -20v-676q0 -130 94 -224t224 -94t223.5 93.5t93.5 224.5v676q0 20 21 20q20 0 20 -20v-676q0 -149 -104.5 -253.5t-253.5 -104.5t-254 104.5t-105 253.5zM317 1223q0 5 9 14l161 158q6 6 15 6q6 0 12 -6l162 -158q8 -8 8 -14 q0 -7 -7 -14t-15 -7q-7 0 -13 6l-147 144l-150 -144q-6 -6 -12 -6q-8 0 -15.5 7t-7.5 14z" />
<glyph unicode="&#xfc;" horiz-adv-x="1003" d="M143 338v676q0 20 21 20q20 0 20 -20v-676q0 -130 94 -224t224 -94t223.5 93.5t93.5 224.5v676q0 20 21 20q20 0 20 -20v-676q0 -149 -104.5 -253.5t-253.5 -104.5t-254 104.5t-105 253.5zM317 1255q0 15 12 27t27 12t27 -12t12 -27t-12 -26.5t-27 -11.5t-27 11.5 t-12 26.5zM606 1255q0 15 12 27t27 12t27 -12t12 -27t-12 -26.5t-27 -11.5t-27 11.5t-12 26.5z" />
<glyph unicode="&#xfd;" horiz-adv-x="903" d="M61 1014q0 9 6.5 14.5t14.5 5.5q14 0 20 -14l342 -957l359 957q6 14 18 14q8 0 14.5 -5.5t6.5 -14.5q0 -6 -2 -8l-531 -1424q-5 -12 -18 -12q-8 0 -14.5 5.5t-6.5 14.5q0 5 2 7l152 407l-361 1004q0 1 -1 3t-1 3zM381 1202q0 12 8 17l223 178q5 4 13 4q9 0 14.5 -6.5 t5.5 -14.5q0 -11 -8 -16l-223 -178q-7 -4 -13 -4q-9 0 -14.5 6t-5.5 14z" />
<glyph unicode="&#xfe;" horiz-adv-x="993" d="M143 -389v1884q0 10 6.5 15.5t14.5 5.5q20 0 20 -21v-633q45 87 130.5 140t187.5 53q149 0 253.5 -105t104.5 -254v-358q0 -149 -104.5 -253.5t-253.5 -104.5q-102 0 -187.5 52.5t-130.5 139.5v-561q0 -21 -20 -21q-8 0 -14.5 5.5t-6.5 15.5zM184 338q0 -132 93 -225 t225 -93t224.5 93t92.5 225v358q0 132 -92.5 225t-224.5 93t-225 -93t-93 -225v-358z" />
<glyph unicode="&#xff;" horiz-adv-x="903" d="M61 1014q0 9 6.5 14.5t14.5 5.5q14 0 20 -14l342 -957l359 957q6 14 18 14q8 0 14.5 -5.5t6.5 -14.5q0 -6 -2 -8l-531 -1424q-5 -12 -18 -12q-8 0 -14.5 5.5t-6.5 14.5q0 5 2 7l152 407l-361 1004q0 1 -1 3t-1 3zM268 1255q0 15 12 27t27 12t27 -12t12 -27t-12 -26.5 t-27 -11.5t-27 11.5t-12 26.5zM557 1255q0 15 12 27t27 12t27 -12t12 -27t-12 -26.5t-27 -11.5t-27 11.5t-12 26.5z" />
<glyph unicode="&#x152;" horiz-adv-x="1990" d="M123 467v582q0 132 65.5 244t177.5 177.5t244 65.5q149 0 270 -81t179 -214v254q0 8 5.5 14.5t14.5 6.5h768q9 0 15 -6.5t6 -14.5t-6 -14t-15 -6h-747v-660h686q9 0 14.5 -6t5.5 -14t-5.5 -14.5t-14.5 -6.5h-686v-733h747q9 0 15 -6.5t6 -14.5t-6 -14t-15 -6h-768 q-9 0 -14.5 6t-5.5 14v254q-58 -132 -179 -213t-270 -81q-132 0 -244 65.5t-177.5 177.5t-65.5 244zM164 467q0 -185 131 -316t315 -131t315.5 131t131.5 316v582q0 184 -131 315t-316 131q-184 0 -315 -130.5t-131 -315.5v-582z" />
<glyph unicode="&#x153;" horiz-adv-x="1648" d="M133 338v358q0 149 105 254t254 105q115 0 207.5 -67t129.5 -173q37 106 130 173t208 67q149 0 254 -105t105 -254v-123q0 -7 -6.5 -13.5t-14.5 -6.5h-655v-215q0 -129 102 -223.5t236 -94.5q74 0 151.5 29.5t114.5 85.5q5 6 13 8.5t14 -0.5q18 -11 8 -28l-1 -1 q-56 -75 -158 -111q-66 -23 -142 -23q-117 0 -217 67.5t-140 173.5q-37 -107 -129.5 -174t-209.5 -67q-149 0 -254 104.5t-105 253.5zM174 338q0 -132 93 -225t225 -93t224.5 93t92.5 225v358q0 132 -92.5 225t-224.5 93t-225 -93t-93 -225v-358zM850 594h635v102 q0 132 -93 225t-225 93t-224.5 -93t-92.5 -225v-102z" />
<glyph unicode="&#x178;" horiz-adv-x="1105" d="M41 1495q0 9 6 15t14 6q13 0 19 -11l473 -792l473 792q6 11 18 11q8 0 14.5 -6t6.5 -15q0 -6 -2 -10l-490 -819v-646q0 -20 -20 -20q-21 0 -21 20v646l-489 819q-2 4 -2 10zM369 1737q0 15 12 27t27 12t26.5 -12t11.5 -27t-11.5 -27t-26.5 -12t-27 12t-12 27zM657 1737 q0 15 12 27t27 12t27 -12t12 -27t-12 -27t-27 -12t-27 12t-12 27z" />
<glyph unicode="&#x2c6;" horiz-adv-x="825" d="M229 1223q0 5 9 14l161 158q6 6 15 6q6 0 12 -6l162 -158q8 -8 8 -14q0 -7 -7.5 -14t-15.5 -7q-6 0 -12 6l-147 144l-150 -144q-6 -6 -12 -6q-8 0 -15.5 7t-7.5 14z" />
<glyph unicode="&#x2dc;" horiz-adv-x="888" d="M217 1219q0 2 4 10q2 4 8 14q53 82 129 82q32 0 57.5 -12.5t39.5 -27.5t33.5 -27.5t41.5 -12.5q34 0 59 18t33 36l9 18q6 14 18 14q8 0 15.5 -6t7.5 -14q0 -1 -1 -3t-1 -3q-4 -7 -8 -17q-44 -84 -132 -84q-28 0 -52 12.5t-38 27.5t-35.5 27.5t-46.5 12.5q-30 0 -57.5 -22 t-42.5 -52q-6 -12 -18 -12q-8 0 -15.5 7t-7.5 14z" />
<glyph unicode="&#x2000;" horiz-adv-x="969" />
<glyph unicode="&#x2001;" horiz-adv-x="1939" />
<glyph unicode="&#x2002;" horiz-adv-x="969" />
<glyph unicode="&#x2003;" horiz-adv-x="1939" />
<glyph unicode="&#x2004;" horiz-adv-x="646" />
<glyph unicode="&#x2005;" horiz-adv-x="484" />
<glyph unicode="&#x2006;" horiz-adv-x="323" />
<glyph unicode="&#x2007;" horiz-adv-x="323" />
<glyph unicode="&#x2008;" horiz-adv-x="242" />
<glyph unicode="&#x2009;" horiz-adv-x="387" />
<glyph unicode="&#x200a;" horiz-adv-x="107" />
<glyph unicode="&#x2010;" horiz-adv-x="696" d="M102 735q0 8 5.5 14.5t15.5 6.5h450q10 0 15.5 -6.5t5.5 -14.5q0 -20 -21 -20h-450q-21 0 -21 20z" />
<glyph unicode="&#x2011;" horiz-adv-x="696" d="M102 735q0 8 5.5 14.5t15.5 6.5h450q10 0 15.5 -6.5t5.5 -14.5q0 -20 -21 -20h-450q-21 0 -21 20z" />
<glyph unicode="&#x2012;" horiz-adv-x="696" d="M102 735q0 8 5.5 14.5t15.5 6.5h450q10 0 15.5 -6.5t5.5 -14.5q0 -20 -21 -20h-450q-21 0 -21 20z" />
<glyph unicode="&#x2013;" horiz-adv-x="872" d="M102 735q0 8 5.5 14.5t15.5 6.5h627q20 0 20 -21q0 -20 -20 -20h-627q-21 0 -21 20z" />
<glyph unicode="&#x2014;" horiz-adv-x="1499" d="M102 735q0 8 5.5 14.5t15.5 6.5h1253q10 0 15.5 -6.5t5.5 -14.5q0 -20 -21 -20h-1253q-21 0 -21 20z" />
<glyph unicode="&#x2018;" horiz-adv-x="368" d="M82 1085q0 117 51.5 238.5t140.5 187.5q5 5 13 5q9 0 14.5 -6.5t5.5 -14.5q0 -11 -8 -16q-11 -9 -27 -25q-72 -71 -110.5 -167.5t-38.5 -201.5q0 -20 -21 -20q-20 0 -20 20z" />
<glyph unicode="&#x2019;" horiz-adv-x="368" d="M61 1085q0 11 9 17q10 8 26 24q73 71 111.5 168t38.5 201q0 21 20 21q8 0 14.5 -5.5t6.5 -15.5q0 -117 -51.5 -238.5t-141.5 -187.5q-4 -4 -12 -4q-9 0 -15 6t-6 14z" />
<glyph unicode="&#x201a;" horiz-adv-x="348" d="M0 -352q0 11 8 16q11 9 27 25q72 71 110.5 167.5t38.5 200.5q0 10 6.5 15.5t14.5 5.5q20 0 20 -21q0 -117 -51.5 -238.5t-140.5 -187.5q-4 -4 -13 -4t-14.5 6.5t-5.5 14.5z" />
<glyph unicode="&#x201c;" horiz-adv-x="643" d="M82 1085q0 117 51.5 238.5t140.5 187.5q5 5 13 5q9 0 14.5 -6.5t5.5 -14.5q0 -11 -8 -16q-11 -9 -27 -25q-72 -71 -110.5 -167.5t-38.5 -201.5q0 -20 -21 -20q-20 0 -20 20zM356 1085q0 117 51.5 238.5t141.5 187.5q5 5 12 5q9 0 15 -6.5t6 -14.5q0 -10 -9 -16 q-10 -9 -26 -25q-73 -71 -111.5 -168t-38.5 -201q0 -20 -20 -20q-21 0 -21 20z" />
<glyph unicode="&#x201d;" horiz-adv-x="643" d="M61 1085q0 11 9 17q10 8 26 24q73 71 111.5 168t38.5 201q0 21 20 21q8 0 14.5 -5.5t6.5 -15.5q0 -117 -51.5 -238.5t-141.5 -187.5q-4 -4 -12 -4q-9 0 -15 6t-6 14zM336 1085q0 12 8 17q11 8 27 24q72 71 110.5 167.5t38.5 201.5q0 10 6.5 15.5t14.5 5.5q20 0 20 -21 q0 -117 -51.5 -238.5t-140.5 -187.5q-4 -4 -13 -4t-14.5 6t-5.5 14z" />
<glyph unicode="&#x201e;" horiz-adv-x="622" d="M0 -352q0 11 8 16q11 9 27 25q72 71 110.5 167.5t38.5 200.5q0 10 6.5 15.5t14.5 5.5q20 0 20 -21q0 -117 -51.5 -238.5t-140.5 -187.5q-4 -4 -13 -4t-14.5 6.5t-5.5 14.5zM274 -352q0 10 9 16q10 9 26 25q73 71 111.5 167.5t38.5 200.5q0 21 20 21q8 0 14.5 -5.5 t6.5 -15.5q0 -117 -51.5 -238.5t-141.5 -187.5q-4 -4 -12 -4q-9 0 -15 6.5t-6 14.5z" />
<glyph unicode="&#x2022;" horiz-adv-x="694" d="M123 748q0 94 65.5 159.5t157.5 65.5q94 0 159.5 -65.5t65.5 -157.5q0 -94 -65.5 -160t-157.5 -66q-94 0 -159.5 66t-65.5 158z" />
<glyph unicode="&#x2026;" horiz-adv-x="819" d="M104 39q0 15 12 27t27 12t27 -12t12 -27t-12 -27t-27 -12t-27 12t-12 27zM371 39q0 15 12 27t27 12t27 -12t12 -27t-12 -27t-27 -12t-27 12t-12 27zM637 39q0 15 12 27t27 12t27 -12t12 -27t-12 -27t-27 -12t-27 12t-12 27z" />
<glyph unicode="&#x202f;" horiz-adv-x="387" />
<glyph unicode="&#x2039;" horiz-adv-x="651" d="M102 516q0 7 7 14l364 326q6 6 14 6t14.5 -6.5t6.5 -13.5q0 -9 -6 -15l-348 -311l348 -311q6 -6 6 -15q0 -7 -6.5 -13.5t-14.5 -6.5t-14 6l-364 326q-7 7 -7 14z" />
<glyph unicode="&#x203a;" horiz-adv-x="651" d="M143 190q0 8 7 15l348 311l-348 311q-7 7 -7 15q0 7 6.5 13.5t14.5 6.5t14 -6l365 -326q6 -6 6 -14t-6 -14l-365 -326q-6 -6 -14 -6t-14.5 6.5t-6.5 13.5z" />
<glyph unicode="&#x205f;" horiz-adv-x="484" />
<glyph unicode="&#x20ac;" horiz-adv-x="1200" d="M20 641q0 8 5.5 14.5t15.5 6.5h143v184h-143q-21 0 -21 20q0 8 5.5 14.5t15.5 6.5h143v121q0 132 65.5 244t178 177.5t244.5 65.5q215 0 371 -130q26 -22 51 -50q4 -8 4 -12q0 -9 -6.5 -15t-14.5 -6q-11 0 -16 8q-9 11 -23 25q-72 68 -168 103.5t-198 35.5 q-185 0 -316 -131t-131 -315v-121h543q20 0 20 -21q0 -20 -20 -20h-543v-184h391q10 0 15.5 -6.5t5.5 -14.5q0 -20 -21 -20h-391v-154q0 -185 131.5 -316t315.5 -131q106 0 217 43.5t172 120.5q6 9 16 9q8 0 14.5 -6t6.5 -15q0 -4 -4 -12l-1 -1q-64 -76 -173 -126 q-115 -53 -248 -53q-132 0 -244.5 65.5t-178 177.5t-65.5 244v154h-143q-21 0 -21 20z" />
<glyph unicode="&#x2122;" horiz-adv-x="1650" d="M41 1495q0 21 20 21h590q10 0 15.5 -6.5t5.5 -14.5q0 -20 -21 -20h-274v-865q0 -20 -21 -20q-20 0 -20 20v865h-275q-20 0 -20 20zM750 612v883q0 10 5 17.5t13 7.5q13 0 20 -17l351 -837l350 837q7 17 20 17q8 0 13.5 -7.5t5.5 -17.5v-883q0 -20 -21 -20q-20 0 -20 20 v781l-330 -789q-6 -14 -18 -14q-13 0 -19 14l-329 789v-781q0 -20 -21 -20q-20 0 -20 20z" />
<glyph unicode="&#x25fc;" horiz-adv-x="1034" d="M0 0v1034h1034v-1034h-1034z" />
</font>
</defs>
</svg>
