<?xml version="1.0" standalone="no"?>
<!DOCTYPE svg PUBLIC "-//W3C//DTD SVG 1.1//EN" "http://www.w3.org/Graphics/SVG/1.1/DTD/svg11.dtd" >
<svg xmlns="http://www.w3.org/2000/svg" xmlns:xlink="http://www.w3.org/1999/xlink" version="1.1">
<metadata></metadata>
<defs>
<font id="variablebold" horiz-adv-x="1179" >
<font-face units-per-em="2048" ascent="1597" descent="-451" />
<missing-glyph horiz-adv-x="491" />
<glyph horiz-adv-x="0" />
<glyph horiz-adv-x="682" />
<glyph unicode=" "  horiz-adv-x="491" />
<glyph unicode="&#x09;" horiz-adv-x="491" />
<glyph unicode="&#xa0;" horiz-adv-x="491" />
<glyph unicode="!" horiz-adv-x="409" d="M123 82q0 34 24 58t58 24t58 -24t24 -58t-24 -58t-58 -24t-58 24t-24 58zM143 563v973q0 29 18.5 45t43.5 16t43 -16t18 -45v-973q0 -29 -18 -45t-43 -16t-43.5 16t-18.5 45z" />
<glyph unicode="&#x22;" horiz-adv-x="636" d="M123 1208v328q0 29 18 45t43 16t43.5 -16t18.5 -45v-328q0 -29 -18.5 -45t-43.5 -16t-43 16t-18 45zM391 1208v328q0 29 18.5 45t43.5 16t43 -16t18 -45v-328q0 -29 -18 -45t-43 -16t-43.5 16t-18.5 45z" />
<glyph unicode="#" horiz-adv-x="1527" d="M41 547q0 25 16 43t45 18h328l41 381h-315q-29 0 -45.5 18.5t-16.5 43.5t16.5 43t45.5 18h327l45 430q3 26 20.5 40.5t39.5 14.5q27 0 46.5 -16t16.5 -43q-31 -285 -45 -426h381l45 430q3 26 20.5 40.5t39.5 14.5q27 0 46.5 -16t16.5 -43q-31 -285 -45 -426h315 q29 0 45.5 -18t16.5 -43t-16.5 -43.5t-45.5 -18.5h-327l-41 -381h315q29 0 45.5 -18t16.5 -43t-16.5 -43.5t-45.5 -18.5h-328l-45 -430q-3 -26 -20.5 -40.5t-40.5 -14.5q-26 0 -45 16t-16 43q29 285 45 426h-381l-45 -430q-3 -26 -21 -40.5t-41 -14.5q-26 0 -45 16t-16 43 q29 285 45 426h-316q-29 0 -45 18.5t-16 43.5zM553 608h381l41 381h-381z" />
<glyph unicode="$" horiz-adv-x="1208" d="M123 207q0 26 19 43.5t44 17.5q30 0 50 -26q6 -9 16 -19q111 -114 291 -121v686q-53 20 -88 35t-82 38.5t-78 46t-64.5 55t-53 68t-32 82.5t-12.5 101q0 116 59 207t150.5 139t200.5 56v117q0 29 18 45t43 16t43.5 -16t18.5 -45v-121q107 -20 205.5 -75.5t156.5 -135.5 q14 -17 14 -37q0 -25 -18 -42t-43 -17q-30 0 -49 22q-9 11 -23 25q-105 108 -243 135v-613q53 -21 90 -37t84 -41t79.5 -50t66 -60t53.5 -74t33 -90t13 -110q0 -171 -118.5 -284t-300.5 -140v-140q0 -29 -18.5 -45t-43.5 -16t-43 16t-18 45v132q-116 5 -232.5 55t-175.5 137 q-12 18 -12 35zM256 1214q0 -57 21.5 -102.5t64.5 -80t88.5 -58.5t112.5 -51v571q-125 -11 -206 -87.5t-81 -191.5zM666 111q136 25 216.5 106.5t80.5 194.5q0 66 -22.5 118t-67 90t-91.5 64.5t-116 54.5v-628z" />
<glyph unicode="%" horiz-adv-x="1714" d="M82 1247q0 145 102 247.5t248 102.5q145 0 247.5 -102.5t102.5 -247.5t-102.5 -247.5t-247.5 -102.5q-146 0 -248 102.5t-102 247.5zM205 1247q0 -94 66 -160.5t161 -66.5q94 0 160.5 66.5t66.5 160.5t-66.5 161t-160.5 67q-95 0 -161 -67t-66 -161zM264 45q0 17 12 35 l1059 1491q18 26 49 26q25 0 44.5 -17.5t19.5 -43.5q0 -17 -12 -35l-1059 -1491q-18 -26 -49 -26q-25 0 -44.5 17.5t-19.5 43.5zM932 334q0 145 102 247.5t248 102.5q145 0 247.5 -102.5t102.5 -247.5t-102.5 -247.5t-247.5 -102.5q-146 0 -248 102.5t-102 247.5zM1055 334 q0 -94 66 -161t161 -67q94 0 160.5 67t66.5 161t-66.5 160.5t-160.5 66.5q-95 0 -161 -66.5t-66 -160.5z" />
<glyph unicode="&#x26;" horiz-adv-x="1265" d="M133 442q0 143 67.5 242.5t188.5 185.5l-22 27q-158 187 -158 352q0 95 41 178t122.5 137t186.5 54q146 0 241 -95.5t95 -236.5q0 -75 -23.5 -136.5t-81 -119t-93.5 -86t-121 -86.5q-7 -5 -11 -8l393 -465q21 43 38 89.5t23.5 71t6.5 29.5q6 25 22.5 37.5t38.5 12.5 q25 0 43.5 -15.5t18.5 -40.5q0 -12 -2 -18q-9 -35 -25 -88q-35 -104 -78 -178l154 -183q16 -16 16 -39q0 -26 -19 -44.5t-44 -18.5q-28 0 -45 23l-131 155q-151 -194 -363 -194q-204 0 -341.5 128.5t-137.5 329.5zM256 442q0 -149 99.5 -242.5t256.5 -93.5q160 0 281 168 l-428 506q-100 -75 -154.5 -153.5t-54.5 -184.5zM334 1253q0 -129 121 -274l32 -39l49.5 33t45 31t46 34t38 33t37 37.5t27.5 38t23.5 43t12.5 45t6 51.5q0 89 -61 150t-152 61q-98 0 -161.5 -69.5t-63.5 -174.5z" />
<glyph unicode="'" horiz-adv-x="368" d="M123 1208v328q0 29 18 45t43 16t43.5 -16t18.5 -45v-328q0 -29 -18.5 -45t-43.5 -16t-43 16t-18 45z" />
<glyph unicode="(" horiz-adv-x="579" d="M102 625q0 451 172 809q41 83 93 159q21 27 47 27q25 0 44 -19t19 -45q0 -18 -12 -36q-15 -19 -35 -56q-104 -176 -154.5 -395.5t-50.5 -443.5q0 -141 23 -297.5t79.5 -323.5t137.5 -274q12 -18 12 -37q0 -26 -19 -44t-44 -18q-28 0 -47 25q-51 76 -82 138 q-170 338 -182 769q-1 31 -1 62z" />
<glyph unicode=")" horiz-adv-x="579" d="M102 1556q0 26 20.5 45t45.5 19q27 0 45 -27q18 -22 43 -65q113 -190 167 -425.5t54 -477.5q0 -152 -25.5 -322.5t-87.5 -351.5t-151 -295q-21 -27 -47 -27q-25 0 -43.5 19t-18.5 45q0 21 11 37q14 18 37 55q102 176 152 396t50 444q0 142 -22.5 297.5t-79 323 t-137.5 274.5q-13 20 -13 36z" />
<glyph unicode="*" horiz-adv-x="1171" d="M102 809q0 29 31 51l330 189l-330 190q-31 22 -31 51q0 25 18 45.5t44 20.5q14 0 31 -10l329 -191v381q0 29 18.5 45t43.5 16t43 -16t18 -45v-381l330 191q17 10 31 10q26 0 43.5 -20t17.5 -46q0 -32 -31 -51l-329 -188l329 -191q31 -19 31 -51q0 -26 -17.5 -46 t-43.5 -20q-13 0 -31 11l-330 190v-381q0 -29 -18 -45t-43 -16t-43.5 16t-18.5 45v381l-329 -190q-18 -11 -31 -11q-26 0 -44 20.5t-18 45.5z" />
<glyph unicode="+" horiz-adv-x="1474" d="M41 799q0 25 16 43t45 18h574v574q0 29 18 45t43 16t43.5 -16t18.5 -45v-574h573q29 0 45.5 -18t16.5 -43t-16.5 -43.5t-45.5 -18.5h-573v-573q0 -29 -18.5 -45.5t-43.5 -16.5t-43 16.5t-18 45.5v573h-574q-29 0 -45 18.5t-16 43.5z" />
<glyph unicode="," horiz-adv-x="430" d="M0 -307q0 26 27 47q8 6 20 20q66 65 101.5 154t35.5 186q0 29 18.5 45.5t43.5 16.5t43 -16.5t18 -45.5q0 -126 -56 -257t-153 -201q-16 -13 -37 -13q-24 0 -42.5 19.5t-18.5 44.5z" />
<glyph unicode="-" horiz-adv-x="778" d="M102 797q0 25 16.5 43t45.5 18h450q29 0 45.5 -18t16.5 -43t-16.5 -43.5t-45.5 -18.5h-450q-29 0 -45.5 18.5t-16.5 43.5z" />
<glyph unicode="." horiz-adv-x="368" d="M102 82q0 34 24 58t58 24t58 -24t24 -58t-24 -58t-58 -24t-58 24t-24 58z" />
<glyph unicode="/" horiz-adv-x="688" d="M41 -162q0 13 2 19l483 1695q14 45 58 45q26 0 44.5 -16t18.5 -43q0 -12 -2 -18l-483 -1696q-11 -45 -58 -45q-25 0 -44 16.5t-19 42.5z" />
<glyph unicode="0" d="M123 446v705q0 127 62.5 234.5t170 170t234.5 62.5t234.5 -62.5t170 -170t62.5 -234.5v-705q0 -127 -62.5 -234.5t-170 -169.5t-234.5 -62t-234.5 62t-170 169.5t-62.5 234.5zM246 446q0 -142 101 -243t243 -101t243 101t101 243v705q0 143 -101 243.5t-243 100.5 t-243 -100.5t-101 -243.5v-705z" />
<glyph unicode="1" d="M184 61q0 25 16.5 43.5t45.5 18.5h344v1309l-271 -146q-13 -8 -30 -8q-25 0 -42.5 18.5t-17.5 42.5q0 37 33 54l338 188q32 16 55 16q26 0 42 -15.5t16 -45.5v-1413h344q29 0 45 -18.5t16 -43.5t-16 -43t-45 -18h-811q-29 0 -45.5 18t-16.5 43z" />
<glyph unicode="2" horiz-adv-x="1177" d="M102 53q0 22 19 47q58 74 193 241t251 313.5t207 269.5q57 77 86 147.5t29 155.5q0 115 -86 191.5t-219 76.5q-167 0 -303 -172q-22 -25 -48 -25t-44.5 19.5t-18.5 44.5q0 22 14 39q66 90 172.5 153.5t227.5 63.5q115 0 212.5 -48.5t156.5 -139t59 -203.5q0 -60 -13 -117 t-28 -96t-51 -94t-57 -82.5t-70 -89.5l-494 -625h684q29 0 45 -18.5t16 -43.5t-16 -43t-45 -18h-811q-32 0 -50 14.5t-18 38.5z" />
<glyph unicode="3" d="M143 1352q0 14 11 32q8 16 24 39q66 90 161.5 142.5t205.5 52.5q194 0 320 -116.5t126 -309.5q0 -124 -55 -221t-152 -154q105 -59 166.5 -159.5t61.5 -225.5q0 -193 -136.5 -320.5t-330.5 -127.5q-116 0 -226 65.5t-165 167.5q-9 18 -9 33q0 24 18 39.5t42 15.5 q33 0 55 -31q6 -8 16 -22q49 -67 119.5 -106.5t149.5 -39.5q146 0 245 93.5t99 232.5t-98.5 231.5t-245.5 92.5q-30 0 -47 18t-17 43t17 43.5t47 18.5q145 0 234 86.5t89 226.5q0 139 -88 221t-235 82q-84 0 -164 -47t-121 -121q-17 -33 -53 -33q-24 0 -44 17t-20 41z" />
<glyph unicode="4" d="M92 461q0 6 4 26l1 3q95 257 272 545q185 300 413 544q27 27 54 27q24 0 38.5 -18.5t14.5 -51.5v-1008h137q29 0 45 -18t16 -43t-16 -43t-45 -18h-137v-345q0 -29 -18.5 -45t-43.5 -16t-43 16t-18 45v345h-612q-28 0 -45 15t-17 40zM244 528h522v846q-329 -389 -522 -846 z" />
<glyph unicode="5" d="M123 446q0 29 18 45.5t43 16.5t43.5 -16.5t18.5 -45.5q0 -142 101 -243t243 -101t243 101t101 243v162q0 142 -101 243t-243 101q-84 0 -175 -28.5t-149 -79.5q-26 -23 -53 -23q-22 0 -36.5 16.5t-14.5 45.5q0 2 1 7.5t1 8.5l102 647q3 20 22 35.5t40 15.5h620 q29 0 45.5 -18t16.5 -43t-16.5 -43t-45.5 -18h-567l-74 -463q134 63 283 63q127 0 234.5 -62.5t170 -170t62.5 -234.5v-162q0 -127 -62.5 -234.5t-170 -169.5t-234.5 -62t-234.5 62t-170 169.5t-62.5 234.5z" />
<glyph unicode="6" d="M143 446v162q0 160 31.5 306t96 277t173.5 233.5t254 160.5q86 35 121 35q27 0 43.5 -20t16.5 -46q0 -22 -13.5 -38.5t-38.5 -20.5q-35 -5 -84 -25q-166 -66 -272 -196t-156 -305q128 106 295 106q127 0 234.5 -62.5t170 -170t62.5 -234.5v-162q0 -127 -62.5 -234.5 t-170 -169.5t-234.5 -62t-234.5 62t-170 169.5t-62.5 234.5zM266 446q0 -142 101 -243t243 -101t243 101t101 243v162q0 142 -101 243t-243 101t-243 -101t-101 -243v-162z" />
<glyph unicode="7" horiz-adv-x="1181" d="M102 1536q0 25 16.5 43t45.5 18h831q27 0 45.5 -16.5t18.5 -40.5q0 -2 -1 -6t-1 -6q-25 -179 -103 -457q-151 -547 -417 -1038q-17 -33 -54 -33q-24 0 -42.5 17t-18.5 42q0 18 8 31q367 676 494 1385h-760q-29 0 -45.5 18t-16.5 43z" />
<glyph unicode="8" d="M143 410q0 66 18 124t45.5 99.5t71.5 81t85 66t98 57.5q-59 35 -102.5 69.5t-83 82t-60 109t-20.5 134.5q0 170 113 277.5t282 107.5q173 0 284 -107t111 -278q0 -73 -20.5 -134.5t-60 -109t-83 -82t-102.5 -69.5q72 -39 121.5 -74t98 -86.5t73 -118.5t24.5 -149 q0 -182 -130 -306t-316 -124q-183 0 -315 125t-132 305zM266 410q0 -127 95 -217.5t229 -90.5q137 0 230 90t93 218q0 39 -10 74t-24 62.5t-41 55.5t-49.5 46.5t-62 43t-65 38.5t-71.5 38q-54 -28 -83.5 -45t-74 -45t-69 -53t-50 -58.5t-36.5 -72.5t-11 -84zM317 1233 q0 -48 15 -90t38 -73.5t61 -62.5t73.5 -53.5t85.5 -48.5q63 33 106 62t84 68.5t61.5 89t20.5 108.5q0 117 -74.5 189.5t-197.5 72.5q-122 0 -197.5 -72.5t-75.5 -189.5z" />
<glyph unicode="9" d="M102 989v162q0 193 137 330t330 137t330 -137t137 -330v-162q0 -160 -31.5 -306t-96 -277t-173.5 -233.5t-254 -160.5q-86 -35 -121 -35q-26 0 -42.5 20t-16.5 46q0 22 13 38.5t38 20.5q35 5 84 25q321 128 428 502q-130 -107 -295 -107q-193 0 -330 137t-137 330z M225 989q0 -143 100.5 -243.5t243.5 -100.5t243.5 100.5t100.5 243.5v162q0 143 -100.5 243.5t-243.5 100.5t-243.5 -100.5t-100.5 -243.5v-162z" />
<glyph unicode=":" horiz-adv-x="368" d="M102 82q0 34 24 58t58 24t58 -24t24 -58t-24 -58t-58 -24t-58 24t-24 58zM102 1055q0 34 24 58t58 24t58 -24t24 -58t-24 -58t-58 -24t-58 24t-24 58z" />
<glyph unicode=";" horiz-adv-x="430" d="M0 -307q0 26 27 47q8 6 20 20q66 65 101.5 154t35.5 186q0 29 18.5 45.5t43.5 16.5t43 -16.5t18 -45.5q0 -126 -56 -257t-153 -201q-16 -13 -37 -13q-24 0 -42.5 19.5t-18.5 44.5zM164 1055q0 34 24 58t58 24t58 -24t24 -58t-24 -58t-58 -24t-58 24t-24 58z" />
<glyph unicode="&#x3c;" horiz-adv-x="1064" d="M61 743q0 27 21 45l756 682q22 19 41 19q25 0 44 -19.5t19 -44.5q0 -29 -22 -45l-705 -637l705 -637q22 -17 22 -45q0 -25 -19 -44t-44 -19q-20 0 -41 18l-756 682q-21 18 -21 45z" />
<glyph unicode="=" horiz-adv-x="1310" d="M102 573q0 25 16.5 43.5t45.5 18.5h983q29 0 45 -18.5t16 -43.5t-16 -43t-45 -18h-983q-29 0 -45.5 18t-16.5 43zM102 1024q0 25 16.5 43t45.5 18h983q29 0 45 -18t16 -43t-16 -43t-45 -18h-983q-29 0 -45.5 18t-16.5 43z" />
<glyph unicode="&#x3e;" horiz-adv-x="1064" d="M123 61q0 28 20 45l707 637l-707 637q-20 17 -20 45q0 25 18.5 44.5t44.5 19.5q19 0 41 -19l756 -682q21 -21 21 -45t-21 -45l-756 -682q-21 -18 -41 -18q-26 0 -44.5 19t-18.5 44z" />
<glyph unicode="?" horiz-adv-x="1003" d="M102 1339q0 9 7 27q6 16 20 41q60 99 155 155t210 56q177 0 282 -102t105 -269q0 -74 -20 -137.5t-53 -111.5t-74 -90.5t-85.5 -82.5t-84.5 -80t-74.5 -91t-51.5 -107q-11 -45 -57 -45q-25 0 -44.5 16.5t-19.5 42.5q0 4 5 19q12 45 47 106q26 45 68.5 93t84 86t85 84 t76.5 88t54 97t21 113q0 116 -68 182t-196 66q-87 0 -163 -49.5t-110 -128.5q-16 -37 -55 -37q-24 0 -44 17t-20 42zM276 82q0 34 24 58t58 24t58 -24t24 -58t-24 -58t-58 -24t-58 24t-24 58z" />
<glyph unicode="@" horiz-adv-x="1785" d="M123 489v353q0 158 61.5 301.5t165.5 247.5t247.5 165.5t301.5 61.5q159 0 301 -61.5t243.5 -166t160.5 -248t59 -300.5v-477q0 -122 -78 -218t-203 -96q-97 0 -164 48t-90 132q-132 -129 -305 -129q-154 0 -260 105t-106 260q0 52 7 117t17.5 143.5t14.5 118.5 q17 163 143.5 278t290.5 115q165 0 274 -119l2 17q3 25 20 43t44 18q28 0 43.5 -23t13.5 -45l-84 -792q-8 -72 30.5 -118t108.5 -46q67 0 112.5 57t45.5 134v477q0 133 -50 253.5t-135 208t-204.5 139.5t-251.5 52q-133 0 -253.5 -52t-208 -139.5t-139.5 -208t-52 -253.5 v-353q0 -133 52 -253.5t139.5 -208t208 -139.5t253.5 -52q146 0 272 70q16 8 31 8q28 0 45 -19.5t17 -44.5q0 -30 -29 -51q-141 -86 -336 -86q-158 0 -301.5 61.5t-247.5 165.5t-165.5 247.5t-61.5 301.5zM580 467q0 -104 70 -173t173 -69q114 0 207 79.5t103 187.5l38 352 q12 113 -58.5 192.5t-182.5 79.5q-117 0 -208.5 -83t-105.5 -199q-2 -20 -19 -160.5t-17 -206.5z" />
<glyph unicode="A" horiz-adv-x="1230" d="M61 59q0 6 5 21l491 1474q18 54 57 54q42 0 60 -54l491 -1474q4 -12 4 -21q0 -27 -19.5 -43t-45.5 -16q-41 0 -55 43l-154 461h-559l-154 -461q-14 -43 -57 -43q-25 0 -44.5 16.5t-19.5 42.5zM377 627h477l-240 714z" />
<glyph unicode="B" horiz-adv-x="1200" d="M164 61v1475q0 25 18 43t43 18h426q172 0 294 -121.5t122 -291.5q0 -110 -52.5 -203t-142.5 -150q102 -58 164 -161t62 -224q0 -122 -60 -224.5t-163 -162t-224 -59.5h-426q-25 0 -43 18t-18 43zM287 123h364q133 0 228.5 94.5t95.5 226.5q0 134 -95.5 229t-228.5 95 h-364v-645zM287 891h364q121 0 206 85.5t85 207.5l2 -2q0 122 -86 207.5t-207 85.5h-364v-584z" />
<glyph unicode="C" horiz-adv-x="1224" d="M123 508v582q0 143 71 264.5t192.5 192.5t264.5 71q123 0 253 -52t200 -143q14 -20 14 -39q0 -26 -19 -44.5t-44 -18.5q-26 0 -45 25q-9 8 -21 20q-66 63 -154.5 96t-183.5 33q-167 0 -286 -119t-119 -286v-582q0 -167 119 -286.5t286 -119.5q97 0 198.5 40t160.5 110 q16 22 45 22q26 0 46.5 -18t20.5 -43q0 -21 -18 -39q-11 -13 -31 -33q-83 -78 -193.5 -119.5t-228.5 -41.5q-143 0 -264.5 71t-192.5 192.5t-71 264.5z" />
<glyph unicode="D" horiz-adv-x="1312" d="M164 61v1475q0 25 18 43t43 18h426q143 0 265 -71t193 -192.5t71 -264.5v-541q0 -143 -71 -264.5t-193 -192.5t-265 -71h-426q-25 0 -43 18t-18 43zM287 123h364q167 0 286.5 119t119.5 286v541q0 167 -119.5 286.5t-286.5 119.5h-364v-1352z" />
<glyph unicode="E" horiz-adv-x="1157" d="M164 61v1475q0 25 18 43t43 18h768q29 0 45.5 -18t16.5 -43t-16.5 -43t-45.5 -18h-706v-578h645q29 0 45 -18t16 -43t-16 -43.5t-45 -18.5h-645v-651h706q29 0 45.5 -18.5t16.5 -43.5t-16.5 -43t-45.5 -18h-768q-25 0 -43 18t-18 43z" />
<glyph unicode="F" horiz-adv-x="1136" d="M164 61v1475q0 25 18 43t43 18h768q29 0 45.5 -18t16.5 -43t-16.5 -43t-45.5 -18h-706v-578h645q29 0 45 -18t16 -43t-16 -43.5t-45 -18.5h-645v-713q0 -29 -18.5 -45t-43.5 -16t-43 16t-18 45z" />
<glyph unicode="G" horiz-adv-x="1302" d="M123 508v582q0 143 71 264.5t192.5 192.5t264.5 71q123 0 253 -52t200 -143q14 -20 14 -39q0 -26 -19 -44.5t-44 -18.5q-26 0 -45 25q-9 8 -21 20q-66 63 -154.5 96t-183.5 33q-167 0 -286 -119t-119 -286v-582q0 -167 119 -286.5t286 -119.5t286.5 119.5t119.5 286.5 v221h-389q-29 0 -45.5 18.5t-16.5 43.5t16.5 43t45.5 18h450q25 0 43.5 -18t18.5 -43v-283q0 -143 -71 -264.5t-193 -192.5t-265 -71t-264.5 71t-192.5 192.5t-71 264.5z" />
<glyph unicode="H" horiz-adv-x="1343" d="M164 61v1475q0 29 18 45t43 16t43.5 -16t18.5 -45v-614h770v614q0 29 18 45t43 16t43.5 -16t18.5 -45v-1475q0 -29 -18.5 -45t-43.5 -16t-43 16t-18 45v738h-770v-738q0 -29 -18.5 -45t-43.5 -16t-43 16t-18 45z" />
<glyph unicode="I" horiz-adv-x="942" d="M82 61q0 25 16 43.5t45 18.5h267v1352h-267q-29 0 -45 18t-16 43t16 43t45 18h656q29 0 45 -18t16 -43t-16 -43t-45 -18h-267v-1352h267q29 0 45 -18.5t16 -43.5t-16 -43t-45 -18h-656q-29 0 -45 18t-16 43z" />
<glyph unicode="J" horiz-adv-x="1118" d="M61 215q0 24 20 41.5t44 17.5q35 0 51 -30q4 -7 14 -19q50 -60 123.5 -91.5t153.5 -31.5q158 0 261 117.5t103 288.5v967h-507q-29 0 -45.5 18t-16.5 43t16.5 43t45.5 18h569q25 0 43 -18t18 -43v-1028q0 -105 -35 -200.5t-97 -168t-154.5 -116t-200.5 -43.5 q-114 0 -227.5 54t-167.5 148q-11 14 -11 33z" />
<glyph unicode="K" horiz-adv-x="1308" d="M164 61v1475q0 29 18 45t43 16t43.5 -16t18.5 -45v-866l786 907q22 22 45 22q26 0 46 -19t20 -44q0 -17 -17 -41l-524 -602l590 -795q14 -17 14 -37q0 -26 -19.5 -43.5t-45.5 -17.5q-28 0 -47 25l-574 772l-274 -316v-420q0 -29 -18.5 -45t-43.5 -16t-43 16t-18 45z" />
<glyph unicode="L" horiz-adv-x="1116" d="M164 61v1475q0 29 18 45t43 16t43.5 -16t18.5 -45v-1413h706q29 0 45.5 -18.5t16.5 -43.5t-16.5 -43t-45.5 -18h-768q-25 0 -43 18t-18 43z" />
<glyph unicode="M" horiz-adv-x="1679" d="M164 61v1471q0 32 17 52t40 20q40 0 62 -48l557 -1335l557 1335q22 48 61 48q23 0 40.5 -20t17.5 -52v-1471q0 -29 -18.5 -45t-43.5 -16t-43 16t-18 45v1164l-496 -1188q-21 -47 -57 -47q-37 0 -58 47l-495 1188v-1164q0 -29 -18.5 -45t-43.5 -16t-43 16t-18 45z" />
<glyph unicode="N" horiz-adv-x="1343" d="M164 61v1475q0 33 16 52.5t39 19.5q37 0 60 -39l778 -1288v1255q0 29 18 45t43 16t43.5 -16t18.5 -45v-1475q0 -32 -16.5 -51.5t-39.5 -19.5q-36 0 -59 39l-778 1288v-1256q0 -29 -18.5 -45t-43.5 -16t-43 16t-18 45z" />
<glyph unicode="O" horiz-adv-x="1302" d="M123 508v582q0 143 71 264.5t192.5 192.5t264.5 71t265 -71t193 -192.5t71 -264.5v-582q0 -143 -71 -264.5t-193 -192.5t-265 -71t-264.5 71t-192.5 192.5t-71 264.5zM246 508q0 -167 119 -286.5t286 -119.5t286.5 119.5t119.5 286.5v582q0 167 -119.5 286t-286.5 119 t-286 -119t-119 -286v-582z" />
<glyph unicode="P" horiz-adv-x="1181" d="M164 61v1475q0 25 18 43t43 18h365q211 0 360.5 -148.5t149.5 -358.5q0 -139 -68.5 -256.5t-186 -185.5t-255.5 -68h-303v-519q0 -29 -18.5 -45t-43.5 -16t-43 16t-18 45zM287 702h303q160 0 273.5 112t113.5 273t-113.5 274.5t-273.5 113.5h-303v-773z" />
<glyph unicode="Q" horiz-adv-x="1302" d="M123 508v582q0 143 71 264.5t192.5 192.5t264.5 71t265 -71t193 -192.5t71 -264.5v-582q0 -133 -62 -248t-168.5 -188t-236.5 -88v-45q0 -81 57 -138t137 -57q29 0 45.5 -18t16.5 -43t-16.5 -43.5t-45.5 -18.5q-131 0 -224 93t-93 225v45q-130 15 -236.5 88t-168.5 188 t-62 248zM246 508q0 -167 119 -286.5t286 -119.5t286.5 119.5t119.5 286.5v582q0 167 -119.5 286t-286.5 119t-286 -119t-119 -286v-582z" />
<glyph unicode="R" horiz-adv-x="1206" d="M164 61v1475q0 25 18 43t43 18h365q211 0 360.5 -148.5t149.5 -358.5q0 -163 -93 -294t-241 -186l326 -516q12 -18 12 -35q0 -24 -20.5 -41.5t-45.5 -17.5q-32 0 -49 29l-352 553q-14 -2 -47 -2h-303v-519q0 -29 -18.5 -45t-43.5 -16t-43 16t-18 45zM287 702h303 q159 0 273 111.5t114 273.5q0 161 -113.5 274.5t-273.5 113.5h-303v-773z" />
<glyph unicode="S" horiz-adv-x="1208" d="M123 207q0 26 19 43.5t44 17.5q30 0 50 -26q6 -9 16 -19q58 -61 140 -91t171 -30q179 0 289.5 88t110.5 222q0 72 -28.5 128.5t-76.5 94t-110 68.5t-131 56.5t-138 52.5t-131 62.5t-110 79.5t-76.5 110.5t-28.5 149.5q0 94 38 171.5t101.5 127.5t144 77.5t167.5 27.5 q122 0 247.5 -60t196.5 -157q14 -17 14 -37q0 -25 -18 -42t-43 -17q-30 0 -49 22q-9 11 -23 25q-64 67 -149 105t-176 38q-140 0 -234 -78.5t-94 -202.5q0 -64 28.5 -114t76.5 -84t110 -62.5t130.5 -54.5t137.5 -53.5t131 -66t110 -86.5t76.5 -120t28.5 -161 q0 -131 -73 -231t-190.5 -150.5t-258.5 -50.5q-119 0 -242.5 50.5t-185.5 141.5q-12 18 -12 35z" />
<glyph unicode="T" horiz-adv-x="1146" d="M20 1536q0 25 16.5 43t45.5 18h983q29 0 45 -18t16 -43t-16 -43t-45 -18h-430v-1414q0 -29 -18.5 -45t-43.5 -16t-43 16t-18 45v1414h-430q-29 0 -45.5 18t-16.5 43z" />
<glyph unicode="U" horiz-adv-x="1343" d="M143 508v1028q0 29 18.5 45t43.5 16t43 -16t18 -45v-1028q0 -167 119.5 -286.5t286.5 -119.5t286 119.5t119 286.5v1028q0 29 18.5 45t43.5 16t43 -16t18 -45v-1028q0 -143 -71 -264.5t-192.5 -192.5t-264.5 -71t-265 71t-193 192.5t-71 264.5z" />
<glyph unicode="V" horiz-adv-x="1189" d="M41 1538q0 26 19 42.5t44 16.5q44 0 58 -43l432 -1312l434 1312q14 43 55 43q26 0 46 -16.5t20 -42.5q0 -8 -4 -20l-492 -1491q-18 -54 -59 -54q-42 0 -57 54l-492 1491q-4 12 -4 20z" />
<glyph unicode="W" horiz-adv-x="1925" d="M41 1538q0 26 19 42.5t44 16.5q46 0 58 -45l354 -1286l389 1288q7 25 23.5 39.5t34.5 14.5q19 0 35.5 -14t23.5 -40l389 -1288l352 1286q15 45 58 45q26 0 44.5 -16t18.5 -43q0 -12 -2 -18l-409 -1491q-7 -27 -23.5 -41.5t-36.5 -14.5q-18 0 -34 14.5t-23 39.5l-393 1296 l-392 -1296q-7 -26 -23.5 -40t-35.5 -14t-35.5 14.5t-23.5 41.5l-410 1491q-2 6 -2 18z" />
<glyph unicode="X" horiz-adv-x="1187" d="M82 59q0 21 10 33l430 737l-395 676q-10 13 -10 33q0 24 19.5 41.5t43.5 17.5q35 0 51 -30l363 -617l362 617q16 30 52 30q24 0 43.5 -17.5t19.5 -41.5q0 -20 -10 -33l-395 -676l430 -737q10 -13 10 -33q0 -24 -20 -41.5t-44 -17.5q-35 0 -51 31l-397 676l-397 -676 q-16 -31 -52 -31q-24 0 -43.5 17.5t-19.5 41.5z" />
<glyph unicode="Y" horiz-adv-x="1189" d="M41 1538q0 24 19.5 41.5t43.5 17.5q36 0 52 -30l438 -733l440 733q16 30 51 30q24 0 44 -17.5t20 -41.5q0 -20 -10 -33l-484 -809v-635q0 -29 -18 -45t-43 -16t-43.5 16t-18.5 45v635l-481 809q-10 13 -10 33z" />
<glyph unicode="Z" horiz-adv-x="1200" d="M92 53q0 18 12 39l826 1383h-725q-29 0 -45.5 18t-16.5 43t16.5 43t45.5 18h833q30 0 48 -14.5t18 -38.5q0 -18 -12 -39l-826 -1382h781q29 0 45 -18.5t16 -43.5t-16 -43t-45 -18h-889q-30 0 -48 14.5t-18 38.5z" />
<glyph unicode="[" horiz-adv-x="641" d="M123 -307v1843q0 25 18 43t43 18h334q29 0 45.5 -18t16.5 -43t-16.5 -43t-45.5 -18h-272v-1721h272q29 0 45.5 -18t16.5 -43t-16.5 -43.5t-45.5 -18.5h-334q-25 0 -43 18.5t-18 43.5z" />
<glyph unicode="\" horiz-adv-x="688" d="M41 1538q0 26 19 42.5t44 16.5q47 0 58 -45l483 -1695q2 -6 2 -19q0 -27 -18.5 -43t-44.5 -16q-44 0 -58 45l-483 1696q-2 6 -2 18z" />
<glyph unicode="]" horiz-adv-x="641" d="M61 -307q0 25 16.5 43t45.5 18h272v1721h-272q-29 0 -45.5 18t-16.5 43t16.5 43t45.5 18h334q25 0 43 -18t18 -43v-1843q0 -25 -18 -43.5t-43 -18.5h-334q-29 0 -45.5 18.5t-16.5 43.5z" />
<glyph unicode="^" horiz-adv-x="1095" d="M123 858q0 18 8 31l363 676q21 41 53 41q34 0 55 -41l363 -676q8 -13 8 -31q0 -25 -20 -42t-46 -17q-36 0 -51 32l-309 576l-307 -576q-15 -32 -54 -32q-24 0 -43.5 17t-19.5 42z" />
<glyph unicode="_" horiz-adv-x="1024" d="M-41 -348q0 24 16 42.5t45 18.5h984q29 0 45 -18.5t16 -42.5t-16 -43t-45 -19h-984q-29 0 -45 19t-16 43z" />
<glyph unicode="`" horiz-adv-x="825" d="M250 1522q0 22 15 38.5t36 16.5q15 0 33 -12l223 -179q18 -15 18 -38q0 -22 -15 -39t-36 -17q-12 0 -32 13l-224 178q-18 15 -18 39z" />
<glyph unicode="a" horiz-adv-x="978" d="M102 309q0 74 29.5 134t81 100.5t113 67.5t135.5 42l262 56v96q0 106 -61.5 167.5t-182.5 61.5q-98 0 -172 -57q-13 -11 -31 -30.5t-31 -27.5t-32 -8q-24 0 -41.5 17t-17.5 43q0 27 28 59q54 62 132 94.5t165 32.5q170 0 268.5 -97.5t98.5 -254.5v-473q0 -154 -109 -253 t-262 -99q-100 0 -183.5 36.5t-136.5 113t-53 179.5zM225 311q0 -95 67.5 -152t180.5 -57q108 0 179 65.5t71 164.5v254l-264 -58q-107 -23 -170.5 -81.5t-63.5 -135.5z" />
<glyph unicode="b" horiz-adv-x="1075" d="M143 379v1157q0 29 18.5 45t43.5 16t43 -16t18 -45v-508q119 129 277 129q166 0 282.5 -116.5t116.5 -282.5v-379q0 -166 -116.5 -282.5t-282.5 -116.5t-283 116.5t-117 282.5zM266 379q0 -115 81 -196t196 -81t195.5 80.5t80.5 196.5v379q0 116 -80.5 196t-195.5 80 q-116 0 -196.5 -80.5t-80.5 -195.5v-379z" />
<glyph unicode="c" horiz-adv-x="968" d="M133 332v473q0 157 108 254.5t279 97.5q93 0 189.5 -39.5t144.5 -109.5q10 -15 10 -35q0 -26 -19 -44t-44 -18q-30 0 -49 27q-3 4 -11 12q-78 84 -221 84q-124 0 -194 -64t-70 -165v-473q0 -101 70 -165.5t194 -64.5q66 0 132.5 25t99.5 72q20 26 49 26q25 0 45 -17.5 t20 -41.5q0 -19 -12 -37q-9 -11 -23 -27q-58 -61 -139.5 -91.5t-171.5 -30.5q-171 0 -279 97.5t-108 254.5z" />
<glyph unicode="d" horiz-adv-x="1075" d="M133 379v379q0 166 116.5 282.5t282.5 116.5q158 0 277 -129v508q0 29 18 45t43 16t43.5 -16t18.5 -45v-1157q0 -166 -117 -282.5t-283 -116.5t-282.5 116.5t-116.5 282.5zM256 379q0 -116 80.5 -196.5t195.5 -80.5q116 0 196.5 81t80.5 196v379q0 115 -80.5 195.5 t-196.5 80.5t-196 -80t-80 -196v-379z" />
<glyph unicode="e" horiz-adv-x="1054" d="M133 379v379q0 166 116.5 282.5t282.5 116.5t283 -116.5t117 -282.5v-144q0 -25 -18.5 -43t-43.5 -18h-614v-174q0 -110 89.5 -193.5t207.5 -83.5q154 0 231 99q20 26 52 26q25 0 44 -17.5t19 -41.5q0 -21 -12 -39q-56 -73 -145.5 -111t-188.5 -38q-107 0 -203.5 52 t-156.5 145t-60 202zM256 676h553v82q0 115 -80.5 195.5t-196.5 80.5t-196 -80t-80 -196v-82z" />
<glyph unicode="f" horiz-adv-x="774" d="M20 1075q0 25 16.5 43.5t45.5 18.5h186v192q0 123 89 206t223 83q103 0 182 -49q33 -23 33 -53q0 -25 -18 -45.5t-44 -20.5q-13 0 -59 22.5t-94 22.5q-86 0 -137.5 -48t-51.5 -118v-192h307q29 0 45.5 -18.5t16.5 -43.5t-16.5 -43t-45.5 -18h-307v-953q0 -29 -18 -45 t-43 -16t-43.5 16t-18.5 45v953h-186q-29 0 -45.5 18t-16.5 43z" />
<glyph unicode="g" horiz-adv-x="1075" d="M133 420v338q0 166 116.5 282.5t282.5 116.5t283 -116.5t117 -282.5v-768q0 -166 -117 -283t-283 -117q-92 0 -188.5 39.5t-144.5 110.5q-11 17 -11 35q0 26 19.5 43.5t44.5 17.5q31 0 49 -26q2 -5 10 -13q78 -84 221 -84q116 0 196.5 80.5t80.5 196.5v160 q-120 -130 -277 -130q-166 0 -282.5 117t-116.5 283zM256 420q0 -116 80.5 -196.5t195.5 -80.5q116 0 196.5 80.5t80.5 196.5v338q0 115 -80.5 195.5t-196.5 80.5t-196 -80t-80 -196v-338z" />
<glyph unicode="h" horiz-adv-x="1085" d="M143 61v1475q0 29 18.5 45t43.5 16t43 -16t18 -45v-508q119 129 277 129q166 0 282.5 -116.5t116.5 -282.5v-697q0 -29 -18 -45t-43 -16t-43.5 16t-18.5 45v697q0 116 -80.5 196t-195.5 80q-116 0 -196.5 -80.5t-80.5 -195.5v-697q0 -29 -18 -45t-43 -16t-43.5 16 t-18.5 45z" />
<glyph unicode="i" horiz-adv-x="409" d="M123 1491q0 34 24 58t58 24t58 -24t24 -58t-24 -58t-58 -24t-58 24t-24 58zM143 61v1014q0 29 18.5 45.5t43.5 16.5t43 -16.5t18 -45.5v-1014q0 -29 -18 -45t-43 -16t-43.5 16t-18.5 45z" />
<glyph unicode="j" horiz-adv-x="430" d="M-20 -346q0 27 26 47q9 6 21 20q66 65 101.5 154t35.5 186v1014q0 29 18 45.5t43 16.5t43.5 -16.5t18.5 -45.5v-1014q0 -126 -56 -257t-153 -201q-16 -13 -37 -13q-24 0 -42.5 19.5t-18.5 44.5zM143 1491q0 34 24 58t58 24t58 -24t24 -58t-24 -58t-58 -24t-58 24t-24 58z " />
<glyph unicode="k" horiz-adv-x="966" d="M143 61v1475q0 29 18.5 45t43.5 16t43 -16t18 -45v-1001l496 579q22 25 45 25q26 0 45.5 -19.5t19.5 -44.5q0 -20 -16 -39l-346 -403l401 -535q15 -18 15 -37q0 -25 -20 -43t-46 -18q-28 0 -47 25l-385 512l-162 -191v-285q0 -29 -18 -45t-43 -16t-43.5 16t-18.5 45z" />
<glyph unicode="l" horiz-adv-x="450" d="M143 322v1214q0 29 18.5 45t43.5 16t43 -16t18 -45v-1214q0 -69 25.5 -134.5t79.5 -89.5q39 -17 39 -57q0 -24 -17.5 -42.5t-42.5 -18.5q-16 0 -24 4q-13 4 -33 18q-75 48 -112.5 134.5t-37.5 185.5z" />
<glyph unicode="m" horiz-adv-x="1597" d="M143 61v738q0 149 105 253.5t254 104.5q91 0 170 -43t127 -115q48 72 127 115t170 43q149 0 253.5 -104.5t104.5 -253.5v-738q0 -29 -18 -45t-43 -16t-43.5 16t-18.5 45v738q0 98 -68.5 166.5t-166.5 68.5t-167 -68.5t-69 -166.5v-738q0 -30 -18 -46.5t-43 -16.5 t-43.5 16.5t-18.5 46.5v738q0 98 -68.5 166.5t-166.5 68.5t-167 -68.5t-69 -166.5v-738q0 -29 -18 -45t-43 -16t-43.5 16t-18.5 45z" />
<glyph unicode="n" horiz-adv-x="1085" d="M143 61v697q0 166 117 282.5t283 116.5t282.5 -116.5t116.5 -282.5v-697q0 -29 -18 -45t-43 -16t-43.5 16t-18.5 45v697q0 116 -80.5 196t-195.5 80q-116 0 -196.5 -80.5t-80.5 -195.5v-697q0 -29 -18 -45t-43 -16t-43.5 16t-18.5 45z" />
<glyph unicode="o" horiz-adv-x="1064" d="M133 379v379q0 166 116.5 282.5t282.5 116.5t283 -116.5t117 -282.5v-379q0 -166 -117 -282.5t-283 -116.5t-282.5 116.5t-116.5 282.5zM256 379q0 -116 80.5 -196.5t195.5 -80.5q116 0 196.5 81t80.5 196v379q0 115 -80.5 195.5t-196.5 80.5t-196 -80t-80 -196v-379z " />
<glyph unicode="p" horiz-adv-x="1075" d="M143 -348v1106q0 166 117 282.5t283 116.5t282.5 -116.5t116.5 -282.5v-379q0 -166 -116.5 -282.5t-282.5 -116.5q-158 0 -277 129v-457q0 -29 -18 -45.5t-43 -16.5t-43.5 16.5t-18.5 45.5zM266 379q0 -115 81 -196t196 -81t195.5 80.5t80.5 196.5v379q0 116 -80.5 196 t-195.5 80q-116 0 -196.5 -80.5t-80.5 -195.5v-379z" />
<glyph unicode="q" horiz-adv-x="1075" d="M133 379v379q0 166 116.5 282.5t282.5 116.5t283 -116.5t117 -282.5v-1106q0 -29 -18.5 -45.5t-43.5 -16.5t-43 16.5t-18 45.5v457q-119 -129 -277 -129q-166 0 -282.5 116.5t-116.5 282.5zM256 379q0 -116 80.5 -196.5t195.5 -80.5q116 0 196.5 81t80.5 196v379 q0 115 -80.5 195.5t-196.5 80.5t-196 -80t-80 -196v-379z" />
<glyph unicode="r" horiz-adv-x="817" d="M143 61v682q0 179 94 296.5t265 117.5q66 0 138 -27t116 -73q20 -20 20 -43q0 -25 -18.5 -43.5t-44.5 -18.5q-21 0 -43 19q-5 4 -11 8q-68 55 -157 55q-111 0 -173.5 -76.5t-62.5 -214.5v-682q0 -29 -18 -45t-43 -16t-43.5 16t-18.5 45z" />
<glyph unicode="s" horiz-adv-x="909" d="M102 156q0 26 19.5 43.5t44.5 17.5q30 0 49 -27l10 -10q75 -78 201 -78q117 0 187.5 58t70.5 143q0 59 -31.5 102.5t-82.5 70.5t-112 50.5t-122.5 50.5t-112.5 61.5t-82.5 92t-31.5 133.5q0 93 50 161.5t123.5 100t157.5 31.5q89 0 178.5 -44.5t135.5 -117.5 q10 -17 10 -34q0 -24 -20 -42t-44 -18q-31 0 -51 29q-4 4 -10 14q-80 90 -199 90q-92 0 -150.5 -47.5t-58.5 -122.5q0 -51 32 -89.5t82.5 -63.5t112 -48t123 -51.5t112 -65.5t82.5 -99.5t32 -143.5q0 -96 -53 -171t-139.5 -113.5t-188.5 -38.5q-86 0 -176.5 37.5 t-134.5 103.5q-13 19 -13 35z" />
<glyph unicode="t" horiz-adv-x="878" d="M20 1075q0 25 16.5 43.5t45.5 18.5h186v260q0 29 18.5 45t43.5 16t43 -16t18 -45v-260h363q29 0 45 -18.5t16 -43.5t-16 -43t-45 -18h-363v-746q0 -70 51.5 -118t137.5 -48q49 0 88 18.5t65.5 37t44.5 18.5q24 0 42 -19t18 -44q0 -27 -41 -60q-99 -73 -217 -73 q-135 0 -223.5 82.5t-88.5 205.5v746h-186q-29 0 -45.5 18t-16.5 43z" />
<glyph unicode="u" horiz-adv-x="1085" d="M143 379v696q0 29 18.5 45.5t43.5 16.5t43 -16.5t18 -45.5v-696q0 -115 81 -196t196 -81t195.5 80.5t80.5 196.5v696q0 29 18.5 45.5t43.5 16.5t43 -16.5t18 -45.5v-696q0 -166 -116.5 -282.5t-282.5 -116.5t-283 116.5t-117 282.5z" />
<glyph unicode="v" horiz-adv-x="1026" d="M61 1077q0 25 20 42.5t44 17.5q41 0 55 -39l332 -865l332 865q17 39 55 39q26 0 46 -17.5t20 -42.5q0 -10 -7 -24l-389 -1014q-18 -49 -57 -49t-57 49l-389 1014q-5 20 -5 24z" />
<glyph unicode="w" horiz-adv-x="1515" d="M61 1077q0 26 19.5 43t44.5 17q43 0 57 -43l250 -828l268 828q7 25 23.5 39t34.5 14q41 0 59 -53l266 -828l252 828q11 43 56 43q26 0 44.5 -16.5t18.5 -43.5q0 -12 -2 -20l-307 -1014q-7 -25 -23.5 -39t-36.5 -14q-19 0 -34.5 13.5t-22.5 39.5l-270 831l-269 -831 q-17 -53 -59 -53t-57 53l-307 1014q-5 10 -5 20z" />
<glyph unicode="x" horiz-adv-x="956" d="M82 59q0 18 10 35l314 486l-300 462q-10 17 -10 35q0 24 20 42t44 18q31 0 51 -29l268 -416l266 416q20 29 52 29q25 0 44 -18t19 -42q0 -18 -10 -35l-299 -462l313 -486q10 -17 10 -35q0 -24 -19 -41.5t-44 -17.5q-31 0 -51 29l-281 438l-282 -438q-20 -29 -52 -29 q-24 0 -43.5 17.5t-19.5 41.5z" />
<glyph unicode="y" horiz-adv-x="987" d="M61 1077q0 26 19.5 43t44.5 17q40 0 57 -41l305 -852l318 852q14 41 55 41q26 0 46 -16.5t20 -43.5q0 -10 -6 -22l-531 -1424q-14 -41 -55 -41q-25 0 -44.5 17t-19.5 43q0 6 4 22l146 394l-354 989q-5 20 -5 22z" />
<glyph unicode="z" horiz-adv-x="937" d="M72 51q0 23 14 43l588 920h-490q-29 0 -45 18t-16 43t16 43.5t45 18.5h602q30 0 48 -15t18 -37q0 -23 -14 -43l-588 -919h545q29 0 45 -18.5t16 -43.5t-16 -43t-45 -18h-658q-30 0 -47.5 14.5t-17.5 36.5z" />
<glyph unicode="{" horiz-adv-x="772" d="M20 612q0 25 17 43.5t47 18.5q70 0 120 50t50 120v461q0 121 85.5 206.5t205.5 85.5h104q29 0 45.5 -18t16.5 -43t-16.5 -43t-45.5 -18h-104q-69 0 -118.5 -49.5t-49.5 -118.5v-463q0 -69 -30.5 -129t-82.5 -101q53 -42 83 -102t30 -129v-461q0 -69 48.5 -119.5 t115.5 -50.5h108q29 0 45.5 -18t16.5 -43t-16.5 -43.5t-45.5 -18.5h-108q-119 0 -203 86t-84 205v463q0 70 -49.5 119t-120.5 49q-30 0 -47 18t-17 43z" />
<glyph unicode="|" horiz-adv-x="532" d="M205 -348v1884q0 29 18 45t43 16t43.5 -16t18.5 -45v-1884q0 -29 -18.5 -45.5t-43.5 -16.5t-43 16.5t-18 45.5z" />
<glyph unicode="}" horiz-adv-x="772" d="M61 -309q0 25 16.5 43t45.5 18h108q67 0 115.5 50t48.5 118v463q0 69 30.5 128.5t82.5 100.5q-52 42 -82.5 102.5t-30.5 129.5v461q0 70 -49.5 120t-118.5 50h-104q-29 0 -45.5 18t-16.5 43t16.5 43t45.5 18h102q121 0 207 -85t86 -205v-463q0 -70 49.5 -119t118.5 -49 q31 0 48.5 -18.5t17.5 -43.5t-17.5 -43t-46.5 -18q-70 0 -120 -49.5t-50 -120.5v-461q0 -120 -84.5 -206.5t-202.5 -86.5h-110q-28 0 -44 18.5t-16 43.5z" />
<glyph unicode="~" horiz-adv-x="974" d="M102 842q0 10 11 32q6 11 16 25q41 55 100.5 88t124.5 33q53 0 96 -18t65 -39.5t50 -39.5t56 -18q43 0 80 20t51 56q17 39 57 39q24 0 43.5 -17t19.5 -42q0 -13 -6 -25q-4 -11 -12 -27q-36 -61 -98 -94t-135 -33q-47 0 -86.5 18t-62 39.5t-54 39.5t-64.5 18 q-39 0 -76.5 -24t-58.5 -60q-16 -31 -51 -31q-25 0 -45.5 18t-20.5 42z" />
<glyph unicode="&#xa1;" horiz-adv-x="409" d="M123 1106q0 34 24 58t58 24t58 -24t24 -58t-24 -58t-58 -24t-58 24t-24 58zM143 -348v973q0 29 18.5 45t43.5 16t43 -16t18 -45v-973q0 -29 -18 -45.5t-43 -16.5t-43.5 16.5t-18.5 45.5z" />
<glyph unicode="&#xa2;" horiz-adv-x="968" d="M133 578v473q0 141 88 235t234 113v178q0 29 18 45t43 16t43.5 -16t18.5 -45v-178q82 -10 158.5 -48t117.5 -98q10 -15 10 -34q0 -26 -19 -44t-44 -18q-30 0 -49 27q-3 4 -11 12q-60 63 -163 80v-924q123 19 174 92q21 27 49 27q25 0 45 -17.5t20 -41.5q0 -19 -12 -37 q-9 -11 -23 -27q-100 -103 -253 -119v-168q0 -29 -18.5 -45t-43.5 -16t-43 16t-18 45v168q-146 19 -234 113.5t-88 235.5zM256 578q0 -88 52 -148.5t147 -75.5v920q-95 -15 -147 -75t-52 -148v-473z" />
<glyph unicode="&#xa3;" horiz-adv-x="1185" d="M102 39q0 19 14 46t35 56.5t25 36.5q53 100 53 223v232h-61q-29 0 -45.5 18t-16.5 43t16.5 43.5t45.5 18.5h61v374q0 132 54.5 243t158 178t234.5 67q84 0 164.5 -29t146 -88t92.5 -137q4 -16 4 -23q0 -27 -19.5 -43t-45.5 -16q-41 0 -55 41q-5 11 -13 23 q-40 73 -112 111t-162 38q-141 0 -232.5 -103.5t-91.5 -261.5v-374h269q29 0 45 -18.5t16 -43.5t-16 -43t-45 -18h-269v-232q0 -148 -65 -278h409q87 0 172 33.5t117 101.5q16 37 55 37q24 0 44 -17t20 -42q0 -12 -6 -27q-7 -14 -23 -37q-60 -86 -161.5 -129t-217.5 -43 h-528q-66 0 -66 39z" />
<glyph unicode="&#xa5;" horiz-adv-x="1189" d="M41 1538q0 24 19.5 41.5t43.5 17.5q36 0 52 -30l438 -733l440 733q16 30 51 30q24 0 44 -17.5t20 -41.5q0 -20 -10 -33l-484 -809v-88h265q29 0 45 -18t16 -43t-16 -43.5t-45 -18.5h-265v-129h265q29 0 45 -18t16 -43t-16 -43.5t-45 -18.5h-265v-172q0 -29 -18 -45 t-43 -16t-43.5 16t-18.5 45v172h-264q-29 0 -45 18.5t-16 43.5t16 43t45 18h264v129h-264q-29 0 -45 18.5t-16 43.5t16 43t45 18h264v88l-481 809q-10 13 -10 33z" />
<glyph unicode="&#xa6;" horiz-adv-x="491" d="M184 -348v829q0 29 18.5 45.5t43.5 16.5t43 -16.5t18 -45.5v-829q0 -29 -18 -45.5t-43 -16.5t-43.5 16.5t-18.5 45.5zM184 707v829q0 29 18.5 45t43.5 16t43 -16t18 -45v-829q0 -29 -18 -45.5t-43 -16.5t-43.5 16.5t-18.5 45.5z" />
<glyph unicode="&#xa7;" horiz-adv-x="1208" d="M123 -162q0 26 19 44t44 18q29 0 50 -27q6 -8 16 -18q58 -61 140 -91t171 -30q179 0 289.5 87.5t110.5 221.5q0 24 -6 50t-12.5 41.5t-18.5 41t-15 33.5l-2 4q-33 39 -87 71.5t-113.5 53.5l-127.5 45t-130.5 45.5t-121 55.5t-101.5 75t-69 104t-26 142q0 119 60 207 q-60 86 -60 202q0 94 38 171.5t101.5 127.5t144 77.5t167.5 27.5q122 0 247.5 -60t196.5 -157q14 -17 14 -37q0 -25 -18 -42t-43 -17q-30 0 -49 22q-9 11 -23 25q-64 67 -149 105t-176 38q-140 0 -234 -78.5t-94 -202.5q0 -64 28.5 -113t76.5 -80.5t110 -57t130.5 -47.5 t137.5 -46.5t131 -59.5t110 -80.5t76.5 -116t28.5 -160.5q0 -115 -53 -201q53 -86 53 -209q0 -131 -73 -231t-190.5 -150.5t-258.5 -50.5q-119 0 -242.5 50.5t-185.5 141.5q-12 18 -12 35zM256 805q0 -70 35 -122.5t90 -83.5t131 -61t148.5 -51.5t151.5 -58t132 -78.5 q19 49 19 103q0 67 -24.5 119.5t-68.5 88t-98.5 62.5t-120.5 49.5t-127.5 42.5t-127.5 48.5t-113 60.5q-27 -59 -27 -119z" />
<glyph unicode="&#xa8;" horiz-adv-x="696" d="M102 1391q0 34 24 58t58 24t58 -24t24 -58t-24 -58t-58 -24t-58 24t-24 58zM430 1391q0 34 24 58t58 24t58 -24t24 -58t-24 -58t-58 -24t-58 24t-24 58z" />
<glyph unicode="&#xa9;" horiz-adv-x="1818" d="M102 801q0 219 108 407t294 299t405 111t405 -111t294 -299t108 -407t-108 -407t-294 -299t-405 -111t-405 111t-294 299t-108 407zM225 801q0 -140 54.5 -268t146 -222t218 -149.5t265.5 -55.5t265.5 55.5t218 149.5t146 222t54.5 268q0 187 -91.5 346.5t-249.5 253.5 t-343 94t-343 -94t-249.5 -253.5t-91.5 -346.5zM559 637v324q0 141 100.5 241.5t241.5 100.5q78 0 162 -34t129 -93q14 -17 14 -39q0 -25 -19 -43.5t-44 -18.5t-47 25q-3 4 -11 10q-76 70 -184 70q-91 0 -155 -64t-64 -155v-324q0 -91 64 -155t155 -64q53 0 108 21t87 59 q19 22 47 22q25 0 45 -18.5t20 -42.5q0 -21 -16 -37q-7 -11 -21 -23q-53 -50 -124 -77t-146 -27q-141 0 -241.5 100.5t-100.5 241.5z" />
<glyph unicode="&#xaa;" horiz-adv-x="968" d="M102 811q0 73 28.5 132t78.5 99.5t110 67.5t132 43q194 45 272 59v54q0 106 -61.5 167.5t-182.5 61.5q-62 0 -120 -21t-87 -69q-20 -33 -53 -33q-26 0 -45.5 17.5t-19.5 42.5q0 17 8 30q43 82 129 119t188 37q170 0 268.5 -97.5t98.5 -254.5v-432q0 -155 -109 -254 t-262 -99q-74 0 -140.5 21.5t-119 62t-83 104.5t-30.5 142zM225 813q0 -95 67.5 -152t180.5 -57q108 0 179 65.5t71 164.5v253l-264 -59q-107 -24 -170.5 -81t-63.5 -134z" />
<glyph unicode="&#xab;" horiz-adv-x="1081" d="M102 578q0 47 60 98l317 272q19 19 41 19q25 0 43.5 -19.5t18.5 -44.5q0 -27 -21 -45l-313 -280l313 -281q21 -18 21 -45q0 -25 -18.5 -44.5t-43.5 -19.5q-22 0 -41 19l-317 272q-60 51 -60 99zM459 578q0 48 59 98l318 272q22 19 41 19q24 0 42.5 -19.5t18.5 -44.5 q0 -28 -20 -45l-314 -280l314 -281q20 -17 20 -45q0 -25 -18.5 -44.5t-42.5 -19.5q-19 0 -41 19l-318 272q-59 50 -59 99z" />
<glyph unicode="&#xad;" horiz-adv-x="778" d="M102 797q0 25 16.5 43t45.5 18h450q29 0 45.5 -18t16.5 -43t-16.5 -43.5t-45.5 -18.5h-450q-29 0 -45.5 18.5t-16.5 43.5z" />
<glyph unicode="&#xae;" horiz-adv-x="1818" d="M102 801q0 219 108 407t294 299t405 111t405 -111t294 -299t108 -407t-108 -407t-294 -299t-405 -111t-405 111t-294 299t-108 407zM225 801q0 -140 54.5 -268t146 -222t218 -149.5t265.5 -55.5t265.5 55.5t218 149.5t146 222t54.5 268q0 187 -91.5 346.5t-249.5 253.5 t-343 94t-343 -94t-249.5 -253.5t-91.5 -346.5zM623 356v885q0 25 18 43.5t43 18.5h219q137 0 233.5 -96.5t96.5 -233.5q0 -97 -52 -178t-137 -121l181 -285q10 -15 10 -35q0 -24 -19.5 -41.5t-44.5 -17.5q-31 0 -51 29l-200 319h-175v-287q0 -29 -18 -45t-43 -16t-43 16 t-18 45zM745 766h158q85 0 146 60.5t61 146.5t-60.5 146.5t-146.5 60.5h-158v-414z" />
<glyph unicode="&#xaf;" horiz-adv-x="825" d="M201 1407q0 20 14 35.5t37 15.5h323q25 0 37.5 -17t12.5 -34t-12.5 -34t-37.5 -17h-323q-23 0 -37 15.5t-14 35.5z" />
<glyph unicode="&#xb0;" horiz-adv-x="817" d="M102 1311q0 127 90 217t216 90q127 0 217 -89.5t90 -215.5q0 -127 -89.5 -217t-215.5 -90q-127 0 -217.5 89.5t-90.5 215.5zM225 1313q0 -76 54 -130.5t129 -54.5q76 0 130 54t54 131v-2q0 76 -53.5 130t-128.5 54q-76 0 -130.5 -53.5t-54.5 -128.5z" />
<glyph unicode="&#xb1;" horiz-adv-x="1474" d="M41 61q0 25 16 43.5t45 18.5h1270q29 0 45.5 -18.5t16.5 -43.5t-16.5 -43t-45.5 -18h-1270q-29 0 -45 18t-16 43zM41 799q0 25 16 43t45 18h574v574q0 29 18 45t43 16t43.5 -16t18.5 -45v-574h573q29 0 45.5 -18t16.5 -43t-16.5 -43.5t-45.5 -18.5h-573v-409 q0 -29 -18.5 -45.5t-43.5 -16.5t-43 16.5t-18 45.5v409h-574q-29 0 -45 18.5t-16 43.5z" />
<glyph unicode="&#xb4;" horiz-adv-x="825" d="M250 1348q0 23 18 38l224 179q18 12 32 12q21 0 36 -16.5t15 -38.5q0 -24 -18 -39l-223 -178q-19 -13 -33 -13q-21 0 -36 17t-15 39z" />
<glyph unicode="&#xb6;" horiz-adv-x="1171" d="M61 1087q0 139 68 256.5t185 185.5t255 68h365q25 0 44 -18t19 -43v-1700q0 -29 -18 -45t-43 -16t-43.5 16t-18.5 45v1639h-178v-1639q0 -29 -18 -45t-43 -16t-43.5 16t-18.5 45v744h-2q-139 0 -256.5 67.5t-185.5 184.5t-68 255z" />
<glyph unicode="&#xb7;" horiz-adv-x="368" d="M102 799q0 34 24 58t58 24t58 -24t24 -58t-24 -58t-58 -24t-58 24t-24 58z" />
<glyph unicode="&#xb8;" horiz-adv-x="813" d="M332 -346q0 20 14 35.5t37 15.5t40 17t17 40q0 24 -16 40t-41 16q-36 0 -47 23.5t2 60.5l43 112q6 16 20.5 28.5t28.5 12.5q25 0 40.5 -18t8.5 -39l-30 -92q42 -19 68 -59t26 -85q0 -66 -47 -112.5t-113 -46.5q-23 0 -37 15.5t-14 35.5z" />
<glyph unicode="&#xba;" horiz-adv-x="1044" d="M123 881v338q0 166 116.5 282.5t282.5 116.5t283 -116.5t117 -282.5v-338q0 -166 -117 -283t-283 -117t-282.5 117t-116.5 283zM246 881q0 -116 80.5 -196.5t195.5 -80.5q116 0 196.5 81t80.5 196v338q0 115 -80.5 195.5t-196.5 80.5t-196 -80.5t-80 -195.5v-338z" />
<glyph unicode="&#xbb;" horiz-adv-x="1081" d="M143 252q0 28 23 45l311 281l-311 280q-23 17 -23 45q0 25 19 44.5t45 19.5q19 0 41 -19l317 -272q58 -52 58 -98q0 -47 -58 -99l-317 -272q-22 -19 -41 -19q-26 0 -45 19.5t-19 44.5zM500 252q0 28 22 45l314 281l-314 280q-22 16 -22 45q0 25 18.5 44.5t44.5 19.5 q19 0 41 -19l318 -272q57 -48 57 -98q0 -48 -57 -99l-318 -272q-22 -19 -41 -19q-26 0 -44.5 19.5t-18.5 44.5z" />
<glyph unicode="&#xbf;" horiz-adv-x="1003" d="M123 -59q0 74 20 137.5t53 111t74 90.5t86 83t84.5 80t73.5 91t51 107q14 45 58 45q26 0 44.5 -16t18.5 -43q0 -13 -2 -19q-12 -45 -49 -106q-26 -45 -68.5 -93t-84 -86t-85 -84t-76.5 -88t-54 -97t-21 -113q0 -116 68.5 -182t195.5 -66q87 0 162.5 49.5t109.5 128.5 q16 37 56 37q25 0 44 -17t19 -43q0 -16 -4 -26q-9 -16 -23 -41q-60 -99 -154.5 -155t-209.5 -56q-177 0 -282 102t-105 269zM563 1106q0 34 24 58t58 24t58 -24t24 -58t-24 -58t-58 -24t-58 24t-24 58z" />
<glyph unicode="&#xc0;" horiz-adv-x="1230" d="M61 59q0 6 5 21l491 1474q18 54 57 54q42 0 60 -54l491 -1474q4 -12 4 -21q0 -27 -19.5 -43t-45.5 -16q-41 0 -55 43l-154 461h-559l-154 -461q-14 -43 -57 -43q-25 0 -44.5 16.5t-19.5 42.5zM377 627h477l-240 714zM453 1982q0 22 15 39t36 17q14 0 33 -13l223 -178 q18 -15 18 -39q0 -22 -15 -38.5t-36 -16.5q-15 0 -33 12l-223 179q-18 15 -18 38z" />
<glyph unicode="&#xc1;" horiz-adv-x="1230" d="M61 59q0 6 5 21l491 1474q18 54 57 54q42 0 60 -54l491 -1474q4 -12 4 -21q0 -27 -19.5 -43t-45.5 -16q-41 0 -55 43l-154 461h-559l-154 -461q-14 -43 -57 -43q-25 0 -44.5 16.5t-19.5 42.5zM377 627h477l-240 714zM453 1808q0 24 18 39l223 178q19 13 33 13 q21 0 36 -17t15 -39q0 -23 -18 -38l-223 -179q-18 -12 -33 -12q-21 0 -36 16.5t-15 38.5z" />
<glyph unicode="&#xc2;" horiz-adv-x="1230" d="M61 59q0 6 5 21l491 1474q18 54 57 54q42 0 60 -54l491 -1474q4 -12 4 -21q0 -27 -19.5 -43t-45.5 -16q-41 0 -55 43l-154 461h-559l-154 -461q-14 -43 -57 -43q-25 0 -44.5 16.5t-19.5 42.5zM377 627h477l-240 714zM401 1825q0 20 17 37l141 141q31 31 55 31 q27 0 58 -31l141 -141q16 -16 16 -37q0 -20 -15.5 -35.5t-37.5 -15.5q-18 0 -35 14l-125 123l-127 -123q-17 -14 -34 -14q-22 0 -38 15.5t-16 35.5z" />
<glyph unicode="&#xc3;" horiz-adv-x="1230" d="M61 59q0 6 5 21l491 1474q18 54 57 54q42 0 60 -54l491 -1474q4 -12 4 -21q0 -27 -19.5 -43t-45.5 -16q-41 0 -55 43l-154 461h-559l-154 -461q-14 -43 -57 -43q-25 0 -44.5 16.5t-19.5 42.5zM354 1823q0 40 55.5 88.5t118.5 48.5q34 0 62.5 -12.5t44 -27.5t33.5 -27.5 t32 -12.5q27 0 46 13.5t27 29.5t22 29.5t32 13.5q50 0 50 -51q0 -37 -56.5 -87t-120.5 -50q-39 0 -70.5 20t-55.5 40t-46 20q-27 0 -46 -13.5t-27 -29.5t-22 -29.5t-32 -13.5q-19 0 -33 14t-14 37zM377 627h477l-240 714z" />
<glyph unicode="&#xc4;" horiz-adv-x="1230" d="M61 59q0 6 5 21l491 1474q18 54 57 54q42 0 60 -54l491 -1474q4 -12 4 -21q0 -27 -19.5 -43t-45.5 -16q-41 0 -55 43l-154 461h-559l-154 -461q-14 -43 -57 -43q-25 0 -44.5 16.5t-19.5 42.5zM369 1851q0 34 24 58t58 24t57.5 -24t23.5 -58t-23.5 -58t-57.5 -24t-58 24 t-24 58zM377 627h477l-240 714zM696 1851q0 34 24 58t58 24t58 -24t24 -58t-24 -58t-58 -24t-58 24t-24 58z" />
<glyph unicode="&#xc5;" horiz-adv-x="1230" d="M61 59q0 6 5 21l491 1474q18 54 57 54q42 0 60 -54l491 -1474q4 -12 4 -21q0 -27 -19.5 -43t-45.5 -16q-41 0 -55 43l-154 461h-559l-154 -461q-14 -43 -57 -43q-25 0 -44.5 16.5t-19.5 42.5zM377 627h477l-240 714zM446 1925q0 69 49.5 118.5t118.5 49.5q70 0 120 -49 t50 -119q0 -69 -50.5 -119.5t-119.5 -50.5q-70 0 -119 50t-49 120zM541 1925q0 -31 21.5 -53.5t51.5 -22.5q31 0 53.5 22.5t22.5 53.5t-22.5 52.5t-53.5 21.5t-52 -21.5t-21 -52.5z" />
<glyph unicode="&#xc6;" horiz-adv-x="1957" d="M0 61q0 17 12 35l973 1458q13 20 32 30t31.5 11.5t32.5 1.5h734q29 0 45 -18t16 -43t-16 -43t-45 -18h-707v-578h645q29 0 45.5 -18t16.5 -43t-16.5 -43.5t-45.5 -18.5h-645v-651h707q29 0 45 -18.5t16 -43.5t-16 -43t-45 -18h-768q-25 0 -43.5 16t-18.5 45v443h-553 l-319 -477q-18 -27 -50 -27q-25 0 -44 17.5t-19 43.5zM514 627h471v706z" />
<glyph unicode="&#xc7;" horiz-adv-x="1224" d="M123 508v582q0 143 71 264.5t192.5 192.5t264.5 71q123 0 253 -52t200 -143q14 -20 14 -39q0 -26 -19 -44.5t-44 -18.5q-26 0 -45 25l-21 20q-66 63 -154.5 96t-183.5 33q-167 0 -286 -119t-119 -286v-582q0 -167 119 -286.5t286 -119.5q97 0 198.5 40t160.5 110 q16 22 45 22q26 0 46.5 -18t20.5 -43q0 -21 -18 -39q-11 -13 -31 -33q-143 -134 -358 -157l-25 -78q42 -19 68 -59t26 -85q0 -66 -46.5 -112.5t-112.5 -46.5q-24 0 -38 15.5t-14 35.5t14 35.5t38 15.5q23 0 40 17t17 40q0 24 -16 40t-41 16q-36 0 -47 23.5t2 60.5l30 80 q-204 15 -345.5 167t-141.5 359z" />
<glyph unicode="&#xc8;" horiz-adv-x="1157" d="M164 61v1475q0 25 18 43t43 18h768q29 0 45.5 -18t16.5 -43t-16.5 -43t-45.5 -18h-706v-578h645q29 0 45 -18t16 -43t-16 -43.5t-45 -18.5h-645v-651h706q29 0 45.5 -18.5t16.5 -43.5t-16.5 -43t-45.5 -18h-768q-25 0 -43 18t-18 43zM375 1982q0 22 15 39t36 17 q14 0 33 -13l223 -178q18 -15 18 -39q0 -22 -15 -38.5t-36 -16.5q-15 0 -33 12l-223 179q-18 15 -18 38z" />
<glyph unicode="&#xc9;" horiz-adv-x="1157" d="M164 61v1475q0 25 18 43t43 18h768q29 0 45.5 -18t16.5 -43t-16.5 -43t-45.5 -18h-706v-578h645q29 0 45 -18t16 -43t-16 -43.5t-45 -18.5h-645v-651h706q29 0 45.5 -18.5t16.5 -43.5t-16.5 -43t-45.5 -18h-768q-25 0 -43 18t-18 43zM477 1808q0 23 19 39l223 178 q19 13 33 13q21 0 36 -17t15 -39t-19 -38l-223 -179q-18 -12 -33 -12q-21 0 -36 16.5t-15 38.5z" />
<glyph unicode="&#xca;" horiz-adv-x="1157" d="M164 61v1475q0 25 18 43t43 18h768q29 0 45.5 -18t16.5 -43t-16.5 -43t-45.5 -18h-706v-578h645q29 0 45 -18t16 -43t-16 -43.5t-45 -18.5h-645v-651h706q29 0 45.5 -18.5t16.5 -43.5t-16.5 -43t-45.5 -18h-768q-25 0 -43 18t-18 43zM365 1825q0 21 16 37l141 141 q31 31 56 31q26 0 57 -31l141 -141q17 -17 17 -37t-16 -35.5t-38 -15.5q-17 0 -34 14l-125 123l-127 -123q-17 -14 -35 -14q-22 0 -37.5 15.5t-15.5 35.5z" />
<glyph unicode="&#xcb;" horiz-adv-x="1157" d="M164 61v1475q0 25 18 43t43 18h768q29 0 45.5 -18t16.5 -43t-16.5 -43t-45.5 -18h-706v-578h645q29 0 45 -18t16 -43t-16 -43.5t-45 -18.5h-645v-651h706q29 0 45.5 -18.5t16.5 -43.5t-16.5 -43t-45.5 -18h-768q-25 0 -43 18t-18 43zM373 1851q0 34 24 58t58 24t58 -24 t24 -58t-24 -58t-58 -24t-58 24t-24 58zM700 1851q0 34 24 58t58 24t58 -24t24 -58t-24 -58t-58 -24t-58 24t-24 58z" />
<glyph unicode="&#xcc;" horiz-adv-x="942" d="M82 61q0 25 16 43.5t45 18.5h267v1352h-267q-29 0 -45 18t-16 43t16 43t45 18h656q29 0 45 -18t16 -43t-16 -43t-45 -18h-267v-1352h267q29 0 45 -18.5t16 -43.5t-16 -43t-45 -18h-656q-29 0 -45 18t-16 43zM307 1982q0 22 15 39t36 17q13 0 33 -13l223 -178 q19 -16 19 -39q0 -22 -15 -38.5t-36 -16.5q-15 0 -33 12l-223 179q-19 16 -19 38z" />
<glyph unicode="&#xcd;" horiz-adv-x="942" d="M82 61q0 25 16 43.5t45 18.5h267v1352h-267q-29 0 -45 18t-16 43t16 43t45 18h656q29 0 45 -18t16 -43t-16 -43t-45 -18h-267v-1352h267q29 0 45 -18.5t16 -43.5t-16 -43t-45 -18h-656q-29 0 -45 18t-16 43zM307 1808q0 23 19 39l223 178q19 13 33 13q21 0 36 -17t15 -39 t-19 -38l-223 -179q-18 -12 -33 -12q-21 0 -36 16.5t-15 38.5z" />
<glyph unicode="&#xce;" horiz-adv-x="942" d="M82 61q0 25 16 43.5t45 18.5h267v1352h-267q-29 0 -45 18t-16 43t16 43t45 18h656q29 0 45 -18t16 -43t-16 -43t-45 -18h-267v-1352h267q29 0 45 -18.5t16 -43.5t-16 -43t-45 -18h-656q-29 0 -45 18t-16 43zM256 1825q0 21 16 37l142 141q31 31 55 31q26 0 57 -31 l142 -141q16 -16 16 -37q0 -20 -15.5 -35.5t-37.5 -15.5q-18 0 -35 14l-125 123l-127 -123q-17 -14 -35 -14q-22 0 -37.5 15.5t-15.5 35.5z" />
<glyph unicode="&#xcf;" horiz-adv-x="942" d="M82 61q0 25 16 43.5t45 18.5h267v1352h-267q-29 0 -45 18t-16 43t16 43t45 18h656q29 0 45 -18t16 -43t-16 -43t-45 -18h-267v-1352h267q29 0 45 -18.5t16 -43.5t-16 -43t-45 -18h-656q-29 0 -45 18t-16 43zM225 1851q0 34 24 58t58 24t58 -24t24 -58t-24 -58t-58 -24 t-58 24t-24 58zM553 1851q0 34 24 58t58 24t58 -24t24 -58t-24 -58t-58 -24t-58 24t-24 58z" />
<glyph unicode="&#xd0;" horiz-adv-x="1312" d="M0 860q0 25 16 43.5t45 18.5h103v614q0 25 18 43t43 18h426q143 0 265 -71t193 -192.5t71 -264.5v-541q0 -143 -71 -264.5t-193 -192.5t-265 -71h-426q-25 0 -43 18t-18 43v738h-103q-29 0 -45 18t-16 43zM287 123h364q167 0 286.5 119t119.5 286v541q0 167 -119.5 286.5 t-286.5 119.5h-364v-553h153q29 0 45.5 -18.5t16.5 -43.5t-16.5 -43t-45.5 -18h-153v-676z" />
<glyph unicode="&#xd1;" horiz-adv-x="1343" d="M164 61v1475q0 33 16 52.5t39 19.5q37 0 60 -39l778 -1288v1255q0 29 18 45t43 16t43.5 -16t18.5 -45v-1475q0 -32 -16.5 -51.5t-39.5 -19.5q-36 0 -59 39l-778 1288v-1256q0 -29 -18.5 -45t-43.5 -16t-43 16t-18 45zM430 1823q0 40 55.5 88.5t118.5 48.5 q34 0 62.5 -12.5t44 -27.5t33.5 -27.5t32 -12.5q27 0 46 13.5t27 29.5t22 29.5t32 13.5q49 0 49 -51q0 -37 -56 -87t-120 -50q-39 0 -70.5 20t-55.5 40t-46 20q-27 0 -46 -13.5t-27 -29.5t-22 -29.5t-32 -13.5q-19 0 -33 14t-14 37z" />
<glyph unicode="&#xd2;" horiz-adv-x="1302" d="M123 508v582q0 143 71 264.5t192.5 192.5t264.5 71t265 -71t193 -192.5t71 -264.5v-582q0 -143 -71 -264.5t-193 -192.5t-265 -71t-264.5 71t-192.5 192.5t-71 264.5zM246 508q0 -167 119 -286.5t286 -119.5t286.5 119.5t119.5 286.5v582q0 167 -119.5 286t-286.5 119 t-286 -119t-119 -286v-582zM487 1982q0 22 15.5 39t36.5 17q13 0 32 -13l224 -178q18 -15 18 -39q0 -22 -15 -38.5t-36 -16.5q-15 0 -33 12l-223 179q-19 16 -19 38z" />
<glyph unicode="&#xd3;" horiz-adv-x="1302" d="M123 508v582q0 143 71 264.5t192.5 192.5t264.5 71t265 -71t193 -192.5t71 -264.5v-582q0 -143 -71 -264.5t-193 -192.5t-265 -71t-264.5 71t-192.5 192.5t-71 264.5zM246 508q0 -167 119 -286.5t286 -119.5t286.5 119.5t119.5 286.5v582q0 167 -119.5 286t-286.5 119 t-286 -119t-119 -286v-582zM487 1808q0 23 19 39l223 178q19 13 33 13q21 0 36 -17t15 -39q0 -23 -18 -38l-224 -179q-18 -12 -32 -12q-21 0 -36.5 16.5t-15.5 38.5z" />
<glyph unicode="&#xd4;" horiz-adv-x="1302" d="M123 508v582q0 143 71 264.5t192.5 192.5t264.5 71t265 -71t193 -192.5t71 -264.5v-582q0 -143 -71 -264.5t-193 -192.5t-265 -71t-264.5 71t-192.5 192.5t-71 264.5zM246 508q0 -167 119 -286.5t286 -119.5t286.5 119.5t119.5 286.5v582q0 167 -119.5 286t-286.5 119 t-286 -119t-119 -286v-582zM436 1825q0 20 17 37l141 141q31 31 55 31q27 0 58 -31l141 -141q16 -16 16 -37q0 -20 -15.5 -35.5t-37.5 -15.5q-18 0 -35 14l-125 123l-127 -123q-17 -14 -35 -14q-22 0 -37.5 15.5t-15.5 35.5z" />
<glyph unicode="&#xd5;" horiz-adv-x="1302" d="M123 508v582q0 143 71 264.5t192.5 192.5t264.5 71t265 -71t193 -192.5t71 -264.5v-582q0 -143 -71 -264.5t-193 -192.5t-265 -71t-264.5 71t-192.5 192.5t-71 264.5zM246 508q0 -167 119 -286.5t286 -119.5t286.5 119.5t119.5 286.5v582q0 167 -119.5 286t-286.5 119 t-286 -119t-119 -286v-582zM389 1823q0 40 55.5 88.5t118.5 48.5q34 0 62.5 -12.5t44 -27.5t33.5 -27.5t32 -12.5q27 0 46 13.5t27 29.5t22 29.5t32 13.5q49 0 49 -51q0 -37 -56 -87t-120 -50q-39 0 -70.5 20t-55.5 40t-46 20q-27 0 -46 -13.5t-27 -29.5t-22 -29.5 t-32 -13.5q-19 0 -33 14t-14 37z" />
<glyph unicode="&#xd6;" horiz-adv-x="1302" d="M123 508v582q0 143 71 264.5t192.5 192.5t264.5 71t265 -71t193 -192.5t71 -264.5v-582q0 -143 -71 -264.5t-193 -192.5t-265 -71t-264.5 71t-192.5 192.5t-71 264.5zM246 508q0 -167 119 -286.5t286 -119.5t286.5 119.5t119.5 286.5v582q0 167 -119.5 286t-286.5 119 t-286 -119t-119 -286v-582zM406 1851q0 34 23.5 58t57.5 24t58 -24t24 -58t-24 -58t-58 -24t-57.5 24t-23.5 58zM733 1851q0 34 24 58t58 24t58 -24t24 -58t-24 -58t-58 -24t-58 24t-24 58z" />
<glyph unicode="&#xd7;" horiz-adv-x="1269" d="M82 268q0 23 18 41l451 490l-451 489q-18 18 -18 41q0 25 19 44.5t44 19.5q24 0 45 -21l445 -483l444 483q21 21 45 21q25 0 44.5 -19.5t19.5 -44.5q0 -22 -19 -41l-450 -489l450 -490q19 -19 19 -41q0 -25 -19.5 -44t-44.5 -19t-45 20l-444 484l-445 -484 q-20 -20 -45 -20t-44 19t-19 44z" />
<glyph unicode="&#xd8;" horiz-adv-x="1304" d="M123 39q0 15 10 35l84 135q-92 131 -92 299v582q0 143 70.5 264.5t192 192.5t265.5 71q199 0 351 -133l63 104q17 29 51 29q24 0 44 -17.5t20 -41.5q0 -19 -11 -35l-84 -135q95 -135 95 -299v-582q0 -143 -71 -264.5t-193 -192.5t-265 -71q-200 0 -352 133l-63 -105 q-17 -28 -52 -28q-24 0 -43.5 17.5t-19.5 41.5zM248 508q0 -100 41 -180l649 1050q-120 117 -285 117q-168 0 -286.5 -118.5t-118.5 -286.5v-582zM367 219q120 -117 286 -117q167 0 286.5 119.5t119.5 286.5v582q0 96 -43 180z" />
<glyph unicode="&#xd9;" horiz-adv-x="1343" d="M143 508v1028q0 29 18.5 45t43.5 16t43 -16t18 -45v-1028q0 -167 119.5 -286.5t286.5 -119.5t286 119.5t119 286.5v1028q0 29 18.5 45t43.5 16t43 -16t18 -45v-1028q0 -143 -71 -264.5t-192.5 -192.5t-264.5 -71t-265 71t-193 192.5t-71 264.5zM467 1982q0 22 15 39 t36 17q14 0 33 -13l223 -178q19 -16 19 -39q0 -22 -15.5 -38.5t-36.5 -16.5q-14 0 -32 12l-224 179q-18 15 -18 38z" />
<glyph unicode="&#xda;" horiz-adv-x="1343" d="M143 508v1028q0 29 18.5 45t43.5 16t43 -16t18 -45v-1028q0 -167 119.5 -286.5t286.5 -119.5t286 119.5t119 286.5v1028q0 29 18.5 45t43.5 16t43 -16t18 -45v-1028q0 -143 -71 -264.5t-192.5 -192.5t-264.5 -71t-265 71t-193 192.5t-71 264.5zM549 1808q0 24 18 39 l224 178q19 13 32 13q21 0 36 -17t15 -39q0 -23 -18 -38l-223 -179q-18 -12 -33 -12q-21 0 -36 16.5t-15 38.5z" />
<glyph unicode="&#xdb;" horiz-adv-x="1343" d="M143 508v1028q0 29 18.5 45t43.5 16t43 -16t18 -45v-1028q0 -167 119.5 -286.5t286.5 -119.5t286 119.5t119 286.5v1028q0 29 18.5 45t43.5 16t43 -16t18 -45v-1028q0 -143 -71 -264.5t-192.5 -192.5t-264.5 -71t-265 71t-193 192.5t-71 264.5zM457 1825q0 21 16 37 l141 141q31 31 56 31q26 0 57 -31l141 -141q17 -17 17 -37t-16 -35.5t-38 -15.5q-17 0 -34 14l-125 123l-127 -123q-17 -14 -35 -14q-22 0 -37.5 15.5t-15.5 35.5z" />
<glyph unicode="&#xdc;" horiz-adv-x="1343" d="M143 508v1028q0 29 18.5 45t43.5 16t43 -16t18 -45v-1028q0 -167 119.5 -286.5t286.5 -119.5t286 119.5t119 286.5v1028q0 29 18.5 45t43.5 16t43 -16t18 -45v-1028q0 -143 -71 -264.5t-192.5 -192.5t-264.5 -71t-265 71t-193 192.5t-71 264.5zM426 1851q0 34 24 58 t58 24t58 -24t24 -58t-24 -58t-58 -24t-58 24t-24 58zM754 1851q0 34 24 58t58 24t58 -24t24 -58t-24 -58t-58 -24t-58 24t-24 58z" />
<glyph unicode="&#xdd;" horiz-adv-x="1189" d="M41 1538q0 24 19.5 41.5t43.5 17.5q36 0 52 -30l438 -733l440 733q16 30 51 30q24 0 44 -17.5t20 -41.5q0 -20 -10 -33l-484 -809v-635q0 -29 -18 -45t-43 -16t-43.5 16t-18.5 45v635l-481 809q-10 13 -10 33zM494 1808q0 24 18 39l223 178q19 13 33 13q21 0 36 -17 t15 -39q0 -23 -18 -38l-223 -179q-18 -12 -33 -12q-21 0 -36 16.5t-15 38.5z" />
<glyph unicode="&#xde;" horiz-adv-x="1202" d="M164 61v1475q0 29 18 45t43 16t43.5 -16t18.5 -45v-184h303q138 0 255.5 -68t186 -185t68.5 -255q0 -139 -68.5 -256.5t-186 -185.5t-255.5 -68h-303v-273q0 -29 -18.5 -45t-43.5 -16t-43 16t-18 45zM287 457h303q160 0 272.5 113t112.5 274l2 -2q0 161 -113.5 274 t-273.5 113h-303v-772z" />
<glyph unicode="&#xdf;" horiz-adv-x="1196" d="M41 977q0 25 16 43t45 18h84v146q0 195 115 314.5t305 119.5q194 0 320.5 -116.5t126.5 -309.5q0 -124 -55 -221t-152 -154q104 -59 165.5 -159t61.5 -226q0 -193 -136.5 -320.5t-330.5 -127.5q-29 0 -45 18t-16 43t16 43t45 18q146 0 245 93.5t99 232.5t-98.5 231.5 t-245.5 92.5q-30 0 -46.5 18t-16.5 43t16.5 43.5t46.5 18.5q145 0 234.5 86.5t89.5 226.5q0 139 -88.5 221t-235.5 82q-136 0 -216.5 -83t-80.5 -228v-1139q0 -29 -18 -45t-43 -16t-43.5 16t-18.5 45v870h-84q-29 0 -45 18.5t-16 43.5z" />
<glyph unicode="&#xe0;" horiz-adv-x="978" d="M102 309q0 74 29.5 134t81 100.5t113 67.5t135.5 42l262 56v96q0 106 -61.5 167.5t-182.5 61.5q-98 0 -172 -57q-13 -11 -31 -30.5t-31 -27.5t-32 -8q-24 0 -41.5 17t-17.5 43q0 27 28 59q54 62 132 94.5t165 32.5q170 0 268.5 -97.5t98.5 -254.5v-473q0 -154 -109 -253 t-262 -99q-100 0 -183.5 36.5t-136.5 113t-53 179.5zM225 311q0 -95 67.5 -152t180.5 -57q108 0 179 65.5t71 164.5v254l-264 -58q-107 -23 -170.5 -81.5t-63.5 -135.5zM305 1522q0 22 15 38.5t36 16.5q15 0 33 -12l223 -179q19 -16 19 -38t-15 -39t-36 -17q-14 0 -33 13 l-223 178q-19 16 -19 39z" />
<glyph unicode="&#xe1;" horiz-adv-x="978" d="M102 309q0 74 29.5 134t81 100.5t113 67.5t135.5 42l262 56v96q0 106 -61.5 167.5t-182.5 61.5q-98 0 -172 -57q-13 -11 -31 -30.5t-31 -27.5t-32 -8q-24 0 -41.5 17t-17.5 43q0 27 28 59q54 62 132 94.5t165 32.5q170 0 268.5 -97.5t98.5 -254.5v-473q0 -154 -109 -253 t-262 -99q-100 0 -183.5 36.5t-136.5 113t-53 179.5zM225 311q0 -95 67.5 -152t180.5 -57q108 0 179 65.5t71 164.5v254l-264 -58q-107 -23 -170.5 -81.5t-63.5 -135.5zM346 1348q0 22 19 38l223 179q18 12 33 12q21 0 36 -16.5t15 -38.5q0 -23 -19 -39l-223 -178 q-20 -13 -33 -13q-21 0 -36 17t-15 39z" />
<glyph unicode="&#xe2;" horiz-adv-x="978" d="M102 309q0 74 29.5 134t81 100.5t113 67.5t135.5 42l262 56v96q0 106 -61.5 167.5t-182.5 61.5q-98 0 -172 -57q-13 -11 -31 -30.5t-31 -27.5t-32 -8q-24 0 -41.5 17t-17.5 43q0 27 28 59q54 62 132 94.5t165 32.5q170 0 268.5 -97.5t98.5 -254.5v-473q0 -154 -109 -253 t-262 -99q-100 0 -183.5 36.5t-136.5 113t-53 179.5zM225 311q0 -95 67.5 -152t180.5 -57q108 0 179 65.5t71 164.5v254l-264 -58q-107 -23 -170.5 -81.5t-63.5 -135.5zM274 1364q0 20 17 37l141 141q31 31 55 31q27 0 58 -31l141 -141q16 -16 16 -37q0 -20 -15.5 -35.5 t-37.5 -15.5q-18 0 -35 14l-125 123l-127 -123q-17 -14 -34 -14q-22 0 -38 15.5t-16 35.5z" />
<glyph unicode="&#xe3;" horiz-adv-x="978" d="M102 309q0 74 29.5 134t81 100.5t113 67.5t135.5 42l262 56v96q0 106 -61.5 167.5t-182.5 61.5q-98 0 -172 -57q-13 -11 -31 -30.5t-31 -27.5t-32 -8q-24 0 -41.5 17t-17.5 43q0 27 28 59q54 62 132 94.5t165 32.5q170 0 268.5 -97.5t98.5 -254.5v-473q0 -154 -109 -253 t-262 -99q-100 0 -183.5 36.5t-136.5 113t-53 179.5zM225 311q0 -95 67.5 -152t180.5 -57q108 0 179 65.5t71 164.5v254l-264 -58q-107 -23 -170.5 -81.5t-63.5 -135.5zM227 1362q0 40 55.5 88.5t118.5 48.5q34 0 62.5 -12.5t44 -27.5t33.5 -27.5t32 -12.5q27 0 46 13.5 t27 29.5t22 29.5t32 13.5q50 0 50 -51q0 -37 -56.5 -87t-120.5 -50q-39 0 -70.5 20t-55.5 40t-46 20q-27 0 -46 -13.5t-27 -29.5t-22 -29.5t-32 -13.5q-19 0 -33 14t-14 37z" />
<glyph unicode="&#xe4;" horiz-adv-x="978" d="M102 309q0 74 29.5 134t81 100.5t113 67.5t135.5 42l262 56v96q0 106 -61.5 167.5t-182.5 61.5q-98 0 -172 -57q-13 -11 -31 -30.5t-31 -27.5t-32 -8q-24 0 -41.5 17t-17.5 43q0 27 28 59q54 62 132 94.5t165 32.5q170 0 268.5 -97.5t98.5 -254.5v-473q0 -154 -109 -253 t-262 -99q-100 0 -183.5 36.5t-136.5 113t-53 179.5zM225 311q0 -95 67.5 -152t180.5 -57q108 0 179 65.5t71 164.5v254l-264 -58q-107 -23 -170.5 -81.5t-63.5 -135.5zM244 1391q0 34 24 58t58 24t58 -24t24 -58t-24 -58t-58 -24t-58 24t-24 58zM571 1391q0 34 24 58t58 24 t58 -24t24 -58t-24 -58t-58 -24t-58 24t-24 58z" />
<glyph unicode="&#xe5;" horiz-adv-x="978" d="M102 309q0 74 29.5 134t81 100.5t113 67.5t135.5 42l262 56v96q0 106 -61.5 167.5t-182.5 61.5q-98 0 -172 -57q-13 -11 -31 -30.5t-31 -27.5t-32 -8q-24 0 -41.5 17t-17.5 43q0 27 28 59q54 62 132 94.5t165 32.5q170 0 268.5 -97.5t98.5 -254.5v-473q0 -154 -109 -253 t-262 -99q-100 0 -183.5 36.5t-136.5 113t-53 179.5zM225 311q0 -95 67.5 -152t180.5 -57q108 0 179 65.5t71 164.5v254l-264 -58q-107 -23 -170.5 -81.5t-63.5 -135.5zM360 1464q0 69 49.5 118.5t118.5 49.5q70 0 120 -49t50 -119q0 -69 -50.5 -119.5t-119.5 -50.5 q-70 0 -119 50t-49 120zM455 1464q0 -31 21 -53t52 -22t53.5 22t22.5 53t-22.5 52.5t-53.5 21.5t-52 -21.5t-21 -52.5z" />
<glyph unicode="&#xe6;" horiz-adv-x="1644" d="M102 309q0 74 29.5 134.5t81 101.5t113 68t135.5 42q162 36 262 56v94q0 106 -61.5 167.5t-182.5 61.5q-54 0 -95.5 -12.5t-64.5 -31t-40 -36.5t-31.5 -30.5t-30.5 -12.5q-24 0 -43.5 17.5t-19.5 42.5q0 27 28 59q52 64 130 95.5t167 31.5q112 0 194 -43.5t126 -120.5 q57 76 141.5 120t181.5 44q166 0 283 -116.5t117 -282.5v-144q0 -25 -18.5 -43t-43.5 -18h-614v-174q0 -110 89.5 -193.5t207.5 -83.5q66 0 132 25t99 72q20 26 49 26q25 0 45.5 -17.5t20.5 -41.5q0 -19 -12 -37q-9 -11 -23 -27q-58 -61 -139.5 -91.5t-171.5 -30.5 q-101 0 -193 47t-151 127q-49 -81 -135.5 -127.5t-188.5 -46.5q-100 0 -183.5 36.5t-136.5 113t-53 179.5zM225 311q0 -95 67.5 -152t180.5 -57q107 0 178.5 65t71.5 163v256l-264 -60q-108 -25 -171 -81.5t-63 -133.5zM846 676h553v82q0 115 -80.5 195.5t-196.5 80.5 t-196 -80t-80 -196v-82z" />
<glyph unicode="&#xe7;" horiz-adv-x="968" d="M133 332v473q0 157 108 254.5t279 97.5q93 0 189.5 -39.5t144.5 -109.5q10 -15 10 -35q0 -26 -19 -44t-44 -18q-30 0 -49 27q-3 4 -11 12q-78 84 -221 84q-124 0 -194 -64t-70 -165v-473q0 -101 70 -165.5t194 -64.5q66 0 132.5 25t99.5 72q20 26 49 26q25 0 45 -17.5 t20 -41.5q0 -19 -12 -37q-9 -11 -23 -27q-98 -103 -266 -120l-24 -76q42 -19 68 -59t26 -85q0 -66 -47 -112.5t-113 -46.5q-23 0 -37 15.5t-14 35.5t14 35.5t37 15.5t40 17t17 40q0 24 -16 40t-41 16q-36 0 -47 23.5t2 60.5l31 82q-148 15 -238 109.5t-90 238.5z" />
<glyph unicode="&#xe8;" horiz-adv-x="1054" d="M133 379v379q0 166 116.5 282.5t282.5 116.5t283 -116.5t117 -282.5v-144q0 -25 -18.5 -43t-43.5 -18h-614v-174q0 -110 89.5 -193.5t207.5 -83.5q154 0 231 99q20 26 52 26q25 0 44 -17.5t19 -41.5q0 -21 -12 -39q-56 -73 -145.5 -111t-188.5 -38q-107 0 -203.5 52 t-156.5 145t-60 202zM256 676h553v82q0 115 -80.5 195.5t-196.5 80.5t-196 -80t-80 -196v-82zM365 1522q0 22 15 38.5t36 16.5q15 0 33 -12l223 -179q18 -15 18 -38q0 -22 -15 -39t-36 -17q-13 0 -33 13l-223 178q-18 15 -18 39z" />
<glyph unicode="&#xe9;" horiz-adv-x="1054" d="M133 379v379q0 166 116.5 282.5t282.5 116.5t283 -116.5t117 -282.5v-144q0 -25 -18.5 -43t-43.5 -18h-614v-174q0 -110 89.5 -193.5t207.5 -83.5q154 0 231 99q20 26 52 26q25 0 44 -17.5t19 -41.5q0 -21 -12 -39q-56 -73 -145.5 -111t-188.5 -38q-107 0 -203.5 52 t-156.5 145t-60 202zM256 676h553v82q0 115 -80.5 195.5t-196.5 80.5t-196 -80t-80 -196v-82zM365 1348q0 23 18 38l223 179q18 12 33 12q21 0 36 -16.5t15 -38.5q0 -24 -18 -39l-223 -178q-20 -13 -33 -13q-21 0 -36 17t-15 39z" />
<glyph unicode="&#xea;" horiz-adv-x="1054" d="M133 379v379q0 166 116.5 282.5t282.5 116.5t283 -116.5t117 -282.5v-144q0 -25 -18.5 -43t-43.5 -18h-614v-174q0 -110 89.5 -193.5t207.5 -83.5q154 0 231 99q20 26 52 26q25 0 44 -17.5t19 -41.5q0 -21 -12 -39q-56 -73 -145.5 -111t-188.5 -38q-107 0 -203.5 52 t-156.5 145t-60 202zM256 676h553v82q0 115 -80.5 195.5t-196.5 80.5t-196 -80t-80 -196v-82zM313 1364q0 20 17 37l141 141q31 31 55 31q27 0 58 -31l141 -141q16 -16 16 -37q0 -20 -15.5 -35.5t-37.5 -15.5q-18 0 -35 14l-125 123l-127 -123q-17 -14 -34 -14 q-22 0 -38 15.5t-16 35.5z" />
<glyph unicode="&#xeb;" horiz-adv-x="1054" d="M133 379v379q0 166 116.5 282.5t282.5 116.5t283 -116.5t117 -282.5v-144q0 -25 -18.5 -43t-43.5 -18h-614v-174q0 -110 89.5 -193.5t207.5 -83.5q154 0 231 99q20 26 52 26q25 0 44 -17.5t19 -41.5q0 -21 -12 -39q-56 -73 -145.5 -111t-188.5 -38q-107 0 -203.5 52 t-156.5 145t-60 202zM256 676h553v82q0 115 -80.5 195.5t-196.5 80.5t-196 -80t-80 -196v-82zM281 1391q0 34 23.5 58t57.5 24t58 -24t24 -58t-24 -58t-58 -24t-57.5 24t-23.5 58zM608 1391q0 34 24 58t58 24t58 -24t24 -58t-24 -58t-58 -24t-58 24t-24 58z" />
<glyph unicode="&#xec;" horiz-adv-x="409" d="M43 1522q0 22 15 38.5t36 16.5q15 0 33 -12l223 -179q19 -16 19 -38t-15.5 -39t-36.5 -17q-13 0 -32 13l-224 178q-18 15 -18 39zM143 61v1014q0 29 18.5 45.5t43.5 16.5t43 -16.5t18 -45.5v-1014q0 -29 -18 -45t-43 -16t-43.5 16t-18.5 45z" />
<glyph unicode="&#xed;" horiz-adv-x="409" d="M43 1348q0 23 18 38l224 179q18 12 32 12q21 0 36.5 -16.5t15.5 -38.5q0 -23 -19 -39l-223 -178q-19 -13 -33 -13q-21 0 -36 17t-15 39zM143 61v1014q0 29 18.5 45.5t43.5 16.5t43 -16.5t18 -45.5v-1014q0 -29 -18 -45t-43 -16t-43.5 16t-18.5 45z" />
<glyph unicode="&#xee;" horiz-adv-x="409" d="M-8 1364q0 21 16 37l142 141q31 31 55 31q26 0 57 -31l141 -141q17 -17 17 -37t-15.5 -35.5t-37.5 -15.5q-18 0 -35 14l-125 123l-127 -123q-17 -14 -35 -14q-22 0 -37.5 15.5t-15.5 35.5zM143 61v1014q0 29 18.5 45.5t43.5 16.5t43 -16.5t18 -45.5v-1014q0 -29 -18 -45 t-43 -16t-43.5 16t-18.5 45z" />
<glyph unicode="&#xef;" horiz-adv-x="409" d="M-41 1391q0 34 24 58t58 24t58 -24t24 -58t-24 -58t-58 -24t-58 24t-24 58zM143 61v1014q0 29 18.5 45.5t43.5 16.5t43 -16.5t18 -45.5v-1014q0 -29 -18 -45t-43 -16t-43.5 16t-18.5 45zM287 1391q0 34 24 58t58 24t58 -24t24 -58t-24 -58t-58 -24t-58 24t-24 58z" />
<glyph unicode="&#xf0;" horiz-adv-x="1075" d="M133 379v379q0 166 116.5 282.5t282.5 116.5q128 0 232 -74q-52 163 -146 263l-69 -84q-22 -25 -45 -25q-26 0 -46 19t-20 44q0 19 17 39l69 84q-56 36 -106 54l-66 18q-53 9 -53 61q0 25 15.5 43.5t43.5 18.5h11q37 -4 92 -27q79 -27 143 -73l66 77q22 25 45 25 q26 0 45.5 -19.5t19.5 -44.5q0 -19 -16 -38l-66 -78q120 -123 177 -301t57 -381v-379q0 -166 -117 -282.5t-283 -116.5t-282.5 116.5t-116.5 282.5zM256 379q0 -116 80.5 -196.5t195.5 -80.5q116 0 196.5 81t80.5 196v379q0 115 -80.5 195.5t-196.5 80.5t-196 -80t-80 -196 v-379z" />
<glyph unicode="&#xf1;" horiz-adv-x="1085" d="M143 61v697q0 166 117 282.5t283 116.5t282.5 -116.5t116.5 -282.5v-697q0 -29 -18 -45t-43 -16t-43.5 16t-18.5 45v697q0 116 -80.5 196t-195.5 80q-116 0 -196.5 -80.5t-80.5 -195.5v-697q0 -29 -18 -45t-43 -16t-43.5 16t-18.5 45zM281 1362q0 40 55.5 88.5 t118.5 48.5q34 0 62.5 -12.5t44 -27.5t33.5 -27.5t32 -12.5q27 0 46 13.5t27 29.5t22 29.5t32 13.5q49 0 49 -51q0 -37 -56 -87t-120 -50q-39 0 -70.5 20t-55.5 40t-46 20q-27 0 -46 -13.5t-27 -29.5t-22 -29.5t-32 -13.5q-19 0 -33 14t-14 37z" />
<glyph unicode="&#xf2;" horiz-adv-x="1064" d="M133 379v379q0 166 116.5 282.5t282.5 116.5t283 -116.5t117 -282.5v-379q0 -166 -117 -282.5t-283 -116.5t-282.5 116.5t-116.5 282.5zM256 379q0 -116 80.5 -196.5t195.5 -80.5q116 0 196.5 81t80.5 196v379q0 115 -80.5 195.5t-196.5 80.5t-196 -80t-80 -196v-379z M369 1522q0 22 15 38.5t36 16.5q15 0 33 -12l223 -179q18 -15 18 -38q0 -22 -15 -39t-36 -17q-13 0 -33 13l-223 178q-18 15 -18 39z" />
<glyph unicode="&#xf3;" horiz-adv-x="1064" d="M133 379v379q0 166 116.5 282.5t282.5 116.5t283 -116.5t117 -282.5v-379q0 -166 -117 -282.5t-283 -116.5t-282.5 116.5t-116.5 282.5zM256 379q0 -116 80.5 -196.5t195.5 -80.5q116 0 196.5 81t80.5 196v379q0 115 -80.5 195.5t-196.5 80.5t-196 -80t-80 -196v-379z M369 1348q0 23 18 38l223 179q18 12 33 12q21 0 36 -16.5t15 -38.5q0 -24 -18 -39l-223 -178q-19 -13 -33 -13q-21 0 -36 17t-15 39z" />
<glyph unicode="&#xf4;" horiz-adv-x="1064" d="M133 379v379q0 166 116.5 282.5t282.5 116.5t283 -116.5t117 -282.5v-379q0 -166 -117 -282.5t-283 -116.5t-282.5 116.5t-116.5 282.5zM256 379q0 -116 80.5 -196.5t195.5 -80.5q116 0 196.5 81t80.5 196v379q0 115 -80.5 195.5t-196.5 80.5t-196 -80t-80 -196v-379z M317 1364q0 20 17 37l141 141q31 31 55 31q27 0 58 -31l141 -141q16 -16 16 -37q0 -20 -15.5 -35.5t-37.5 -15.5q-18 0 -35 14l-125 123l-126 -123q-17 -14 -35 -14q-22 0 -38 15.5t-16 35.5z" />
<glyph unicode="&#xf5;" horiz-adv-x="1064" d="M133 379v379q0 166 116.5 282.5t282.5 116.5t283 -116.5t117 -282.5v-379q0 -166 -117 -282.5t-283 -116.5t-282.5 116.5t-116.5 282.5zM256 379q0 -116 80.5 -196.5t195.5 -80.5q116 0 196.5 81t80.5 196v379q0 115 -80.5 195.5t-196.5 80.5t-196 -80t-80 -196v-379z M270 1362q0 40 55.5 88.5t118.5 48.5q34 0 62.5 -12.5t44 -27.5t33.5 -27.5t32 -12.5q27 0 46 13.5t27 29.5t22 29.5t32 13.5q50 0 50 -51q0 -37 -56.5 -87t-120.5 -50q-39 0 -70.5 20t-55.5 40t-46 20q-27 0 -46 -13.5t-27 -29.5t-22 -29.5t-32 -13.5q-19 0 -33 14t-14 37z " />
<glyph unicode="&#xf6;" horiz-adv-x="1064" d="M133 379v379q0 166 116.5 282.5t282.5 116.5t283 -116.5t117 -282.5v-379q0 -166 -117 -282.5t-283 -116.5t-282.5 116.5t-116.5 282.5zM256 379q0 -116 80.5 -196.5t195.5 -80.5q116 0 196.5 81t80.5 196v379q0 115 -80.5 195.5t-196.5 80.5t-196 -80t-80 -196v-379z M287 1391q0 34 24 58t58 24t58 -24t24 -58t-24 -58t-58 -24t-58 24t-24 58zM614 1391q0 34 24 58t58 24t58 -24t24 -58t-24 -58t-58 -24t-58 24t-24 58z" />
<glyph unicode="&#xf7;" horiz-adv-x="1310" d="M102 805q0 24 16.5 42.5t45.5 18.5h983q29 0 45 -18.5t16 -42.5t-16 -43t-45 -19h-983q-29 0 -45.5 19t-16.5 43zM573 389q0 34 24 58t58 24t58 -24t24 -58t-24 -58t-58 -24t-58 24t-24 58zM573 1221q0 34 24 58t58 24t58 -24t24 -58t-24 -58t-58 -24t-58 24t-24 58z" />
<glyph unicode="&#xf8;" horiz-adv-x="1087" d="M143 39q0 13 11 35l55 86q-64 98 -64 219v379q0 166 117 282.5t283 116.5q138 0 248 -86l36 57q20 29 52 29q24 0 43.5 -17.5t19.5 -41.5q0 -15 -10 -35l-55 -86q65 -100 65 -219v-379q0 -165 -117 -282t-282 -117q-140 0 -250 86l-37 -58q-20 -28 -51 -28 q-24 0 -44 17.5t-20 41.5zM268 379q0 -44 17 -100l440 688q-77 67 -180 67q-116 0 -196.5 -80.5t-80.5 -195.5v-379zM362 170q78 -68 183 -68q114 0 195 81t81 196v379q0 41 -18 100z" />
<glyph unicode="&#xf9;" horiz-adv-x="1085" d="M143 379v696q0 29 18.5 45.5t43.5 16.5t43 -16.5t18 -45.5v-696q0 -115 81 -196t196 -81t195.5 80.5t80.5 196.5v696q0 29 18.5 45.5t43.5 16.5t43 -16.5t18 -45.5v-696q0 -166 -116.5 -282.5t-282.5 -116.5t-283 116.5t-117 282.5zM317 1522q0 22 15.5 38.5t36.5 16.5 q14 0 32 -12l224 -179q18 -15 18 -38q0 -22 -15 -39t-36 -17q-14 0 -33 13l-223 178q-19 16 -19 39z" />
<glyph unicode="&#xfa;" horiz-adv-x="1085" d="M143 379v696q0 29 18.5 45.5t43.5 16.5t43 -16.5t18 -45.5v-696q0 -115 81 -196t196 -81t195.5 80.5t80.5 196.5v696q0 29 18.5 45.5t43.5 16.5t43 -16.5t18 -45.5v-696q0 -166 -116.5 -282.5t-282.5 -116.5t-283 116.5t-117 282.5zM440 1348q0 22 19 38l223 179 q18 12 33 12q21 0 36 -16.5t15 -38.5q0 -24 -18 -39l-224 -178q-20 -13 -32 -13q-21 0 -36.5 17t-15.5 39z" />
<glyph unicode="&#xfb;" horiz-adv-x="1085" d="M143 379v696q0 29 18.5 45.5t43.5 16.5t43 -16.5t18 -45.5v-696q0 -115 81 -196t196 -81t195.5 80.5t80.5 196.5v696q0 29 18.5 45.5t43.5 16.5t43 -16.5t18 -45.5v-696q0 -166 -116.5 -282.5t-282.5 -116.5t-283 116.5t-117 282.5zM328 1364q0 21 16 37l141 141 q31 31 56 31q26 0 57 -31l141 -141q17 -17 17 -37t-16 -35.5t-38 -15.5q-17 0 -34 14l-125 123l-127 -123q-17 -14 -35 -14q-22 0 -37.5 15.5t-15.5 35.5z" />
<glyph unicode="&#xfc;" horiz-adv-x="1085" d="M143 379v696q0 29 18.5 45.5t43.5 16.5t43 -16.5t18 -45.5v-696q0 -115 81 -196t196 -81t195.5 80.5t80.5 196.5v696q0 29 18.5 45.5t43.5 16.5t43 -16.5t18 -45.5v-696q0 -166 -116.5 -282.5t-282.5 -116.5t-283 116.5t-117 282.5zM297 1391q0 34 24 58t58 24t58 -24 t24 -58t-24 -58t-58 -24t-58 24t-24 58zM625 1391q0 34 24 58t58 24t57.5 -24t23.5 -58t-23.5 -58t-57.5 -24t-58 24t-24 58z" />
<glyph unicode="&#xfd;" horiz-adv-x="987" d="M61 1077q0 26 19.5 43t44.5 17q40 0 57 -41l305 -852l318 852q14 41 55 41q26 0 46 -16.5t20 -43.5q0 -10 -6 -22l-531 -1424q-14 -41 -55 -41q-25 0 -44.5 17t-19.5 43q0 6 4 22l146 394l-354 989q-5 20 -5 22zM391 1348q0 22 19 38l223 179q18 12 33 12q21 0 36 -16.5 t15 -38.5q0 -23 -19 -39l-223 -178q-20 -13 -33 -13q-21 0 -36 17t-15 39z" />
<glyph unicode="&#xfe;" horiz-adv-x="1075" d="M143 -348v1884q0 29 18.5 45t43.5 16t43 -16t18 -45v-508q119 129 277 129q166 0 282.5 -116.5t116.5 -282.5v-379q0 -166 -116.5 -282.5t-282.5 -116.5q-158 0 -277 129v-457q0 -29 -18 -45.5t-43 -16.5t-43.5 16.5t-18.5 45.5zM266 379q0 -115 81 -196t196 -81 t195.5 80.5t80.5 196.5v379q0 116 -80.5 196t-195.5 80q-116 0 -196.5 -80.5t-80.5 -195.5v-379z" />
<glyph unicode="&#xff;" horiz-adv-x="987" d="M61 1077q0 26 19.5 43t44.5 17q40 0 57 -41l305 -852l318 852q14 41 55 41q26 0 46 -16.5t20 -43.5q0 -10 -6 -22l-531 -1424q-14 -41 -55 -41q-25 0 -44.5 17t-19.5 43q0 6 4 22l146 394l-354 989q-5 20 -5 22zM248 1391q0 34 24 58t58 24t58 -24t24 -58t-24 -58 t-58 -24t-58 24t-24 58zM575 1391q0 34 24 58t58 24t58 -24t24 -58t-24 -58t-58 -24t-58 24t-24 58z" />
<glyph unicode="&#x152;" horiz-adv-x="2050" d="M123 508v582q0 143 71 264.5t192.5 192.5t264.5 71q121 0 227 -51t179 -140v109q0 25 18 43t43 18h768q29 0 45.5 -18t16.5 -43t-16.5 -43t-45.5 -18h-706v-578h645q29 0 45 -18t16 -43t-16 -43.5t-45 -18.5h-645v-651h706q29 0 45.5 -18.5t16.5 -43.5t-16.5 -43 t-45.5 -18h-768q-25 0 -43 18t-18 43v109q-73 -89 -179 -139.5t-227 -50.5q-143 0 -264.5 71t-192.5 192.5t-71 264.5zM246 508q0 -167 119 -286.5t286 -119.5t286.5 119.5t119.5 286.5v582q0 167 -119.5 286t-286.5 119t-286 -119t-119 -286v-582z" />
<glyph unicode="&#x153;" horiz-adv-x="1730" d="M133 379v379q0 166 116.5 282.5t282.5 116.5q104 0 193.5 -50t144.5 -136q55 86 144.5 136t193.5 50q166 0 283 -116.5t117 -282.5v-144q0 -25 -18.5 -43t-43.5 -18h-614v-174q0 -110 89.5 -193.5t207.5 -83.5q66 0 132 25t99 72q20 26 49 26q25 0 45.5 -17.5t20.5 -41.5 q0 -19 -12 -37q-9 -11 -23 -27q-58 -61 -139.5 -91.5t-171.5 -30.5q-105 0 -201.5 51.5t-155.5 138.5q-53 -87 -143.5 -138.5t-196.5 -51.5q-166 0 -282.5 116.5t-116.5 282.5zM256 379q0 -116 80.5 -196.5t195.5 -80.5q116 0 196.5 81t80.5 196v379q0 115 -80.5 195.5 t-196.5 80.5t-196 -80t-80 -196v-379zM932 676h553v82q0 115 -80.5 195.5t-196.5 80.5t-196 -80t-80 -196v-82z" />
<glyph unicode="&#x178;" horiz-adv-x="1189" d="M41 1538q0 24 19.5 41.5t43.5 17.5q36 0 52 -30l438 -733l440 733q16 30 51 30q24 0 44 -17.5t20 -41.5q0 -20 -10 -33l-484 -809v-635q0 -29 -18 -45t-43 -16t-43.5 16t-18.5 45v635l-481 809q-10 13 -10 33zM348 1851q0 34 24 58t58 24t58 -24t24 -58t-24 -58t-58 -24 t-58 24t-24 58zM676 1851q0 34 24 58t58 24t58 -24t24 -58t-24 -58t-58 -24t-58 24t-24 58z" />
<glyph unicode="&#x2c6;" horiz-adv-x="825" d="M199 1364q0 21 16 37l141 141q31 31 56 31q26 0 57 -31l141 -141q17 -17 17 -37t-16 -35.5t-38 -15.5q-17 0 -34 14l-125 123l-127 -123q-17 -14 -35 -14q-22 0 -37.5 15.5t-15.5 35.5z" />
<glyph unicode="&#x2dc;" horiz-adv-x="888" d="M184 1362q0 40 55.5 88.5t118.5 48.5q34 0 62.5 -12.5t44 -27.5t33.5 -27.5t32 -12.5q27 0 46 13.5t27 29.5t22 29.5t32 13.5q50 0 50 -51q0 -37 -56.5 -87t-120.5 -50q-39 0 -70.5 20t-55.5 40t-46 20q-27 0 -46 -13.5t-27 -29.5t-22 -29.5t-32 -13.5q-19 0 -33 14 t-14 37z" />
<glyph unicode="&#x2000;" horiz-adv-x="1046" />
<glyph unicode="&#x2001;" horiz-adv-x="2093" />
<glyph unicode="&#x2002;" horiz-adv-x="1046" />
<glyph unicode="&#x2003;" horiz-adv-x="2093" />
<glyph unicode="&#x2004;" horiz-adv-x="697" />
<glyph unicode="&#x2005;" horiz-adv-x="523" />
<glyph unicode="&#x2006;" horiz-adv-x="348" />
<glyph unicode="&#x2007;" horiz-adv-x="348" />
<glyph unicode="&#x2008;" horiz-adv-x="261" />
<glyph unicode="&#x2009;" horiz-adv-x="418" />
<glyph unicode="&#x200a;" horiz-adv-x="116" />
<glyph unicode="&#x2010;" horiz-adv-x="778" d="M102 797q0 25 16.5 43t45.5 18h450q29 0 45.5 -18t16.5 -43t-16.5 -43.5t-45.5 -18.5h-450q-29 0 -45.5 18.5t-16.5 43.5z" />
<glyph unicode="&#x2011;" horiz-adv-x="778" d="M102 797q0 25 16.5 43t45.5 18h450q29 0 45.5 -18t16.5 -43t-16.5 -43.5t-45.5 -18.5h-450q-29 0 -45.5 18.5t-16.5 43.5z" />
<glyph unicode="&#x2012;" horiz-adv-x="778" d="M102 797q0 25 16.5 43t45.5 18h450q29 0 45.5 -18t16.5 -43t-16.5 -43.5t-45.5 -18.5h-450q-29 0 -45.5 18.5t-16.5 43.5z" />
<glyph unicode="&#x2013;" horiz-adv-x="954" d="M102 797q0 25 16.5 43t45.5 18h627q29 0 45 -18t16 -43t-16 -43.5t-45 -18.5h-627q-29 0 -45.5 18.5t-16.5 43.5z" />
<glyph unicode="&#x2014;" horiz-adv-x="1581" d="M102 797q0 25 16.5 43t45.5 18h1253q29 0 45.5 -18t16.5 -43t-16.5 -43.5t-45.5 -18.5h-1253q-29 0 -45.5 18.5t-16.5 43.5z" />
<glyph unicode="&#x2018;" horiz-adv-x="450" d="M82 1126q0 125 56.5 256t152.5 203q18 12 37 12q26 0 43.5 -19t17.5 -44q0 -30 -24 -49q-9 -7 -23 -19q-66 -66 -101.5 -155.5t-35.5 -184.5q0 -29 -18.5 -45t-43.5 -16t-43 16t-18 45z" />
<glyph unicode="&#x2019;" horiz-adv-x="450" d="M61 1128q0 27 27 48q9 6 21 20q66 65 101.5 154t35.5 186q0 29 18 45t43 16t43.5 -16t18.5 -45q0 -126 -56 -257.5t-153 -201.5q-14 -12 -37 -12q-25 0 -43.5 19t-18.5 44z" />
<glyph unicode="&#x201a;" horiz-adv-x="430" d="M0 -307q0 26 27 47q8 6 20 20q66 65 101.5 154t35.5 186q0 29 18.5 45.5t43.5 16.5t43 -16.5t18 -45.5q0 -126 -56 -257t-153 -201q-16 -13 -37 -13q-24 0 -42.5 19.5t-18.5 44.5z" />
<glyph unicode="&#x201c;" horiz-adv-x="761" d="M82 1126q0 125 56.5 256t152.5 203q18 12 37 12q26 0 43.5 -19t17.5 -44q0 -30 -24 -49q-9 -7 -23 -19q-66 -66 -101.5 -155.5t-35.5 -184.5q0 -29 -18.5 -45t-43.5 -16t-43 16t-18 45zM393 1126q0 126 56 256.5t153 202.5q18 12 37 12q25 0 43 -19t18 -44q0 -29 -26 -49 q-9 -7 -21 -19q-66 -66 -101.5 -155.5t-35.5 -184.5q0 -29 -18 -45t-43 -16t-43.5 16t-18.5 45z" />
<glyph unicode="&#x201d;" horiz-adv-x="761" d="M61 1128q0 27 27 48q9 6 21 20q66 65 101.5 154t35.5 186q0 29 18 45t43 16t43.5 -16t18.5 -45q0 -126 -56 -257.5t-153 -201.5q-14 -12 -37 -12q-25 0 -43.5 19t-18.5 44zM373 1128q0 29 24 48q9 6 23 20q66 65 101.5 154t35.5 186q0 29 18 45t43 16t43.5 -16t18.5 -45 q0 -125 -56.5 -257t-152.5 -202q-14 -12 -37 -12q-26 0 -43.5 19t-17.5 44z" />
<glyph unicode="&#x201e;" horiz-adv-x="733" d="M0 -307q0 26 27 47q8 6 20 20q66 65 101.5 154t35.5 186q0 29 18.5 45.5t43.5 16.5t43 -16.5t18 -45.5q0 -126 -56 -257t-153 -201q-16 -13 -37 -13q-24 0 -42.5 19.5t-18.5 44.5zM303 -307q0 26 27 47q8 6 20 20q66 65 101.5 154t35.5 186q0 29 18.5 45.5t43.5 16.5 t43 -16.5t18 -45.5q0 -126 -56 -257t-153 -201q-16 -13 -36 -13q-25 0 -43.5 19.5t-18.5 44.5z" />
<glyph unicode="&#x2022;" horiz-adv-x="776" d="M123 748q0 110 77.5 188t186.5 78q110 0 188 -77.5t78 -186.5q0 -110 -77.5 -188.5t-186.5 -78.5q-110 0 -188 78t-78 187z" />
<glyph unicode="&#x2026;" horiz-adv-x="1105" d="M102 82q0 34 24 58t58 24t58 -24t24 -58t-24 -58t-58 -24t-58 24t-24 58zM471 82q0 34 24 58t58 24t58 -24t24 -58t-24 -58t-58 -24t-58 24t-24 58zM840 82q0 34 24 58t58 24t58 -24t24 -58t-24 -58t-58 -24t-58 24t-24 58z" />
<glyph unicode="&#x202f;" horiz-adv-x="418" />
<glyph unicode="&#x2039;" horiz-adv-x="724" d="M102 578q0 47 60 98l317 272q19 19 41 19q25 0 43.5 -19.5t18.5 -44.5q0 -27 -21 -45l-313 -280l313 -281q21 -18 21 -45q0 -25 -18.5 -44.5t-43.5 -19.5q-22 0 -41 19l-317 272q-60 51 -60 99z" />
<glyph unicode="&#x203a;" horiz-adv-x="724" d="M143 252q0 28 23 45l311 281l-311 280q-23 17 -23 45q0 25 19 44.5t45 19.5q19 0 41 -19l317 -272q58 -52 58 -98q0 -47 -58 -99l-317 -272q-22 -19 -41 -19q-26 0 -45 19.5t-19 44.5z" />
<glyph unicode="&#x205f;" horiz-adv-x="523" />
<glyph unicode="&#x20ac;" horiz-adv-x="1286" d="M20 682q0 25 16.5 43t45.5 18h102v144h-102q-29 0 -45.5 18t-16.5 43t16.5 43.5t45.5 18.5h102v80q0 143 71 264.5t193 192.5t265 71q123 0 252.5 -52t199.5 -143q15 -21 15 -39q0 -26 -19.5 -44.5t-44.5 -18.5q-14 0 -24.5 6t-23.5 21t-17 18q-66 63 -154.5 96 t-183.5 33q-167 0 -286.5 -119t-119.5 -286v-80h502q29 0 45 -18.5t16 -43.5t-16 -43t-45 -18h-502v-144h350q29 0 45.5 -18t16.5 -43t-16.5 -43t-45.5 -18h-350v-113q0 -167 119.5 -286.5t286.5 -119.5q96 0 197.5 40t160.5 110q17 22 45 22q27 0 47.5 -18.5t20.5 -42.5 q0 -6 -1.5 -11.5t-5 -11.5t-6.5 -10.5t-9 -11t-9 -9.5l-10 -10l-8 -8q-83 -78 -193.5 -119.5t-228.5 -41.5q-143 0 -265 71t-193 192.5t-71 264.5v113h-102q-29 0 -45.5 18t-16.5 43z" />
<glyph unicode="&#x2122;" horiz-adv-x="1753" d="M41 1536q0 25 16 43t45 18h590q29 0 45.5 -18t16.5 -43t-16.5 -43t-45.5 -18h-233v-824q0 -29 -18.5 -45t-43.5 -16t-43 16t-18 45v824h-234q-29 0 -45 18t-16 43zM770 653v883q0 32 17 52t40 20q41 0 62 -47l311 -748l311 748q21 47 62 47q23 0 40 -20t17 -52v-883 q0 -29 -18 -45t-43 -16t-43.5 16t-18.5 45v576l-250 -598q-20 -47 -57 -47t-57 47l-250 598v-576q0 -29 -18.5 -45t-43.5 -16t-43 16t-18 45z" />
<glyph unicode="&#x25fc;" horiz-adv-x="1136" d="M0 0v1137h1137v-1137h-1137z" />
</font>
</defs>
</svg>
