<?xml version="1.0" standalone="no"?>
<!DOCTYPE svg PUBLIC "-//W3C//DTD SVG 1.1//EN" "http://www.w3.org/Graphics/SVG/1.1/DTD/svg11.dtd" >
<svg xmlns="http://www.w3.org/2000/svg" xmlns:xlink="http://www.w3.org/1999/xlink" version="1.1">
<metadata></metadata>
<defs>
<font id="variableregular" horiz-adv-x="1138" >
<font-face units-per-em="2048" ascent="1556" descent="-492" />
<missing-glyph horiz-adv-x="491" />
<glyph horiz-adv-x="0" />
<glyph horiz-adv-x="682" />
<glyph unicode=" "  horiz-adv-x="491" />
<glyph unicode="&#x09;" horiz-adv-x="491" />
<glyph unicode="&#xa0;" horiz-adv-x="491" />
<glyph unicode="!" horiz-adv-x="368" d="M121 63q0 26 18.5 45t44.5 19t45 -19t19 -45t-19 -44.5t-45 -18.5t-44.5 18.5t-18.5 44.5zM143 543v973q0 19 12.5 29.5t28.5 10.5t28.5 -10.5t12.5 -29.5v-973q0 -19 -12.5 -30t-28.5 -11t-28.5 11t-12.5 30z" />
<glyph unicode="&#x22;" horiz-adv-x="595" d="M123 1188v328q0 19 12.5 29.5t28.5 10.5t28.5 -10.5t12.5 -29.5v-328q0 -19 -12.5 -30t-28.5 -11t-28.5 11t-12.5 30zM391 1188v328q0 19 12.5 29.5t28.5 10.5t28.5 -10.5t12.5 -29.5v-328q0 -19 -12.5 -30t-28.5 -11t-28.5 11t-12.5 30z" />
<glyph unicode="#" horiz-adv-x="1486" d="M41 526q0 16 11 28.5t30 12.5h346l45 422h-338q-19 0 -30 12.5t-11 28.5t11 28.5t30 12.5h346l47 449q3 36 41 36q16 0 28.5 -10t12.5 -28v-7l-47 -440h422l47 449q3 36 41 36q16 0 28.5 -10t12.5 -28v-7l-47 -440h338q19 0 30 -12.5t11 -28.5t-11 -28.5t-30 -12.5h-346 l-45 -422h338q19 0 30 -12.5t11 -28.5t-11 -28.5t-30 -12.5h-346l-48 -448q-1 -18 -12.5 -27.5t-27.5 -9.5t-28.5 10.5t-12.5 28.5v6l47 440h-422l-47 -448q-1 -18 -13 -27.5t-28 -9.5t-28.5 10.5t-12.5 28.5v6l47 440h-338q-19 0 -30 12.5t-11 28.5zM510 567h422l45 422 h-422z" />
<glyph unicode="$" horiz-adv-x="1167" d="M123 186q0 17 12.5 29t28.5 12q21 0 33 -18q6 -9 18 -21q61 -62 148 -94.5t180 -32.5v721q-55 21 -89 34.5t-82.5 37t-78.5 45t-64 53t-53 65.5t-32 79.5t-13 97.5q0 114 59 201.5t151 132.5t202 49v133q0 19 12.5 30t28.5 11t28.5 -11t12.5 -30v-137q105 -14 205.5 -69 t160.5 -136q8 -11 8 -25q0 -17 -12 -28.5t-29 -11.5q-19 0 -32 16q-9 11 -23 27q-118 121 -278 145v-651q63 -24 105 -42.5t95.5 -48t88.5 -62t67 -75.5t47.5 -99t15.5 -122q0 -166 -118 -275.5t-301 -131.5v-158q0 -19 -12.5 -30t-28.5 -11t-28.5 11t-12.5 30v154 q-115 0 -234 48t-178 134q-8 11 -8 24zM213 1194q0 -53 18.5 -97.5t46 -75.5t74.5 -60.5t88 -48t103 -42.5v625q-140 -6 -235 -89t-95 -212zM625 68q152 20 245 108.5t93 214.5q0 60 -19 110t-48 85t-76 67t-90.5 52.5t-104.5 44.5v-682z" />
<glyph unicode="%" horiz-adv-x="1673" d="M102 1227q0 136 96.5 232.5t233.5 96.5t233.5 -96.5t96.5 -232.5q0 -137 -97 -233.5t-233 -96.5t-233 96.5t-97 233.5zM184 1227q0 -102 73 -175t175 -73q103 0 175.5 72.5t72.5 175.5t-72.5 175.5t-175.5 72.5q-102 0 -175 -73t-73 -175zM266 25q0 13 8 24l1059 1491 q11 16 33 16q16 0 29.5 -11.5t13.5 -28.5q0 -9 -8 -25l-1059 -1491q-13 -16 -33 -16q-17 0 -30 12t-13 29zM911 313q0 137 96.5 233.5t233.5 96.5t233.5 -96.5t96.5 -233.5q0 -136 -96.5 -232.5t-233.5 -96.5t-233.5 96.5t-96.5 232.5zM993 313q0 -102 73 -174.5t175 -72.5 q103 0 175.5 72t72.5 175t-72.5 175.5t-175.5 72.5q-102 0 -175 -73t-73 -175z" />
<glyph unicode="&#x26;" horiz-adv-x="1224" d="M133 422q0 76 20 140.5t59.5 116t81 89t99.5 78.5l-35 41q-64 74 -105.5 159t-41.5 158q0 101 37.5 185t114.5 136t180 52q125 0 218 -91t93 -220q0 -63 -21 -120t-43 -92.5t-78 -84t-81 -66t-99 -65.5q-11 -7 -16 -11l426 -499q26 50 47 104.5t29 84t8 34.5q9 33 39 33 q18 0 30.5 -10.5t12.5 -28.5q0 -6 -2 -10q-28 -138 -107 -275l164 -190q11 -15 11 -27q0 -17 -13.5 -30t-30.5 -13t-30 16l-148 172q-153 -204 -360 -204q-196 0 -327.5 122.5t-131.5 315.5zM215 422q0 -157 106.5 -256.5t270.5 -99.5q177 0 305 188l-451 528 q-52 -36 -89.5 -69t-72 -77t-52 -97.5t-17.5 -116.5zM293 1204q0 -54 35 -125t92 -139l41 -49q138 89 185 130q123 113 126 245q0 95 -68.5 162t-160.5 67q-114 0 -182 -81.5t-68 -209.5z" />
<glyph unicode="'" horiz-adv-x="327" d="M123 1188v328q0 19 12.5 29.5t28.5 10.5t28.5 -10.5t12.5 -29.5v-328q0 -19 -12.5 -30t-28.5 -11t-28.5 11t-12.5 30z" />
<glyph unicode="(" horiz-adv-x="538" d="M102 604q0 173 27 335t63 268t77 192t64 121t29 41q15 18 33 18q15 0 28 -13t13 -30q0 -14 -8 -25q-14 -20 -37 -57q-104 -178 -155.5 -401t-51.5 -449q0 -229 62 -489t182 -418q8 -11 8 -25q0 -17 -12.5 -29t-28.5 -12q-19 0 -33 17q-6 6 -29 41t-64 121t-77 191.5 t-63 267.5t-27 335z" />
<glyph unicode=")" horiz-adv-x="538" d="M102 -328q0 13 9 25q121 158 182 417t61 490q0 227 -51 450t-156 400l-36 57q-7 14 -7 25q0 17 12 30t29 13q19 0 31 -18q6 -6 29 -41t64 -121t77 -192t63 -268t27 -335t-27 -335t-63 -267.5t-77 -191.5t-64 -121t-29 -41q-11 -17 -31 -17q-17 0 -30 12t-13 29z" />
<glyph unicode="*" horiz-adv-x="1130" d="M102 786q0 23 21 35l360 207l-360 209q-21 12 -21 35q0 16 12 29.5t29 13.5q12 0 21 -6l360 -209v416q0 19 12.5 29.5t28.5 10.5t28.5 -10.5t12.5 -29.5v-416l361 209q9 6 20 6q17 0 29 -13.5t12 -29.5q0 -24 -20 -35l-361 -207l361 -209q20 -11 20 -35q0 -16 -12 -29.5 t-29 -13.5q-9 0 -20 7l-361 208v-415q0 -19 -12.5 -30t-28.5 -11t-28.5 11t-12.5 30v415l-360 -208q-10 -7 -21 -7q-17 0 -29 13.5t-12 29.5z" />
<glyph unicode="+" horiz-adv-x="1433" d="M41 778q0 16 11 28.5t30 12.5h594v594q0 19 12.5 30t28.5 11t28.5 -11t12.5 -30v-594h594q19 0 30 -12.5t11 -28.5t-11 -28.5t-30 -12.5h-594v-594q0 -19 -12.5 -30t-28.5 -11t-28.5 11t-12.5 30v594h-594q-19 0 -30 12.5t-11 28.5z" />
<glyph unicode="," horiz-adv-x="389" d="M0 -324q0 22 16 33q11 9 25 23q70 68 106.5 160.5t36.5 193.5q0 19 12.5 30t28.5 11t28.5 -11t12.5 -30q0 -122 -53.5 -248.5t-146.5 -193.5q-12 -9 -25 -9q-17 0 -29 12.5t-12 28.5z" />
<glyph unicode="-" horiz-adv-x="737" d="M102 776q0 16 11 28.5t30 12.5h451q19 0 30 -12.5t11 -28.5t-11 -28.5t-30 -12.5h-451q-19 0 -30 12.5t-11 28.5z" />
<glyph unicode="." horiz-adv-x="327" d="M100 63q0 26 19 45t45 19t44.5 -19t18.5 -45t-18.5 -44.5t-44.5 -18.5t-45 18.5t-19 44.5z" />
<glyph unicode="/" horiz-adv-x="647" d="M41 -182q0 8 2 12l483 1696q8 30 39 30q16 0 28.5 -10t12.5 -28q0 -9 -2 -13l-483 -1695q-8 -31 -37 -31q-18 0 -30.5 10.5t-12.5 28.5z" />
<glyph unicode="0" d="M123 426v704q0 185 131 316t315 131q185 0 316 -131.5t131 -315.5v-704q0 -184 -131 -315t-316 -131t-315.5 131t-130.5 315zM205 426q0 -151 106.5 -258t257.5 -107t258 107t107 258v704q0 151 -107 258t-258 107t-257.5 -107t-106.5 -258v-704z" />
<glyph unicode="1" d="M184 41q0 16 11 28.5t30 12.5h365v1364l-299 -164q-8 -4 -23 -4q-17 0 -28 12.5t-11 30.5q0 25 21 35l360 196q14 7 27 7q15 0 25 -11.5t10 -31.5v-1434h364q19 0 30 -12.5t11 -28.5t-11 -28.5t-30 -12.5h-811q-19 0 -30 12.5t-11 28.5z" />
<glyph unicode="2" d="M102 35q0 15 13 31q57 72 193 240.5t251.5 315t206.5 269.5q60 81 89.5 153.5t29.5 161.5q0 124 -93 206.5t-233 82.5q-100 0 -175 -48.5t-142 -129.5q-14 -17 -33 -17q-17 0 -30 12t-13 29q0 12 10 25q63 87 164 149t219 62q170 0 289 -105t119 -266q0 -59 -12.5 -114 t-27.5 -94t-49 -91t-55.5 -80t-68.5 -86l-523 -659h727q19 0 30 -12.5t11 -28.5t-11 -28.5t-30 -12.5h-811q-21 0 -33 10t-12 25z" />
<glyph unicode="3" d="M145 1333q0 19 29 58q63 86 154.5 136t195.5 50q186 0 306 -111t120 -295q0 -130 -62.5 -228t-168.5 -146q114 -51 183 -153t69 -232q0 -122 -61 -221t-163 -153t-223 -54q-110 0 -215 62t-159 159q-11 20 1 40.5t35 20.5q9 0 18 -5.5t13.5 -10.5t12.5 -16.5t10 -14.5 q53 -71 126 -112t158 -41q155 0 260 99t105 247t-105 246t-260 98q-20 0 -31.5 12.5t-11.5 28.5t11.5 28.5t31.5 12.5q153 0 248.5 92t95.5 241q0 148 -94.5 236t-249.5 88q-89 0 -174.5 -51t-128.5 -129q-13 -23 -33 -23q-19 0 -31 12t-12 29z" />
<glyph unicode="4" d="M92 442q0 13 2 19q0 4 23 62.5t78.5 171.5t130 243.5t194.5 295.5t256 310q19 19 37 19q15 0 25 -13t10 -34v-1029h158q19 0 30 -12.5t11 -28.5t-11 -28t-30 -12h-158v-365q0 -19 -12.5 -30t-28.5 -11t-28.5 11t-12.5 30v365h-633q-41 0 -41 36zM193 487h573v922 q-368 -418 -573 -922z" />
<glyph unicode="5" d="M123 426q0 19 12.5 30t28.5 11t28.5 -11t12.5 -30q0 -151 106.5 -258t257.5 -107t258 107t107 258v162q0 151 -107 257.5t-258 106.5q-86 0 -181 -30.5t-157 -83.5q-18 -15 -34 -15q-14 0 -23.5 11.5t-9.5 29.5v10l102 648q1 12 15 23t26 11h621q19 0 30 -12t11 -28 t-11 -28.5t-30 -12.5h-586l-82 -521q147 80 309 80q185 0 316 -131t131 -315v-162q0 -184 -131 -315t-316 -131t-315.5 131t-130.5 315z" />
<glyph unicode="6" d="M143 426v162q0 176 35 324.5t86.5 246.5t123.5 176.5t132.5 120t127.5 72t95 38t47 11.5h1q21 3 34 -7t13 -30q0 -11 -5.5 -19.5t-17.5 -15t-24.5 -11t-34.5 -12t-39 -14.5q-187 -76 -301.5 -228t-159.5 -355q63 70 149.5 109.5t184.5 39.5q184 0 315 -131t131 -315v-162 q0 -184 -131 -315t-315 -131q-185 0 -316 131t-131 315zM225 426q0 -151 107 -258t258 -107t257.5 107t106.5 258v162q0 151 -106.5 257.5t-257.5 106.5t-258 -106.5t-107 -257.5v-162z" />
<glyph unicode="7" d="M102 1516q0 16 11 28t30 12h832q17 0 29 -11.5t12 -26.5v-9q-142 -803 -516 -1489q-10 -20 -35 -20q-18 0 -30.5 11t-12.5 28q0 14 4 22q381 698 502 1414h-785q-19 0 -30 12.5t-11 28.5z" />
<glyph unicode="8" d="M143 385q0 67 20 125t49 100t78 82.5t91 66.5t102 58q-66 37 -111.5 70.5t-89 80.5t-65.5 108t-22 136q0 161 106.5 263t267.5 102q164 0 269.5 -101.5t105.5 -263.5q0 -60 -16 -112.5t-41 -91t-64.5 -75t-77.5 -62t-90 -54.5q60 -32 102 -58t91 -66.5t78 -82.5t49 -100 t20 -125q0 -172 -124 -288.5t-302 -116.5q-175 0 -300.5 117.5t-125.5 287.5zM225 385q0 -135 100.5 -229.5t243.5 -94.5q146 0 245 93.5t99 230.5q0 42 -11 80.5t-26 68t-45 60t-53 50t-66 46t-68 40.5t-75 40q-50 -26 -75 -40t-68 -40.5t-66 -46t-53 -50t-45 -60t-26 -68 t-11 -80.5zM276 1212q0 -52 16.5 -98t41 -79t66 -66.5t78.5 -56t91 -50.5q54 28 91 50.5t78.5 56t66 66.5t41 79t16.5 98q0 126 -80.5 204.5t-212.5 78.5q-129 0 -211 -78.5t-82 -204.5z" />
<glyph unicode="9" d="M102 969v161q0 184 131 315.5t316 131.5q184 0 315 -131t131 -316v-161q0 -125 -18.5 -240.5t-60 -226.5t-103.5 -202.5t-154 -166.5t-206 -121q-80 -32 -113 -32q-18 0 -28.5 12t-10.5 28q0 35 35 41q33 7 86 27q127 50 223 141t152 200.5t86 242.5q-63 -70 -149.5 -110 t-184.5 -40q-121 0 -224 60t-163 163t-60 224zM184 969q0 -151 107 -258t258 -107t257.5 107t106.5 258v161q0 151 -106.5 258t-257.5 107t-258 -107t-107 -258v-161z" />
<glyph unicode=":" horiz-adv-x="327" d="M100 63q0 26 19 45t45 19t44.5 -19t18.5 -45t-18.5 -44.5t-44.5 -18.5t-45 18.5t-19 44.5zM100 1032q0 26 19 45t45 19t44.5 -19t18.5 -45t-18.5 -44.5t-44.5 -18.5t-45 18.5t-19 44.5z" />
<glyph unicode=";" horiz-adv-x="389" d="M0 -324q0 22 16 33q11 9 25 23q70 68 106.5 160.5t36.5 193.5q0 19 12.5 30t28.5 11t28.5 -11t12.5 -30q0 -122 -53.5 -248.5t-146.5 -193.5q-12 -9 -25 -9q-17 0 -29 12.5t-12 28.5zM162 1032q0 26 18.5 45t44.5 19t45 -19t19 -45t-19 -44.5t-45 -18.5t-44.5 18.5 t-18.5 44.5z" />
<glyph unicode="&#x3c;" horiz-adv-x="1024" d="M62 723q0 19 14 31l755 682q19 17 41 8.5t26.5 -29.5t-11.5 -41l-723 -651l723 -651q18 -18 11.5 -41t-26.5 -29.5t-41 8.5l-755 682q-14 12 -14 31z" />
<glyph unicode="=" horiz-adv-x="1269" d="M106.5 532.5q-10.5 20.5 0 41t36.5 20.5h983q26 0 36.5 -20.5t0 -41t-36.5 -20.5h-983q-26 0 -36.5 20.5zM106.5 983.5q-10.5 20.5 0 40.5t36.5 20h983q26 0 36.5 -20t0 -40.5t-36.5 -20.5h-983q-26 0 -36.5 20.5z" />
<glyph unicode="&#x3e;" horiz-adv-x="1024" d="M124.5 31q-4.5 21 12.5 41l721 651l-721 651q-19 17 -12.5 40.5t27 30t41.5 -8.5l755 -682q14 -12 14 -31t-14 -31l-755 -682q-19 -17 -41.5 -8.5t-27 29.5z" />
<glyph unicode="?" horiz-adv-x="962" d="M102 1319q0 6 4 18q7 14 21 39q56 94 146.5 147.5t199.5 53.5q169 0 268 -95.5t99 -254.5q0 -71 -20 -133t-53 -108.5t-74 -89t-85.5 -83.5t-84.5 -81.5t-74.5 -92.5t-51.5 -109q-8 -28 -37 -28q-18 0 -30.5 10.5t-12.5 28.5q0 8 2 14q13 41 48 100q26 46 69 95 t84.5 86.5t85.5 83.5t77 89t54 100t21 118q0 124 -74.5 196t-210.5 72q-93 0 -174.5 -53t-116.5 -137q-12 -25 -37 -25q-18 0 -30.5 11t-12.5 28zM274 63q0 26 19 45t45 19t44.5 -19t18.5 -45t-18.5 -44.5t-44.5 -18.5t-45 18.5t-19 44.5z" />
<glyph unicode="@" horiz-adv-x="1744" d="M123 469v352q0 154 60 294t161 241t241 161t294 60t292.5 -60.5t237 -162t156 -241t57.5 -292.5v-477q0 -114 -72 -203.5t-188 -89.5q-101 0 -165.5 54.5t-76.5 148.5q-60 -71 -142.5 -111.5t-174.5 -40.5q-146 0 -246 99t-100 245q0 52 7 116.5t17.5 142.5t14.5 118 q17 156 137 265.5t276 109.5q90 0 165.5 -39.5t121.5 -109.5l10 65q2 18 13.5 30.5t29.5 12.5q17 0 28 -15t9 -30l-84 -793q-8 -81 36 -133.5t124 -52.5q77 0 127.5 64t50.5 147v477q0 137 -51.5 261.5t-139 215t-210.5 144t-260 53.5t-262 -53.5t-215 -143.5t-143.5 -215 t-53.5 -262v-352q0 -137 53.5 -262t143.5 -215t215 -143.5t262 -53.5q152 0 282 72q18 6 21 6q18 0 29.5 -13.5t11.5 -29.5q0 -22 -19 -33q-137 -84 -325 -84q-154 0 -294 60t-241 161t-161 241t-60 294zM539 446q0 -112 75.5 -187t188.5 -75q122 0 220 83.5t110 201.5 l38 352q14 120 -63.5 207.5t-198.5 87.5q-124 0 -221.5 -89t-109.5 -212q-4 -38 -15 -115.5t-17.5 -141t-6.5 -112.5z" />
<glyph unicode="A" horiz-adv-x="1187" d="M61 39l2 14l492 1475q12 35 39 35t39 -35l491 -1475q2 -6 2 -14q0 -18 -12.5 -28.5t-28.5 -10.5q-29 0 -38 29l-158 475h-588l-160 -475q-9 -29 -39 -29q-16 0 -28.5 10.5t-12.5 28.5zM328 586h532l-266 800z" />
<glyph unicode="B" horiz-adv-x="1159" d="M164 41v1475q0 17 12 28.5t29 11.5h426q163 0 279 -115t116 -278q0 -113 -59.5 -207t-157.5 -145q111 -52 179.5 -156t68.5 -229q0 -177 -124.5 -301.5t-301.5 -124.5h-426q-17 0 -29 12t-12 29zM246 82h385q141 0 242.5 101t101.5 243t-100.5 242t-243.5 100h-385v-686z M246 850h385q129 0 221 92t92 221t-92 220.5t-221 91.5h-385v-625z" />
<glyph unicode="C" horiz-adv-x="1181" d="M123 487v582q0 138 68 255t185 185t255 68q118 0 244 -50t194 -138q10 -13 10 -25q0 -17 -13.5 -29t-29.5 -12t-32 16q-7 9 -21 23q-69 65 -161 99t-191 34q-177 0 -301.5 -124.5t-124.5 -301.5v-582q0 -177 124.5 -301.5t301.5 -124.5q101 0 207 41.5t166 114.5 q13 16 32 16q18 0 30.5 -11.5t12.5 -28.5q0 -15 -10 -25q-11 -15 -31 -33q-81 -75 -187 -115t-220 -40q-138 0 -255 67.5t-185 184.5t-68 255z" />
<glyph unicode="D" horiz-adv-x="1271" d="M164 41v1475q0 17 12 28.5t29 11.5h426q138 0 255 -67.5t185 -184.5t68 -255v-541q0 -138 -68 -255t-185 -185t-255 -68h-426q-17 0 -29 12t-12 29zM246 82h385q177 0 301.5 124.5t124.5 301.5v541q0 177 -124.5 301.5t-301.5 124.5h-385v-1393z" />
<glyph unicode="E" horiz-adv-x="1116" d="M164 41v1475q0 17 12 28.5t29 11.5h768q19 0 30 -12t11 -28t-11 -28.5t-30 -12.5h-727v-619h665q19 0 30 -12.5t11 -28.5t-11 -28.5t-30 -12.5h-665v-692h727q19 0 30 -12.5t11 -28.5t-11 -28.5t-30 -12.5h-768q-17 0 -29 12t-12 29z" />
<glyph unicode="F" horiz-adv-x="1095" d="M164 41v1475q0 17 12 28.5t29 11.5h768q19 0 30 -12t11 -28t-11 -28.5t-30 -12.5h-727v-619h665q19 0 30 -12.5t11 -28.5t-11 -28.5t-30 -12.5h-665v-733q0 -19 -12.5 -30t-28.5 -11t-28.5 11t-12.5 30z" />
<glyph unicode="G" horiz-adv-x="1261" d="M123 487v582q0 138 68 255t185 185t255 68q118 0 244 -50t194 -138q10 -13 10 -25q0 -17 -13.5 -29t-29.5 -12q-11 0 -20 6t-19 17.5t-14 15.5q-69 65 -161 99t-191 34q-177 0 -301.5 -124.5t-124.5 -301.5v-582q0 -177 124.5 -301.5t301.5 -124.5t301.5 124.5 t124.5 301.5v242h-410q-19 0 -30 12.5t-11 28.5t11 28.5t30 12.5h451q17 0 29 -12t12 -29v-283q0 -138 -68 -255t-185 -184.5t-255 -67.5t-255 67.5t-185 184.5t-68 255z" />
<glyph unicode="H" horiz-adv-x="1302" d="M164 41v1475q0 19 12.5 29.5t28.5 10.5t28.5 -10.5t12.5 -29.5v-635h811v635q0 19 12.5 29.5t28.5 10.5t28.5 -10.5t12.5 -29.5v-1475q0 -19 -12.5 -30t-28.5 -11t-28.5 11t-12.5 30v758h-811v-758q0 -19 -12.5 -30t-28.5 -11t-28.5 11t-12.5 30z" />
<glyph unicode="I" horiz-adv-x="901" d="M82 41q0 16 11 28.5t30 12.5h287v1393h-287q-19 0 -30 12.5t-11 28.5t11 28t30 12h655q19 0 30 -12t11 -28t-11 -28.5t-30 -12.5h-286v-1393h286q19 0 30 -12.5t11 -28.5t-11 -28.5t-30 -12.5h-655q-19 0 -30 12.5t-11 28.5z" />
<glyph unicode="J" horiz-adv-x="1087" d="M82 195q0 17 12.5 27.5t28.5 10.5q24 0 35 -20q6 -8 16 -20q53 -64 130 -98t163 -34q168 0 276.5 123t108.5 303v988h-528q-19 0 -30 12.5t-11 28.5t11 28t30 12h569q17 0 29 -11.5t12 -28.5v-1029q0 -100 -33.5 -192t-93.5 -162t-148.5 -111.5t-191.5 -41.5 q-109 0 -217.5 51.5t-161.5 140.5q-6 12 -6 23z" />
<glyph unicode="K" horiz-adv-x="1265" d="M164 41v1475q0 19 12.5 29.5t28.5 10.5t28.5 -10.5t12.5 -29.5v-922l823 948q11 14 31 14q16 0 28.5 -11.5t12.5 -28.5q0 -16 -11 -27l-534 -617l600 -806q8 -11 8 -25q0 -17 -12.5 -29t-28.5 -12q-22 0 -33 16l-589 793l-295 -340v-428q0 -19 -12.5 -30t-28.5 -11 t-28.5 11t-12.5 30z" />
<glyph unicode="L" horiz-adv-x="1075" d="M164 41v1475q0 19 12.5 29.5t28.5 10.5t28.5 -10.5t12.5 -29.5v-1434h727q19 0 30 -12.5t11 -28.5t-11 -28.5t-30 -12.5h-768q-17 0 -29 12t-12 29z" />
<glyph unicode="M" horiz-adv-x="1638" d="M164 41v1470q0 22 11.5 35t27.5 13q27 0 39 -31l577 -1381l578 1381q12 31 39 31q16 0 27.5 -13t11.5 -35v-1470q0 -19 -12.5 -30t-28.5 -11t-28.5 11t-12.5 30v1266l-537 -1282q-12 -31 -37 -31t-37 31l-536 1282v-1266q0 -19 -12.5 -30t-28.5 -11t-28.5 11t-12.5 30z " />
<glyph unicode="N" horiz-adv-x="1302" d="M164 41v1475q0 22 10.5 34.5t26.5 12.5q24 0 39 -27l817 -1348v1328q0 19 12.5 29.5t28.5 10.5t28.5 -10.5t12.5 -29.5v-1475q0 -22 -10.5 -34.5t-26.5 -12.5q-25 0 -39 26l-817 1348v-1327q0 -19 -12.5 -30t-28.5 -11t-28.5 11t-12.5 30z" />
<glyph unicode="O" horiz-adv-x="1261" d="M123 487v582q0 138 68 255t185 185t255 68t255 -68t185 -185t68 -255v-582q0 -138 -68 -255t-185 -184.5t-255 -67.5t-255 67.5t-185 184.5t-68 255zM205 487q0 -177 124.5 -301.5t301.5 -124.5t301.5 124.5t124.5 301.5v582q0 177 -124.5 301.5t-301.5 124.5 t-301.5 -124.5t-124.5 -301.5v-582z" />
<glyph unicode="P" horiz-adv-x="1140" d="M164 41v1475q0 17 12 28.5t29 11.5h364q133 0 246 -65t178.5 -177t65.5 -245t-65.5 -245.5t-178.5 -178t-246 -65.5h-323v-539q0 -19 -12.5 -30t-28.5 -11t-28.5 11t-12.5 30zM246 662h323q169 0 288.5 119t119.5 288t-119.5 287.5t-288.5 118.5h-323v-813z" />
<glyph unicode="Q" horiz-adv-x="1261" d="M123 487v582q0 138 68 255t185 185t255 68t255 -68t185 -185t68 -255v-582q0 -199 -135 -344.5t-332 -160.5v-64q0 -89 63 -152t152 -63q20 0 30.5 -12t10.5 -29t-10.5 -29t-30.5 -12q-123 0 -210 87t-87 210v64q-197 15 -332 160.5t-135 344.5zM205 487 q0 -177 124.5 -301.5t301.5 -124.5t301.5 124.5t124.5 301.5v582q0 177 -124.5 301.5t-301.5 124.5t-301.5 -124.5t-124.5 -301.5v-582z" />
<glyph unicode="R" horiz-adv-x="1163" d="M164 41v1475q0 17 12 28.5t29 11.5h364q133 0 246 -65t178.5 -177t65.5 -245q0 -162 -97.5 -291.5t-248.5 -175.5l342 -539q6 -12 6 -22q0 -17 -13 -29t-30 -12q-23 0 -33 18l-358 566q-28 -4 -62 -4h-319v-539q0 -19 -12.5 -30t-28.5 -11t-28.5 11t-12.5 30zM246 662 h323q169 0 288.5 119t119.5 288t-119.5 287.5t-288.5 118.5h-323v-813z" />
<glyph unicode="S" horiz-adv-x="1167" d="M123 186q0 17 12.5 29t28.5 12q21 0 33 -18q6 -9 18 -21q61 -62 148 -94.5t180 -32.5q185 0 302.5 93.5t117.5 236.5q0 95 -46 165t-119.5 112t-162 76.5t-177 70.5t-162 81t-119.5 120.5t-46 177.5q0 88 36.5 161.5t97 121t137.5 74t161 26.5q118 0 238.5 -57.5 t189.5 -151.5q8 -11 8 -25q0 -17 -12 -28.5t-29 -11.5q-19 0 -32 16q-9 11 -23 27q-68 69 -156.5 109t-183.5 40q-148 0 -249 -83.5t-101 -217.5q0 -67 28.5 -120t76.5 -89t110.5 -65.5t131 -55t137.5 -53t131.5 -64.5t110.5 -83.5t76.5 -116t28.5 -156.5q0 -123 -69 -218 t-182 -144t-250 -49q-115 0 -234 48t-178 134q-8 11 -8 24z" />
<glyph unicode="T" horiz-adv-x="1105" d="M20 1516q0 16 11 28t30 12h983q19 0 30 -12t11 -28t-11 -28.5t-30 -12.5h-450v-1434q0 -19 -12.5 -30t-28.5 -11t-28.5 11t-12.5 30v1434h-451q-19 0 -30 12.5t-11 28.5z" />
<glyph unicode="U" horiz-adv-x="1302" d="M143 487v1029q0 19 12.5 29.5t28.5 10.5t28.5 -10.5t12.5 -29.5v-1029q0 -177 124.5 -301.5t301.5 -124.5t301.5 124.5t124.5 301.5v1029q0 19 12.5 29.5t28.5 10.5t28.5 -10.5t12.5 -29.5v-1029q0 -138 -68 -255t-185 -184.5t-255 -67.5t-255 67.5t-185 184.5t-68 255z " />
<glyph unicode="V" horiz-adv-x="1146" d="M41 1518q0 18 12.5 28t30.5 10q29 0 37 -28l452 -1372l453 1372q8 28 39 28q16 0 28.5 -10t12.5 -28l-2 -15l-492 -1491q-12 -35 -39 -35q-26 0 -38 35l-492 1491q-2 9 -2 15z" />
<glyph unicode="W" horiz-adv-x="1884" d="M41 1518q0 18 12.5 28t28.5 10q30 0 39 -30l373 -1354l409 1356q9 37 39 37q27 0 39 -37l410 -1356l372 1354q9 30 39 30q17 0 29 -9t12 -27l-2 -15l-409 -1491q-9 -37 -39 -37q-31 0 -39 35l-412 1362l-412 -1362q-11 -35 -38 -35q-30 0 -39 37l-410 1491q-2 7 -2 13z " />
<glyph unicode="X" horiz-adv-x="1144" d="M82 39q0 10 6 22l436 748l-401 686q-6 12 -6 23q0 17 12.5 27.5t28.5 10.5q24 0 35 -20l378 -647l381 647q11 20 35 20q16 0 28.5 -10.5t12.5 -27.5q0 -11 -6 -23l-401 -686l436 -748q6 -12 6 -22q0 -17 -12.5 -28t-28.5 -11q-24 0 -35 20l-414 707l-415 -707 q-11 -20 -35 -20q-16 0 -28.5 11t-12.5 28z" />
<glyph unicode="Y" horiz-adv-x="1146" d="M41 1518q0 17 12.5 27.5t28.5 10.5q24 0 35 -20l456 -764l457 764q11 20 35 20q16 0 28.5 -10.5t12.5 -27.5q0 -11 -6 -23l-486 -815v-639q0 -19 -12.5 -30t-28.5 -11t-28.5 11t-12.5 30v639l-485 815q-6 12 -6 23z" />
<glyph unicode="Z" horiz-adv-x="1157" d="M92 35q0 13 8 26l844 1414h-762q-19 0 -30 12.5t-11 28.5t11 28t30 12h834q20 0 31.5 -9.5t11.5 -24.5q0 -14 -8 -27l-844 -1413h817q19 0 30 -12.5t11 -28.5t-11 -28.5t-30 -12.5h-889q-20 0 -31.5 10t-11.5 25z" />
<glyph unicode="[" horiz-adv-x="600" d="M123 -328v1844q0 17 12 28.5t29 11.5h334q19 0 30 -12t11 -28t-11 -28.5t-30 -12.5h-293v-1762h293q19 0 30 -12.5t11 -28.5t-11 -28.5t-30 -12.5h-334q-17 0 -29 12t-12 29z" />
<glyph unicode="\" horiz-adv-x="647" d="M41 1518q0 18 12.5 28t30.5 10q29 0 37 -30l483 -1696q2 -4 2 -12q0 -18 -12.5 -28.5t-28.5 -10.5q-31 0 -39 31l-483 1695q-2 4 -2 13z" />
<glyph unicode="]" horiz-adv-x="600" d="M61 -328q0 16 11 28.5t30 12.5h293v1762h-293q-19 0 -30 12.5t-11 28.5t11 28t30 12h334q17 0 29 -11.5t12 -28.5v-1844q0 -17 -12 -29t-29 -12h-334q-19 0 -30 12.5t-11 28.5z" />
<glyph unicode="^" horiz-adv-x="1054" d="M123 838q0 11 6 20l363 676q12 27 34 27t37 -27l363 -676q6 -9 6 -20q0 -16 -13.5 -27.5t-29.5 -11.5q-24 0 -35 22l-328 609l-325 -609q-11 -22 -35 -22q-18 0 -30.5 11t-12.5 28z" />
<glyph unicode="_" horiz-adv-x="942" d="M-61 -369q0 15 11 28t30 13h983q19 0 30 -13t11 -28t-11 -28t-30 -13h-983q-19 0 -30 13t-11 28z" />
<glyph unicode="`" horiz-adv-x="825" d="M260 1462q0 16 12 28.5t29 12.5q14 0 25 -8l223 -178q16 -13 16 -33q0 -16 -12 -28.5t-29 -12.5q-13 0 -24 8l-224 179q-16 13 -16 32z" />
<glyph unicode="a" horiz-adv-x="937" d="M102 291q0 128 89 207.5t229 109.5l303 66v110q0 116 -67.5 183t-196.5 67q-53 0 -95.5 -12.5t-67 -31t-43 -36.5t-32.5 -30.5t-26 -12.5q-16 0 -28.5 11t-12.5 28q0 18 24 47q102 119 281 119q163 0 254.5 -91.5t91.5 -240.5v-473q0 -145 -102 -238t-248 -93 q-147 0 -250 83.5t-103 227.5zM184 291q0 -105 75.5 -167.5t195.5 -62.5q115 0 191.5 71t76.5 179v279l-291 -66q-113 -26 -180.5 -86t-67.5 -147z" />
<glyph unicode="b" horiz-adv-x="1034" d="M143 358v1158q0 19 12.5 29.5t28.5 10.5t28.5 -10.5t12.5 -29.5v-543q53 67 130.5 105t166.5 38q157 0 268 -111t111 -268v-379q0 -157 -111 -267.5t-268 -110.5t-268 110.5t-111 267.5zM225 358q0 -123 87 -210t210 -87t210 87t87 210v379q0 123 -87 210t-210 87 t-210 -87t-87 -210v-379z" />
<glyph unicode="c" horiz-adv-x="925" d="M133 311v473q0 149 102 240.5t265 91.5q88 0 177 -36t140 -105q6 -12 6 -23q0 -17 -13 -29t-30 -12q-8 0 -15 3.5t-10.5 7t-9.5 11.5t-8 11q-90 90 -237 90q-132 0 -208.5 -69.5t-76.5 -180.5v-473q0 -111 76.5 -180.5t208.5 -69.5q69 0 140.5 27.5t107.5 77.5 q13 18 34 18q16 0 28.5 -12t12.5 -29q0 -16 -26 -47q-55 -58 -133 -87t-164 -29q-163 0 -265 91t-102 240z" />
<glyph unicode="d" horiz-adv-x="1034" d="M133 358v379q0 157 111 268t268 111q89 0 166.5 -38t130.5 -105v543q0 19 12.5 29.5t28.5 10.5t28.5 -10.5t12.5 -29.5v-1158q0 -157 -111 -267.5t-268 -110.5t-268 110.5t-111 267.5zM215 358q0 -123 87 -210t210 -87t210 87t87 210v379q0 123 -87 210t-210 87t-210 -87 t-87 -210v-379z" />
<glyph unicode="e" horiz-adv-x="1013" d="M133 358v379q0 157 111 268t268 111t268 -111t111 -268v-143q0 -17 -12 -29t-29 -12h-635v-195q0 -121 95 -209t222 -88q69 0 140.5 27.5t107.5 77.5q13 18 35 18q16 0 28.5 -12t12.5 -29q0 -15 -27 -47q-55 -58 -133 -87t-164 -29q-103 0 -194.5 49.5t-148 137 t-56.5 191.5zM215 635h594v102q0 123 -87 210t-210 87t-210 -87t-87 -210v-102z" />
<glyph unicode="f" horiz-adv-x="733" d="M20 1055q0 16 11 28.5t30 12.5h207v213q0 115 82 191.5t209 76.5q91 0 174 -49q21 -12 21 -35q0 -16 -12 -29.5t-29 -13.5q-11 0 -23 6q-67 39 -131 39q-94 0 -151.5 -53.5t-57.5 -132.5v-213h328q19 0 30 -12.5t11 -28.5t-11 -28.5t-30 -12.5h-328v-973q0 -19 -12.5 -30 t-28.5 -11t-28.5 11t-12.5 30v973h-207q-19 0 -30 12.5t-11 28.5z" />
<glyph unicode="g" horiz-adv-x="1034" d="M133 399v338q0 157 111 268t268 111t268 -111t111 -268v-768q0 -157 -111 -268t-268 -111q-87 0 -179 37.5t-138 104.5q-7 14 -7 22q0 17 13 29t30 12q8 0 15 -3.5t10.5 -7t9.5 -11.5t8 -11q44 -44 107.5 -67t130.5 -23q123 0 210 87t87 210v195q-54 -67 -131 -105.5 t-166 -38.5q-157 0 -268 111t-111 268zM215 399q0 -123 87 -210t210 -87t210 87t87 210v338q0 123 -87 210t-210 87t-210 -87t-87 -210v-338z" />
<glyph unicode="h" horiz-adv-x="1044" d="M143 41v1475q0 19 12.5 29.5t28.5 10.5t28.5 -10.5t12.5 -29.5v-543q53 67 130.5 105t166.5 38q157 0 268 -111t111 -268v-696q0 -19 -12.5 -30t-28.5 -11t-28.5 11t-12.5 30v696q0 123 -87 210t-210 87t-210 -87t-87 -210v-696q0 -19 -12.5 -30t-28.5 -11t-28.5 11 t-12.5 30z" />
<glyph unicode="i" horiz-adv-x="372" d="M123 1473q0 26 18.5 44.5t44.5 18.5t45 -18.5t19 -44.5t-19 -45t-45 -19t-44.5 19t-18.5 45zM145 41v1014q0 19 12.5 30t28.5 11t28.5 -11t12.5 -30v-1014q0 -19 -12.5 -30t-28.5 -11t-28.5 11t-12.5 30z" />
<glyph unicode="j" horiz-adv-x="391" d="M-20 -369q0 11 6 20.5t18.5 21t15.5 14.5q70 68 107 161t37 193v1014q0 19 12.5 30t28.5 11t28.5 -11t12.5 -30v-1014q0 -122 -54 -248t-147 -194q-12 -9 -25 -9q-17 0 -28.5 12.5t-11.5 28.5zM141 1473q0 26 19 44.5t45 18.5t44.5 -18.5t18.5 -44.5t-18.5 -45t-44.5 -19 t-45 19t-19 45z" />
<glyph unicode="k" horiz-adv-x="923" d="M143 41v1475q0 19 12.5 29.5t28.5 10.5t28.5 -10.5t12.5 -29.5v-1057l533 622q12 15 30 15q16 0 28.5 -12t12.5 -29t-10 -27l-354 -416l409 -546q9 -12 9 -25q0 -17 -12.5 -29t-28.5 -12q-22 0 -33 16l-399 533l-185 -215v-293q0 -19 -12.5 -30t-28.5 -11t-28.5 11 t-12.5 30z" />
<glyph unicode="l" horiz-adv-x="409" d="M143 301v1215q0 19 12.5 29.5t28.5 10.5t28.5 -10.5t12.5 -29.5v-1215q0 -74 29 -146t88 -96q27 -12 27 -39q0 -16 -11 -28t-28 -12q-20 0 -47 18q-71 47 -105.5 128t-34.5 175z" />
<glyph unicode="m" horiz-adv-x="1556" d="M143 41v737q0 140 99.5 239t238.5 99q95 0 174 -48t123 -128q44 80 123 128t174 48q139 0 238.5 -99t99.5 -239v-737q0 -19 -12.5 -30t-28.5 -11t-28.5 11t-12.5 30v737q0 106 -75 181t-181 75t-181 -75t-75 -181v-737q0 -20 -12.5 -31.5t-28.5 -11.5t-28.5 11.5 t-12.5 31.5v737q0 106 -75 181t-181 75t-181 -75t-75 -181v-737q0 -19 -12.5 -30t-28.5 -11t-28.5 11t-12.5 30z" />
<glyph unicode="n" horiz-adv-x="1044" d="M143 41v696q0 157 111 268t268 111t268 -111t111 -268v-696q0 -19 -12.5 -30t-28.5 -11t-28.5 11t-12.5 30v696q0 123 -87 210t-210 87t-210 -87t-87 -210v-696q0 -19 -12.5 -30t-28.5 -11t-28.5 11t-12.5 30z" />
<glyph unicode="o" horiz-adv-x="1024" d="M133 358v379q0 157 111 268t268 111t268 -111t111 -268v-379q0 -157 -111 -267.5t-268 -110.5t-268 110.5t-111 267.5zM215 358q0 -123 87 -210t210 -87t210 87t87 210v379q0 123 -87 210t-210 87t-210 -87t-87 -210v-379z" />
<glyph unicode="p" horiz-adv-x="1034" d="M143 -369v1106q0 157 111 268t268 111t268 -111t111 -268v-379q0 -157 -111 -267.5t-268 -110.5q-89 0 -166.5 38t-130.5 105v-492q0 -19 -12.5 -30t-28.5 -11t-28.5 11t-12.5 30zM225 358q0 -123 87 -210t210 -87t210 87t87 210v379q0 123 -87 210t-210 87t-210 -87 t-87 -210v-379z" />
<glyph unicode="q" horiz-adv-x="1034" d="M133 358v379q0 157 111 268t268 111t268 -111t111 -268v-1106q0 -19 -12.5 -30t-28.5 -11t-28.5 11t-12.5 30v492q-53 -67 -130.5 -105t-166.5 -38q-157 0 -268 110.5t-111 267.5zM215 358q0 -123 87 -210t210 -87t210 87t87 210v379q0 123 -87 210t-210 87t-210 -87 t-87 -210v-379z" />
<glyph unicode="r" horiz-adv-x="776" d="M143 41v682q0 172 88.5 282.5t249.5 110.5q62 0 130.5 -25.5t109.5 -68.5q14 -14 14 -29q0 -17 -13 -29t-30 -12q-8 0 -14 3t-15 10.5t-12 9.5q-75 59 -170 59q-121 0 -188.5 -83t-67.5 -228v-682q0 -19 -12.5 -30t-28.5 -11t-28.5 11t-12.5 30z" />
<glyph unicode="s" horiz-adv-x="868" d="M102 135q0 17 13 29t30 12q8 0 15 -3.5t10 -6t10 -11.5t8 -10q40 -41 98.5 -62.5t119.5 -21.5q122 0 200 64t78 158q0 63 -31.5 109.5t-82.5 75t-112 53t-122.5 50.5t-112.5 58.5t-82.5 87t-31.5 127.5q0 85 46 148.5t115.5 93.5t149.5 30q85 0 168.5 -41.5t126.5 -109.5 q8 -11 8 -23q0 -17 -13.5 -29t-29.5 -12q-9 0 -16.5 3.5t-11 7.5t-10 12.5t-9.5 11.5q-85 98 -213 98q-99 0 -164.5 -52t-65.5 -138q0 -56 32 -98t82.5 -68t112 -49.5t123 -51t112 -62.5t82.5 -94t32 -138q0 -135 -105 -219t-255 -84q-82 0 -168 35t-127 98q-9 12 -9 22z " />
<glyph unicode="t" horiz-adv-x="837" d="M20 1055q0 16 11 28.5t30 12.5h207v280q0 19 12.5 30t28.5 11t28.5 -11t12.5 -30v-280h383q19 0 30 -12.5t11 -28.5t-11 -28.5t-30 -12.5h-383v-766q0 -79 57.5 -133t151.5 -54q42 0 89 17.5t77 46.5q13 10 29 10q17 0 30 -13t13 -30q0 -4 -1.5 -8.5t-3.5 -7.5t-6.5 -7.5 l-6.5 -6.5t-8 -7t-7 -6q-95 -69 -205 -69q-127 0 -209 76.5t-82 191.5v766h-207q-19 0 -30 12.5t-11 28.5z" />
<glyph unicode="u" horiz-adv-x="1044" d="M143 358v697q0 19 12.5 30t28.5 11t28.5 -11t12.5 -30v-697q0 -123 87 -210t210 -87t210 87t87 210v697q0 19 12.5 30t28.5 11t28.5 -11t12.5 -30v-697q0 -157 -111 -267.5t-268 -110.5t-268 110.5t-111 267.5z" />
<glyph unicode="v" horiz-adv-x="987" d="M66 1040q-8 22 4.5 39t35.5 17q25 0 37 -27l351 -913l350 913q12 27 37 27q23 0 35.5 -17t5.5 -39l-390 -1013q-11 -33 -38 -33q-25 0 -39 33z" />
<glyph unicode="w" horiz-adv-x="1474" d="M63 1042q-6 22 6 38t35 16q28 0 37 -29l271 -889l286 889q11 35 39 35t39 -35l287 -889l270 889q9 29 39 29q22 0 33.5 -16t5.5 -38l-307 -1013q-8 -35 -39 -35q-28 0 -39 35l-289 893l-288 -893q-11 -35 -39 -35t-39 35z" />
<glyph unicode="x" horiz-adv-x="917" d="M89.5 20.5q-12.5 20.5 0.5 42.5l320 496l-306 473q-13 22 -0.5 43t37.5 21q22 0 33 -19l285 -442l284 442q14 19 35 19q25 0 36.5 -21t-1.5 -43l-305 -473l319 -496q13 -22 2 -42.5t-36 -20.5q-22 0 -35 18l-299 465l-299 -465q-10 -18 -33 -18q-25 0 -37.5 20.5z" />
<glyph unicode="y" horiz-adv-x="944" d="M61 1057q0 17 12.5 28t30.5 11q28 0 37 -27l326 -905l336 905q12 27 39 27q16 0 28.5 -11t12.5 -28q0 -11 -2 -17l-531 -1423q-9 -27 -37 -27q-18 0 -30.5 11t-12.5 28q0 11 2 17l150 399l-359 995q-2 6 -2 17z" />
<glyph unicode="z" horiz-adv-x="894" d="M72 35q0 16 10 28l608 951h-528q-19 0 -30 12.5t-11 28.5t11 28.5t30 12.5h602q21 0 33 -10t12 -25q0 -12 -10 -29l-609 -950h582q20 0 30.5 -12t10.5 -29t-10.5 -29t-30.5 -12h-657q-20 0 -31.5 10t-11.5 25z" />
<glyph unicode="{" horiz-adv-x="729" d="M20 592q0 16 11.5 28.5t31.5 12.5q78 0 133.5 56t55.5 134v461q0 114 79.5 193t192.5 79h103q20 0 30.5 -11.5t10.5 -28.5t-10.5 -29t-30.5 -12h-103q-78 0 -134 -55.5t-56 -133.5v-463q0 -71 -34.5 -132t-92.5 -97q58 -37 92.5 -99t34.5 -133v-460q0 -78 55 -135 t131 -56h2l105 2q20 0 30.5 -12t10.5 -29t-10 -29t-29 -12l-105 -2h-6q-109 -1 -187.5 79.5t-78.5 191.5v462q0 78 -55.5 133.5t-133.5 55.5q-20 0 -31.5 12.5t-11.5 28.5z" />
<glyph unicode="|" horiz-adv-x="491" d="M205 -369v1885q0 19 12.5 29.5t28.5 10.5t28.5 -10.5t12.5 -29.5v-1885q0 -19 -12.5 -30t-28.5 -11t-28.5 11t-12.5 30z" />
<glyph unicode="}" horiz-adv-x="729" d="M61 -328q0 16 11 28.5t30 12.5l105 -2h4q76 -1 130 55.5t54 133.5v462q0 71 34.5 132.5t92.5 97.5q-58 37 -92.5 98.5t-34.5 132.5v461q0 80 -55.5 135.5t-134.5 55.5h-103q-19 0 -30 12.5t-11 28.5t11 28t30 12h103q114 0 193 -78.5t79 -191.5v-463q0 -78 55.5 -133 t133.5 -55q20 0 31.5 -12.5t11.5 -28.5t-11.5 -28.5t-31.5 -12.5q-78 0 -133.5 -56.5t-55.5 -134.5v-460q0 -113 -78 -193.5t-188 -79.5h-6l-103 2q-20 0 -30.5 12t-10.5 29z" />
<glyph unicode="~" horiz-adv-x="931" d="M102 821q0 6 3 12.5t5.5 11t8 12t6.5 9.5q38 52 92.5 82.5t116.5 30.5q51 0 91 -18t61.5 -39.5t51.5 -39.5t62 -18q47 0 90.5 23.5t59.5 64.5q12 27 36 27q18 0 30.5 -11t12.5 -28q0 -13 -14 -41q-35 -56 -91.5 -86.5t-123.5 -30.5q-45 0 -82 18t-59 39.5t-55 39.5 t-70 18q-44 0 -87 -27t-67 -67q-12 -21 -35 -21q-16 0 -29.5 11.5t-13.5 27.5z" />
<glyph unicode="&#xa1;" horiz-adv-x="368" d="M121 1063q0 26 18.5 44.5t44.5 18.5t45 -18.5t19 -44.5t-19 -45t-45 -19t-44.5 19t-18.5 45zM143 -389v973q0 19 12.5 30t28.5 11t28.5 -11t12.5 -30v-973q0 -19 -12.5 -30t-28.5 -11t-28.5 11t-12.5 30z" />
<glyph unicode="&#xa2;" horiz-adv-x="915" d="M123 547v473q0 137 88 226.5t233 103.5v166q0 19 12.5 29.5t28.5 10.5t28.5 -10.5t12.5 -29.5v-166q81 -7 159 -42.5t122 -97.5q6 -12 6 -22q0 -17 -13 -29t-30 -12q-8 0 -15 3.5t-10.5 7t-9.5 11.5t-8 11q-78 78 -201 88v-969q63 7 122 33t89 69q14 19 35 19 q16 0 28.5 -12t12.5 -29q0 -15 -27 -47q-99 -105 -260 -115v-176q0 -19 -12.5 -30t-28.5 -11t-28.5 11t-12.5 30v176q-145 14 -233 103.5t-88 226.5zM205 547q0 -101 63.5 -168.5t175.5 -79.5v969q-112 -12 -175.5 -79.5t-63.5 -168.5v-473z" />
<glyph unicode="&#xa3;" horiz-adv-x="1077" d="M59 27q0 17 14.5 42t32.5 48.5t21 29.5q57 104 57 234v252h-82q-19 0 -30 12.5t-11 28.5t11 28.5t30 12.5h82v395q0 196 119 331.5t307 135.5q123 0 234 -65t149 -175q2 -6 2 -16q0 -17 -12.5 -28t-30.5 -11q-25 0 -37 27q-4 12 -12 26q-45 78 -122 119t-171 41 q-151 0 -247.5 -109.5t-96.5 -275.5v-395h289q19 0 30 -12.5t11 -28.5t-11 -28.5t-30 -12.5h-289v-252q0 -165 -82 -299h447q91 0 182 37t125 110q11 25 37 25q16 0 28.5 -11t12.5 -28q0 -12 -4 -18q-7 -15 -19 -35q-58 -82 -155 -122t-207 -40h-529q-43 0 -43 27z" />
<glyph unicode="&#xa5;" horiz-adv-x="1148" d="M41 1516q0 18 12.5 29t30.5 11q21 0 35 -20l454 -764l457 764q11 20 35 20q16 0 29.5 -11t13.5 -29q0 -12 -6 -21l-488 -815v-72h285q20 0 30.5 -12t10.5 -29t-10.5 -29t-30.5 -12h-285v-170h285q20 0 30.5 -12t10.5 -29t-10.5 -29t-30.5 -12h-285v-233q0 -19 -12.5 -30 t-28.5 -11t-28.5 11t-12.5 30v233h-284q-19 0 -30 12.5t-11 28.5t11 28.5t30 12.5h284v170h-284q-19 0 -30 12.5t-11 28.5t11 28.5t30 12.5h284v72l-485 815q-6 9 -6 21z" />
<glyph unicode="&#xa6;" horiz-adv-x="450" d="M184 -369v830q0 19 13 30t28 11t28 -11t13 -30v-830q0 -19 -13 -30t-28 -11t-28 11t-13 30zM184 686v830q0 19 13 29.5t28 10.5t28 -10.5t13 -29.5v-830q0 -19 -13 -30t-28 -11t-28 11t-13 30z" />
<glyph unicode="&#xa7;" horiz-adv-x="1167" d="M123 -182q0 17 13 29t30 12q11 0 19 -5t18.5 -18t13.5 -16q59 -62 146 -94.5t180 -32.5q185 0 302.5 93.5t117.5 236.5q0 107 -58 182q-33 41 -87 75t-113 56t-126.5 45.5t-130 44t-120.5 53t-101 71t-68.5 98.5t-25.5 136q0 120 64 209q-64 80 -64 201q0 88 36 161.5 t96 121t137.5 74t160.5 26.5q118 0 238.5 -57.5t189.5 -151.5q10 -13 10 -25q0 -17 -12.5 -28.5t-30.5 -11.5q-11 0 -20 6t-20.5 20t-14.5 17q-68 69 -156.5 109t-183.5 40q-148 0 -248 -83.5t-100 -217.5q0 -68 28.5 -119.5t76.5 -85t110 -60t131 -48.5t137.5 -46 t130.5 -58t110 -77.5t76.5 -112t28.5 -155.5q0 -112 -57 -203q57 -85 57 -206q0 -123 -69 -218.5t-182 -144.5t-250 -49q-115 0 -234 48t-178 134q-8 11 -8 25zM215 784q0 -76 37.5 -133.5t96 -90t137.5 -63t154.5 -53t155.5 -61t132 -84.5q35 77 35 133q0 84 -37 147.5 t-94.5 100t-136 69t-153 54t-154.5 56.5t-132 75q-41 -62 -41 -150z" />
<glyph unicode="&#xa8;" horiz-adv-x="825" d="M201 1321q0 26 18.5 44.5t44.5 18.5t45 -18.5t19 -44.5t-19 -45t-45 -19t-44.5 19t-18.5 45zM489 1321q0 26 19 44.5t45 18.5t44.5 -18.5t18.5 -44.5t-18.5 -45t-44.5 -19t-45 19t-19 45z" />
<glyph unicode="&#xa9;" horiz-adv-x="1777" d="M102 780q0 160 62.5 307t168 254.5t251 171.5t305.5 64t305.5 -64t250.5 -171.5t167.5 -254.5t62.5 -307t-62.5 -307t-167.5 -254t-250.5 -171t-305.5 -64q-213 0 -394.5 108t-287 291t-105.5 397zM184 780q0 -143 56 -275t150 -228t225 -153.5t274 -57.5t273.5 57.5 t224.5 153.5t150 228t56 275t-56 275t-150 228.5t-224.5 154t-273.5 57.5q-191 0 -353.5 -97t-257 -261.5t-94.5 -356.5zM559 616v324q0 134 94.5 228t227.5 94q74 0 153 -32t121 -87q10 -10 10 -27q0 -15 -13 -28t-30 -13q-9 0 -15.5 4t-15.5 13l-12 12q-82 76 -198 76 q-100 0 -170 -70t-70 -170v-324q0 -100 70 -169.5t170 -69.5q58 0 118 23t93 65q11 14 30 14q18 0 31.5 -12t13.5 -29q0 -15 -30 -45q-106 -98 -256 -98q-134 0 -228 94t-94 227z" />
<glyph unicode="&#xaa;" horiz-adv-x="948" d="M123 793q0 128 88.5 207.5t228.5 109.5l303 66v69q0 116 -67.5 183t-196.5 67q-53 0 -95.5 -12.5t-67 -30.5t-43 -36.5t-32.5 -31t-26 -12.5q-16 0 -28.5 11t-12.5 28t25 47q102 119 280 119q163 0 254.5 -91.5t91.5 -240.5v-432q0 -145 -102 -238.5t-248 -93.5 q-70 0 -133.5 21t-112.5 59.5t-77.5 98.5t-28.5 133zM205 793q0 -105 75 -167.5t195 -62.5q115 0 191.5 71t76.5 179v279l-290 -66q-113 -26 -180.5 -86t-67.5 -147z" />
<glyph unicode="&#xab;" horiz-adv-x="1013" d="M102 557q0 19 15 31l364 325q11 11 27 11q17 0 30 -13t13 -28q0 -13 -14 -31l-332 -295l332 -295q14 -17 14 -31q0 -15 -13 -28t-30 -13q-16 0 -27 11l-364 325q-15 12 -15 31zM424 557q0 20 14 31l365 325q11 11 26 11q17 0 29 -12.5t12 -28.5q0 -17 -14 -31l-330 -295 l330 -295q14 -14 14 -31q0 -16 -12 -28.5t-29 -12.5q-15 0 -26 11l-365 325q-14 11 -14 31z" />
<glyph unicode="&#xad;" horiz-adv-x="737" d="M102 776q0 16 11 28.5t30 12.5h451q19 0 30 -12.5t11 -28.5t-11 -28.5t-30 -12.5h-451q-19 0 -30 12.5t-11 28.5z" />
<glyph unicode="&#xae;" horiz-adv-x="1777" d="M102 780q0 160 62.5 307t168 254.5t251 171.5t305.5 64t305.5 -64t250.5 -171.5t167.5 -254.5t62.5 -307t-62.5 -307t-167.5 -254t-250.5 -171t-305.5 -64q-213 0 -394.5 108t-287 291t-105.5 397zM184 780q0 -143 56 -275t150 -228t225 -153.5t274 -57.5t273.5 57.5 t224.5 153.5t150 228t56 275t-56 275t-150 228.5t-224.5 154t-273.5 57.5q-191 0 -353.5 -97t-257 -261.5t-94.5 -356.5zM623 336v885q0 17 12 29t29 12h219q127 0 218 -91t91 -219q0 -97 -55 -175.5t-144 -112.5l195 -306q6 -12 6 -22q0 -17 -13 -29t-30 -12q-21 0 -33 18 l-209 330h-204v-307q0 -19 -12.5 -30t-28.5 -11t-28.5 11t-12.5 30zM705 725h178q93 0 160 67t67 160q0 94 -66.5 161t-160.5 67h-178v-455z" />
<glyph unicode="&#xaf;" horiz-adv-x="825" d="M211 1346q0 15 11 27.5t30 12.5h323q21 0 30 -12.5t9 -27.5t-9 -28t-30 -13h-323q-19 0 -30 13t-11 28z" />
<glyph unicode="&#xb0;" horiz-adv-x="776" d="M102 1290q0 120 83 203.5t202 83.5q120 0 203.5 -83t83.5 -202q0 -120 -83 -203t-202 -83q-120 0 -203.5 82.5t-83.5 201.5zM184 1292q0 -85 60 -145t143 -60q85 0 145 60t60 145v-2q0 85 -60 145t-143 60q-85 0 -145 -60t-60 -143z" />
<glyph unicode="&#xb1;" horiz-adv-x="1433" d="M41 41q0 16 11 28.5t30 12.5h1270q19 0 30 -12.5t11 -28.5t-11 -28.5t-30 -12.5h-1270q-19 0 -30 12.5t-11 28.5zM41 778q0 16 11 28.5t30 12.5h594v594q0 19 12.5 30t28.5 11t28.5 -11t12.5 -30v-594h594q19 0 30 -12.5t11 -28.5t-11 -28.5t-30 -12.5h-594v-491 q0 -19 -12.5 -30t-28.5 -11t-28.5 11t-12.5 30v491h-594q-19 0 -30 12.5t-11 28.5z" />
<glyph unicode="&#xb4;" horiz-adv-x="825" d="M260 1284q0 20 16 33l224 178q11 8 24 8q17 0 29 -12.5t12 -28.5q0 -19 -16 -32l-223 -179q-11 -8 -25 -8q-17 0 -29 12.5t-12 28.5z" />
<glyph unicode="&#xb6;" horiz-adv-x="1130" d="M61 1067q0 202 143.5 345.5t344.5 143.5h364q18 0 30.5 -11.5t12.5 -28.5v-1700q0 -19 -12.5 -30t-28.5 -11t-28.5 11t-12.5 30v1659h-219v-1659q0 -19 -12.5 -30t-28.5 -11t-28.5 11t-12.5 30v764h-22q-202 0 -346 143t-144 344z" />
<glyph unicode="&#xb7;" horiz-adv-x="327" d="M100 760q0 26 19 44.5t45 18.5t44.5 -18.5t18.5 -44.5t-18.5 -45t-44.5 -19t-45 19t-19 45z" />
<glyph unicode="&#xb8;" horiz-adv-x="813" d="M342 -346q0 15 11 28t30 13q28 0 48 19.5t20 47.5t-20 47t-48 19q-20 0 -33 16t-6 35l47 131q10 29 37 29q20 0 32.5 -16t6.5 -35l-29 -86q42 -18 68 -55.5t26 -84.5q0 -62 -44 -105.5t-105 -43.5q-19 0 -30 13t-11 28z" />
<glyph unicode="&#xba;" horiz-adv-x="1003" d="M123 860v338q0 157 111 268t268 111t268 -111t111 -268v-338q0 -157 -111 -268t-268 -111t-268 111t-111 268zM205 860q0 -123 87 -210t210 -87t210 87t87 210v338q0 123 -87 210t-210 87t-210 -87t-87 -210v-338z" />
<glyph unicode="&#xbb;" horiz-adv-x="1013" d="M143 231q0 16 15 31l329 295l-329 295q-15 15 -15 31q0 15 13 28t28 13t29 -11l365 -325q14 -14 14 -31t-14 -31l-365 -325q-14 -11 -29 -11t-28 13t-13 28zM465 231q0 17 14 31l330 295l-330 295q-14 14 -14 31q0 16 12 28.5t29 12.5q15 0 26 -11l365 -325 q14 -11 14 -31t-14 -31l-365 -325q-11 -11 -26 -11q-17 0 -29 12.5t-12 28.5z" />
<glyph unicode="&#xbf;" horiz-adv-x="962" d="M123 -80q0 71 20 132.5t53 108.5t74 89.5t86 83t84.5 81t73.5 92.5t51 109q9 29 37 29q18 0 30.5 -10.5t12.5 -28.5q0 -8 -2 -14q-12 -41 -47 -100q-26 -46 -69 -95t-84.5 -86.5t-85.5 -83.5t-77 -89t-54 -100t-21 -118q0 -124 74 -196t210 -72q93 0 174.5 53t118.5 137 q9 25 35 25q18 0 30.5 -11t12.5 -28q0 -12 -4 -18q-6 -14 -20 -39q-56 -94 -147 -147.5t-200 -53.5q-168 0 -267 95.5t-99 254.5zM561 1083q0 26 19 45t45 19t44.5 -19t18.5 -45t-18.5 -44.5t-44.5 -18.5t-45 18.5t-19 44.5z" />
<glyph unicode="&#xc0;" horiz-adv-x="1187" d="M61 39l2 14l492 1475q12 35 39 35t39 -35l491 -1475q2 -6 2 -14q0 -18 -12.5 -28.5t-28.5 -10.5q-29 0 -38 29l-158 475h-588l-160 -475q-9 -29 -39 -29q-16 0 -28.5 10.5t-12.5 28.5zM328 586h532l-266 800zM440 1923q0 16 12 28.5t29 12.5q14 0 25 -8l223 -178 q16 -13 16 -33q0 -16 -11.5 -28.5t-28.5 -12.5q-14 0 -25 8l-223 178q-17 14 -17 33z" />
<glyph unicode="&#xc1;" horiz-adv-x="1187" d="M61 39l2 14l492 1475q12 35 39 35t39 -35l491 -1475q2 -6 2 -14q0 -18 -12.5 -28.5t-28.5 -10.5q-29 0 -38 29l-158 475h-588l-160 -475q-9 -29 -39 -29q-16 0 -28.5 10.5t-12.5 28.5zM328 586h532l-266 800zM440 1745q0 19 17 33l223 178q11 8 25 8q17 0 28.5 -12.5 t11.5 -28.5q0 -20 -16 -33l-223 -178q-11 -8 -25 -8q-17 0 -29 12.5t-12 28.5z" />
<glyph unicode="&#xc2;" horiz-adv-x="1187" d="M61 39l2 14l492 1475q12 35 39 35t39 -35l491 -1475q2 -6 2 -14q0 -18 -12.5 -28.5t-28.5 -10.5q-29 0 -38 29l-158 475h-588l-160 -475q-9 -29 -39 -29q-16 0 -28.5 10.5t-12.5 28.5zM328 586h532l-266 800zM389 1765q0 15 14 29l162 158q12 12 29 12q15 0 27 -12 l161 -158q15 -15 15 -29q0 -18 -13.5 -29.5t-29.5 -11.5q-14 0 -27 13l-133 129l-135 -129q-13 -13 -27 -13q-16 0 -29.5 11.5t-13.5 29.5z" />
<glyph unicode="&#xc3;" horiz-adv-x="1187" d="M61 39l2 14l492 1475q12 35 39 35t39 -35l491 -1475q2 -6 2 -14q0 -18 -12.5 -28.5t-28.5 -10.5q-29 0 -38 29l-158 475h-588l-160 -475q-9 -29 -39 -29q-16 0 -28.5 10.5t-12.5 28.5zM328 586h532l-266 800zM346 1761q0 3 6 21q23 44 65.5 75t90.5 31q39 0 69.5 -20 t54.5 -40t48 -20q28 0 48.5 14.5t27.5 29.5l6 14q3 13 13.5 20.5t23.5 7.5q15 0 29 -11t14 -30q0 -2 -1 -5.5t-1 -4.5q-50 -117 -160 -117q-37 0 -66 20t-54 40t-52 20q-25 0 -43 -13.5t-26.5 -29.5t-21.5 -29.5t-28 -13.5q-16 0 -29.5 11.5t-13.5 29.5z" />
<glyph unicode="&#xc4;" horiz-adv-x="1187" d="M61 39l2 14l492 1475q12 35 39 35t39 -35l491 -1475q2 -6 2 -14q0 -18 -12.5 -28.5t-28.5 -10.5q-29 0 -38 29l-158 475h-588l-160 -475q-9 -29 -39 -29q-16 0 -28.5 10.5t-12.5 28.5zM328 586h532l-266 800zM385 1782q0 26 19 44.5t45 18.5t44.5 -18.5t18.5 -44.5 t-18.5 -45t-44.5 -19t-45 19t-19 45zM674 1782q0 26 18.5 44.5t44.5 18.5t45 -18.5t19 -44.5t-19 -45t-45 -19t-44.5 19t-18.5 45z" />
<glyph unicode="&#xc5;" horiz-adv-x="1187" d="M61 39l2 14l492 1475q12 35 39 35t39 -35l491 -1475q2 -6 2 -14q0 -18 -12.5 -28.5t-28.5 -10.5q-29 0 -38 29l-158 475h-588l-160 -475q-9 -29 -39 -29q-16 0 -28.5 10.5t-12.5 28.5zM328 586h532l-266 800zM434 1864q0 66 46 111.5t112 45.5t113 -45.5t47 -111.5 t-47 -113t-113 -47t-112 47t-46 113zM510 1864q0 -35 24 -59.5t58 -24.5t59 25t25 59t-24.5 58t-59.5 24q-34 0 -58 -24t-24 -58z" />
<glyph unicode="&#xc6;" horiz-adv-x="1955" d="M0 41q0 11 8 22l967 1455q26 38 74 38h743q20 0 30.5 -11.5t10.5 -28.5t-10.5 -29t-30.5 -12h-727v-619h666q20 0 30.5 -12t10.5 -29t-10.5 -29t-30.5 -12h-666v-692h727q20 0 30.5 -12t10.5 -29t-10.5 -29t-30.5 -12h-768q-16 0 -28.5 11t-12.5 30v463h-584l-323 -486 q-10 -18 -33 -18q-17 0 -30 12t-13 29zM455 586h528v794z" />
<glyph unicode="&#xc7;" horiz-adv-x="1181" d="M123 487v582q0 138 68 255t185 185t255 68q118 0 244 -50t194 -138q10 -13 10 -25q0 -17 -13.5 -29t-29.5 -12t-32 16q-7 9 -21 23q-69 65 -161 99t-191 34q-177 0 -301.5 -124.5t-124.5 -301.5v-582q0 -177 124.5 -301.5t301.5 -124.5q101 0 207 41.5t166 114.5 q13 16 32 16q18 0 30.5 -11.5t12.5 -28.5q0 -15 -10 -25q-11 -15 -31 -33q-143 -134 -354 -153l-27 -80q42 -18 68.5 -56t26.5 -84q0 -61 -44 -105t-106 -44q-19 0 -30 13t-11 28t11 28t30 13q28 0 48 19.5t20 47.5t-20 47t-48 19q-20 0 -33 16t-6 35l37 103 q-200 12 -338.5 157.5t-138.5 347.5z" />
<glyph unicode="&#xc8;" horiz-adv-x="1116" d="M164 41v1475q0 17 12 28.5t29 11.5h768q19 0 30 -12t11 -28t-11 -28.5t-30 -12.5h-727v-619h665q19 0 30 -12.5t11 -28.5t-11 -28.5t-30 -12.5h-665v-692h727q19 0 30 -12.5t11 -28.5t-11 -28.5t-30 -12.5h-768q-17 0 -29 12t-12 29zM406 1923q0 16 11.5 28.5t28.5 12.5 q14 0 25 -8l223 -178q17 -14 17 -33q0 -16 -12 -28.5t-29 -12.5q-14 0 -25 8l-223 178q-16 13 -16 33z" />
<glyph unicode="&#xc9;" horiz-adv-x="1116" d="M164 41v1475q0 17 12 28.5t29 11.5h768q19 0 30 -12t11 -28t-11 -28.5t-30 -12.5h-727v-619h665q19 0 30 -12.5t11 -28.5t-11 -28.5t-30 -12.5h-665v-692h727q19 0 30 -12.5t11 -28.5t-11 -28.5t-30 -12.5h-768q-17 0 -29 12t-12 29zM446 1745q0 19 17 33l223 178 q11 8 25 8q17 0 29 -12.5t12 -28.5q0 -19 -17 -33l-223 -178q-11 -8 -25 -8q-17 0 -29 12.5t-12 28.5z" />
<glyph unicode="&#xca;" horiz-adv-x="1116" d="M164 41v1475q0 17 12 28.5t29 11.5h768q19 0 30 -12t11 -28t-11 -28.5t-30 -12.5h-727v-619h665q19 0 30 -12.5t11 -28.5t-11 -28.5t-30 -12.5h-665v-692h727q19 0 30 -12.5t11 -28.5t-11 -28.5t-30 -12.5h-768q-17 0 -29 12t-12 29zM354 1765q0 14 15 29l161 158 q12 12 29 12q15 0 27 -12l162 -158q14 -14 14 -29q0 -18 -13.5 -29.5t-29.5 -11.5q-14 0 -27 13l-133 129l-135 -129q-13 -13 -27 -13q-16 0 -29.5 11.5t-13.5 29.5z" />
<glyph unicode="&#xcb;" horiz-adv-x="1116" d="M164 41v1475q0 17 12 28.5t29 11.5h768q19 0 30 -12t11 -28t-11 -28.5t-30 -12.5h-727v-619h665q19 0 30 -12.5t11 -28.5t-11 -28.5t-30 -12.5h-665v-692h727q19 0 30 -12.5t11 -28.5t-11 -28.5t-30 -12.5h-768q-17 0 -29 12t-12 29zM350 1782q0 26 19 44.5t45 18.5 t44.5 -18.5t18.5 -44.5t-18.5 -45t-44.5 -19t-45 19t-19 45zM639 1782q0 26 18.5 44.5t44.5 18.5t45 -18.5t19 -44.5t-19 -45t-45 -19t-44.5 19t-18.5 45z" />
<glyph unicode="&#xcc;" horiz-adv-x="901" d="M82 41q0 16 11 28.5t30 12.5h287v1393h-287q-19 0 -30 12.5t-11 28.5t11 28t30 12h655q19 0 30 -12t11 -28t-11 -28.5t-30 -12.5h-286v-1393h286q19 0 30 -12.5t11 -28.5t-11 -28.5t-30 -12.5h-655q-19 0 -30 12.5t-11 28.5zM297 1923q0 16 12 28.5t29 12.5q13 0 24 -8 l224 -178q16 -13 16 -33q0 -16 -12 -28.5t-29 -12.5q-13 0 -24 8l-224 178q-16 13 -16 33z" />
<glyph unicode="&#xcd;" horiz-adv-x="901" d="M82 41q0 16 11 28.5t30 12.5h287v1393h-287q-19 0 -30 12.5t-11 28.5t11 28t30 12h655q19 0 30 -12t11 -28t-11 -28.5t-30 -12.5h-286v-1393h286q19 0 30 -12.5t11 -28.5t-11 -28.5t-30 -12.5h-655q-19 0 -30 12.5t-11 28.5zM297 1745q0 20 16 33l224 178q11 8 24 8 q17 0 29 -12.5t12 -28.5q0 -20 -16 -33l-224 -178q-11 -8 -24 -8q-17 0 -29 12.5t-12 28.5z" />
<glyph unicode="&#xce;" horiz-adv-x="901" d="M82 41q0 16 11 28.5t30 12.5h287v1393h-287q-19 0 -30 12.5t-11 28.5t11 28t30 12h655q19 0 30 -12t11 -28t-11 -28.5t-30 -12.5h-286v-1393h286q19 0 30 -12.5t11 -28.5t-11 -28.5t-30 -12.5h-655q-19 0 -30 12.5t-11 28.5zM246 1765q0 15 14 29l162 158q12 12 29 12 q14 0 26 -12l162 -158q14 -14 14 -29q0 -18 -13.5 -29.5t-29.5 -11.5q-13 0 -26 13l-133 129l-136 -129q-13 -13 -26 -13q-16 0 -29.5 11.5t-13.5 29.5z" />
<glyph unicode="&#xcf;" horiz-adv-x="901" d="M82 41q0 16 11 28.5t30 12.5h287v1393h-287q-19 0 -30 12.5t-11 28.5t11 28t30 12h655q19 0 30 -12t11 -28t-11 -28.5t-30 -12.5h-286v-1393h286q19 0 30 -12.5t11 -28.5t-11 -28.5t-30 -12.5h-655q-19 0 -30 12.5t-11 28.5zM242 1782q0 26 18.5 44.5t44.5 18.5t45 -18.5 t19 -44.5t-19 -45t-45 -19t-44.5 19t-18.5 45zM530 1782q0 26 19 44.5t45 18.5t44.5 -18.5t18.5 -44.5t-18.5 -45t-44.5 -19t-45 19t-19 45z" />
<glyph unicode="&#xd0;" horiz-adv-x="1271" d="M0 840q0 16 11 28.5t30 12.5h123v635q0 17 12 28.5t29 11.5h426q138 0 255 -67.5t185 -184.5t68 -255v-541q0 -138 -68 -255t-185 -185t-255 -68h-426q-17 0 -29 12t-12 29v758h-123q-19 0 -30 12.5t-11 28.5zM246 82h385q177 0 301.5 124.5t124.5 301.5v541 q0 177 -124.5 301.5t-301.5 124.5h-385v-594h174q19 0 30 -12.5t11 -28.5t-11 -28.5t-30 -12.5h-174v-717z" />
<glyph unicode="&#xd1;" horiz-adv-x="1302" d="M164 41v1475q0 22 10.5 34.5t26.5 12.5q24 0 39 -27l817 -1348v1328q0 19 12.5 29.5t28.5 10.5t28.5 -10.5t12.5 -29.5v-1475q0 -22 -10.5 -34.5t-26.5 -12.5q-25 0 -39 26l-817 1348v-1327q0 -19 -12.5 -30t-28.5 -11t-28.5 11t-12.5 30zM403 1761l7 21q24 45 65.5 75.5 t89.5 30.5q39 0 69.5 -20t54.5 -40t48 -20q28 0 48.5 14.5t26.5 29.5l7 14q3 13 13.5 20.5t23.5 7.5q15 0 29 -11t14 -30q0 -2 -1 -5.5t-1 -4.5q-50 -117 -160 -117q-37 0 -66 20t-54 40t-52 20q-25 0 -43 -13.5t-26.5 -29.5t-21.5 -29.5t-28 -13.5q-16 0 -29.5 11.5 t-13.5 29.5z" />
<glyph unicode="&#xd2;" horiz-adv-x="1261" d="M123 487v582q0 138 68 255t185 185t255 68t255 -68t185 -185t68 -255v-582q0 -138 -68 -255t-185 -184.5t-255 -67.5t-255 67.5t-185 184.5t-68 255zM205 487q0 -177 124.5 -301.5t301.5 -124.5t301.5 124.5t124.5 301.5v582q0 177 -124.5 301.5t-301.5 124.5 t-301.5 -124.5t-124.5 -301.5v-582zM477 1923q0 16 12 28.5t29 12.5q14 0 25 -8l223 -178q16 -13 16 -33q0 -16 -12 -28.5t-29 -12.5q-13 0 -24 8l-223 178q-17 14 -17 33z" />
<glyph unicode="&#xd3;" horiz-adv-x="1261" d="M123 487v582q0 138 68 255t185 185t255 68t255 -68t185 -185t68 -255v-582q0 -138 -68 -255t-185 -184.5t-255 -67.5t-255 67.5t-185 184.5t-68 255zM205 487q0 -177 124.5 -301.5t301.5 -124.5t301.5 124.5t124.5 301.5v582q0 177 -124.5 301.5t-301.5 124.5 t-301.5 -124.5t-124.5 -301.5v-582zM477 1745q0 19 17 33l223 178q11 8 24 8q17 0 29 -12.5t12 -28.5q0 -20 -16 -33l-223 -178q-11 -8 -25 -8q-17 0 -29 12.5t-12 28.5z" />
<glyph unicode="&#xd4;" horiz-adv-x="1261" d="M123 487v582q0 138 68 255t185 185t255 68t255 -68t185 -185t68 -255v-582q0 -138 -68 -255t-185 -184.5t-255 -67.5t-255 67.5t-185 184.5t-68 255zM205 487q0 -177 124.5 -301.5t301.5 -124.5t301.5 124.5t124.5 301.5v582q0 177 -124.5 301.5t-301.5 124.5 t-301.5 -124.5t-124.5 -301.5v-582zM426 1765q0 15 14 29l162 158q12 12 29 12q14 0 26 -12l162 -158q15 -15 15 -29q0 -18 -13.5 -29.5t-29.5 -11.5q-14 0 -27 13l-133 129l-135 -129q-13 -13 -27 -13q-16 0 -29.5 11.5t-13.5 29.5z" />
<glyph unicode="&#xd5;" horiz-adv-x="1261" d="M123 487v582q0 138 68 255t185 185t255 68t255 -68t185 -185t68 -255v-582q0 -138 -68 -255t-185 -184.5t-255 -67.5t-255 67.5t-185 184.5t-68 255zM205 487q0 -177 124.5 -301.5t301.5 -124.5t301.5 124.5t124.5 301.5v582q0 177 -124.5 301.5t-301.5 124.5 t-301.5 -124.5t-124.5 -301.5v-582zM383 1761q0 3 6 21q23 44 65.5 75t90.5 31q39 0 69.5 -20t54.5 -40t48 -20q28 0 48.5 14.5t26.5 29.5l7 14q3 13 13.5 20.5t23.5 7.5q15 0 29 -11t14 -30q0 -2 -1 -5.5t-1 -4.5q-50 -117 -160 -117q-37 0 -66 20t-54 40t-52 20 q-25 0 -43 -13.5t-26.5 -29.5t-21.5 -29.5t-28 -13.5q-16 0 -29.5 11.5t-13.5 29.5z" />
<glyph unicode="&#xd6;" horiz-adv-x="1261" d="M123 487v582q0 138 68 255t185 185t255 68t255 -68t185 -185t68 -255v-582q0 -138 -68 -255t-185 -184.5t-255 -67.5t-255 67.5t-185 184.5t-68 255zM205 487q0 -177 124.5 -301.5t301.5 -124.5t301.5 124.5t124.5 301.5v582q0 177 -124.5 301.5t-301.5 124.5 t-301.5 -124.5t-124.5 -301.5v-582zM422 1782q0 26 18.5 44.5t44.5 18.5t45 -18.5t19 -44.5t-19 -45t-45 -19t-44.5 19t-18.5 45zM711 1782q0 26 18.5 44.5t44.5 18.5t45 -18.5t19 -44.5t-19 -45t-45 -19t-44.5 19t-18.5 45z" />
<glyph unicode="&#xd7;" horiz-adv-x="1226" d="M82 248q0 14 12 26l463 504l-463 504q-12 12 -12 27q0 17 13 30t30 13t29 -15l460 -499l459 499q12 15 29 15t30 -13t13 -30q0 -15 -12 -27l-463 -504l463 -504q12 -12 12 -26q0 -17 -13 -30t-30 -13q-18 0 -29 14l-459 500l-460 -500q-11 -14 -29 -14q-17 0 -30 13 t-13 30z" />
<glyph unicode="&#xd8;" horiz-adv-x="1261" d="M123 20q0 11 6 23l90 145q-96 137 -96 299v582q0 138 68 255t185 185t255 68q208 0 356 -145l76 127q13 18 35 18q16 0 28.5 -11.5t12.5 -29.5q0 -11 -6 -23l-91 -145q97 -134 97 -299v-582q0 -138 -68 -255t-185 -184.5t-255 -67.5q-101 0 -193 38t-162 107l-77 -127 q-10 -18 -33 -18q-18 0 -30.5 11t-12.5 29zM205 487q0 -124 63 -221l674 1094q-59 64 -139.5 99.5t-171.5 35.5q-177 0 -301.5 -124.5t-124.5 -301.5v-582zM322 197q58 -64 138 -100t171 -36q177 0 301.5 124.5t124.5 301.5v582q0 121 -62 221z" />
<glyph unicode="&#xd9;" horiz-adv-x="1302" d="M143 487v1029q0 19 12.5 29.5t28.5 10.5t28.5 -10.5t12.5 -29.5v-1029q0 -177 124.5 -301.5t301.5 -124.5t301.5 124.5t124.5 301.5v1029q0 19 12.5 29.5t28.5 10.5t28.5 -10.5t12.5 -29.5v-1029q0 -138 -68 -255t-185 -184.5t-255 -67.5t-255 67.5t-185 184.5t-68 255z M457 1923q0 16 12 28.5t29 12.5q13 0 24 -8l223 -178q17 -14 17 -33q0 -16 -12 -28.5t-29 -12.5q-14 0 -25 8l-223 178q-16 13 -16 33z" />
<glyph unicode="&#xda;" horiz-adv-x="1302" d="M143 487v1029q0 19 12.5 29.5t28.5 10.5t28.5 -10.5t12.5 -29.5v-1029q0 -177 124.5 -301.5t301.5 -124.5t301.5 124.5t124.5 301.5v1029q0 19 12.5 29.5t28.5 10.5t28.5 -10.5t12.5 -29.5v-1029q0 -138 -68 -255t-185 -184.5t-255 -67.5t-255 67.5t-185 184.5t-68 255z M539 1745q0 20 16 33l223 178q11 8 25 8q17 0 29 -12.5t12 -28.5q0 -19 -17 -33l-223 -178q-11 -8 -24 -8q-17 0 -29 12.5t-12 28.5z" />
<glyph unicode="&#xdb;" horiz-adv-x="1302" d="M143 487v1029q0 19 12.5 29.5t28.5 10.5t28.5 -10.5t12.5 -29.5v-1029q0 -177 124.5 -301.5t301.5 -124.5t301.5 124.5t124.5 301.5v1029q0 19 12.5 29.5t28.5 10.5t28.5 -10.5t12.5 -29.5v-1029q0 -138 -68 -255t-185 -184.5t-255 -67.5t-255 67.5t-185 184.5t-68 255z M446 1765q0 14 15 29l162 158q12 12 28 12q15 0 27 -12l162 -158q14 -14 14 -29q0 -18 -13.5 -29.5t-29.5 -11.5q-14 0 -27 13l-133 129l-135 -129q-13 -13 -27 -13q-16 0 -29.5 11.5t-13.5 29.5z" />
<glyph unicode="&#xdc;" horiz-adv-x="1302" d="M143 487v1029q0 19 12.5 29.5t28.5 10.5t28.5 -10.5t12.5 -29.5v-1029q0 -177 124.5 -301.5t301.5 -124.5t301.5 124.5t124.5 301.5v1029q0 19 12.5 29.5t28.5 10.5t28.5 -10.5t12.5 -29.5v-1029q0 -138 -68 -255t-185 -184.5t-255 -67.5t-255 67.5t-185 184.5t-68 255z M442 1782q0 26 19 44.5t45 18.5t44.5 -18.5t18.5 -44.5t-18.5 -45t-44.5 -19t-45 19t-19 45zM731 1782q0 26 19 44.5t45 18.5t44.5 -18.5t18.5 -44.5t-18.5 -45t-44.5 -19t-45 19t-19 45z" />
<glyph unicode="&#xdd;" horiz-adv-x="1146" d="M41 1518q0 17 12.5 27.5t28.5 10.5q24 0 35 -20l456 -764l457 764q11 20 35 20q16 0 28.5 -10.5t12.5 -27.5q0 -11 -6 -23l-486 -815v-639q0 -19 -12.5 -30t-28.5 -11t-28.5 11t-12.5 30v639l-485 815q-6 12 -6 23zM461 1745q0 20 16 33l223 178q11 8 25 8q17 0 29 -12.5 t12 -28.5q0 -20 -16 -33l-224 -178q-11 -8 -24 -8q-17 0 -29 12.5t-12 28.5z" />
<glyph unicode="&#xde;" horiz-adv-x="1161" d="M164 41v1475q0 26 20.5 36.5t41 0t20.5 -36.5v-205h323q202 0 346 -143.5t144 -344.5q0 -133 -65.5 -245.5t-178.5 -178t-246 -65.5h-323v-293q0 -26 -20.5 -36.5t-41 0t-20.5 36.5zM246 416h323q169 0 287.5 119t118.5 288l2 -2q0 169 -119.5 288.5t-288.5 119.5h-323 v-813z" />
<glyph unicode="&#xdf;" horiz-adv-x="1155" d="M41 956q0 16 11 28.5t30 12.5h104v166q0 186 109.5 300t290.5 114q186 0 306 -111t120 -295q0 -130 -62 -228t-168 -146q113 -51 181.5 -153t68.5 -232q0 -122 -60.5 -221t-162.5 -153t-223 -54q-19 0 -30 12.5t-11 28.5t11 28.5t30 12.5q155 0 259.5 98.5t104.5 247.5 q0 148 -104.5 246t-259.5 98q-20 0 -31.5 12.5t-11.5 28.5t11.5 28.5t31.5 12.5q153 0 248.5 92t95.5 241q0 148 -94.5 236t-249.5 88q-146 0 -232 -89t-86 -243v-1138q0 -19 -12.5 -30t-28.5 -11t-28.5 11t-12.5 30v890h-104q-19 0 -30 12.5t-11 28.5z" />
<glyph unicode="&#xe0;" horiz-adv-x="937" d="M102 291q0 128 89 207.5t229 109.5l303 66v110q0 116 -67.5 183t-196.5 67q-53 0 -95.5 -12.5t-67 -31t-43 -36.5t-32.5 -30.5t-26 -12.5q-16 0 -28.5 11t-12.5 28q0 18 24 47q102 119 281 119q163 0 254.5 -91.5t91.5 -240.5v-473q0 -145 -102 -238t-248 -93 q-147 0 -250 83.5t-103 227.5zM184 291q0 -105 75.5 -167.5t195.5 -62.5q115 0 191.5 71t76.5 179v279l-291 -66q-113 -26 -180.5 -86t-67.5 -147zM311 1462q0 16 12 28.5t29 12.5q14 0 25 -8l223 -178q16 -13 16 -33q0 -16 -12 -28.5t-29 -12.5q-13 0 -24 8l-223 179 q-17 14 -17 32z" />
<glyph unicode="&#xe1;" horiz-adv-x="937" d="M102 291q0 128 89 207.5t229 109.5l303 66v110q0 116 -67.5 183t-196.5 67q-53 0 -95.5 -12.5t-67 -31t-43 -36.5t-32.5 -30.5t-26 -12.5q-16 0 -28.5 11t-12.5 28q0 18 24 47q102 119 281 119q163 0 254.5 -91.5t91.5 -240.5v-473q0 -145 -102 -238t-248 -93 q-147 0 -250 83.5t-103 227.5zM184 291q0 -105 75.5 -167.5t195.5 -62.5q115 0 191.5 71t76.5 179v279l-291 -66q-113 -26 -180.5 -86t-67.5 -147zM311 1284q0 19 17 33l223 178q11 8 24 8q17 0 29 -12.5t12 -28.5q0 -19 -16 -32l-223 -179q-11 -8 -25 -8q-17 0 -29 12.5 t-12 28.5z" />
<glyph unicode="&#xe2;" horiz-adv-x="937" d="M102 291q0 128 89 207.5t229 109.5l303 66v110q0 116 -67.5 183t-196.5 67q-53 0 -95.5 -12.5t-67 -31t-43 -36.5t-32.5 -30.5t-26 -12.5q-16 0 -28.5 11t-12.5 28q0 18 24 47q102 119 281 119q163 0 254.5 -91.5t91.5 -240.5v-473q0 -145 -102 -238t-248 -93 q-147 0 -250 83.5t-103 227.5zM184 291q0 -105 75.5 -167.5t195.5 -62.5q115 0 191.5 71t76.5 179v279l-291 -66q-113 -26 -180.5 -86t-67.5 -147zM260 1305q0 14 14 28l162 158q12 12 29 12q15 0 27 -12l161 -158q15 -15 15 -28q0 -18 -13.5 -29.5t-29.5 -11.5 q-15 0 -27 12l-133 129l-135 -129q-12 -12 -27 -12q-16 0 -29.5 11.5t-13.5 29.5z" />
<glyph unicode="&#xe3;" horiz-adv-x="937" d="M102 291q0 128 89 207.5t229 109.5l303 66v110q0 116 -67.5 183t-196.5 67q-53 0 -95.5 -12.5t-67 -31t-43 -36.5t-32.5 -30.5t-26 -12.5q-16 0 -28.5 11t-12.5 28q0 18 24 47q102 119 281 119q163 0 254.5 -91.5t91.5 -240.5v-473q0 -145 -102 -238t-248 -93 q-147 0 -250 83.5t-103 227.5zM184 291q0 -105 75.5 -167.5t195.5 -62.5q115 0 191.5 71t76.5 179v279l-291 -66q-113 -26 -180.5 -86t-67.5 -147zM215 1300q0 3 6 21q23 44 65.5 75t90.5 31q31 0 57.5 -12.5t41 -27t34.5 -27t39 -12.5q28 0 48.5 14t26.5 28l7 15 q3 13 13.5 21t23.5 8q15 0 29 -11t14 -30q0 -2 -1 -6t-1 -5q-49 -116 -160 -116q-37 0 -66 20t-54 40t-52 20q-25 0 -43 -13.5t-26.5 -29.5t-21.5 -29.5t-28 -13.5q-16 0 -29.5 11t-13.5 29z" />
<glyph unicode="&#xe4;" horiz-adv-x="937" d="M102 291q0 128 89 207.5t229 109.5l303 66v110q0 116 -67.5 183t-196.5 67q-53 0 -95.5 -12.5t-67 -31t-43 -36.5t-32.5 -30.5t-26 -12.5q-16 0 -28.5 11t-12.5 28q0 18 24 47q102 119 281 119q163 0 254.5 -91.5t91.5 -240.5v-473q0 -145 -102 -238t-248 -93 q-147 0 -250 83.5t-103 227.5zM184 291q0 -105 75.5 -167.5t195.5 -62.5q115 0 191.5 71t76.5 179v279l-291 -66q-113 -26 -180.5 -86t-67.5 -147zM256 1321q0 26 18.5 44.5t44.5 18.5t45 -18.5t19 -44.5t-19 -45t-45 -19t-44.5 19t-18.5 45zM545 1321q0 26 18.5 44.5 t44.5 18.5t45 -18.5t19 -44.5t-19 -45t-45 -19t-44.5 19t-18.5 45z" />
<glyph unicode="&#xe5;" horiz-adv-x="937" d="M102 291q0 128 89 207.5t229 109.5l303 66v110q0 116 -67.5 183t-196.5 67q-53 0 -95.5 -12.5t-67 -31t-43 -36.5t-32.5 -30.5t-26 -12.5q-16 0 -28.5 11t-12.5 28q0 18 24 47q102 119 281 119q163 0 254.5 -91.5t91.5 -240.5v-473q0 -145 -102 -238t-248 -93 q-147 0 -250 83.5t-103 227.5zM184 291q0 -105 75.5 -167.5t195.5 -62.5q115 0 191.5 71t76.5 179v279l-291 -66q-113 -26 -180.5 -86t-67.5 -147zM305 1403q0 66 46 112t112 46t113 -46t47 -112t-47 -113t-113 -47t-112 47t-46 113zM381 1403q0 -35 24 -59.5t58 -24.5 t59 25t25 59t-24.5 58t-59.5 24q-34 0 -58 -24t-24 -58z" />
<glyph unicode="&#xe6;" horiz-adv-x="1603" d="M102 291q0 128 89 207.5t229 109.5l303 66v110q0 116 -67.5 183t-196.5 67q-67 0 -132.5 -24.5t-93.5 -75.5q-11 -23 -36 -23q-16 0 -29.5 11.5t-13.5 27.5q0 18 24 47q47 60 122.5 89.5t158.5 29.5q117 0 198 -48.5t119 -135.5q50 84 137 134t189 50q157 0 268 -111 t111 -268v-143q0 -17 -12 -29t-29 -12h-635v-195q0 -121 95 -209t222 -88q69 0 140.5 27.5t107.5 77.5q13 18 35 18q16 0 28.5 -12t12.5 -29q0 -15 -27 -47q-55 -58 -133 -87t-164 -29q-105 0 -198.5 53t-147.5 141q-41 -90 -127.5 -142t-193.5 -52q-147 0 -250 83.5 t-103 227.5zM184 291q0 -105 75.5 -167.5t195.5 -62.5q115 0 191.5 71t76.5 179v279l-291 -66q-113 -26 -180.5 -86t-67.5 -147zM805 635h594v102q0 123 -87 210t-210 87t-210 -87t-87 -210v-102z" />
<glyph unicode="&#xe7;" horiz-adv-x="925" d="M133 311v473q0 149 102 240.5t265 91.5q88 0 177 -36t140 -105q6 -12 6 -23q0 -17 -13 -29t-30 -12q-8 0 -15 3.5t-10.5 7t-9.5 11.5t-8 11q-90 90 -237 90q-132 0 -208.5 -69.5t-76.5 -180.5v-473q0 -111 76.5 -180.5t208.5 -69.5q69 0 140.5 27.5t107.5 77.5 q13 18 34 18q16 0 28.5 -12t12.5 -29q0 -16 -26 -47q-55 -58 -133 -87t-164 -29h-13l-24 -78q42 -18 68 -55.5t26 -84.5q0 -62 -43.5 -105.5t-105.5 -43.5q-19 0 -30 13t-11 28t11 28t30 13q28 0 47.5 19.5t19.5 47.5t-19.5 47t-47.5 19q-20 0 -33 16t-6 35l39 111 q-126 24 -200.5 109.5t-74.5 211.5z" />
<glyph unicode="&#xe8;" horiz-adv-x="1013" d="M133 358v379q0 157 111 268t268 111t268 -111t111 -268v-143q0 -17 -12 -29t-29 -12h-635v-195q0 -121 95 -209t222 -88q69 0 140.5 27.5t107.5 77.5q13 18 35 18q16 0 28.5 -12t12.5 -29q0 -15 -27 -47q-55 -58 -133 -87t-164 -29q-103 0 -194.5 49.5t-148 137 t-56.5 191.5zM215 635h594v102q0 123 -87 210t-210 87t-210 -87t-87 -210v-102zM338 1462q0 16 12 28.5t29 12.5q13 0 24 -8l224 -178q16 -13 16 -33q0 -16 -12 -28.5t-29 -12.5q-13 0 -24 8l-224 179q-16 13 -16 32z" />
<glyph unicode="&#xe9;" horiz-adv-x="1013" d="M133 358v379q0 157 111 268t268 111t268 -111t111 -268v-143q0 -17 -12 -29t-29 -12h-635v-195q0 -121 95 -209t222 -88q69 0 140.5 27.5t107.5 77.5q13 18 35 18q16 0 28.5 -12t12.5 -29q0 -15 -27 -47q-55 -58 -133 -87t-164 -29q-103 0 -194.5 49.5t-148 137 t-56.5 191.5zM215 635h594v102q0 123 -87 210t-210 87t-210 -87t-87 -210v-102zM338 1284q0 20 16 33l224 178q11 8 24 8q17 0 29 -12.5t12 -28.5q0 -19 -16 -32l-224 -179q-11 -8 -24 -8q-17 0 -29 12.5t-12 28.5z" />
<glyph unicode="&#xea;" horiz-adv-x="1013" d="M133 358v379q0 157 111 268t268 111t268 -111t111 -268v-143q0 -17 -12 -29t-29 -12h-635v-195q0 -121 95 -209t222 -88q69 0 140.5 27.5t107.5 77.5q13 18 35 18q16 0 28.5 -12t12.5 -29q0 -15 -27 -47q-55 -58 -133 -87t-164 -29q-103 0 -194.5 49.5t-148 137 t-56.5 191.5zM215 635h594v102q0 123 -87 210t-210 87t-210 -87t-87 -210v-102zM287 1305q0 14 14 28l162 158q12 12 29 12q14 0 26 -12l162 -158q14 -14 14 -28q0 -18 -13.5 -29.5t-29.5 -11.5q-14 0 -26 12l-133 129l-136 -129q-12 -12 -26 -12q-16 0 -29.5 11.5 t-13.5 29.5z" />
<glyph unicode="&#xeb;" horiz-adv-x="1013" d="M133 358v379q0 157 111 268t268 111t268 -111t111 -268v-143q0 -17 -12 -29t-29 -12h-635v-195q0 -121 95 -209t222 -88q69 0 140.5 27.5t107.5 77.5q13 18 35 18q16 0 28.5 -12t12.5 -29q0 -15 -27 -47q-55 -58 -133 -87t-164 -29q-103 0 -194.5 49.5t-148 137 t-56.5 191.5zM215 635h594v102q0 123 -87 210t-210 87t-210 -87t-87 -210v-102zM283 1321q0 26 18.5 44.5t44.5 18.5t45 -18.5t19 -44.5t-19 -45t-45 -19t-44.5 19t-18.5 45zM571 1321q0 26 19 44.5t45 18.5t44.5 -18.5t18.5 -44.5t-18.5 -45t-44.5 -19t-45 19t-19 45z" />
<glyph unicode="&#xec;" horiz-adv-x="368" d="M33 1462q0 16 12 28.5t29 12.5q13 0 24 -8l224 -178q16 -13 16 -33q0 -16 -12 -28.5t-29 -12.5q-14 0 -25 8l-223 179q-16 13 -16 32zM143 41v1014q0 19 12.5 30t28.5 11t28.5 -11t12.5 -30v-1014q0 -19 -12.5 -30t-28.5 -11t-28.5 11t-12.5 30z" />
<glyph unicode="&#xed;" horiz-adv-x="368" d="M33 1284q0 20 16 33l223 178q11 8 25 8q17 0 29 -12.5t12 -28.5q0 -19 -16 -32l-224 -179q-11 -8 -24 -8q-17 0 -29 12.5t-12 28.5zM143 41v1014q0 19 12.5 30t28.5 11t28.5 -11t12.5 -30v-1014q0 -19 -12.5 -30t-28.5 -11t-28.5 11t-12.5 30z" />
<glyph unicode="&#xee;" horiz-adv-x="368" d="M-18 1305q0 14 14 28l162 158q12 12 28 12q15 0 27 -12l162 -158q14 -14 14 -28q0 -18 -13.5 -29.5t-29.5 -11.5q-15 0 -27 12l-133 129l-135 -129q-12 -12 -26 -12q-16 0 -29.5 11.5t-13.5 29.5zM143 41v1014q0 19 12.5 30t28.5 11t28.5 -11t12.5 -30v-1014 q0 -19 -12.5 -30t-28.5 -11t-28.5 11t-12.5 30z" />
<glyph unicode="&#xef;" horiz-adv-x="368" d="M-23 1321q0 26 19 44.5t45 18.5t44.5 -18.5t18.5 -44.5t-18.5 -45t-44.5 -19t-45 19t-19 45zM143 41v1014q0 19 12.5 30t28.5 11t28.5 -11t12.5 -30v-1014q0 -19 -12.5 -30t-28.5 -11t-28.5 11t-12.5 30zM266 1321q0 26 19 44.5t45 18.5t44.5 -18.5t18.5 -44.5t-18.5 -45 t-44.5 -19t-45 19t-19 45z" />
<glyph unicode="&#xf0;" horiz-adv-x="1034" d="M133 358v379q0 157 111 268t268 111q158 0 268 -110q-51 220 -182 348l-86 -101q-11 -14 -31 -14q-16 0 -28.5 12t-12.5 29q0 16 11 27l84 100q-57 42 -129 70l-72 18q-35 6 -35 41q0 16 10.5 28.5t28.5 12.5h8q35 -5 88 -25q81 -28 154 -82l78 93q11 14 30 14 q16 0 28.5 -12t12.5 -29t-10 -27l-76 -92q124 -118 182 -296.5t58 -383.5v-379q0 -157 -111 -267.5t-268 -110.5t-268 110.5t-111 267.5zM215 358q0 -123 87 -210t210 -87t210 87t87 210v379q0 123 -87 210t-210 87t-210 -87t-87 -210v-379z" />
<glyph unicode="&#xf1;" horiz-adv-x="1044" d="M143 41v696q0 157 111 268t268 111t268 -111t111 -268v-696q0 -19 -12.5 -30t-28.5 -11t-28.5 11t-12.5 30v696q0 123 -87 210t-210 87t-210 -87t-87 -210v-696q0 -19 -12.5 -30t-28.5 -11t-28.5 11t-12.5 30zM254 1300q0 3 6 21q23 44 65.5 75t90.5 31q31 0 57.5 -12.5 t41 -27t34.5 -27t39 -12.5q28 0 48.5 14t27.5 28l6 15q3 13 13.5 21t23.5 8q15 0 29 -11t14 -30q0 -2 -1 -6t-1 -5q-49 -116 -160 -116q-37 0 -66 20t-54 40t-52 20q-25 0 -43 -13.5t-26.5 -29.5t-21.5 -29.5t-28 -13.5q-16 0 -29.5 11t-13.5 29z" />
<glyph unicode="&#xf2;" horiz-adv-x="1024" d="M133 358v379q0 157 111 268t268 111t268 -111t111 -268v-379q0 -157 -111 -267.5t-268 -110.5t-268 110.5t-111 267.5zM215 358q0 -123 87 -210t210 -87t210 87t87 210v379q0 123 -87 210t-210 87t-210 -87t-87 -210v-379zM348 1462q0 16 12 28.5t29 12.5q14 0 25 -8 l223 -178q16 -13 16 -33q0 -16 -12 -28.5t-29 -12.5q-13 0 -24 8l-223 179q-17 14 -17 32z" />
<glyph unicode="&#xf3;" horiz-adv-x="1024" d="M133 358v379q0 157 111 268t268 111t268 -111t111 -268v-379q0 -157 -111 -267.5t-268 -110.5t-268 110.5t-111 267.5zM215 358q0 -123 87 -210t210 -87t210 87t87 210v379q0 123 -87 210t-210 87t-210 -87t-87 -210v-379zM348 1284q0 19 17 33l223 178q11 8 24 8 q17 0 29 -12.5t12 -28.5q0 -19 -16 -32l-223 -179q-11 -8 -25 -8q-17 0 -29 12.5t-12 28.5z" />
<glyph unicode="&#xf4;" horiz-adv-x="1024" d="M133 358v379q0 157 111 268t268 111t268 -111t111 -268v-379q0 -157 -111 -267.5t-268 -110.5t-268 110.5t-111 267.5zM215 358q0 -123 87 -210t210 -87t210 87t87 210v379q0 123 -87 210t-210 87t-210 -87t-87 -210v-379zM297 1305q0 14 14 28l162 158q12 12 29 12 q14 0 26 -12l162 -158q15 -15 15 -28q0 -18 -13.5 -29.5t-29.5 -11.5q-15 0 -27 12l-133 129l-135 -129q-12 -12 -27 -12q-16 0 -29.5 11.5t-13.5 29.5z" />
<glyph unicode="&#xf5;" horiz-adv-x="1024" d="M133 358v379q0 157 111 268t268 111t268 -111t111 -268v-379q0 -157 -111 -267.5t-268 -110.5t-268 110.5t-111 267.5zM215 358q0 -123 87 -210t210 -87t210 87t87 210v379q0 123 -87 210t-210 87t-210 -87t-87 -210v-379zM254 1300q0 3 6 21q23 44 65.5 75t90.5 31 q31 0 57.5 -12.5t41 -27t34.5 -27t39 -12.5q28 0 48.5 14t27.5 28l6 15q3 13 13.5 21t23.5 8q15 0 29 -11t14 -30q0 -2 -1 -6t-1 -5q-49 -116 -160 -116q-37 0 -66 20t-54 40t-52 20q-25 0 -43 -13.5t-26.5 -29.5t-21.5 -29.5t-28 -13.5q-16 0 -29.5 11t-13.5 29z" />
<glyph unicode="&#xf6;" horiz-adv-x="1024" d="M133 358v379q0 157 111 268t268 111t268 -111t111 -268v-379q0 -157 -111 -267.5t-268 -110.5t-268 110.5t-111 267.5zM215 358q0 -123 87 -210t210 -87t210 87t87 210v379q0 123 -87 210t-210 87t-210 -87t-87 -210v-379zM293 1321q0 26 18.5 44.5t44.5 18.5t45 -18.5 t19 -44.5t-19 -45t-45 -19t-44.5 19t-18.5 45zM582 1321q0 26 18.5 44.5t44.5 18.5t45 -18.5t19 -44.5t-19 -45t-45 -19t-44.5 19t-18.5 45z" />
<glyph unicode="&#xf7;" horiz-adv-x="1269" d="M102 743q0 15 11 28t30 13h983q19 0 30 -13t11 -28t-11 -28t-30 -13h-983q-19 0 -30 13t-11 28zM594 307v164q0 19 13 30t28 11t28 -11t13 -30v-164q0 -19 -13 -30t-28 -11t-28 11t-13 30zM594 1016v164q0 19 13 30t28 11t28 -11t13 -30v-164q0 -19 -13 -30t-28 -11 t-28 11t-13 30z" />
<glyph unicode="&#xf8;" horiz-adv-x="1026" d="M133 358v379q0 157 111 268t268 111q143 0 254 -96l51 78q14 22 37 19t32.5 -22t-1.5 -42l-64 -97q70 -98 70 -219v-379q0 -157 -111 -267.5t-268 -110.5q-143 0 -254 96l-49 -78q-15 -22 -38.5 -19t-32.5 22t3 42l62 96q-70 103 -70 219zM215 358q0 -75 37 -141l469 731 q-86 86 -209 86t-210 -87t-87 -210v-379zM303 147q89 -86 209 -86q123 0 210 87t87 210v379q0 80 -35 142z" />
<glyph unicode="&#xf9;" horiz-adv-x="1044" d="M143 358v697q0 19 12.5 30t28.5 11t28.5 -11t12.5 -30v-697q0 -123 87 -210t210 -87t210 87t87 210v697q0 19 12.5 30t28.5 11t28.5 -11t12.5 -30v-697q0 -157 -111 -267.5t-268 -110.5t-268 110.5t-111 267.5zM307 1462q0 16 12 28.5t29 12.5q14 0 25 -8l223 -178 q16 -13 16 -33q0 -16 -12 -28.5t-29 -12.5q-13 0 -24 8l-223 179q-17 14 -17 32z" />
<glyph unicode="&#xfa;" horiz-adv-x="1044" d="M143 358v697q0 19 12.5 30t28.5 11t28.5 -11t12.5 -30v-697q0 -123 87 -210t210 -87t210 87t87 210v697q0 19 12.5 30t28.5 11t28.5 -11t12.5 -30v-697q0 -157 -111 -267.5t-268 -110.5t-268 110.5t-111 267.5zM389 1284q0 19 17 33l223 178q11 8 24 8q17 0 29 -12.5 t12 -28.5q0 -19 -16 -32l-223 -179q-11 -8 -25 -8q-17 0 -29 12.5t-12 28.5z" />
<glyph unicode="&#xfb;" horiz-adv-x="1044" d="M143 358v697q0 19 12.5 30t28.5 11t28.5 -11t12.5 -30v-697q0 -123 87 -210t210 -87t210 87t87 210v697q0 19 12.5 30t28.5 11t28.5 -11t12.5 -30v-697q0 -157 -111 -267.5t-268 -110.5t-268 110.5t-111 267.5zM297 1305q0 14 14 28l162 158q12 12 29 12q14 0 26 -12 l162 -158q15 -15 15 -28q0 -18 -13.5 -29.5t-29.5 -11.5q-15 0 -27 12l-133 129l-135 -129q-12 -12 -27 -12q-16 0 -29.5 11.5t-13.5 29.5z" />
<glyph unicode="&#xfc;" horiz-adv-x="1044" d="M143 358v697q0 19 12.5 30t28.5 11t28.5 -11t12.5 -30v-697q0 -123 87 -210t210 -87t210 87t87 210v697q0 19 12.5 30t28.5 11t28.5 -11t12.5 -30v-697q0 -157 -111 -267.5t-268 -110.5t-268 110.5t-111 267.5zM293 1321q0 26 18.5 44.5t44.5 18.5t45 -18.5t19 -44.5 t-19 -45t-45 -19t-44.5 19t-18.5 45zM582 1321q0 26 18.5 44.5t44.5 18.5t45 -18.5t19 -44.5t-19 -45t-45 -19t-44.5 19t-18.5 45z" />
<glyph unicode="&#xfd;" horiz-adv-x="944" d="M61 1057q0 17 12.5 28t30.5 11q28 0 37 -27l326 -905l336 905q12 27 39 27q16 0 28.5 -11t12.5 -28q0 -11 -2 -17l-531 -1423q-9 -27 -37 -27q-18 0 -30.5 11t-12.5 28q0 11 2 17l150 399l-359 995q-2 6 -2 17zM360 1284q0 19 17 33l223 178q11 8 25 8q17 0 29 -12.5 t12 -28.5q0 -18 -17 -32l-223 -179q-11 -8 -25 -8q-17 0 -29 12.5t-12 28.5z" />
<glyph unicode="&#xfe;" horiz-adv-x="1024" d="M143 -369v1885q0 26 20.5 36.5t41 0t20.5 -36.5v-543q53 67 130.5 105t166.5 38q157 0 268 -111t111 -268v-379q0 -157 -111 -267.5t-268 -110.5q-89 0 -166.5 38t-130.5 105v-492q0 -26 -20.5 -36.5t-41 0t-20.5 36.5zM225 358q0 -123 87 -210t210 -87t210 87t87 210 v379q0 123 -87 210t-210 87t-210 -87t-87 -210v-379z" />
<glyph unicode="&#xff;" horiz-adv-x="944" d="M61 1057q0 17 12.5 28t30.5 11q28 0 37 -27l326 -905l336 905q12 27 39 27q16 0 28.5 -11t12.5 -28q0 -11 -2 -17l-531 -1423q-9 -27 -37 -27q-18 0 -30.5 11t-12.5 28q0 11 2 17l150 399l-359 995q-2 6 -2 17zM264 1321q0 26 19 44.5t45 18.5t44.5 -18.5t18.5 -44.5 t-18.5 -45t-44.5 -19t-45 19t-19 45zM553 1321q0 26 18.5 44.5t44.5 18.5t45 -18.5t19 -44.5t-19 -45t-45 -19t-44.5 19t-18.5 45z" />
<glyph unicode="&#x152;" horiz-adv-x="2029" d="M123 487v582q0 138 68 255t185 185t255 68q131 0 244 -62.5t182 -168.5v170q0 17 12 28.5t29 11.5h768q19 0 30 -12t11 -28t-11 -28.5t-30 -12.5h-727v-619h665q19 0 30 -12.5t11 -28.5t-11 -28.5t-30 -12.5h-665v-692h727q19 0 30 -12.5t11 -28.5t-11 -28.5t-30 -12.5 h-768q-17 0 -29 12t-12 29v170q-69 -106 -182 -168.5t-244 -62.5q-138 0 -255 67.5t-185 184.5t-68 255zM205 487q0 -177 124.5 -301.5t301.5 -124.5t301.5 124.5t124.5 301.5v582q0 177 -124.5 301.5t-301.5 124.5t-301.5 -124.5t-124.5 -301.5v-582z" />
<glyph unicode="&#x153;" horiz-adv-x="1658" d="M123 358v379q0 157 111 268t268 111q109 0 199.5 -56.5t138.5 -150.5q48 94 138.5 150.5t199.5 56.5q157 0 267.5 -111t110.5 -268v-143q0 -17 -11.5 -29t-28.5 -12h-635v-195q0 -121 95 -209t222 -88q69 0 140.5 27.5t107.5 77.5q13 18 35 18q16 0 28.5 -12t12.5 -29 q0 -15 -27 -47q-55 -58 -133 -87t-164 -29q-110 0 -207.5 58t-148.5 152q-46 -95 -137.5 -152.5t-202.5 -57.5q-157 0 -268 110.5t-111 267.5zM205 358q0 -123 87 -210t210 -87t210 87t87 210v379q0 123 -87 210t-210 87t-210 -87t-87 -210v-379zM881 635h594v102 q0 123 -87 210t-210 87t-210 -87t-87 -210v-102z" />
<glyph unicode="&#x178;" horiz-adv-x="1146" d="M41 1518q0 17 12.5 27.5t28.5 10.5q24 0 35 -20l456 -764l457 764q11 20 35 20q16 0 28.5 -10.5t12.5 -27.5q0 -11 -6 -23l-486 -815v-639q0 -19 -12.5 -30t-28.5 -11t-28.5 11t-12.5 30v639l-485 815q-6 12 -6 23zM365 1782q0 26 18.5 44.5t44.5 18.5t45 -18.5t19 -44.5 t-19 -45t-45 -19t-44.5 19t-18.5 45zM653 1782q0 26 19 44.5t45 18.5t44.5 -18.5t18.5 -44.5t-18.5 -45t-44.5 -19t-45 19t-19 45z" />
<glyph unicode="&#x2c6;" horiz-adv-x="825" d="M209 1305q0 14 14 28l162 158q12 12 29 12q14 0 26 -12l162 -158q14 -14 14 -28q0 -18 -13.5 -29.5t-29.5 -11.5q-14 0 -26 12l-133 129l-135 -129q-12 -12 -27 -12q-16 0 -29.5 11.5t-13.5 29.5z" />
<glyph unicode="&#x2dc;" horiz-adv-x="888" d="M197 1300q0 3 6 21q24 45 65.5 75.5t89.5 30.5q31 0 57.5 -12.5t41 -27t34.5 -27t39 -12.5q28 0 48.5 14t27.5 28l6 15q3 13 13.5 21t23.5 8q15 0 29 -11t14 -30q0 -2 -1 -6t-1 -5q-49 -116 -160 -116q-37 0 -66 20t-54 40t-52 20q-25 0 -43 -13.5t-26 -29.5t-21 -29.5 t-28 -13.5q-16 0 -29.5 11t-13.5 29z" />
<glyph unicode="&#x2000;" horiz-adv-x="1010" />
<glyph unicode="&#x2001;" horiz-adv-x="2021" />
<glyph unicode="&#x2002;" horiz-adv-x="1010" />
<glyph unicode="&#x2003;" horiz-adv-x="2021" />
<glyph unicode="&#x2004;" horiz-adv-x="673" />
<glyph unicode="&#x2005;" horiz-adv-x="505" />
<glyph unicode="&#x2006;" horiz-adv-x="336" />
<glyph unicode="&#x2007;" horiz-adv-x="336" />
<glyph unicode="&#x2008;" horiz-adv-x="252" />
<glyph unicode="&#x2009;" horiz-adv-x="404" />
<glyph unicode="&#x200a;" horiz-adv-x="112" />
<glyph unicode="&#x2010;" horiz-adv-x="737" d="M102 776q0 16 11 28.5t30 12.5h451q19 0 30 -12.5t11 -28.5t-11 -28.5t-30 -12.5h-451q-19 0 -30 12.5t-11 28.5z" />
<glyph unicode="&#x2011;" horiz-adv-x="737" d="M102 776q0 16 11 28.5t30 12.5h451q19 0 30 -12.5t11 -28.5t-11 -28.5t-30 -12.5h-451q-19 0 -30 12.5t-11 28.5z" />
<glyph unicode="&#x2012;" horiz-adv-x="737" d="M102 776q0 16 11 28.5t30 12.5h451q19 0 30 -12.5t11 -28.5t-11 -28.5t-30 -12.5h-451q-19 0 -30 12.5t-11 28.5z" />
<glyph unicode="&#x2013;" horiz-adv-x="913" d="M102 776q0 15 11 28t30 13h627q19 0 30 -13t11 -28t-11 -28t-30 -13h-627q-19 0 -30 13t-11 28z" />
<glyph unicode="&#x2014;" horiz-adv-x="1540" d="M102 776q0 15 11 28t30 13h1254q19 0 30 -13t11 -28t-11 -28t-30 -13h-1254q-19 0 -30 13t-11 28z" />
<glyph unicode="&#x2018;" horiz-adv-x="409" d="M82 1106q0 121 54 247t147 195q11 8 24 8q17 0 29 -13t12 -30q0 -19 -16 -30q-11 -9 -25 -23q-69 -68 -106 -161t-37 -193q0 -20 -12 -30.5t-29 -10.5t-29 10.5t-12 30.5z" />
<glyph unicode="&#x2019;" horiz-adv-x="409" d="M61 1106q0 22 17 33q10 8 24 22q70 68 107 161t37 194q0 19 12.5 29.5t28.5 10.5t28.5 -10.5t12.5 -29.5q0 -122 -54 -249t-147 -194q-11 -8 -25 -8q-17 0 -29 12.5t-12 28.5z" />
<glyph unicode="&#x201a;" horiz-adv-x="389" d="M0 -324q0 22 16 33q11 9 25 23q70 68 106.5 160.5t36.5 193.5q0 19 12.5 30t28.5 11t28.5 -11t12.5 -30q0 -122 -53.5 -248.5t-146.5 -193.5q-12 -9 -25 -9q-17 0 -29 12.5t-12 28.5z" />
<glyph unicode="&#x201c;" horiz-adv-x="696" d="M82 1106q0 121 54 247t147 195q11 8 24 8q17 0 29 -13t12 -30q0 -19 -16 -30q-11 -9 -25 -23q-69 -68 -106 -161t-37 -193q0 -20 -12 -30.5t-29 -10.5t-29 10.5t-12 30.5zM369 1106q0 121 54 247t146 195q11 8 25 8q17 0 29 -13t12 -30q0 -19 -17 -30q-10 -9 -24 -23 q-69 -68 -106 -161t-37 -193q0 -20 -12 -30.5t-29 -10.5t-29 10.5t-12 30.5z" />
<glyph unicode="&#x201d;" horiz-adv-x="696" d="M61 1106q0 22 17 33q10 8 24 22q70 68 107 161t37 194q0 19 12.5 29.5t28.5 10.5t28.5 -10.5t12.5 -29.5q0 -122 -54 -249t-147 -194q-11 -8 -25 -8q-17 0 -29 12.5t-12 28.5zM348 1106q0 22 17 33q10 8 24 22q69 68 106 161t37 194q0 19 12.5 29.5t28.5 10.5t28.5 -10.5 t12.5 -29.5q0 -122 -54 -249t-146 -194q-11 -8 -25 -8q-17 0 -29 12.5t-12 28.5z" />
<glyph unicode="&#x201e;" horiz-adv-x="675" d="M0 -324q0 22 16 33q11 9 25 23q70 68 106.5 160.5t36.5 193.5q0 19 12.5 30t28.5 11t28.5 -11t12.5 -30q0 -122 -53.5 -248.5t-146.5 -193.5q-12 -9 -25 -9q-17 0 -29 12.5t-12 28.5zM287 -324q0 22 16 33q11 9 25 23q70 68 106.5 160.5t36.5 193.5q0 19 12.5 30t28.5 11 t28.5 -11t12.5 -30q0 -122 -54 -248t-147 -194q-12 -9 -24 -9q-17 0 -29 12.5t-12 28.5z" />
<glyph unicode="&#x2022;" horiz-adv-x="735" d="M123 748q0 101 72 173t172 72q101 0 173 -71.5t72 -171.5q0 -101 -71.5 -173.5t-171.5 -72.5q-101 0 -173.5 72t-72.5 172z" />
<glyph unicode="&#x2026;" horiz-adv-x="901" d="M100 63q0 26 19 45t45 19t44.5 -19t18.5 -45t-18.5 -44.5t-44.5 -18.5t-45 18.5t-19 44.5zM387 63q0 26 19 45t45 19t44.5 -19t18.5 -45t-18.5 -44.5t-44.5 -18.5t-45 18.5t-19 44.5zM674 63q0 26 18.5 45t44.5 19t45 -19t19 -45t-19 -44.5t-45 -18.5t-44.5 18.5 t-18.5 44.5z" />
<glyph unicode="&#x202f;" horiz-adv-x="404" />
<glyph unicode="&#x2039;" horiz-adv-x="694" d="M102 557q0 19 15 31l364 325q11 11 27 11q17 0 30 -13t13 -28q0 -13 -14 -31l-332 -295l332 -295q14 -17 14 -31q0 -15 -13 -28t-30 -13q-16 0 -27 11l-364 325q-15 12 -15 31z" />
<glyph unicode="&#x203a;" horiz-adv-x="694" d="M143 231q0 16 15 31l329 295l-329 295q-15 15 -15 31q0 15 13 28t28 13t29 -11l365 -325q14 -14 14 -31t-14 -31l-365 -325q-14 -11 -29 -11t-28 13t-13 28z" />
<glyph unicode="&#x205f;" horiz-adv-x="505" />
<glyph unicode="&#x20ac;" horiz-adv-x="1243" d="M20 682q0 16 11 28.5t30 12.5h123v143h-123q-19 0 -30 12.5t-11 28.5t11 28.5t30 12.5h123v121q0 138 68 255t185 185t255 68q118 0 243 -50t195 -138q9 -12 9 -25q0 -17 -12.5 -29t-28.5 -12q-9 0 -17.5 4.5t-13.5 9.5t-12.5 13.5t-10.5 11.5q-69 65 -161 99t-191 34 q-177 0 -301.5 -124.5t-124.5 -301.5v-121h522q19 0 30 -12.5t11 -28.5t-11 -28.5t-30 -12.5h-522v-143h371q19 0 30 -12.5t11 -28.5t-11 -28.5t-30 -12.5h-371v-154q0 -177 124.5 -301.5t301.5 -124.5q102 0 208 41.5t165 114.5q13 16 31 16t31.5 -11.5t13.5 -28.5 q0 -23 -41 -58q-81 -75 -187.5 -115t-220.5 -40q-138 0 -255 67.5t-185 184.5t-68 255v154h-123q-19 0 -30 12.5t-11 28.5z" />
<glyph unicode="&#x2122;" horiz-adv-x="1691" d="M41 1516q0 16 11 28t30 12h590q19 0 30 -12t11 -28t-11 -28.5t-30 -12.5h-254v-844q0 -19 -12.5 -30t-28.5 -11t-28.5 11t-12.5 30v844h-254q-19 0 -30 12.5t-11 28.5zM750 633v883q0 22 11 34.5t27 12.5q27 0 39 -31l332 -793l332 793q12 31 39 31q16 0 27.5 -12.5 t11.5 -34.5v-883q0 -19 -12.5 -30t-28.5 -11t-28.5 11t-12.5 30v678l-291 -695q-12 -30 -37 -30t-37 30l-291 695v-678q0 -19 -12 -30t-28 -11t-28.5 11t-12.5 30z" />
<glyph unicode="&#x25fc;" horiz-adv-x="1095" d="M0 0v1096h1096v-1096h-1096z" />
</font>
</defs>
</svg>
