<?xml version="1.0" encoding="utf-8"?>
<!DOCTYPE svg PUBLIC "-//W3C//DTD SVG 1.1//EN" "http://www.w3.org/Graphics/SVG/1.1/DTD/svg11.dtd">
<svg version="1.1" id="Layer_1" xmlns="http://www.w3.org/2000/svg" xmlns:xlink="http://www.w3.org/1999/xlink" x="0px" y="0px"
	 width="32px" height="32px" viewBox="0 0 32 32">
<path d="M31.703,0.297C31.9,0.495,32,0.729,32,1v20c0,0.271-0.1,0.505-0.297,0.703C31.505,21.9,31.271,22,31,22s-0.505-0.1-0.703-0.297C30.1,21.505,30,21.271,30,21V2H11c-0.271,0-0.505-0.1-0.703-0.297C10.099,1.505,10,1.271,10,1s0.099-0.505,0.297-0.703C10.495,0.1,10.729,0,11,0h20C31.271,0,31.505,0.1,31.703,0.297z M30,24h2v6c0,0.541-0.199,1.01-0.594,1.406C31.011,31.802,30.542,32,30,32H2c-0.542,0-1.01-0.199-1.406-0.594C0.198,31.011,0,30.542,0,30V2c0-0.563,0.199-1.037,0.594-1.422C0.989,0.192,1.458,0,2,0h6v2H7C6.729,2,6.495,2.1,6.297,2.297C6.099,2.495,6,2.729,6,3s0.099,0.505,0.297,0.703C6.495,3.9,6.729,4,7,4h1v2H5C4.729,6,4.495,6.1,4.297,6.297C4.099,6.495,4,6.729,4,7s0.099,0.505,0.297,0.703C4.495,7.9,4.729,8,5,8h3v2H7c-0.271,0-0.505,0.1-0.703,0.297C6.099,10.495,6,10.729,6,11s0.099,0.505,0.297,0.703C6.495,11.899,6.729,12,7,12h1v2H5c-0.271,0-0.505,0.101-0.703,0.297C4.099,14.495,4,14.729,4,15s0.099,0.505,0.297,0.703C4.495,15.901,4.729,16,5,16h3v2H7c-0.271,0-0.505,0.1-0.703,0.297C6.099,18.495,6,18.729,6,19s0.099,0.505,0.297,0.703C6.495,19.9,6.729,20,7,20h1v1v1H5c-0.271,0-0.505,0.1-0.703,0.297C4.099,22.495,4,22.729,4,23s0.099,0.505,0.297,0.703C4.495,23.9,4.729,24,5,24h3v3c0,0.271,0.099,0.505,0.297,0.703C8.495,27.9,8.729,28,9,28s0.505-0.1,0.703-0.297C9.901,27.505,10,27.271,10,27v-3h1h1v1c0,0.271,0.099,0.505,0.297,0.703C12.495,25.9,12.729,26,13,26s0.505-0.1,0.703-0.297C13.901,25.505,14,25.271,14,25v-1h2v3c0,0.271,0.099,0.505,0.297,0.703C16.495,27.9,16.729,28,17,28s0.505-0.1,0.703-0.297C17.9,27.505,18,27.271,18,27v-3h2v1c0,0.271,0.1,0.505,0.297,0.703C20.495,25.9,20.729,26,21,26s0.505-0.1,0.703-0.297C21.9,25.505,22,25.271,22,25v-1h2v3c0,0.271,0.1,0.505,0.297,0.703C24.495,27.9,24.729,28,25,28s0.505-0.1,0.703-0.297C25.9,27.505,26,27.271,26,27v-3h2v1c0,0.271,0.1,0.505,0.297,0.703C28.495,25.9,28.729,26,29,26s0.505-0.1,0.703-0.297C29.9,25.505,30,25.271,30,25V24z"/>
</svg>