<?xml version="1.0" encoding="UTF-8" standalone="no"?>
<!-- Created with Inkscape (http://www.inkscape.org/) -->
<svg
   xmlns:svg="http://www.w3.org/2000/svg"
   xmlns="http://www.w3.org/2000/svg"
   version="1.0"
   width="372"
   height="720"
   id="svg1886">
  <defs
     id="defs1888" />
  <g
     id="layer1">
    <g
       transform="matrix(8.998075e-2,0,0,8.998075e-2,185.0004,-1.0817)"
       id="Layer 1">
  <g
   id="g9">
   <g
   id="g11">
    <path
   d="M 0,7427 L 444,7649 L 444,7983 L 0,7760 L -444,7983 L -444,7649 L 0,7427 L 0,6444 L 0,6872 L 444,7094 L 444,7428 L 0,7205 L -444,7428 L -444,7094 L 0,6872 L 0,6444 L 0,6316 L 444,6539 L 444,6873 L 0,6650 L -444,6873 L -444,6539 L 0,6316 L 0,6444 L 0,7427 z "
   style="fill:black"
   id="63514880" />

    <path
   d="M -111,444 L -111,6444 L 111,6444 L 111,444 L -111,444 z "
   style="fill:black"
   id="path14" />

    <path
   d="M -444,888 L -444,444 L 0,0 L 444,444 L 444,888 L 0,444 L -444,888 L 0,444 L -444,888 z "
   style="fill:black"
   id="path16" />

   </g>

   <g
   id="g18">
    <g
   id="g20">
     <path
   d="M 0,5388 C 535,5388 1021,5170 1374,4818 L 1453,4897 C 1080,5269 566,5500 0,5500 L 0,5388 z M 1374,4818 C 1726,4465 1944,3979 1944,3444 L 2056,3444 C 2056,4010 1825,4524 1453,4897 L 1374,4818 z M 1944,3444 C 1944,2909 1726,2423 1374,2070 L 1453,1991 C 1825,2364 2056,2878 2056,3444 L 1944,3444 z M 1374,2070 C 1021,1718 535,1500 0,1500 L 0,1388 C 566,1388 1080,1619 1453,1991 L 1374,2070 z M 0,1500 C -535,1500 -1021,1718 -1374,2070 L -1453,1991 C -1080,1619 -566,1388 0,1388 L 0,1500 z M -1374,2070 C -1726,2423 -1944,2909 -1944,3444 L -2056,3444 C -2056,2878 -1825,2364 -1453,1991 L -1374,2070 z M -1944,3444 C -1944,3979 -1726,4465 -1374,4818 L -1453,4897 C -1825,4524 -2056,4010 -2056,3444 L -1944,3444 z M -1374,4818 C -1021,5170 -535,5388 0,5388 L 0,5500 C -566,5500 -1080,5269 -1453,4897 L -1374,4818 z "
   style="fill:black"
   id="63514968" />

    </g>

    <g
   id="g23">
     <path
   d="M 0,4444 C 1102,4444 2000,3995 2000,3444 C 2000,2893 1102,2444 0,2444 C -1102,2444 -2000,2893 -2000,3444 C -2000,3995 -1102,4444 0,4444 z "
   style="fill:#b2b2b2"
   id="63515056" />

     <path
   d="M 0,4388 C 542,4388 1033,4278 1389,4100 L 1438,4201 C 1069,4385 560,4500 0,4500 L 0,4388 z M 1389,4100 C 1732,3929 1944,3696 1944,3444 L 2056,3444 C 2056,3742 1819,4010 1438,4201 L 1389,4100 z M 1944,3444 C 1944,3192 1732,2959 1389,2788 L 1438,2687 C 1819,2878 2056,3146 2056,3444 L 1944,3444 z M 1389,2788 C 1033,2610 542,2500 0,2500 L 0,2388 C 560,2388 1069,2503 1438,2687 L 1389,2788 z M 0,2500 C -542,2500 -1033,2610 -1389,2788 L -1438,2687 C -1069,2503 -560,2388 0,2388 L 0,2500 z M -1389,2788 C -1732,2959 -1944,3192 -1944,3444 L -2056,3444 C -2056,3146 -1819,2878 -1438,2687 L -1389,2788 z M -1944,3444 C -1944,3696 -1732,3929 -1389,4100 L -1438,4201 C -1819,4010 -2056,3742 -2056,3444 L -1944,3444 z M -1389,4100 C -1033,4278 -542,4388 0,4388 L 0,4500 C -560,4500 -1069,4385 -1438,4201 L -1389,4100 z "
   style="fill:black"
   id="path26" />

    </g>

    <g
   id="g28">
     <path
   d="M 0,4444 C 551,4444 1000,3995 1000,3444 C 1000,2893 551,2444 0,2444 C -551,2444 -1000,2893 -1000,3444 C -1000,3995 -551,4444 0,4444 z "
   style="fill:white"
   id="63515144" />

     <path
   d="M 0,4388 C 260,4388 496,4282 667,4111 L 746,4190 C 555,4381 291,4500 0,4500 L 0,4388 z M 667,4111 C 838,3940 944,3704 944,3444 L 1056,3444 C 1056,3735 937,3999 746,4190 L 667,4111 z M 944,3444 C 944,3184 838,2948 667,2777 L 746,2698 C 937,2889 1056,3153 1056,3444 L 944,3444 z M 667,2777 C 496,2606 260,2500 0,2500 L 0,2388 C 291,2388 555,2507 746,2698 L 667,2777 z M 0,2500 C -260,2500 -496,2606 -667,2777 L -746,2698 C -555,2507 -291,2388 0,2388 L 0,2500 z M -667,2777 C -838,2948 -944,3184 -944,3444 L -1056,3444 C -1056,3153 -937,2889 -746,2698 L -667,2777 z M -944,3444 C -944,3704 -838,3940 -667,4111 L -746,4190 C -937,3999 -1056,3735 -1056,3444 L -944,3444 z M -667,4111 C -496,4282 -260,4388 0,4388 L 0,4500 C -291,4500 -555,4381 -746,4190 L -667,4111 z "
   style="fill:black"
   id="path31" />

    </g>

   </g>

   <path
   d="M -257,3004 L -70,3004 C -58,3004 -46,3009 -34,3019 C -30,3021 -23,3028 -15,3040 L 145,3442 L 237,3049 C 237,3038 235,3030 233,3026 C 230,3022 225,3017 217,3012 L 195,3004 L 366,3004 C 377,3004 384,3004 387,3004 C 391,3004 395,3008 399,3014 C 403,3021 407,3030 411,3042 L 220,3880 L 137,3880 C 127,3880 120,3879 114,3875 L 96,3866 C 86,3860 78,3853 72,3844 L -106,3358 L -218,3825 C -218,3838 -216,3848 -214,3855 C -211,3862 -202,3868 -188,3875 L -180,3880 L -371,3884 L -390,3877 L -403,3866 L -407,3853 L -411,3839 L -227,3053 L -226,3038 C -226,3032 -227,3027 -229,3021 C -232,3016 -237,3012 -244,3009 L -257,3004 z "
   style="fill:black"
   id="63515320" />

  </g>

 </g>
  </g>
</svg>
