<?xml version="1.0" encoding="utf-8"?>
<!-- Generator: Adobe Illustrator 16.0.0, SVG Export Plug-In . SVG Version: 6.00 Build 0)  -->
<!DOCTYPE svg PUBLIC "-//W3C//DTD SVG 1.1//EN" "http://www.w3.org/Graphics/SVG/1.1/DTD/svg11.dtd">
<svg version="1.1" id="Layer_1" xmlns="http://www.w3.org/2000/svg" xmlns:xlink="http://www.w3.org/1999/xlink" x="0px" y="0px"
	 width="28.25px" height="21px" viewBox="0 0 28.25 21" enable-background="new 0 0 28.25 21" xml:space="preserve">
<path fill-rule="evenodd" clip-rule="evenodd" fill="#757575" d="M25.403,21c-2.396-7-4.79-14-7.186-21c0.384,0,0.576,0,0.96,0
	C22.119,7,25.06,14,28,21C27.134,21,26.269,21,25.403,21z M15.373,21c-0.024-0.581-0.048-1.162-0.072-1.742
	c-0.868,0-1.735,0-2.603,0c-0.024,0.581-0.048,1.161-0.072,1.742C10.084,21,7.542,21,5,21C6.89,14,8.781,7,10.671,0
	c0.94,0,1.881,0,2.821,0c-0.024,0.581-0.048,1.162-0.072,1.742c0.464,0,0.695,0,1.159,0C14.556,1.162,14.532,0.581,14.508,0
	c0.94,0,1.881,0,2.821,0C19.219,7,21.11,14,23,21C20.458,21,17.916,21,15.373,21z M14.687,4.351c-0.458,0-0.916,0-1.374,0
	c-0.067,1.615-0.133,3.229-0.2,4.844c0.591,0,1.182,0,1.773,0C14.82,7.581,14.753,5.966,14.687,4.351z M14.994,11.804
	c-0.663,0-1.326,0-1.989,0c-0.066,1.615-0.133,3.23-0.199,4.845c0.796,0,1.592,0,2.388,0C15.127,15.034,15.061,13.419,14.994,11.804
	z M0,21C2.94,14,5.881,7,8.822,0c0.384,0,0.576,0,0.96,0C7.387,7,4.992,14,2.597,21C1.731,21,0.865,21,0,21z"/>
</svg>
