<?xml version="1.0" encoding="utf-8"?>
<!-- Generated by IcoMoon.io -->
<!DOCTYPE svg PUBLIC "-//W3C//DTD SVG 1.1//EN" "http://www.w3.org/Graphics/SVG/1.1/DTD/svg11.dtd">
<svg version="1.1" xmlns="http://www.w3.org/2000/svg" xmlns:xlink="http://www.w3.org/1999/xlink" width="24" height="24" viewBox="0 0 24 24">
<path d="M9.6,17.4L16.8,12L9.6,6.6ZM12,0C5.37,0 4.44089e-16,5.37 4.44089e-16,12C4.44089e-16,18.63 5.37,24 12,24C18.63,24 24,18.63 24,12C24,5.37 18.63,0 12,0ZM12,21.6C6.708,21.6 2.4,17.292 2.4,12C2.4,6.708 6.708,2.4 12,2.4C17.292,2.4 21.6,6.708 21.6,12C21.6,17.292 17.292,21.6 12,21.6Z" fill="#5E66CC"></path>
</svg>
