<?xml version="1.0" encoding="utf-8"?>
<!DOCTYPE svg PUBLIC "-//W3C//DTD SVG 1.1//EN" "http://www.w3.org/Graphics/SVG/1.1/DTD/svg11.dtd">
<svg width="22px" height="24px" version="1.1" xmlns="http://www.w3.org/2000/svg" xmlns:xlink="http://www.w3.org/1999/xlink" x="0px" y="0px" viewBox="0 0 22 24">
  <path fill="#5E66CC" d="M8,9.5L8,18.5C8,18.646 7.953,18.7657 7.859,18.859C7.765,18.9523 7.64533,18.9993 7.5,19L6.5,19C6.354,19 6.23433,18.953 6.141,18.859C6.04767,18.765 6.00067,18.6453 6,18.5L6,9.5C6,9.354 6.047,9.23433 6.141,9.141C6.235,9.04767 6.35467,9.00067 6.5,9L7.5,9C7.646,9 7.76567,9.047 7.859,9.141C7.95233,9.235 7.99933,9.35467 8,9.5ZM12,9.5L12,18.5C12,18.646 11.953,18.7657 11.859,18.859C11.765,18.9523 11.6453,18.9993 11.5,19L10.5,19C10.354,19 10.2343,18.953 10.141,18.859C10.0477,18.765 10.0007,18.6453 10,18.5L10,9.5C10,9.354 10.047,9.23433 10.141,9.141C10.235,9.04767 10.3547,9.00067 10.5,9L11.5,9C11.646,9 11.7657,9.047 11.859,9.141C11.9523,9.235 11.9993,9.35467 12,9.5ZM16,9.5L16,18.5C16,18.646 15.953,18.7657 15.859,18.859C15.765,18.9523 15.6453,18.9993 15.5,19L14.5,19C14.354,19 14.2343,18.953 14.141,18.859C14.0477,18.765 14.0007,18.6453 14,18.5L14,9.5C14,9.354 14.047,9.23433 14.141,9.141C14.235,9.04767 14.3547,9.00067 14.5,9L15.5,9C15.646,9 15.7657,9.047 15.859,9.141C15.9523,9.235 15.9993,9.35467 16,9.5ZM18,20.813L18,6.001L4,6.001L4,20.813C4,21.0423 4.03633,21.2533 4.109,21.446C4.18167,21.6387 4.25733,21.7793 4.336,21.868C4.41467,21.9567 4.46933,22.001 4.5,22.001L17.5,22.001C17.5313,22.001 17.586,21.9567 17.664,21.868C17.742,21.7793 17.8177,21.6387 17.891,21.446C17.9643,21.2533 18.0007,21.0423 18,20.813ZM7.5,4L14.5,4L13.75,2.172C13.6773,2.078 13.5887,2.02067 13.484,2L8.531,2C8.427,2.02067 8.33833,2.078 8.265,2.172ZM22,4.5L22,5.5C22,5.646 21.953,5.76567 21.859,5.859C21.765,5.95233 21.6453,5.99933 21.5,6L20,6L20,20.812C20,21.6767 19.7553,22.424 19.266,23.054C18.7767,23.684 18.188,23.999 17.5,23.999L4.5,23.999C3.81267,23.999 3.224,23.6943 2.734,23.085C2.244,22.4757 1.99933,21.7387 2,20.874L2,5.999L0.5,5.999C0.354,5.999 0.234333,5.952 0.141,5.858C0.0476667,5.764 0.000666667,5.64433 2.77556e-17,5.499L2.77556e-17,4.499C2.77556e-17,4.353 0.047,4.23333 0.141,4.14C0.235,4.04667 0.354667,3.99967 0.5,3.999L5.328,3.999L6.422,1.39C6.578,1.00467 6.85933,0.676667 7.266,0.406C7.67267,0.135333 8.084,0 8.5,0L13.5,0C13.9167,0 14.328,0.135333 14.734,0.406C15.14,0.676667 15.4213,1.00467 15.578,1.39L16.672,3.999L21.5,3.999C21.646,3.999 21.7657,4.046 21.859,4.14C21.9523,4.234 21.9993,4.35367 22,4.499Z"/>
</svg>