<svg id="Capa_1" data-name="Capa 1" xmlns="http://www.w3.org/2000/svg" viewBox="0 0 91.9 91.9"><defs><style>.cls-1,.cls-3{fill:#fff;}.cls-1{fill-rule:evenodd;}.cls-2{fill:#3b819b;}.cls-4{fill:#eff3f4;}.cls-5{fill:#57a1b7;stroke:#fff;stroke-miterlimit:10;stroke-width:0.6px;}</style></defs><path class="cls-1" d="M47.85,4.68A42.84,42.84,0,1,1,5,47.52,42.84,42.84,0,0,1,47.85,4.68Z" transform="translate(0 0.07)"/><path class="cls-2" d="M46-.07A46,46,0,1,1,13.46,13.39,45.77,45.77,0,0,1,46-.07ZM74,17.78a39.73,39.73,0,1,0,11.64,28.1A39.64,39.64,0,0,0,74,17.78Z" transform="translate(0 0.07)"/><path class="cls-2" d="M68.64,25.69c-.39-1.4-2.41-2.43-4.82-2.38-2.22,0-4.06,1-4.6,2.23-1.93.42-3.31,1.55-3.28,2.86,0,1.61,2.23,2.88,4.89,2.83a7.06,7.06,0,0,0,2.83-.62,6.83,6.83,0,0,0,3.41.78c2.67-.06,4.8-1.41,4.76-3C71.8,27.11,70.48,26.07,68.64,25.69Z" transform="translate(0 0.07)"/><path class="cls-2" d="M80.88,32.3c-.27-1-1.67-1.69-3.34-1.65a3.51,3.51,0,0,0-3.19,1.55c-1.33.29-2.29,1.07-2.27,2,0,1.12,1.54,2,3.39,2a5.09,5.09,0,0,0,2-.43,4.64,4.64,0,0,0,2.37.54c1.84,0,3.32-1,3.29-2.1C83.08,33.28,82.16,32.56,80.88,32.3Z" transform="translate(0 0.07)"/><path class="cls-2" d="M50.25,17.94c-.34-1.21-2.09-2.1-4.17-2.06-1.92,0-3.51.86-4,1.93-1.67.37-2.86,1.34-2.83,2.47,0,1.4,1.92,2.49,4.22,2.45a6.14,6.14,0,0,0,2.45-.54,5.8,5.8,0,0,0,3,.68c2.3-.05,4.15-1.22,4.11-2.62C53,19.17,51.83,18.26,50.25,17.94Z" transform="translate(0 0.07)"/><path class="cls-2" d="M29,25.21c-.48-1.72-3-3-5.94-2.93-2.73,0-5,1.21-5.66,2.75-2.38.52-4.08,1.91-4,3.52.05,2,2.74,3.55,6,3.48a8.49,8.49,0,0,0,3.48-.76,8.35,8.35,0,0,0,4.21,1c3.28-.06,5.91-1.73,5.86-3.72C32.88,27,31.25,25.67,29,25.21Z" transform="translate(0 0.07)"/><path class="cls-3" d="M45.16,45.72l.87.37.88.39h0c6,.36,19.21,1.8,19.72,7.62C67.19,47,49.84,45.89,45.16,45.72Z" transform="translate(0 0.07)"/><path class="cls-4" d="M57.52,68.56C57,75,71.21,75.71,74.63,75.78l.73-.67S58.1,75.21,57.52,68.56Z" transform="translate(0 0.07)"/><path class="cls-5" d="M87.54,47.2c0,.13,0,.27,0,.4v.51c0,.16,0,.33,0,.5s0,.32,0,.48v.06c0,.15,0,.29,0,.43a.09.09,0,0,1,0,.05,3.15,3.15,0,0,1,0,.44v.06c0,.15,0,.31,0,.46h0c0,.16,0,.33,0,.49s0,.29,0,.44,0,.36-.07.54,0,.21,0,.31q-.1.76-.24,1.53c0,.13,0,.26-.07.4s0,.26-.08.4,0,.22-.07.34,0,.21-.07.31a3.59,3.59,0,0,1-.08.35c0,.11,0,.22-.07.33-.22.92-.48,1.83-.77,2.73l-.12.37a.25.25,0,0,1,0,.07l-.1.3-.11.31-.11.29-.15.42-.12.31c-.26.67-.54,1.32-.83,2-.05.12-.11.24-.17.37l-.24.51c-.06.12-.12.23-.17.35l-.21.41-.23.44c-.07.14-.15.28-.23.42-.22.42-.46.83-.71,1.24L82,67c-.06.1-.12.2-.19.3l-.22.35-.22.35-.3.44-.19.29-.25.36q-1.08,1.53-2.31,3l-.28.32h0c-.11.12-.21.24-.32.35l-.25.29-.14.14c-.11.13-.23.25-.35.38l-.24.25-.35.36c-.33.34-.67.67-1,1,0,0-17.26.1-17.84-6.55-.17-2,1.14-4.56,4.84-7.93,2.86-2.6,4.13-4.75,4.27-6.53h0c.56-7.1-16.79-8.21-21.47-8.38l.87.37.88.39h0a24.89,24.89,0,0,1,6.61,4l.31.31A3.5,3.5,0,0,1,55,53.6C54.43,58.06,41.89,61.19,35.14,66c-8,5.75-10.93,15.4,11.25,20.56H45.25A42.9,42.9,0,0,1,23,80,41.13,41.13,0,0,1,13.72,72,38.48,38.48,0,0,1,5.93,57.45a37.41,37.41,0,0,1-1.31-7.66c0-.78-.08-1.57-.08-2.36,0-.49,0-1,0-1.46,11.13-7.38,24.83-6.69,39.84-.57C46.91,43.63,61.58,34.54,87.29,43A38.64,38.64,0,0,1,87.54,47.2Z" transform="translate(0 0.07)"/><path class="cls-3" d="M35.14,66c-8,5.75-10.93,15.4,11.25,20.56h.13c-21.84-5.06-19-14.52-11.07-20.16,7-5,20.21-8.11,19.57-12.83C54.43,58.06,41.89,61.19,35.14,66Z" transform="translate(0 0.07)"/><path class="cls-2" d="M74.63,75.78A42.64,42.64,0,0,1,46.52,86.59c-21.84-5.06-19-14.52-11.07-20.16,7-5,20.21-8.11,19.57-12.83.26-2-1.9-4.29-8.11-7.12,6,.36,19.21,1.8,19.72,7.62h0c-.14,1.78-1.41,3.93-4.27,6.53-3.7,3.37-5,5.95-4.84,7.93C57,75,71.21,75.71,74.63,75.78Z" transform="translate(0 0.07)"/><path class="cls-2" d="M38.57,32.32a5.37,5.37,0,0,0-.4,10.74V41l-2.1-2,.4-.29,1.7,1.62V38l-2.11-2,.4-.3,1.71,1.64v-2H39v2l1.68-1.61.4.3L39,38v2.38l1.69-1.49.38.31L39,41v2a5.37,5.37,0,0,0-.4-10.74Z" transform="translate(0 0.07)"/><rect class="cls-3" x="38.14" y="42.67" width="0.91" height="6.12"/><path class="cls-3" d="M34.52,47.48a5.37,5.37,0,0,0-.4,10.74v-2l-2.1-2,.4-.29,1.7,1.62v-2.3l-2.11-2,.4-.3,1.71,1.64v-2h.79v1.95l1.68-1.61.4.3-2.08,2v2.38l1.7-1.49.38.31-2.08,1.83v2a5.37,5.37,0,0,0-.39-10.74Z" transform="translate(0 0.07)"/><rect class="cls-3" x="34.09" y="57.83" width="0.91" height="6.12"/><path class="cls-3" d="M24.92,62.48a5.37,5.37,0,0,0-.4,10.73v-2l-2.09-2,.4-.29,1.69,1.62v-2.3l-2.1-2,.39-.3,1.71,1.64v-2h.8v2L27,65.86l.4.3-2.08,2v2.38L27,69l.39.31-2.08,1.83v2a5.37,5.37,0,0,0-.4-10.73Z" transform="translate(0 0.07)"/><rect class="cls-3" x="24.49" y="72.82" width="0.91" height="6.12"/><path class="cls-2" d="M54.9,30.1a5.37,5.37,0,0,0-.4,10.73v-2l-2.09-2,.4-.29L54.5,38.1V35.8l-2.1-2,.4-.3,1.7,1.64v-2h.8v2L57,33.48l.4.3-2.08,2v2.38L57,36.66l.38.31L55.3,38.8v2a5.37,5.37,0,0,0-.4-10.73Z" transform="translate(0 0.07)"/><rect class="cls-3" x="54.47" y="40.44" width="0.91" height="6.12"/><path class="cls-3" d="M39.59,68.67c-5.93,4.26-8.1,11.4,8.33,15.22H48C31.84,80.15,34,73.14,39.82,69c5.15-3.69,15-6,14.48-9.51C53.87,62.77,44.58,65.09,39.59,68.67Z" transform="translate(0 0.07)"/><path class="cls-3" d="M51.08,47.55l.55.29.56.3h0c3.94.58,12.59,2.27,12.6,6.07C65.56,49.65,54.16,47.93,51.08,47.55Z" transform="translate(0 0.07)"/><path class="cls-3" d="M46.92,69.8c-4.79,3.44-6.54,9.21,6.72,12.29h.08c-13.06-3-11.34-8.68-6.62-12,4.16-3,12.08-4.85,11.7-7.68C58.45,65,51,66.91,46.92,69.8Z" transform="translate(0 0.07)"/><path class="cls-3" d="M66.38,55.72A5.37,5.37,0,0,0,66,66.46v-2l-2.1-2,.4-.29L66,63.73v-2.3l-2.11-2,.4-.3L66,60.75v-2h.79v1.95l1.68-1.61.4.3-2.08,2v2.38l1.7-1.49.38.31-2.08,1.83v2a5.37,5.37,0,0,0-.39-10.74Z" transform="translate(0 0.07)"/><rect class="cls-3" x="65.95" y="66.07" width="0.91" height="6.12"/><path class="cls-2" d="M46-.07A46,46,0,1,1,13.46,13.39,45.77,45.77,0,0,1,46-.07ZM74,17.78a39.73,39.73,0,1,0,11.64,28.1A39.64,39.64,0,0,0,74,17.78Z" transform="translate(0 0.07)"/></svg>