<svg id="Capa_1" data-name="Capa 1" xmlns="http://www.w3.org/2000/svg" viewBox="0 0 91.9 91.9"><defs><style>.cls-1{fill:#fff;fill-rule:evenodd;}.cls-2,.cls-4{fill:#3b819b;}.cls-3{fill:#eff3f4;}.cls-4{stroke:#fff;stroke-miterlimit:10;}</style></defs><path class="cls-1" d="M47.85,4.75A42.84,42.84,0,1,1,5,47.59,42.84,42.84,0,0,1,47.85,4.75Z"/><path class="cls-2" d="M46,0A46,46,0,1,1,13.46,13.46,45.77,45.77,0,0,1,46,0ZM74,17.86A39.71,39.71,0,1,0,85.68,46,39.6,39.6,0,0,0,74,17.86Z"/><path class="cls-2" d="M15.57,59.78l3.07,3q.39,3.4.77,6.8l10,6,11.51-6c1.53-2.77,3.07-7,4.6-9.82C35.53,59.28,25.55,60.29,15.57,59.78Z"/><path class="cls-3" d="M23.71,67a2.56,2.56,0,0,0,1.9-.88,2.21,2.21,0,0,1,3.39,0,2.52,2.52,0,0,0,1.89.88,2.56,2.56,0,0,0,1.9-.88,2.21,2.21,0,0,1,3.39,0,2.49,2.49,0,0,0,3.8,0,2.22,2.22,0,0,1,1.69-.79v-.84a2.56,2.56,0,0,0-1.9.88,2.21,2.21,0,0,1-3.39,0,2.48,2.48,0,0,0-3.79,0,2.21,2.21,0,0,1-3.39,0,2.49,2.49,0,0,0-3.8,0,2.2,2.2,0,0,1-3.38,0,2.56,2.56,0,0,0-1.9-.88v.84a2.22,2.22,0,0,1,1.69.79A2.56,2.56,0,0,0,23.71,67Z"/><path class="cls-3" d="M23.71,63.41a2.56,2.56,0,0,0,1.9-.88,2.2,2.2,0,0,1,3.39,0,2.52,2.52,0,0,0,1.89.88,2.56,2.56,0,0,0,1.9-.88,2.2,2.2,0,0,1,3.39,0,2.49,2.49,0,0,0,3.8,0,2.22,2.22,0,0,1,1.69-.8V60.9a2.53,2.53,0,0,0-1.9.88,2.21,2.21,0,0,1-3.39,0,2.48,2.48,0,0,0-3.79,0,2.21,2.21,0,0,1-3.39,0,2.49,2.49,0,0,0-3.8,0,2.2,2.2,0,0,1-3.38,0,2.53,2.53,0,0,0-1.9-.88v.83a2.22,2.22,0,0,1,1.69.8A2.56,2.56,0,0,0,23.71,63.41Z"/><path class="cls-2" d="M62.85,57.41v-4.3a9.59,9.59,0,0,0,3.78-7.61A9.83,9.83,0,0,0,47,45.5a9.59,9.59,0,0,0,3.78,7.61v4.3H40.16v2.23H73.44V57.41Zm3-11.91a2.27,2.27,0,1,1-2.27-2.24A2.25,2.25,0,0,1,65.88,45.5Zm-4.54-6.7A2.23,2.23,0,1,1,59.07,41,2.25,2.25,0,0,1,61.34,38.8ZM56.8,36.57a2.23,2.23,0,1,1-2.27,2.23A2.25,2.25,0,0,1,56.8,36.57ZM51.51,52.2A2.24,2.24,0,1,1,53.77,50,2.25,2.25,0,0,1,51.51,52.2Zm0-8.94A2.23,2.23,0,1,1,53.77,41,2.24,2.24,0,0,1,51.51,43.26ZM56.8,54.43a2.24,2.24,0,1,1,2.27-2.23A2.25,2.25,0,0,1,56.8,54.43ZM59.07,50a2.27,2.27,0,1,1,2.27,2.24A2.25,2.25,0,0,1,59.07,50Z"/><ellipse class="cls-3" cx="49.24" cy="45.5" rx="2.27" ry="2.23"/><path class="cls-2" d="M72.1,18.7h-23A2.09,2.09,0,0,0,47,20.77V32.1h-3v2.23h3v9.1a2.09,2.09,0,0,0,2.1,2.07h.33a2.1,2.1,0,0,0,2.11-2.07v-9.1h2.26V32.1H51.51V23.17H72.1a2.09,2.09,0,0,0,2.1-2.07v-.33A2.09,2.09,0,0,0,72.1,18.7Z"/><path class="cls-4" d="M56.8,43.26H29.22a1.91,1.91,0,0,0-1.92,1.89v.35h0V66.68a1.9,1.9,0,0,0,1.92,1.89h.7a1.9,1.9,0,0,0,1.92-1.89v-19h25a2.24,2.24,0,1,0,0-4.47Z"/></svg>