<svg id="Capa_1" data-name="Capa 1" xmlns="http://www.w3.org/2000/svg" xmlns:xlink="http://www.w3.org/1999/xlink" viewBox="0 0 91.9 91.9"><defs><style>.cls-1{fill:none;}.cls-2{fill:#fff;fill-rule:evenodd;}.cls-3{fill:#3b819b;}.cls-4{clip-path:url(#clip-path);}</style><clipPath id="clip-path"><path class="cls-1" d="M42.41,28.2V59.59h.15c1.14-1.1,9.14-1.94,18.85-1.94s17.72.84,18.86,1.94h.14V28.2Z"/></clipPath></defs><path class="cls-2" d="M47.85,4.75A42.84,42.84,0,1,1,5,47.59,42.84,42.84,0,0,1,47.85,4.75Z"/><path class="cls-3" d="M46,0A46,46,0,1,1,13.46,13.46,45.77,45.77,0,0,1,46,0ZM74,17.86A39.71,39.71,0,1,0,85.68,46,39.6,39.6,0,0,0,74,17.86Z"/><path class="cls-3" d="M43.41,74.25H42.17L42,71.9H20.72c-.2.8-.37,1.56-.6,2.31a3.27,3.27,0,0,1-.82,0c1.75-11.29,3.49-22.47,5.23-33.69l-2.86-1.08,0-.23H41.36a18.47,18.47,0,0,0-2.31,1c-.39.24-.89.73-.85,1.05.37,2.82.85,5.63,1.28,8.44.65,4.19,1.26,8.39,2,12.58.62,3.79,1.32,7.56,2,11.34ZM22,71H40.79c-2.44-1.44-4.73-2.57-6.72-4s-3.42-1.36-5.34,0S24.46,69.52,22,71Zm.51-10.68L20.92,70.5l9.54-5.58Zm17.66.1-7.83,4.53,9.31,5.43C41.13,67,40.67,63.86,40.15,60.39Zm-16.61-1H38.87l-7.7-4.94Zm14.81-9.65L32,53.91l8,5.16ZM22.7,58.38l.4.19,7.27-4.69-6.21-4ZM37.75,49.2c-1.59-1.09-2.79-2-4-2.76-2.39-1.51-2.43-1.51-4.79,0-1.28.81-2.5,1.7-4.08,2.78Zm.43,11.25H24.6c2.27,1.29,4.16,2.4,6.11,3.43a1.82,1.82,0,0,0,1.41,0C34.05,62.86,35.93,61.74,38.18,60.45Zm-7.55-16L25.45,41,24.3,48.59Zm7.66,4.19-1.19-7.7L32,44.43Zm-1.76,1.3H25.91l5.26,3.43Zm-1.65-8.5H27.49l.65.42C31.46,44.14,31.46,44.14,34.88,41.42Z"/><path class="cls-3" d="M21.74,18.6h19.1V38.72H21.74Z"/><path class="cls-3" d="M41.43,17.87H21.35c3.24-1.91,6.18-3.67,9.17-5.38a1.8,1.8,0,0,1,1.42-.05C35,14.14,38,15.91,41.43,17.87Z"/><ellipse class="cls-3" cx="61.41" cy="61.51" rx="19" ry="3.04"/><g class="cls-4"><path class="cls-3" d="M51.84,42.07a4.37,4.37,0,0,0-.32,8.74V49.14l-1.68-1.63.32-.24,1.36,1.32V46.72l-1.69-1.65.32-.24,1.37,1.33V44.55h.64v1.59l1.35-1.31.32.24-1.67,1.62v1.94l1.36-1.22.3.26-1.66,1.49v1.65a4.37,4.37,0,0,0-.32-8.74Z"/><path class="cls-3" d="M52.16,52.75V50.3h-.64V54l.64,0Z"/><path class="cls-3" d="M67,32.33a5.88,5.88,0,0,0-.43,11.76V41.84l-2.27-2.2.43-.32,1.84,1.78V38.58l-2.28-2.21.43-.33,1.85,1.79V35.66h.86v2.15L69.24,36l.43.33-2.24,2.18v2.6l1.83-1.63.41.34-2.24,2v2.23A5.89,5.89,0,0,0,67,32.33Z"/><path class="cls-3" d="M53.8,53.82c-.56,0-1.1,0-1.64.09l-.64.07c-4.34.6-7.84,2.85-9.11,5.78h13a13.55,13.55,0,0,1,3-5.3A16.24,16.24,0,0,0,53.8,53.82Z"/><path class="cls-3" d="M73,51.56c-8.36,1.74-8.52,8.2-8.52,8.2H79.77A13.18,13.18,0,0,0,73,51.56Z"/><path class="cls-3" d="M69.21,50.42a12.5,12.5,0,0,0-1.63-.12h-.15a8.12,8.12,0,0,0-.86,0,12.47,12.47,0,0,0-8.22,4.11,13.55,13.55,0,0,0-3,5.3h4.85C60.54,52.65,68.93,50.49,69.21,50.42Z"/><path class="cls-3" d="M72.62,51.39l0,0Z"/><path class="cls-3" d="M73,51.56h0l-.3-.15,0,0a10.08,10.08,0,0,0-3.4-1h0c-.28.07-8.67,2.23-9,9.34h4.19S64.6,53.3,73,51.56Z"/><rect class="cls-3" x="66.53" y="43.59" width="0.98" height="6.71"/></g></svg>