<?xml version="1.0" encoding="utf-8"?>
<!-- Generator: Adobe Illustrator 24.1.1, SVG Export Plug-In . SVG Version: 6.00 Build 0)  -->
<svg version="1.1" id="Capa_1" xmlns="http://www.w3.org/2000/svg" xmlns:xlink="http://www.w3.org/1999/xlink" x="0px" y="0px"
	 viewBox="0 0 91.9 91.9" style="enable-background:new 0 0 91.9 91.9;" xml:space="preserve">
<style type="text/css">
	.st0{fill-rule:evenodd;clip-rule:evenodd;fill:#FFFFFF;}
	.st1{fill:#3B819B;}
</style>
<path class="st0" d="M45.95,1.9c23.66,0,42.84,19.18,42.84,42.84c0,23.66-19.18,42.84-42.84,42.84c-23.66,0-42.84-19.18-42.84-42.84
	C3.11,21.08,22.29,1.9,45.95,1.9L45.95,1.9z"/>
<path class="st1" d="M45.95,0c12.69,0,24.18,5.14,32.49,13.46c8.31,8.31,13.46,19.8,13.46,32.49c0,12.69-5.14,24.18-13.46,32.49
	c-8.31,8.31-19.8,13.46-32.49,13.46s-24.17-5.14-32.49-13.46C5.14,70.12,0,58.64,0,45.95c0-12.69,5.14-24.18,13.46-32.49
	C21.77,5.14,33.26,0,45.95,0L45.95,0z M74.04,17.86C66.85,10.67,56.92,6.22,45.95,6.22c-10.97,0-20.9,4.45-28.09,11.64
	C10.67,25.04,6.22,34.98,6.22,45.95c0,10.97,4.45,20.9,11.64,28.09c7.19,7.19,17.12,11.64,28.09,11.64
	c10.97,0,20.9-4.45,28.09-11.64c7.19-7.19,11.64-17.12,11.64-28.09C85.68,34.98,81.23,25.04,74.04,17.86L74.04,17.86z"/>
<g>
	<g>
		<g>
			<polygon class="st1" points="75.02,68.63 67.51,61.7 67.32,32.71 74.62,23.38 75.91,24.39 68.96,33.27 69.15,60.98 76.13,67.42 
							"/>
		</g>
		<g>
			<g>
				<g>
					<rect x="28.79" y="38.35" class="st1" width="11.06" height="0.3"/>
				</g>
				<g>
					<rect x="28.79" y="39.93" class="st1" width="11.06" height="0.3"/>
				</g>
				<g>
					<rect x="28.79" y="41.51" class="st1" width="11.06" height="0.3"/>
				</g>
				<g>
					<rect x="28.79" y="43.09" class="st1" width="11.06" height="0.3"/>
				</g>
				<g>
					<rect x="28.79" y="44.67" class="st1" width="11.06" height="0.3"/>
				</g>
				<g>
					<rect x="28.79" y="46.25" class="st1" width="11.06" height="0.3"/>
				</g>
				<g>
					<rect x="28.79" y="47.83" class="st1" width="11.06" height="0.3"/>
				</g>
				<g>
					<rect x="28.79" y="49.41" class="st1" width="11.06" height="0.3"/>
				</g>
				<g>
					<rect x="39.66" y="38.5" class="st1" width="0.3" height="11.06"/>
				</g>
				<g>
					<rect x="38.08" y="38.5" class="st1" width="0.3" height="11.06"/>
				</g>
				<g>
					<rect x="36.5" y="38.5" class="st1" width="0.3" height="11.06"/>
				</g>
				<g>
					<rect x="34.92" y="38.5" class="st1" width="0.3" height="11.06"/>
				</g>
				<g>
					<rect x="33.34" y="38.5" class="st1" width="0.3" height="11.06"/>
				</g>
				<g>
					<rect x="31.76" y="38.5" class="st1" width="0.3" height="11.06"/>
				</g>
				<g>
					<rect x="30.18" y="38.5" class="st1" width="0.3" height="11.06"/>
				</g>
				<g>
					<rect x="28.6" y="38.5" class="st1" width="0.3" height="11.06"/>
				</g>
			</g>
			<g>
				<g>
					<rect x="41.52" y="38.35" class="st1" width="11.06" height="0.3"/>
				</g>
				<g>
					<rect x="41.52" y="39.93" class="st1" width="11.06" height="0.3"/>
				</g>
				<g>
					<rect x="41.52" y="41.51" class="st1" width="11.06" height="0.3"/>
				</g>
				<g>
					<rect x="41.52" y="43.09" class="st1" width="11.06" height="0.3"/>
				</g>
				<g>
					<rect x="41.52" y="44.67" class="st1" width="11.06" height="0.3"/>
				</g>
				<g>
					<rect x="41.52" y="46.25" class="st1" width="11.06" height="0.3"/>
				</g>
				<g>
					<rect x="41.52" y="47.83" class="st1" width="11.06" height="0.3"/>
				</g>
				<g>
					<rect x="41.52" y="49.41" class="st1" width="11.06" height="0.3"/>
				</g>
				<g>
					<rect x="52.39" y="38.5" class="st1" width="0.3" height="11.06"/>
				</g>
				<g>
					<rect x="50.81" y="38.5" class="st1" width="0.3" height="11.06"/>
				</g>
				<g>
					<rect x="49.23" y="38.5" class="st1" width="0.3" height="11.06"/>
				</g>
				<g>
					<rect x="47.65" y="38.5" class="st1" width="0.3" height="11.06"/>
				</g>
				<g>
					<rect x="46.07" y="38.5" class="st1" width="0.3" height="11.06"/>
				</g>
				<g>
					<rect x="44.49" y="38.5" class="st1" width="0.3" height="11.06"/>
				</g>
				<g>
					<rect x="42.91" y="38.5" class="st1" width="0.3" height="11.06"/>
				</g>
				<g>
					<rect x="41.33" y="38.5" class="st1" width="0.3" height="11.06"/>
				</g>
			</g>
			<g>
				<g>
					<rect x="54.07" y="38.35" class="st1" width="11.06" height="0.3"/>
				</g>
				<g>
					<rect x="54.07" y="39.93" class="st1" width="11.06" height="0.3"/>
				</g>
				<g>
					<rect x="54.07" y="41.51" class="st1" width="11.06" height="0.3"/>
				</g>
				<g>
					<rect x="54.07" y="43.09" class="st1" width="11.06" height="0.3"/>
				</g>
				<g>
					<rect x="54.07" y="44.67" class="st1" width="11.06" height="0.3"/>
				</g>
				<g>
					<rect x="54.07" y="46.25" class="st1" width="11.06" height="0.3"/>
				</g>
				<g>
					<rect x="54.07" y="47.83" class="st1" width="11.06" height="0.3"/>
				</g>
				<g>
					<rect x="54.07" y="49.41" class="st1" width="11.06" height="0.3"/>
				</g>
				<g>
					<rect x="64.94" y="38.5" class="st1" width="0.3" height="11.06"/>
				</g>
				<g>
					<rect x="63.36" y="38.5" class="st1" width="0.3" height="11.06"/>
				</g>
				<g>
					<rect x="61.78" y="38.5" class="st1" width="0.3" height="11.06"/>
				</g>
				<g>
					<rect x="60.2" y="38.5" class="st1" width="0.3" height="11.06"/>
				</g>
				<g>
					<rect x="58.62" y="38.5" class="st1" width="0.3" height="11.06"/>
				</g>
				<g>
					<rect x="57.04" y="38.5" class="st1" width="0.3" height="11.06"/>
				</g>
				<g>
					<rect x="55.46" y="38.5" class="st1" width="0.3" height="11.06"/>
				</g>
				<g>
					<rect x="53.88" y="38.5" class="st1" width="0.3" height="11.06"/>
				</g>
			</g>
		</g>
		<g>
			<polygon class="st1" points="18.46,68.59 17.35,67.38 24.33,60.94 24.51,33.23 17.57,24.35 18.86,23.34 26.16,32.67 25.97,61.66 
							"/>
		</g>
		<g>
			<g>
				<path class="st1" d="M52.84,37.41c0.46-0.64,0.94-1.29,0.94-2.6c0-1.3-0.48-1.96-0.94-2.6c-0.44-0.6-0.85-1.16-0.85-2.32
					c0-1.16,0.41-1.72,0.85-2.32c0.46-0.64,0.94-1.29,0.94-2.6c0-1.3-0.48-1.96-0.94-2.6c-0.44-0.6-0.85-1.16-0.85-2.32
					c0-1.16,0.41-1.72,0.85-2.32c0.46-0.64,0.94-1.29,0.94-2.6c0-1.3-0.48-1.96-0.94-2.6c-0.44-0.6-0.85-1.17-0.85-2.32H51.1
					c0,1.3,0.48,1.96,0.94,2.6c0.44,0.6,0.85,1.17,0.85,2.32c0,1.16-0.41,1.72-0.85,2.32c-0.46,0.64-0.94,1.29-0.94,2.6
					c0,1.3,0.48,1.96,0.94,2.6c0.44,0.6,0.85,1.16,0.85,2.32c0,1.16-0.41,1.72-0.85,2.32c-0.46,0.64-0.94,1.29-0.94,2.6
					c0,1.3,0.48,1.96,0.94,2.6c0.44,0.6,0.85,1.16,0.85,2.32c0,1.16-0.41,1.72-0.85,2.32c-0.46,0.64-0.94,1.29-0.94,2.6h0.89
					C51.99,38.57,52.4,38,52.84,37.41z"/>
			</g>
			<g>
				<path class="st1" d="M49.98,34.81c0-1.3-0.48-1.96-0.94-2.6c-0.44-0.6-0.85-1.16-0.85-2.32c0-1.16,0.41-1.72,0.85-2.32
					c0.46-0.64,0.94-1.29,0.94-2.6c0-1.3-0.48-1.96-0.94-2.6c-0.44-0.6-0.85-1.16-0.85-2.32c0-1.16,0.41-1.72,0.85-2.32
					c0.46-0.64,0.94-1.29,0.94-2.6c0-1.3-0.48-1.96-0.94-2.6c-0.44-0.6-0.85-1.17-0.85-2.32h-0.89c0,1.3,0.48,1.96,0.94,2.6
					c0.44,0.6,0.85,1.17,0.85,2.32c0,1.16-0.41,1.72-0.85,2.32c-0.46,0.64-0.94,1.29-0.94,2.6c0,1.3,0.48,1.96,0.94,2.6
					c0.44,0.6,0.85,1.16,0.85,2.32c0,1.16-0.41,1.72-0.85,2.32c-0.46,0.64-0.94,1.29-0.94,2.6c0,1.3,0.48,1.96,0.94,2.6
					c0.44,0.6,0.85,1.16,0.85,2.32c0,1.16-0.41,1.72-0.85,2.32c-0.46,0.64-0.94,1.29-0.94,2.6h0.89c0-1.16,0.41-1.72,0.85-2.32
					C49.5,36.77,49.98,36.11,49.98,34.81z"/>
			</g>
			<g>
				<path class="st1" d="M46.17,34.81c0-1.3-0.48-1.96-0.94-2.6c-0.44-0.6-0.85-1.16-0.85-2.32c0-1.16,0.41-1.72,0.85-2.32
					c0.46-0.64,0.94-1.29,0.94-2.6c0-1.3-0.48-1.96-0.94-2.6c-0.44-0.6-0.85-1.16-0.85-2.32c0-1.16,0.41-1.72,0.85-2.32
					c0.46-0.64,0.94-1.29,0.94-2.6c0-1.3-0.48-1.96-0.94-2.6c-0.44-0.6-0.85-1.17-0.85-2.32h-0.89c0,1.3,0.48,1.96,0.94,2.6
					c0.44,0.6,0.85,1.17,0.85,2.32c0,1.16-0.41,1.72-0.85,2.32c-0.46,0.64-0.94,1.29-0.94,2.6c0,1.3,0.48,1.96,0.94,2.6
					c0.44,0.6,0.85,1.16,0.85,2.32c0,1.16-0.41,1.72-0.85,2.32c-0.46,0.64-0.94,1.29-0.94,2.6c0,1.3,0.48,1.96,0.94,2.6
					c0.44,0.6,0.85,1.16,0.85,2.32c0,1.16-0.41,1.72-0.85,2.32c-0.46,0.64-0.94,1.29-0.94,2.6h0.89c0-1.16,0.41-1.72,0.85-2.32
					C45.69,36.77,46.17,36.11,46.17,34.81z"/>
			</g>
			<g>
				<path class="st1" d="M42.37,34.81c0-1.3-0.48-1.96-0.94-2.6c-0.44-0.6-0.85-1.16-0.85-2.32c0-1.16,0.41-1.72,0.85-2.32
					c0.46-0.64,0.94-1.29,0.94-2.6c0-1.3-0.48-1.96-0.94-2.6c-0.44-0.6-0.85-1.16-0.85-2.32c0-1.16,0.41-1.72,0.85-2.32
					c0.46-0.64,0.94-1.29,0.94-2.6c0-1.3-0.48-1.96-0.94-2.6c-0.44-0.6-0.85-1.17-0.85-2.32h-0.89c0,1.3,0.48,1.96,0.94,2.6
					c0.44,0.6,0.85,1.17,0.85,2.32c0,1.16-0.41,1.72-0.85,2.32c-0.46,0.64-0.94,1.29-0.94,2.6c0,1.3,0.48,1.96,0.94,2.6
					c0.44,0.6,0.85,1.16,0.85,2.32c0,1.16-0.41,1.72-0.85,2.32c-0.46,0.64-0.94,1.29-0.94,2.6c0,1.3,0.48,1.96,0.94,2.6
					c0.44,0.6,0.85,1.16,0.85,2.32c0,1.16-0.41,1.72-0.85,2.32c-0.46,0.64-0.94,1.29-0.94,2.6h0.89c0-1.16,0.41-1.72,0.85-2.32
					C41.89,36.77,42.37,36.11,42.37,34.81z"/>
			</g>
		</g>
		<g>
			<g>
				<path class="st1" d="M52.84,75.84c0.46-0.73,0.94-1.48,0.94-2.97c0-1.49-0.48-2.24-0.94-2.97c-0.44-0.69-0.85-1.33-0.85-2.66
					c0-1.32,0.41-1.97,0.85-2.66c0.46-0.73,0.94-1.48,0.94-2.97c0-1.49-0.48-2.24-0.94-2.97c-0.44-0.69-0.85-1.33-0.85-2.66
					c0-1.32,0.41-1.97,0.85-2.66c0.46-0.73,0.94-1.48,0.94-2.97c0-1.49-0.48-2.24-0.94-2.97c-0.44-0.69-0.85-1.33-0.85-2.66H51.1
					c0,1.49,0.48,2.24,0.94,2.97c0.44,0.69,0.85,1.33,0.85,2.66c0,1.32-0.41,1.97-0.85,2.66c-0.46,0.73-0.94,1.48-0.94,2.97
					c0,1.49,0.48,2.24,0.94,2.97c0.44,0.69,0.85,1.33,0.85,2.66c0,1.32-0.41,1.97-0.85,2.66c-0.46,0.73-0.94,1.48-0.94,2.97
					s0.48,2.24,0.94,2.97c0.44,0.69,0.85,1.33,0.85,2.66c0,1.32-0.41,1.97-0.85,2.66c-0.46,0.73-0.94,1.48-0.94,2.97h0.89
					C51.99,77.17,52.4,76.52,52.84,75.84z"/>
			</g>
			<g>
				<path class="st1" d="M49.98,72.87c0-1.49-0.48-2.24-0.94-2.97c-0.44-0.69-0.85-1.33-0.85-2.66c0-1.32,0.41-1.97,0.85-2.66
					c0.46-0.73,0.94-1.48,0.94-2.97c0-1.49-0.48-2.24-0.94-2.97c-0.44-0.69-0.85-1.33-0.85-2.66c0-1.32,0.41-1.97,0.85-2.66
					c0.46-0.73,0.94-1.48,0.94-2.97c0-1.49-0.48-2.24-0.94-2.97c-0.44-0.69-0.85-1.33-0.85-2.66h-0.89c0,1.49,0.48,2.24,0.94,2.97
					c0.44,0.69,0.85,1.33,0.85,2.66c0,1.32-0.41,1.97-0.85,2.66c-0.46,0.73-0.94,1.48-0.94,2.97c0,1.49,0.48,2.24,0.94,2.97
					c0.44,0.69,0.85,1.33,0.85,2.66c0,1.32-0.41,1.97-0.85,2.66c-0.46,0.73-0.94,1.48-0.94,2.97s0.48,2.24,0.94,2.97
					c0.44,0.69,0.85,1.33,0.85,2.66c0,1.32-0.41,1.97-0.85,2.66c-0.46,0.73-0.94,1.48-0.94,2.97h0.89c0-1.32,0.41-1.97,0.85-2.66
					C49.5,75.11,49.98,74.36,49.98,72.87z"/>
			</g>
			<g>
				<path class="st1" d="M46.17,72.87c0-1.49-0.48-2.24-0.94-2.97c-0.44-0.69-0.85-1.33-0.85-2.66c0-1.32,0.41-1.97,0.85-2.66
					c0.46-0.73,0.94-1.48,0.94-2.97c0-1.49-0.48-2.24-0.94-2.97c-0.44-0.69-0.85-1.33-0.85-2.66c0-1.32,0.41-1.97,0.85-2.66
					c0.46-0.73,0.94-1.48,0.94-2.97c0-1.49-0.48-2.24-0.94-2.97c-0.44-0.69-0.85-1.33-0.85-2.66h-0.89c0,1.49,0.48,2.24,0.94,2.97
					c0.44,0.69,0.85,1.33,0.85,2.66c0,1.32-0.41,1.97-0.85,2.66c-0.46,0.73-0.94,1.48-0.94,2.97c0,1.49,0.48,2.24,0.94,2.97
					c0.44,0.69,0.85,1.33,0.85,2.66c0,1.32-0.41,1.97-0.85,2.66c-0.46,0.73-0.94,1.48-0.94,2.97s0.48,2.24,0.94,2.97
					c0.44,0.69,0.85,1.33,0.85,2.66c0,1.32-0.41,1.97-0.85,2.66c-0.46,0.73-0.94,1.48-0.94,2.97h0.89c0-1.32,0.41-1.97,0.85-2.66
					C45.69,75.11,46.17,74.36,46.17,72.87z"/>
			</g>
			<g>
				<path class="st1" d="M42.37,72.87c0-1.49-0.48-2.24-0.94-2.97c-0.44-0.69-0.85-1.33-0.85-2.66c0-1.32,0.41-1.97,0.85-2.66
					c0.46-0.73,0.94-1.48,0.94-2.97c0-1.49-0.48-2.24-0.94-2.97c-0.44-0.69-0.85-1.33-0.85-2.66c0-1.32,0.41-1.97,0.85-2.66
					c0.46-0.73,0.94-1.48,0.94-2.97c0-1.49-0.48-2.24-0.94-2.97c-0.44-0.69-0.85-1.33-0.85-2.66h-0.89c0,1.49,0.48,2.24,0.94,2.97
					c0.44,0.69,0.85,1.33,0.85,2.66c0,1.32-0.41,1.97-0.85,2.66c-0.46,0.73-0.94,1.48-0.94,2.97c0,1.49,0.48,2.24,0.94,2.97
					c0.44,0.69,0.85,1.33,0.85,2.66c0,1.32-0.41,1.97-0.85,2.66c-0.46,0.73-0.94,1.48-0.94,2.97s0.48,2.24,0.94,2.97
					c0.44,0.69,0.85,1.33,0.85,2.66c0,1.32-0.41,1.97-0.85,2.66c-0.46,0.73-0.94,1.48-0.94,2.97h0.89c0-1.32,0.41-1.97,0.85-2.66
					C41.89,75.11,42.37,74.36,42.37,72.87z"/>
			</g>
		</g>
	</g>
</g>
</svg>
