<svg xmlns="http://www.w3.org/2000/svg" viewBox="0 0 91.9 91.9"><defs><style>.cls-1{isolation:isolate;}.cls-2{fill:#fff;fill-rule:evenodd;}.cls-3{fill:#3b819b;}.cls-4{mix-blend-mode:multiply;}</style></defs><g class="cls-1"><g id="Capa_1" data-name="Capa 1"><path class="cls-2" d="M47.85,4.75A42.84,42.84,0,1,1,5,47.59,42.84,42.84,0,0,1,47.85,4.75Z"/><path class="cls-3" d="M46,0A46,46,0,1,1,13.46,13.46,45.77,45.77,0,0,1,46,0ZM74,17.86A39.71,39.71,0,1,0,85.68,46,39.6,39.6,0,0,0,74,17.86Z"/><g class="cls-4"><rect class="cls-3" x="34.68" y="32.42" width="0.24" height="9.12"/><rect class="cls-3" x="33.37" y="32.42" width="0.24" height="9.12"/><rect class="cls-3" x="32.07" y="32.42" width="0.24" height="9.12"/><rect class="cls-3" x="30.77" y="32.42" width="0.24" height="9.12"/><rect class="cls-3" x="29.47" y="32.42" width="0.24" height="9.12"/><rect class="cls-3" x="28.16" y="32.42" width="0.24" height="9.12"/><rect class="cls-3" x="26.86" y="32.42" width="0.24" height="9.12"/><rect class="cls-3" x="25.56" y="32.42" width="0.24" height="9.12"/><rect class="cls-3" x="25.68" y="41.38" width="9.12" height="0.24"/><rect class="cls-3" x="25.68" y="40.08" width="9.12" height="0.24"/><rect class="cls-3" x="25.68" y="38.77" width="9.12" height="0.24"/><rect class="cls-3" x="25.68" y="37.47" width="9.12" height="0.24"/><rect class="cls-3" x="25.68" y="36.17" width="9.12" height="0.24"/><rect class="cls-3" x="25.68" y="34.87" width="9.12" height="0.24"/><rect class="cls-3" x="25.68" y="33.56" width="9.12" height="0.24"/><rect class="cls-3" x="25.68" y="32.26" width="9.12" height="0.24"/><rect class="cls-3" x="34.68" y="42.91" width="0.24" height="9.12"/><rect class="cls-3" x="33.37" y="42.91" width="0.24" height="9.12"/><rect class="cls-3" x="32.07" y="42.91" width="0.24" height="9.12"/><rect class="cls-3" x="30.77" y="42.91" width="0.24" height="9.12"/><rect class="cls-3" x="29.47" y="42.91" width="0.24" height="9.12"/><rect class="cls-3" x="28.16" y="42.91" width="0.24" height="9.12"/><rect class="cls-3" x="26.86" y="42.91" width="0.24" height="9.12"/><rect class="cls-3" x="25.56" y="42.91" width="0.24" height="9.12"/><rect class="cls-3" x="25.68" y="51.87" width="9.12" height="0.24"/><rect class="cls-3" x="25.68" y="50.57" width="9.12" height="0.24"/><rect class="cls-3" x="25.68" y="49.26" width="9.12" height="0.24"/><rect class="cls-3" x="25.68" y="47.96" width="9.12" height="0.24"/><rect class="cls-3" x="25.68" y="46.66" width="9.12" height="0.24"/><rect class="cls-3" x="25.68" y="45.36" width="9.12" height="0.24"/><rect class="cls-3" x="25.68" y="44.05" width="9.12" height="0.24"/><rect class="cls-3" x="25.68" y="42.75" width="9.12" height="0.24"/><rect class="cls-3" x="34.68" y="53.26" width="0.24" height="9.12"/><rect class="cls-3" x="33.37" y="53.26" width="0.24" height="9.12"/><rect class="cls-3" x="32.07" y="53.26" width="0.24" height="9.12"/><rect class="cls-3" x="30.77" y="53.26" width="0.24" height="9.12"/><rect class="cls-3" x="29.47" y="53.26" width="0.24" height="9.12"/><rect class="cls-3" x="28.16" y="53.26" width="0.24" height="9.12"/><rect class="cls-3" x="26.86" y="53.26" width="0.24" height="9.12"/><rect class="cls-3" x="25.56" y="53.26" width="0.24" height="9.12"/><rect class="cls-3" x="25.68" y="62.22" width="9.12" height="0.24"/><rect class="cls-3" x="25.68" y="60.92" width="9.12" height="0.24"/><rect class="cls-3" x="25.68" y="59.62" width="9.12" height="0.24"/><rect class="cls-3" x="25.68" y="58.31" width="9.12" height="0.24"/><rect class="cls-3" x="25.68" y="57.01" width="9.12" height="0.24"/><rect class="cls-3" x="25.68" y="55.71" width="9.12" height="0.24"/><rect class="cls-3" x="25.68" y="54.41" width="9.12" height="0.24"/><rect class="cls-3" x="25.68" y="53.1" width="9.12" height="0.24"/><polygon class="cls-3" points="26.38 73.31 25.07 71.89 33.29 64.31 33.51 31.7 25.34 21.25 26.86 20.07 35.44 31.04 35.22 65.16 26.38 73.31"/><path class="cls-3" d="M55.44,71.32a13.24,13.24,0,0,0,0-11.4,11.7,11.7,0,0,1,0-10.2A12,12,0,0,0,56.73,44a12,12,0,0,0-1.29-5.7,10.57,10.57,0,0,1-1.17-5.1,10.57,10.57,0,0,1,1.17-5.1,12,12,0,0,0,1.29-5.7,12.05,12.05,0,0,0-1.29-5.71,10.54,10.54,0,0,1-1.17-5.1H53.05a11.94,11.94,0,0,0,1.29,5.71,10.52,10.52,0,0,1,1.16,5.1,10.58,10.58,0,0,1-1.16,5.1,11.89,11.89,0,0,0-1.29,5.7,11.86,11.86,0,0,0,1.29,5.7A10.58,10.58,0,0,1,55.5,44a10.58,10.58,0,0,1-1.16,5.1,11.89,11.89,0,0,0-1.29,5.7,11.86,11.86,0,0,0,1.29,5.7,11.79,11.79,0,0,1,0,10.2,11.84,11.84,0,0,0-1.29,5.69h1.22A10.52,10.52,0,0,1,55.44,71.32Z"/><path class="cls-3" d="M51.5,65.62a11.89,11.89,0,0,0-1.29-5.7,10.58,10.58,0,0,1-1.16-5.1,10.58,10.58,0,0,1,1.16-5.1A11.86,11.86,0,0,0,51.5,44a11.89,11.89,0,0,0-1.29-5.7,10.58,10.58,0,0,1-1.16-5.1,10.7,10.7,0,0,1,1.16-5.1,11.89,11.89,0,0,0,1.29-5.7,11.94,11.94,0,0,0-1.29-5.71,10.55,10.55,0,0,1-1.16-5.1H47.82a11.92,11.92,0,0,0,1.3,5.71,10.63,10.63,0,0,1,1.16,5.1,10.7,10.7,0,0,1-1.16,5.1,11.87,11.87,0,0,0-1.3,5.7,11.84,11.84,0,0,0,1.3,5.7A10.7,10.7,0,0,1,50.28,44a10.7,10.7,0,0,1-1.16,5.1,11.87,11.87,0,0,0-1.3,5.7,11.84,11.84,0,0,0,1.3,5.7,11.79,11.79,0,0,1,0,10.2,11.83,11.83,0,0,0-1.3,5.69h1.23a10.54,10.54,0,0,1,1.16-5.09A11.89,11.89,0,0,0,51.5,65.62Z"/><path class="cls-3" d="M46.28,65.62A12,12,0,0,0,45,59.92a10.58,10.58,0,0,1-1.16-5.1A10.58,10.58,0,0,1,45,49.72,12,12,0,0,0,46.28,44,12,12,0,0,0,45,38.32a10.58,10.58,0,0,1-1.16-5.1A10.58,10.58,0,0,1,45,28.12a12,12,0,0,0,1.29-5.7A12.05,12.05,0,0,0,45,16.71a10.55,10.55,0,0,1-1.16-5.1H42.6a12.05,12.05,0,0,0,1.29,5.71,10.52,10.52,0,0,1,1.16,5.1,10.58,10.58,0,0,1-1.16,5.1,12,12,0,0,0-1.29,5.7,12,12,0,0,0,1.29,5.7A10.58,10.58,0,0,1,45.05,44a10.58,10.58,0,0,1-1.16,5.1,12,12,0,0,0-1.29,5.7,12,12,0,0,0,1.29,5.7,11.79,11.79,0,0,1,0,10.2,12,12,0,0,0-1.29,5.69h1.23A10.54,10.54,0,0,1,45,71.32,12,12,0,0,0,46.28,65.62Z"/><path class="cls-3" d="M41.06,65.62a12,12,0,0,0-1.29-5.7,11.7,11.7,0,0,1,0-10.2A12,12,0,0,0,41.06,44a12,12,0,0,0-1.29-5.7,10.57,10.57,0,0,1-1.17-5.1,10.57,10.57,0,0,1,1.17-5.1,12,12,0,0,0,1.29-5.7,12.05,12.05,0,0,0-1.29-5.71,10.54,10.54,0,0,1-1.17-5.1H37.38a11.94,11.94,0,0,0,1.29,5.71,10.52,10.52,0,0,1,1.16,5.1,10.58,10.58,0,0,1-1.16,5.1,11.89,11.89,0,0,0-1.29,5.7,11.86,11.86,0,0,0,1.29,5.7A10.58,10.58,0,0,1,39.83,44a10.58,10.58,0,0,1-1.16,5.1,11.89,11.89,0,0,0-1.29,5.7,11.86,11.86,0,0,0,1.29,5.7,11.79,11.79,0,0,1,0,10.2,11.84,11.84,0,0,0-1.29,5.69H38.6a10.52,10.52,0,0,1,1.17-5.09A12,12,0,0,0,41.06,65.62Z"/><rect class="cls-3" x="60.22" y="24.65" width="2.33" height="48.94"/></g></g></g></svg>