<svg id="Capa_1" data-name="Capa 1" xmlns="http://www.w3.org/2000/svg" viewBox="0 0 91.9 91.9"><defs><style>.cls-1{fill:#fff;fill-rule:evenodd;}.cls-2,.cls-3{fill:#3b819b;}.cls-3{stroke:#fff;stroke-miterlimit:10;stroke-width:0.5px;}</style></defs><path class="cls-1" d="M47.85,4.75A42.84,42.84,0,1,1,5,47.59,42.84,42.84,0,0,1,47.85,4.75Z"/><path class="cls-2" d="M46,0A46,46,0,1,1,13.46,13.46,45.77,45.77,0,0,1,46,0ZM74,17.86A39.71,39.71,0,1,0,85.68,46,39.6,39.6,0,0,0,74,17.86Z"/><path class="cls-2" d="M10.14,43.65l53,13.79A2.74,2.74,0,0,1,65.46,59c.77,1.53.77,3.06-3.07,4.59s-13.07,4.6-13.07,4.6L12.45,54.37,7.84,45.18A1.57,1.57,0,0,1,10.14,43.65Z"/><path class="cls-2" d="M27.05,39.05l54.11,7.56a2.74,2.74,0,0,1,2.31,1.53c.77,1.54.77,3.07-3.08,4.6s-13.06,4.6-13.06,4.6L30.12,48.25l-5.38-7.66A1.58,1.58,0,0,1,27.05,39.05Z"/><polygon class="cls-3" points="56.96 44.67 49.27 24.16 44.33 24.12 51.83 43.81 56.96 44.67"/><polygon class="cls-3" points="29.73 24.12 32.81 24.12 39.02 41.25 35.6 41.25 29.73 24.12"/><polygon class="cls-3" points="12.96 45.95 56.53 57.91 59.09 61.33 56.53 61.33 54.3 58.77 12.96 47.66 12.96 45.95"/><polygon class="cls-3" points="30.65 40.3 76.94 47.61 79.85 50.74 77.3 51.01 74.82 48.71 30.83 42 30.65 40.3"/><polygon class="cls-3" points="52.72 56.86 56.53 57.91 75.44 47.35 71.41 46.74 52.72 56.86"/><polygon class="cls-3" points="13.65 45.79 17.47 46.83 34.8 40.95 30.65 40.3 13.65 45.79"/><polygon class="cls-3" points="29.35 23.74 21.67 47.79 24 48.42 30.89 26.14 43.95 26.14 36.45 51.76 40.24 52.78 48.56 23.74 29.35 23.74"/></svg>