<?xml version="1.0" encoding="utf-8"?>
<!-- Generator: Adobe Illustrator 24.1.1, SVG Export Plug-In . SVG Version: 6.00 Build 0)  -->
<svg version="1.1" id="Capa_1" xmlns="http://www.w3.org/2000/svg" xmlns:xlink="http://www.w3.org/1999/xlink" x="0px" y="0px"
	 viewBox="0 0 91.9 91.9" style="enable-background:new 0 0 91.9 91.9;" xml:space="preserve">
<style type="text/css">
	.st0{fill-rule:evenodd;clip-rule:evenodd;fill:#FFFFFF;}
	.st1{fill:#3B819B;}
	.st2{fill:none;stroke:#3B819B;stroke-width:2;stroke-miterlimit:10;}
</style>
<g>
	<path class="st0" d="M47.85,4.75c23.66,0,42.84,19.18,42.84,42.84c0,23.66-19.18,42.84-42.84,42.84
		c-23.66,0-42.84-19.18-42.84-42.84C5.02,23.93,24.2,4.75,47.85,4.75L47.85,4.75z"/>
	<path class="st1" d="M45.95,0c12.69,0,24.18,5.14,32.49,13.46c8.31,8.31,13.46,19.8,13.46,32.49c0,12.69-5.15,24.18-13.46,32.49
		c-8.31,8.31-19.8,13.46-32.49,13.46s-24.18-5.14-32.49-13.46C5.14,70.12,0,58.64,0,45.95c0-12.69,5.14-24.18,13.46-32.49
		C21.77,5.14,33.26,0,45.95,0L45.95,0z M74.04,17.86C66.85,10.67,56.92,6.22,45.95,6.22s-20.9,4.45-28.09,11.64
		C10.67,25.04,6.22,34.98,6.22,45.95c0,10.97,4.45,20.9,11.63,28.09c7.19,7.19,17.12,11.64,28.09,11.64s20.9-4.45,28.09-11.64
		c7.19-7.19,11.64-17.12,11.64-28.09C85.68,34.98,81.23,25.04,74.04,17.86L74.04,17.86z"/>
	<g>
		<g>
			<g>
				<g>
					<path class="st1" d="M25.54,38.82h-1.07v-1.54h-1.07l-0.14-1.02c0.52-0.01,1.19,0.02,1.72-0.04c0.58-0.39,0.58-0.66,0-1.04
						c-0.53-0.07-1.05-0.1-1.57-0.12v-0.29h-0.7v0.29c-0.52,0.01-1.05,0.05-1.57,0.12c-0.58,0.39-0.58,0.66,0,1.04
						c0.53,0.07,1.14,0.03,1.66,0.04l-0.09,1.01h-1.06v1.54h-1.07v0.9h4.97V38.82z M22.31,38.06h1.49v0.76h-1.49V38.06z"/>
				</g>
			</g>
			<g>
				<g>
					<rect x="18.41" y="43.79" class="st1" width="9.3" height="4.68"/>
				</g>
			</g>
			<g>
				<g>
					<rect x="28.09" y="43.79" class="st1" width="0.53" height="4.68"/>
				</g>
			</g>
			<g>
				<g>
					<rect x="17.39" y="43.79" class="st1" width="0.53" height="4.68"/>
				</g>
			</g>
			<g>
				<g>
					<rect x="20.81" y="39.98" class="st1" width="4.5" height="7.8"/>
				</g>
			</g>
		</g>
		<rect x="11.32" y="32.45" class="st2" width="25.65" height="19.8"/>
		<rect x="37.03" y="32.52" class="st2" width="25.65" height="31.45"/>
		<rect x="63.15" y="54.07" class="st2" width="17.22" height="9.9"/>
		<rect x="12.22" y="31.21" class="st1" width="23.03" height="2.48"/>
		<rect x="40.89" y="31.28" class="st1" width="17.22" height="2.48"/>
		<rect x="68.91" y="52.39" class="st1" width="7.36" height="2.48"/>
		<rect x="29.46" y="44.69" class="st1" width="7.52" height="3.07"/>
		<rect x="9.01" y="44.69" class="st1" width="7.52" height="3.07"/>
		<g>
			<g>
				<path class="st1" d="M38.98,54.26c0.55,0.26,1.13,0.53,2.26,0.53c1.13,0,1.7-0.27,2.26-0.53c0.52-0.25,1.01-0.48,2.02-0.48
					c1.01,0,1.5,0.23,2.02,0.48c0.55,0.26,1.13,0.53,2.26,0.53c1.13,0,1.7-0.27,2.26-0.53c0.52-0.25,1.01-0.48,2.02-0.48
					c1.01,0,1.5,0.23,2.02,0.48c0.55,0.26,1.13,0.53,2.26,0.53c1.13,0,1.71-0.27,2.26-0.53c0.52-0.25,1.01-0.48,2.02-0.48v-0.51
					c-1.13,0-1.71,0.27-2.26,0.53c-0.52,0.25-1.01,0.48-2.02,0.48c-1.01,0-1.5-0.23-2.02-0.48c-0.55-0.26-1.13-0.53-2.26-0.53
					c-1.13,0-1.71,0.27-2.26,0.53c-0.52,0.25-1.01,0.48-2.02,0.48c-1.01,0-1.5-0.23-2.02-0.48c-0.55-0.26-1.13-0.53-2.26-0.53
					s-1.71,0.27-2.26,0.53c-0.52,0.25-1.01,0.48-2.02,0.48c-1.01,0-1.5-0.23-2.02-0.48c-0.55-0.26-1.13-0.53-2.26-0.53v0.51
					C37.97,53.78,38.46,54.01,38.98,54.26z"/>
			</g>
			<g>
				<path class="st1" d="M41.24,52.64c1.13,0,1.7-0.27,2.26-0.53c0.52-0.25,1.01-0.48,2.02-0.48c1.01,0,1.5,0.23,2.02,0.48
					c0.55,0.26,1.13,0.53,2.26,0.53c1.13,0,1.7-0.27,2.26-0.53c0.52-0.25,1.01-0.48,2.02-0.48c1.01,0,1.5,0.23,2.02,0.48
					c0.55,0.26,1.13,0.53,2.26,0.53c1.13,0,1.71-0.27,2.26-0.53c0.52-0.25,1.01-0.48,2.02-0.48v-0.51c-1.13,0-1.71,0.27-2.26,0.53
					c-0.52,0.25-1.01,0.48-2.02,0.48c-1.01,0-1.5-0.23-2.02-0.48c-0.55-0.26-1.13-0.53-2.26-0.53c-1.13,0-1.71,0.27-2.26,0.53
					c-0.52,0.25-1.01,0.48-2.02,0.48c-1.01,0-1.5-0.23-2.02-0.48c-0.55-0.26-1.13-0.53-2.26-0.53c-1.13,0-1.71,0.27-2.26,0.53
					c-0.52,0.25-1.01,0.48-2.02,0.48c-1.01,0-1.5-0.23-2.02-0.48c-0.55-0.26-1.13-0.53-2.26-0.53v0.51c1.01,0,1.5,0.23,2.02,0.48
					C39.53,52.37,40.11,52.64,41.24,52.64z"/>
			</g>
			<g>
				<path class="st1" d="M41.24,50.49c1.13,0,1.7-0.27,2.26-0.53c0.52-0.25,1.01-0.48,2.02-0.48c1.01,0,1.5,0.23,2.02,0.48
					c0.55,0.26,1.13,0.53,2.26,0.53c1.13,0,1.7-0.27,2.26-0.53c0.52-0.25,1.01-0.48,2.02-0.48c1.01,0,1.5,0.23,2.02,0.48
					c0.55,0.26,1.13,0.53,2.26,0.53c1.13,0,1.71-0.27,2.26-0.53c0.52-0.25,1.01-0.48,2.02-0.48v-0.51c-1.13,0-1.71,0.27-2.26,0.53
					c-0.52,0.25-1.01,0.48-2.02,0.48c-1.01,0-1.5-0.23-2.02-0.48c-0.55-0.26-1.13-0.53-2.26-0.53c-1.13,0-1.71,0.27-2.26,0.53
					c-0.52,0.25-1.01,0.48-2.02,0.48c-1.01,0-1.5-0.23-2.02-0.48c-0.55-0.26-1.13-0.53-2.26-0.53c-1.13,0-1.71,0.27-2.26,0.53
					c-0.52,0.25-1.01,0.48-2.02,0.48c-1.01,0-1.5-0.23-2.02-0.48c-0.55-0.26-1.13-0.53-2.26-0.53v0.51c1.01,0,1.5,0.23,2.02,0.48
					C39.53,50.22,40.11,50.49,41.24,50.49z"/>
			</g>
			<g>
				<path class="st1" d="M41.24,48.34c1.13,0,1.7-0.27,2.26-0.53c0.52-0.25,1.01-0.48,2.02-0.48c1.01,0,1.5,0.23,2.02,0.48
					c0.55,0.26,1.13,0.53,2.26,0.53c1.13,0,1.7-0.27,2.26-0.53c0.52-0.25,1.01-0.48,2.02-0.48c1.01,0,1.5,0.23,2.02,0.48
					c0.55,0.26,1.13,0.53,2.26,0.53c1.13,0,1.71-0.27,2.26-0.53c0.52-0.25,1.01-0.48,2.02-0.48v-0.51c-1.13,0-1.71,0.27-2.26,0.53
					c-0.52,0.25-1.01,0.48-2.02,0.48c-1.01,0-1.5-0.23-2.02-0.48c-0.55-0.26-1.13-0.53-2.26-0.53c-1.13,0-1.71,0.27-2.26,0.53
					c-0.52,0.25-1.01,0.48-2.02,0.48c-1.01,0-1.5-0.23-2.02-0.48c-0.55-0.26-1.13-0.53-2.26-0.53s-1.71,0.27-2.26,0.53
					c-0.52,0.25-1.01,0.48-2.02,0.48c-1.01,0-1.5-0.23-2.02-0.48c-0.55-0.26-1.13-0.53-2.26-0.53v0.51c1.01,0,1.5,0.23,2.02,0.48
					C39.53,48.07,40.11,48.34,41.24,48.34z"/>
			</g>
		</g>
		<g>
			<g>
				<path class="st1" d="M38.98,63.01c0.55,0.26,1.13,0.53,2.26,0.53c1.13,0,1.7-0.27,2.26-0.53c0.52-0.25,1.01-0.48,2.02-0.48
					c1.01,0,1.5,0.23,2.02,0.48c0.55,0.26,1.13,0.53,2.26,0.53c1.13,0,1.7-0.27,2.26-0.53c0.52-0.25,1.01-0.48,2.02-0.48
					c1.01,0,1.5,0.23,2.02,0.48c0.55,0.26,1.13,0.53,2.26,0.53c1.13,0,1.71-0.27,2.26-0.53c0.52-0.25,1.01-0.48,2.02-0.48v-0.51
					c-1.13,0-1.71,0.27-2.26,0.53c-0.52,0.25-1.01,0.48-2.02,0.48c-1.01,0-1.5-0.23-2.02-0.48c-0.55-0.26-1.13-0.53-2.26-0.53
					c-1.13,0-1.71,0.27-2.26,0.53c-0.52,0.25-1.01,0.48-2.02,0.48c-1.01,0-1.5-0.23-2.02-0.48c-0.55-0.26-1.13-0.53-2.26-0.53
					c-1.13,0-1.71,0.27-2.26,0.53c-0.52,0.25-1.01,0.48-2.02,0.48c-1.01,0-1.5-0.23-2.02-0.48c-0.55-0.26-1.13-0.53-2.26-0.53v0.51
					C37.97,62.53,38.46,62.76,38.98,63.01z"/>
			</g>
			<g>
				<path class="st1" d="M41.24,61.39c1.13,0,1.7-0.27,2.26-0.53c0.52-0.25,1.01-0.48,2.02-0.48c1.01,0,1.5,0.23,2.02,0.48
					c0.55,0.26,1.13,0.53,2.26,0.53c1.13,0,1.7-0.27,2.26-0.53c0.52-0.25,1.01-0.48,2.02-0.48c1.01,0,1.5,0.23,2.02,0.48
					c0.55,0.26,1.13,0.53,2.26,0.53c1.13,0,1.71-0.27,2.26-0.53c0.52-0.25,1.01-0.48,2.02-0.48v-0.51c-1.13,0-1.71,0.27-2.26,0.53
					c-0.52,0.25-1.01,0.48-2.02,0.48c-1.01,0-1.5-0.23-2.02-0.48c-0.55-0.26-1.13-0.53-2.26-0.53c-1.13,0-1.71,0.27-2.26,0.53
					c-0.52,0.25-1.01,0.48-2.02,0.48c-1.01,0-1.5-0.23-2.02-0.48c-0.55-0.26-1.13-0.53-2.26-0.53c-1.13,0-1.71,0.27-2.26,0.53
					c-0.52,0.25-1.01,0.48-2.02,0.48c-1.01,0-1.5-0.23-2.02-0.48c-0.55-0.26-1.13-0.53-2.26-0.53v0.51c1.01,0,1.5,0.23,2.02,0.48
					C39.53,61.12,40.11,61.39,41.24,61.39z"/>
			</g>
			<g>
				<path class="st1" d="M41.24,59.24c1.13,0,1.7-0.27,2.26-0.53c0.52-0.25,1.01-0.48,2.02-0.48c1.01,0,1.5,0.23,2.02,0.48
					c0.55,0.26,1.13,0.53,2.26,0.53c1.13,0,1.7-0.27,2.26-0.53c0.52-0.25,1.01-0.48,2.02-0.48c1.01,0,1.5,0.23,2.02,0.48
					c0.55,0.26,1.13,0.53,2.26,0.53c1.13,0,1.71-0.27,2.26-0.53c0.52-0.25,1.01-0.48,2.02-0.48v-0.51c-1.13,0-1.71,0.27-2.26,0.53
					c-0.52,0.25-1.01,0.48-2.02,0.48c-1.01,0-1.5-0.23-2.02-0.48c-0.55-0.26-1.13-0.53-2.26-0.53c-1.13,0-1.71,0.27-2.26,0.53
					c-0.52,0.25-1.01,0.48-2.02,0.48c-1.01,0-1.5-0.23-2.02-0.48c-0.55-0.26-1.13-0.53-2.26-0.53c-1.13,0-1.71,0.27-2.26,0.53
					c-0.52,0.25-1.01,0.48-2.02,0.48c-1.01,0-1.5-0.23-2.02-0.48c-0.55-0.26-1.13-0.53-2.26-0.53v0.51c1.01,0,1.5,0.23,2.02,0.48
					C39.53,58.97,40.11,59.24,41.24,59.24z"/>
			</g>
			<g>
				<path class="st1" d="M41.24,57.09c1.13,0,1.7-0.27,2.26-0.53c0.52-0.25,1.01-0.48,2.02-0.48c1.01,0,1.5,0.23,2.02,0.48
					c0.55,0.26,1.13,0.53,2.26,0.53c1.13,0,1.7-0.27,2.26-0.53c0.52-0.25,1.01-0.48,2.02-0.48c1.01,0,1.5,0.23,2.02,0.48
					c0.55,0.26,1.13,0.53,2.26,0.53c1.13,0,1.71-0.27,2.26-0.53c0.52-0.25,1.01-0.48,2.02-0.48v-0.51c-1.13,0-1.71,0.27-2.26,0.53
					c-0.52,0.25-1.01,0.48-2.02,0.48c-1.01,0-1.5-0.23-2.02-0.48c-0.55-0.26-1.13-0.53-2.26-0.53c-1.13,0-1.71,0.27-2.26,0.53
					c-0.52,0.25-1.01,0.48-2.02,0.48c-1.01,0-1.5-0.23-2.02-0.48c-0.55-0.26-1.13-0.53-2.26-0.53c-1.13,0-1.71,0.27-2.26,0.53
					c-0.52,0.25-1.01,0.48-2.02,0.48c-1.01,0-1.5-0.23-2.02-0.48c-0.55-0.26-1.13-0.53-2.26-0.53v0.51c1.01,0,1.5,0.23,2.02,0.48
					C39.53,56.82,40.11,57.09,41.24,57.09z"/>
			</g>
		</g>
		<rect x="62.63" y="57.7" class="st1" width="7.52" height="3.07"/>
		<rect x="79.03" y="55.1" class="st1" width="3.86" height="3.31"/>
		<g>
			<g>
				<path class="st1" d="M64.1,62.6c0.37,0.26,0.75,0.53,1.5,0.53c0.75,0,1.13-0.27,1.5-0.53c0.35-0.25,0.67-0.48,1.34-0.48
					c0.67,0,0.99,0.23,1.34,0.48c0.37,0.26,0.75,0.53,1.5,0.53c0.75,0,1.13-0.27,1.5-0.53c0.35-0.25,0.67-0.48,1.34-0.48
					c0.67,0,1,0.23,1.34,0.48c0.37,0.26,0.75,0.53,1.5,0.53c0.75,0,1.13-0.27,1.5-0.53c0.35-0.25,0.67-0.48,1.34-0.48v-0.51
					c-0.75,0-1.13,0.27-1.5,0.53c-0.35,0.25-0.67,0.48-1.34,0.48c-0.67,0-1-0.23-1.34-0.48c-0.37-0.26-0.75-0.53-1.5-0.53
					c-0.75,0-1.13,0.27-1.5,0.53c-0.35,0.25-0.67,0.48-1.34,0.48c-0.67,0-0.99-0.23-1.34-0.48c-0.37-0.26-0.75-0.53-1.5-0.53
					c-0.75,0-1.13,0.27-1.5,0.53c-0.35,0.25-0.67,0.48-1.34,0.48c-0.67,0-0.99-0.23-1.34-0.48c-0.37-0.26-0.75-0.53-1.5-0.53v0.51
					C63.43,62.12,63.76,62.35,64.1,62.6z"/>
			</g>
			<g>
				<path class="st1" d="M65.6,60.98c0.75,0,1.13-0.27,1.5-0.53c0.35-0.25,0.67-0.48,1.34-0.48c0.67,0,0.99,0.23,1.34,0.48
					c0.37,0.26,0.75,0.53,1.5,0.53c0.75,0,1.13-0.27,1.5-0.53c0.35-0.25,0.67-0.48,1.34-0.48c0.67,0,1,0.23,1.34,0.48
					c0.37,0.26,0.75,0.53,1.5,0.53c0.75,0,1.13-0.27,1.5-0.53c0.35-0.25,0.67-0.48,1.34-0.48v-0.51c-0.75,0-1.13,0.27-1.5,0.53
					c-0.35,0.25-0.67,0.48-1.34,0.48c-0.67,0-1-0.23-1.34-0.48c-0.37-0.26-0.75-0.53-1.5-0.53c-0.75,0-1.13,0.27-1.5,0.53
					c-0.35,0.25-0.67,0.48-1.34,0.48c-0.67,0-0.99-0.23-1.34-0.48c-0.37-0.26-0.75-0.53-1.5-0.53c-0.75,0-1.13,0.27-1.5,0.53
					c-0.35,0.25-0.67,0.48-1.34,0.48c-0.67,0-0.99-0.23-1.34-0.48c-0.37-0.26-0.75-0.53-1.5-0.53v0.51c0.67,0,0.99,0.23,1.34,0.48
					C64.47,60.71,64.85,60.98,65.6,60.98z"/>
			</g>
			<g>
				<path class="st1" d="M65.6,58.83c0.75,0,1.13-0.27,1.5-0.53c0.35-0.25,0.67-0.48,1.34-0.48c0.67,0,0.99,0.23,1.34,0.48
					c0.37,0.26,0.75,0.53,1.5,0.53c0.75,0,1.13-0.27,1.5-0.53c0.35-0.25,0.67-0.48,1.34-0.48c0.67,0,1,0.23,1.34,0.48
					c0.37,0.26,0.75,0.53,1.5,0.53c0.75,0,1.13-0.27,1.5-0.53c0.35-0.25,0.67-0.48,1.34-0.48v-0.51c-0.75,0-1.13,0.27-1.5,0.53
					c-0.35,0.25-0.67,0.48-1.34,0.48c-0.67,0-1-0.23-1.34-0.48c-0.37-0.26-0.75-0.53-1.5-0.53c-0.75,0-1.13,0.27-1.5,0.53
					c-0.35,0.25-0.67,0.48-1.34,0.48c-0.67,0-0.99-0.23-1.34-0.48c-0.37-0.26-0.75-0.53-1.5-0.53c-0.75,0-1.13,0.27-1.5,0.53
					c-0.35,0.25-0.67,0.48-1.34,0.48c-0.67,0-0.99-0.23-1.34-0.48c-0.37-0.26-0.75-0.53-1.5-0.53v0.51c0.67,0,0.99,0.23,1.34,0.48
					C64.47,58.56,64.85,58.83,65.6,58.83z"/>
			</g>
			<g>
				<path class="st1" d="M65.6,56.68c0.75,0,1.13-0.27,1.5-0.53c0.35-0.25,0.67-0.48,1.34-0.48c0.67,0,0.99,0.23,1.34,0.48
					c0.37,0.26,0.75,0.53,1.5,0.53c0.75,0,1.13-0.27,1.5-0.53c0.35-0.25,0.67-0.48,1.34-0.48c0.67,0,1,0.23,1.34,0.48
					c0.37,0.26,0.75,0.53,1.5,0.53c0.75,0,1.13-0.27,1.5-0.53c0.35-0.25,0.67-0.48,1.34-0.48v-0.51c-0.75,0-1.13,0.27-1.5,0.53
					c-0.35,0.25-0.67,0.48-1.34,0.48c-0.67,0-1-0.23-1.34-0.48c-0.37-0.26-0.75-0.53-1.5-0.53c-0.75,0-1.13,0.27-1.5,0.53
					c-0.35,0.25-0.67,0.48-1.34,0.48c-0.67,0-0.99-0.23-1.34-0.48c-0.37-0.26-0.75-0.53-1.5-0.53c-0.75,0-1.13,0.27-1.5,0.53
					c-0.35,0.25-0.67,0.48-1.34,0.48c-0.67,0-0.99-0.23-1.34-0.48c-0.37-0.26-0.75-0.53-1.5-0.53v0.51c0.67,0,0.99,0.23,1.34,0.48
					C64.47,56.41,64.85,56.68,65.6,56.68z"/>
			</g>
		</g>
	</g>
</g>
</svg>
