<svg id="Capa_1" data-name="Capa 1" xmlns="http://www.w3.org/2000/svg" viewBox="0 0 91.9 91.9"><defs><style>.cls-1,.cls-3{fill:#fff;}.cls-1{fill-rule:evenodd;}.cls-2,.cls-4{fill:#3b819b;}.cls-4{stroke:#fff;stroke-miterlimit:10;stroke-width:1.26px;}.cls-5{fill:#57a1b7;}.cls-6{fill:#7ec1d1;}.cls-7{fill:#e8384b;}</style></defs><path class="cls-1" d="M46.4,2.6A42.84,42.84,0,1,1,3.56,45.44,42.84,42.84,0,0,1,46.4,2.6Z"/><path class="cls-2" d="M46,0A46,46,0,1,1,13.46,13.46,45.81,45.81,0,0,1,46,0ZM74,17.86A39.71,39.71,0,1,0,85.68,46,39.6,39.6,0,0,0,74,17.86Z"/><polygon class="cls-2" points="68.39 74.73 20.91 74.73 20.91 16.16 54.35 16.16 68.39 30.48 68.39 74.73"/><polygon class="cls-3" points="65.5 71.16 23.8 71.16 23.8 19.72 53.17 19.72 65.5 32.3 65.5 71.16"/><polygon class="cls-4" points="68.39 30.48 54.35 16.16 54.35 30.48 68.39 30.48"/><rect class="cls-2" x="36.42" y="47.11" width="4.01" height="8.84"/><rect class="cls-5" x="41.22" y="43.26" width="4.01" height="12.69"/><rect class="cls-2" x="46.02" y="38.2" width="4.01" height="17.75"/><rect class="cls-5" x="50.82" y="41.81" width="4.01" height="14.13"/><rect class="cls-2" x="55.9" y="40.03" width="4.01" height="15.91"/><polygon class="cls-2" points="58.02 38.69 59.26 35.61 55.97 36.08 58.02 38.69"/><path class="cls-2" d="M37.58,46.05A.65.65,0,0,1,37.11,45l10-10.39a.65.65,0,0,1,.87,0l5.34,4.41,4.28-2.58a.64.64,0,1,1,.66,1.1l-4.66,2.81a.65.65,0,0,1-.74,0l-5.23-4.32L38,45.85A.66.66,0,0,1,37.58,46.05Z"/><path class="cls-2" d="M48.76,35.25a1.17,1.17,0,1,1-1.17-1.18A1.17,1.17,0,0,1,48.76,35.25Z"/><path class="cls-5" d="M62.69,59.21H33.45a.64.64,0,0,1-.64-.64V37.65a.64.64,0,0,1,.64-.64.64.64,0,0,1,.64.64V57.93h28.6a.64.64,0,0,1,.64.64A.64.64,0,0,1,62.69,59.21Z"/><path class="cls-2" d="M33.13,57.85l0,7.05a7.08,7.08,0,0,1-3.52-1,7,7,0,0,1-3.5-6.12,7,7,0,0,1,1-3.52Z"/><path class="cls-5" d="M33.13,57.85,36.62,64a6.91,6.91,0,0,1-3.52.93Z"/><path class="cls-5" d="M33.13,57.85,36.62,64a7.07,7.07,0,0,0,2.59-2.56l-6.08-3.56Z"/><path class="cls-6" d="M40.17,57.89a6.93,6.93,0,0,1-1,3.52l-6.08-3.56Z"/><path class="cls-5" d="M29.64,51.74a7,7,0,0,0-2.59,2.56l6.08,3.55,0,0-.06-7A7,7,0,0,0,29.64,51.74Z"/><polygon class="cls-7" points="33.23 57.68 33.2 57.81 33.13 57.85 33.23 57.68"/><path class="cls-2" d="M39.25,54.36a7,7,0,0,1,.92,3.53l-7,0,.07,0,0-.13-.08.13,0-7h.06a7.06,7.06,0,0,1,6.09,3.55Z"/><path class="cls-2" d="M54,39.23a1.18,1.18,0,1,1-1.17-1.17A1.17,1.17,0,0,1,54,39.23Z"/></svg>