<svg xmlns="http://www.w3.org/2000/svg" xmlns:xlink="http://www.w3.org/1999/xlink" viewBox="0 0 91.9 91.9"><defs><style>.cls-1,.cls-16,.cls-4{fill:#fff;}.cls-10,.cls-11,.cls-17,.cls-18,.cls-2,.cls-5{fill:#3b819b;}.cls-10,.cls-11,.cls-17,.cls-18,.cls-2,.cls-8{stroke:#fff;stroke-miterlimit:10;stroke-width:0.25px;}.cls-3{isolation:isolate;}.cls-4{fill-rule:evenodd;}.cls-6{clip-path:url(#clip-path);}.cls-7{clip-path:url(#clip-path-2);}.cls-8{fill:none;}.cls-9{clip-path:url(#clip-path-3);}.cls-10{opacity:0.1;}.cls-10,.cls-17{mix-blend-mode:screen;}.cls-11,.cls-17{opacity:0.2;}.cls-11,.cls-12,.cls-16,.cls-18,.cls-50{mix-blend-mode:multiply;}.cls-12{opacity:0.6;}.cls-13{clip-path:url(#clip-path-4);}.cls-14{clip-path:url(#clip-path-5);}.cls-15{clip-path:url(#clip-path-6);}.cls-18{opacity:0.3;}.cls-19{clip-path:url(#clip-path-7);}.cls-20{clip-path:url(#clip-path-8);}.cls-21{clip-path:url(#clip-path-9);}.cls-22{clip-path:url(#clip-path-10);}.cls-23{clip-path:url(#clip-path-11);}.cls-24{clip-path:url(#clip-path-12);}.cls-25{clip-path:url(#clip-path-13);}.cls-26{clip-path:url(#clip-path-14);}.cls-27{clip-path:url(#clip-path-15);}.cls-28{clip-path:url(#clip-path-16);}.cls-29{clip-path:url(#clip-path-17);}.cls-30{clip-path:url(#clip-path-18);}.cls-31{clip-path:url(#clip-path-19);}.cls-32{clip-path:url(#clip-path-20);}.cls-33{clip-path:url(#clip-path-21);}.cls-34{clip-path:url(#clip-path-22);}.cls-35{clip-path:url(#clip-path-23);}.cls-36{clip-path:url(#clip-path-24);}.cls-37{clip-path:url(#clip-path-25);}.cls-38{clip-path:url(#clip-path-26);}.cls-39{clip-path:url(#clip-path-27);}.cls-40{clip-path:url(#clip-path-28);}.cls-41{clip-path:url(#clip-path-29);}.cls-42{clip-path:url(#clip-path-30);}.cls-43{clip-path:url(#clip-path-31);}.cls-44{clip-path:url(#clip-path-32);}.cls-45{clip-path:url(#clip-path-33);}.cls-46{clip-path:url(#clip-path-34);}.cls-47{clip-path:url(#clip-path-35);}.cls-48{clip-path:url(#clip-path-36);}.cls-49{clip-path:url(#clip-path-37);}.cls-50{opacity:0.5;}.cls-51{clip-path:url(#clip-path-38);}.cls-52{clip-path:url(#clip-path-39);}.cls-53{clip-path:url(#clip-path-40);}.cls-54{clip-path:url(#clip-path-41);}.cls-55{clip-path:url(#clip-path-42);}.cls-56{clip-path:url(#clip-path-43);}.cls-57{clip-path:url(#clip-path-44);}.cls-58{clip-path:url(#clip-path-45);}</style><clipPath id="clip-path"><path class="cls-1" d="M48.78,52.11v.5a.45.45,0,0,0,.26.36,1.38,1.38,0,0,0,1.25,0,.45.45,0,0,0,.26-.36v-.5a.45.45,0,0,1-.26.36,1.38,1.38,0,0,1-1.25,0A.45.45,0,0,1,48.78,52.11Z"/></clipPath><clipPath id="clip-path-2"><path class="cls-2" d="M50.86,42.11l.23-.13a.46.46,0,0,1,.47.05l-.23.13A.46.46,0,0,0,50.86,42.11Z"/></clipPath><clipPath id="clip-path-3"><path class="cls-2" d="M52,43.6l-.23.13a.45.45,0,0,0,.2-.42,1.47,1.47,0,0,0-.67-1.15l.23-.13a1.44,1.44,0,0,1,.66,1.15A.45.45,0,0,1,52,43.6Z"/></clipPath><clipPath id="clip-path-4"><path class="cls-1" d="M51.32,53.56v.51a.45.45,0,0,0,.26.36,1.38,1.38,0,0,0,1.25,0,.47.47,0,0,0,.26-.37v-.5a.43.43,0,0,1-.26.36,1.38,1.38,0,0,1-1.25,0A.43.43,0,0,1,51.32,53.56Z"/></clipPath><clipPath id="clip-path-5"><path class="cls-2" d="M53.39,46.17l.23-.13a.46.46,0,0,1,.47.05l-.22.13A.48.48,0,0,0,53.39,46.17Z"/></clipPath><clipPath id="clip-path-6"><path class="cls-2" d="M54.56,47.66l-.22.13a.47.47,0,0,0,.19-.42,1.47,1.47,0,0,0-.66-1.15l.22-.13a1.45,1.45,0,0,1,.67,1.14A.47.47,0,0,1,54.56,47.66Z"/></clipPath><clipPath id="clip-path-7"><path class="cls-2" d="M59.56,25.26v.1a.84.84,0,0,1,.39-.1v-.11A1,1,0,0,0,59.56,25.26Z"/></clipPath><clipPath id="clip-path-8"><path class="cls-2" d="M60.08,25.15v.11a.81.81,0,0,1,.39.1v-.1A1,1,0,0,0,60.08,25.15Z"/></clipPath><clipPath id="clip-path-9"><path class="cls-2" d="M59.38,25.48v.1a.31.31,0,0,1,.18-.22v-.1A.31.31,0,0,0,59.38,25.48Z"/></clipPath><clipPath id="clip-path-10"><path class="cls-2" d="M60.47,25.26v.1a.34.34,0,0,1,.18.22v-.1A.34.34,0,0,0,60.47,25.26Z"/></clipPath><clipPath id="clip-path-11"><path class="cls-2" d="M59.79,25.56v.1a.17.17,0,0,0,.06.06.14.14,0,0,0,.09,0v-.1a.14.14,0,0,1-.09,0A.17.17,0,0,1,59.79,25.56Z"/></clipPath><clipPath id="clip-path-12"><path class="cls-2" d="M60.08,25.65v.1a.19.19,0,0,0,.16-.09v-.1a.19.19,0,0,1-.16.09Z"/></clipPath><clipPath id="clip-path-13"><path class="cls-2" d="M59.19,25.53v.1a.4.4,0,0,0,.24.33,1.27,1.27,0,0,0,1.17,0,.4.4,0,0,0,.24-.34v-.1a.41.41,0,0,1-.24.34,1.27,1.27,0,0,1-1.17,0A.4.4,0,0,1,59.19,25.53Z"/></clipPath><clipPath id="clip-path-14"><path class="cls-2" d="M29.25,48.89v.72a1.93,1.93,0,0,1-1.14,1.59,6.1,6.1,0,0,1-5.52,0,2,2,0,0,1-1.15-1.61v-.73a2,2,0,0,0,1.15,1.62,6.07,6.07,0,0,0,5.52,0A1.92,1.92,0,0,0,29.25,48.89Z"/></clipPath><clipPath id="clip-path-15"><path class="cls-2" d="M29,41.83l0,7a1.82,1.82,0,0,1-1.07,1.5,5.74,5.74,0,0,1-5.23,0,1.82,1.82,0,0,1-1.09-1.52l0-6.95a1.84,1.84,0,0,0,1.09,1.53,5.8,5.8,0,0,0,5.23,0A1.84,1.84,0,0,0,29,41.83Z"/></clipPath><clipPath id="clip-path-16"><path class="cls-1" d="M33.51,53.64v.55a.47.47,0,0,1-.28.4,1.53,1.53,0,0,1-1.38,0,.5.5,0,0,1-.29-.4v-.56a.48.48,0,0,0,.29.41,1.53,1.53,0,0,0,1.38,0A.51.51,0,0,0,33.51,53.64Z"/></clipPath><clipPath id="clip-path-17"><path class="cls-2" d="M28.47,47.64l-.25-.15a.55.55,0,0,0-.52,0l.25.15A.5.5,0,0,1,28.47,47.64Z"/></clipPath><clipPath id="clip-path-18"><path class="cls-2" d="M27.18,49.28l.25.15a.52.52,0,0,1-.21-.47A1.57,1.57,0,0,1,28,47.69l-.25-.15A1.6,1.6,0,0,0,27,48.81.51.51,0,0,0,27.18,49.28Z"/></clipPath><clipPath id="clip-path-19"><path class="cls-2" d="M22.88,52.58v.72a1.94,1.94,0,0,1-1.13,1.59,6.1,6.1,0,0,1-5.52,0,2,2,0,0,1-1.16-1.61v-.72a2,2,0,0,0,1.16,1.61,6.1,6.1,0,0,0,5.52,0A2,2,0,0,0,22.88,52.58Z"/></clipPath><clipPath id="clip-path-20"><path class="cls-2" d="M22.67,45.53l0,6.94A1.86,1.86,0,0,1,21.57,54a5.8,5.8,0,0,1-5.23,0,1.86,1.86,0,0,1-1.09-1.53l0-6.94A1.84,1.84,0,0,0,16.37,47a5.74,5.74,0,0,0,5.23,0A1.82,1.82,0,0,0,22.67,45.53Z"/></clipPath><clipPath id="clip-path-21"><path class="cls-1" d="M27.14,57.33v.56a.49.49,0,0,1-.29.39,1.47,1.47,0,0,1-1.38,0,.49.49,0,0,1-.29-.4v-.55a.5.5,0,0,0,.29.4,1.53,1.53,0,0,0,1.38,0A.47.47,0,0,0,27.14,57.33Z"/></clipPath><clipPath id="clip-path-22"><path class="cls-2" d="M22.1,51.33l-.25-.14a.5.5,0,0,0-.52.05l.25.14A.53.53,0,0,1,22.1,51.33Z"/></clipPath><clipPath id="clip-path-23"><path class="cls-2" d="M20.81,53l.25.14a.52.52,0,0,1-.21-.47,1.64,1.64,0,0,1,.73-1.27l-.25-.14a1.62,1.62,0,0,0-.73,1.27A.52.52,0,0,0,20.81,53Z"/></clipPath><clipPath id="clip-path-24"><path class="cls-2" d="M16.26,56.44v.73a2,2,0,0,1-1.13,1.59,6.1,6.1,0,0,1-5.52,0,1.94,1.94,0,0,1-1.15-1.61v-.73A1.93,1.93,0,0,0,9.61,58a6,6,0,0,0,5.52,0A1.94,1.94,0,0,0,16.26,56.44Z"/></clipPath><clipPath id="clip-path-25"><path class="cls-2" d="M16.06,49.39l0,7A1.82,1.82,0,0,1,15,57.84a5.74,5.74,0,0,1-5.23,0,1.84,1.84,0,0,1-1.09-1.52l0-7a1.84,1.84,0,0,0,1.09,1.52,5.74,5.74,0,0,0,5.23,0A1.82,1.82,0,0,0,16.06,49.39Z"/></clipPath><clipPath id="clip-path-26"><path class="cls-1" d="M20.53,61.2v.55a.49.49,0,0,1-.29.4,1.53,1.53,0,0,1-1.38,0,.49.49,0,0,1-.28-.4v-.56a.49.49,0,0,0,.29.4,1.53,1.53,0,0,0,1.38,0A.51.51,0,0,0,20.53,61.2Z"/></clipPath><clipPath id="clip-path-27"><path class="cls-2" d="M15.49,55.2l-.25-.15a.52.52,0,0,0-.53.05l.25.15A.52.52,0,0,1,15.49,55.2Z"/></clipPath><clipPath id="clip-path-28"><path class="cls-2" d="M14.2,56.84l.25.15a.51.51,0,0,1-.22-.48A1.62,1.62,0,0,1,15,55.25l-.25-.15A1.64,1.64,0,0,0,14,56.37.5.5,0,0,0,14.2,56.84Z"/></clipPath><clipPath id="clip-path-29"><path class="cls-1" d="M51.93,65.22v.56a.47.47,0,0,0,.28.39,1.53,1.53,0,0,0,1.38,0,.49.49,0,0,0,.29-.4v-.55a.5.5,0,0,1-.29.4,1.53,1.53,0,0,1-1.38,0A.49.49,0,0,1,51.93,65.22Z"/></clipPath><clipPath id="clip-path-30"><path class="cls-2" d="M57,59.22l.25-.14a.5.5,0,0,1,.52.05l-.25.14A.5.5,0,0,0,57,59.22Z"/></clipPath><clipPath id="clip-path-31"><path class="cls-2" d="M58.26,60.87,58,61a.52.52,0,0,0,.21-.47,1.61,1.61,0,0,0-.73-1.27l.25-.14a1.62,1.62,0,0,1,.73,1.26A.53.53,0,0,1,58.26,60.87Z"/></clipPath><clipPath id="clip-path-32"><path class="cls-1" d="M54.87,66.91v.56a.47.47,0,0,0,.28.39,1.53,1.53,0,0,0,1.38,0,.49.49,0,0,0,.29-.4v-.55a.48.48,0,0,1-.29.4,1.53,1.53,0,0,1-1.38,0A.47.47,0,0,1,54.87,66.91Z"/></clipPath><clipPath id="clip-path-33"><path class="cls-2" d="M59.91,60.91l.25-.14a.5.5,0,0,1,.52,0l-.25.14A.5.5,0,0,0,59.91,60.91Z"/></clipPath><clipPath id="clip-path-34"><path class="cls-2" d="M61.2,62.56,61,62.7a.52.52,0,0,0,.21-.47A1.61,1.61,0,0,0,60.43,61l.25-.14a1.59,1.59,0,0,1,.73,1.26A.53.53,0,0,1,61.2,62.56Z"/></clipPath><clipPath id="clip-path-35"><path class="cls-1" d="M48.62,63.57v.56a.49.49,0,0,0,.28.39,1.53,1.53,0,0,0,1.38,0,.47.47,0,0,0,.29-.4v-.55a.49.49,0,0,1-.28.4,1.53,1.53,0,0,1-1.38,0A.5.5,0,0,1,48.62,63.57Z"/></clipPath><clipPath id="clip-path-36"><path class="cls-2" d="M53.66,54.86l.25-.14a.5.5,0,0,1,.52.05l-.25.14A.53.53,0,0,0,53.66,54.86Z"/></clipPath><clipPath id="clip-path-37"><path class="cls-2" d="M55,56.51l-.25.14a.51.51,0,0,0,.22-.47,1.64,1.64,0,0,0-.74-1.27l.25-.14A1.6,1.6,0,0,1,55.17,56,.52.52,0,0,1,55,56.51Z"/></clipPath><clipPath id="clip-path-38"><path class="cls-2" d="M63.38,18.53l0,15.29a1.89,1.89,0,0,1-1.11,1.55,6,6,0,0,1-5.36,0,1.91,1.91,0,0,1-1.12-1.57l0-15.3a1.9,1.9,0,0,0,1.12,1.57,5.89,5.89,0,0,0,5.36,0A1.91,1.91,0,0,0,63.38,18.53Z"/></clipPath><clipPath id="clip-path-39"><path class="cls-2" d="M71.37,22l0,15.3a1.87,1.87,0,0,1-1.1,1.54,5.91,5.91,0,0,1-5.37,0,1.88,1.88,0,0,1-1.12-1.56l0-15.3a1.91,1.91,0,0,0,1.12,1.57,6,6,0,0,0,5.37,0A1.9,1.9,0,0,0,71.37,22Z"/></clipPath><clipPath id="clip-path-40"><path class="cls-1" d="M75.16,43.57v.55a.47.47,0,0,1-.28.4,1.53,1.53,0,0,1-1.38,0,.5.5,0,0,1-.29-.4v-.56a.5.5,0,0,0,.29.41,1.53,1.53,0,0,0,1.38,0A.49.49,0,0,0,75.16,43.57Z"/></clipPath><clipPath id="clip-path-41"><path class="cls-2" d="M70.12,34.55l-.25-.15a.5.5,0,0,0-.52.05l.25.15A.5.5,0,0,1,70.12,34.55Z"/></clipPath><clipPath id="clip-path-42"><path class="cls-2" d="M68.83,36.19l.25.15a.53.53,0,0,1-.21-.48,1.62,1.62,0,0,1,.73-1.26l-.25-.15a1.64,1.64,0,0,0-.73,1.27A.52.52,0,0,0,68.83,36.19Z"/></clipPath><clipPath id="clip-path-43"><path class="cls-1" d="M71.93,42.48V43a.47.47,0,0,1-.28.39,1.5,1.5,0,0,1-1.34,0A.47.47,0,0,1,70,43v-.55a.49.49,0,0,0,.28.4,1.53,1.53,0,0,0,1.35,0A.49.49,0,0,0,71.93,42.48Z"/></clipPath><clipPath id="clip-path-44"><path class="cls-2" d="M69.69,38.18,69.45,38a.48.48,0,0,0-.51.05l.24.14A.48.48,0,0,1,69.69,38.18Z"/></clipPath><clipPath id="clip-path-45"><path class="cls-2" d="M68.43,39.78l.24.14a.5.5,0,0,1-.2-.45,1.54,1.54,0,0,1,.71-1.24l-.24-.14a1.55,1.55,0,0,0-.72,1.23A.49.49,0,0,0,68.43,39.78Z"/></clipPath></defs><g class="cls-3"><g id="Capa_1" data-name="Capa 1"><path class="cls-4" d="M46.4,2.6A42.84,42.84,0,1,1,3.56,45.44,42.84,42.84,0,0,1,46.4,2.6Z"/><path class="cls-5" d="M46,0A46,46,0,1,1,13.46,13.46,45.81,45.81,0,0,1,46,0ZM74,17.86A39.71,39.71,0,1,0,85.68,46,39.6,39.6,0,0,0,74,17.86Z"/><g class="cls-3"><polygon class="cls-2" points="29.02 69.6 47.4 58.92 33.68 51 15.3 61.68 29.02 69.6 29.02 69.6"/><polygon class="cls-2" points="53.76 72.64 62.43 67.6 48.71 59.68 40.04 64.72 53.76 72.64 53.76 72.64"/><polygon class="cls-2" points="44.05 78.28 52.45 73.4 38.73 65.48 30.33 70.36 44.05 78.28 44.05 78.28"/><polygon class="cls-2" points="47.39 58.92 45.22 60.18 33.68 53.52 17.48 62.94 15.3 61.68 33.68 51 47.39 58.92"/><polygon class="cls-2" points="62.43 67.6 60.21 68.89 48.71 62.25 42.26 66 40.04 64.72 48.71 59.68 62.43 67.6"/><polygon class="cls-2" points="52.45 73.4 50.27 74.66 38.73 68 32.51 71.62 30.33 70.36 38.73 65.48 52.45 73.4"/><polygon class="cls-2" points="47.4 58.05 47.39 59.56 33.67 51.65 33.68 50.13 47.4 58.05"/><polygon class="cls-2" points="33.68 50.13 33.67 51.65 15.29 62.33 15.3 60.81 33.68 50.13"/><polygon class="cls-2" points="48.71 58.81 48.71 60.33 40.04 65.36 40.04 63.85 48.71 58.81"/><polygon class="cls-2" points="62.43 66.73 62.43 68.25 48.71 60.33 48.71 58.81 62.43 66.73"/><polygon class="cls-2" points="38.73 64.61 38.73 66.13 30.33 71.01 30.33 69.49 38.73 64.61"/><polygon class="cls-2" points="52.45 72.53 52.45 74.04 38.73 66.13 38.73 64.61 52.45 72.53"/><polygon class="cls-2" points="65.06 66.73 65.05 68.25 44.05 80.45 44.06 78.93 65.06 66.73"/><path class="cls-2" d="M33.67,48.61,65.06,66.73l-21,12.2L12.67,60.81ZM29,68.73,47.39,58.05,33.68,50.13,15.3,60.81,29,68.73Zm24.74,3,8.67-5L48.71,58.81l-8.67,5,13.72,7.92Zm-9.71,5.64,8.4-4.88L38.73,64.61l-8.4,4.88,13.72,7.92Z"/><polygon class="cls-2" points="44.06 78.93 44.05 80.45 12.67 62.33 12.67 60.81 44.06 78.93"/></g><polygon class="cls-2" points="61.8 18.93 50.53 12.44 29.33 24.2 41.03 30.95 61.8 18.93"/><polygon class="cls-2" points="61.8 18.93 41.03 30.95 41.03 52.1 61.8 40.03 61.8 18.93"/><polygon class="cls-2" points="29.33 24.2 29.33 45.35 41.03 52.1 41.03 30.95 29.33 24.2"/><polygon class="cls-1" points="49.42 34.17 49.42 38.08 48.34 38.71 48.34 34.8 48.34 34.8 49.42 34.17"/><polygon class="cls-1" points="48.99 34.42 48.99 37.94 48.34 38.32 48.34 38.72 49.43 38.08 49.43 34.17 48.99 34.42"/><polygon class="cls-1" points="48.99 37.94 49.43 38.08 49.43 34.17 48.99 34.42 48.99 37.94"/><polygon class="cls-1" points="46.37 35.95 46.37 39.86 45.29 40.49 45.29 36.58 45.29 36.58 46.37 35.95"/><polygon class="cls-1" points="45.94 36.2 45.94 39.71 45.29 40.09 45.29 40.49 46.37 39.86 46.37 35.95 45.94 36.2"/><polygon class="cls-1" points="45.94 39.71 46.37 39.86 46.37 35.95 45.94 36.2 45.94 39.71"/><polygon class="cls-1" points="43.32 37.72 43.32 41.64 42.24 42.27 42.24 38.36 42.24 38.36 43.32 37.72"/><polygon class="cls-1" points="42.88 37.98 42.88 41.49 42.24 41.87 42.24 42.27 43.32 41.64 43.32 37.72 42.88 37.98"/><polygon class="cls-1" points="42.88 41.49 43.32 41.64 43.32 37.72 42.88 37.98 42.88 41.49"/><polygon class="cls-2" points="50.53 35 62.23 28.51 83.44 40.84 71.74 47.34 50.53 35"/><polygon class="cls-2" points="50.53 35 71.74 47.34 71.74 58.94 50.53 46.55 50.53 35"/><g class="cls-3"><g class="cls-3"><path class="cls-1" d="M48.78,52.11v.5a.45.45,0,0,0,.26.36,1.38,1.38,0,0,0,1.25,0,.45.45,0,0,0,.26-.36v-.5a.45.45,0,0,1-.26.36,1.38,1.38,0,0,1-1.25,0A.45.45,0,0,1,48.78,52.11Z"/><g class="cls-6"><g class="cls-3"><path class="cls-1" d="M48.78,52.11v.5a.45.45,0,0,0,.26.36,1.18,1.18,0,0,0,.4.14V52.6a1,1,0,0,1-.4-.13.45.45,0,0,1-.26-.36Z"/><path class="cls-1" d="M49.44,52.6v.51a1.62,1.62,0,0,0,.44,0V52.6a1.09,1.09,0,0,1-.44,0Z"/><path class="cls-1" d="M49.88,52.6v.51A1.11,1.11,0,0,0,50.3,53l.06,0v-.5l-.07,0a1.1,1.1,0,0,1-.41.13Z"/><path class="cls-1" d="M50.54,52.19a.25.25,0,0,0,0-.08v.5s0,0,0,.08a.47.47,0,0,1-.19.24v-.5A.49.49,0,0,0,50.54,52.19Z"/></g></g></g><path class="cls-1" d="M49,51.75a.38.38,0,0,0,0,.72,1.38,1.38,0,0,0,1.25,0c.35-.2.35-.52,0-.72A1.38,1.38,0,0,0,49,51.75Z"/><path class="cls-1" d="M49.08,52.3a.53.53,0,0,0,.11.09l0,0,0,0a1,1,0,0,0,.79,0h0l0,0,.13-.1a.26.26,0,0,0-.06-.41l0,0,0,0a1.08,1.08,0,0,0-1,0l0,0,0,0A.26.26,0,0,0,49.08,52.3Z"/><path class="cls-1" d="M49.05,52l.07-.05a1.08,1.08,0,0,1,1,0c.2.12.25.29.14.44.19-.16.16-.37-.07-.51a1.08,1.08,0,0,0-1,0A.58.58,0,0,0,49.05,52Z"/></g><path class="cls-2" d="M52.13,43.25c0,.41-.28.57-.64.37a1.4,1.4,0,0,1-.63-1.1c0-.41.28-.57.63-.37A1.39,1.39,0,0,1,52.13,43.25Z"/><g class="cls-3"><path class="cls-5" d="M50.86,42.11l.23-.13a.46.46,0,0,1,.47.05l-.23.13A.46.46,0,0,0,50.86,42.11Z"/><g class="cls-7"><path class="cls-2" d="M50.86,42.11l.23-.13a.27.27,0,0,1,.16,0l-.22.13a.31.31,0,0,0-.17,0Z"/><path class="cls-2" d="M51,42.07l.22-.13a.5.5,0,0,1,.31.09l-.23.13a.54.54,0,0,0-.3-.09Z"/></g><path class="cls-8" d="M50.86,42.11l.23-.13a.46.46,0,0,1,.47.05l-.23.13A.46.46,0,0,0,50.86,42.11Z"/><g class="cls-3"><path class="cls-5" d="M52,43.6l-.23.13a.45.45,0,0,0,.2-.42,1.47,1.47,0,0,0-.67-1.15l.23-.13a1.44,1.44,0,0,1,.66,1.15A.45.45,0,0,1,52,43.6Z"/><g class="cls-9"><path class="cls-2" d="M51.33,42.16l.23-.13a.86.86,0,0,1,.29.25l-.22.13a1.18,1.18,0,0,0-.3-.25Z"/><path class="cls-2" d="M51.63,42.41l.22-.13a1.21,1.21,0,0,1,.22.32l-.23.13a1.18,1.18,0,0,0-.21-.32Z"/><path class="cls-2" d="M51.84,42.73l.23-.13a1.25,1.25,0,0,1,.15.58.45.45,0,0,1-.19.42l-.23.13a.45.45,0,0,0,.2-.42,1.27,1.27,0,0,0-.16-.58Z"/></g><path class="cls-8" d="M52,43.6l-.23.13a.45.45,0,0,0,.2-.42,1.47,1.47,0,0,0-.67-1.15l.23-.13a1.44,1.44,0,0,1,.66,1.15A.45.45,0,0,1,52,43.6Z"/></g><path class="cls-2" d="M51.33,42.16A1.47,1.47,0,0,1,52,43.31c0,.42-.3.59-.67.38a1.43,1.43,0,0,1-.66-1.15C50.67,42.12,51,42,51.33,42.16Z"/><path class="cls-2" d="M51.33,42.34a1.11,1.11,0,0,1,.51.88c0,.32-.23.45-.51.29a1.15,1.15,0,0,1-.51-.88C50.83,42.31,51.05,42.18,51.33,42.34Z"/></g><path class="cls-2" d="M49.07,52.24V43.9a.6.6,0,0,1,.3-.52l1.75-1h0a.3.3,0,0,1,.21,0h0a.63.63,0,0,1,.13.11h0a1.57,1.57,0,0,1,.15.19l0,0a.43.43,0,0,1,0,.07s0,0,0,.05l0,0s0,0,0,0a.84.84,0,0,1,0,.2.31.31,0,0,1,0,.1h0v0h0v0h0a.24.24,0,0,1-.09.11h0l-1.44.83v8h0v0l-.13.1,0,0h0a1,1,0,0,1-.79,0l0,0,0,0a.53.53,0,0,1-.11-.09.13.13,0,0,1,0-.06Z"/><path class="cls-10" d="M49.07,43.9v8.34a.13.13,0,0,0,0,.06.53.53,0,0,0,.11.09l0,0,0,0,.19,0V44.12a.68.68,0,0,1,.34-.59l1.75-1,0,0h0a1.42,1.42,0,0,0-.13-.12h0a.37.37,0,0,0-.21,0h0l-1.75,1A.6.6,0,0,0,49.07,43.9Z"/><path class="cls-11" d="M49.82,44.07v8.42a.61.61,0,0,0,.24-.07h0l0,0,.13-.1v0h0v-8l1.44-.83h0a.24.24,0,0,0,.09-.11h0v0h0v0h0a.31.31,0,0,0,0-.1,1.77,1.77,0,0,0,0-.2l0,0,0,0v0h0v0h0v0h0a.29.29,0,0,1-.11.13l0,0Z"/><g class="cls-12"><path class="cls-2" d="M50.88,42.39a.37.37,0,0,1,.36,0,1.11,1.11,0,0,1,.51.87.43.43,0,0,1-.06.24.36.36,0,0,0,.15-.32,1.11,1.11,0,0,0-.51-.88A.32.32,0,0,0,50.88,42.39Z"/></g><g class="cls-3"><g class="cls-3"><path class="cls-1" d="M51.32,53.56v.51a.45.45,0,0,0,.26.36,1.38,1.38,0,0,0,1.25,0,.47.47,0,0,0,.26-.37v-.5a.43.43,0,0,1-.26.36,1.38,1.38,0,0,1-1.25,0A.43.43,0,0,1,51.32,53.56Z"/><g class="cls-13"><g class="cls-3"><path class="cls-1" d="M51.32,53.56v.51a.45.45,0,0,0,.26.36,1.18,1.18,0,0,0,.4.13v-.5a1.36,1.36,0,0,1-.4-.14.43.43,0,0,1-.25-.36Z"/><path class="cls-1" d="M52,54.06v.5a1.62,1.62,0,0,0,.44,0v-.5a1.69,1.69,0,0,1-.45,0Z"/><path class="cls-1" d="M52.42,54.06v.5a1.31,1.31,0,0,0,.41-.13l.07,0v-.5l-.07,0a1.18,1.18,0,0,1-.4.14Z"/><path class="cls-1" d="M53.07,53.64a.22.22,0,0,0,0-.08v.5a.19.19,0,0,1,0,.08.45.45,0,0,1-.18.24v-.5A.41.41,0,0,0,53.07,53.64Z"/></g></g></g><path class="cls-1" d="M51.58,53.2c-.35.2-.35.52,0,.72a1.38,1.38,0,0,0,1.25,0c.35-.2.35-.52,0-.72A1.38,1.38,0,0,0,51.58,53.2Z"/><path class="cls-1" d="M51.61,53.75l.11.09,0,0,0,0a1.1,1.1,0,0,0,.8,0,.05.05,0,0,1,0,0l0,0a.4.4,0,0,0,.12-.1.26.26,0,0,0,0-.41l0,0,0,0a1.08,1.08,0,0,0-1,0l0,0,0,0A.26.26,0,0,0,51.61,53.75Z"/><path class="cls-1" d="M51.58,53.4l.07,0a1.08,1.08,0,0,1,1,0c.2.12.25.29.14.44.19-.15.17-.37-.07-.51a1.08,1.08,0,0,0-1,0A.87.87,0,0,0,51.58,53.4Z"/></g><path class="cls-2" d="M54.66,47.31c0,.41-.28.57-.63.37a1.41,1.41,0,0,1-.64-1.1c0-.41.29-.57.64-.37A1.4,1.4,0,0,1,54.66,47.31Z"/><g class="cls-3"><path class="cls-5" d="M53.39,46.17l.23-.13a.46.46,0,0,1,.47.05l-.22.13A.48.48,0,0,0,53.39,46.17Z"/><g class="cls-14"><path class="cls-2" d="M53.39,46.17l.23-.13a.42.42,0,0,1,.17,0l-.23.14a.33.33,0,0,0-.17,0Z"/><path class="cls-2" d="M53.56,46.13l.23-.14a.56.56,0,0,1,.3.1l-.22.13a.5.5,0,0,0-.31-.09Z"/></g><path class="cls-8" d="M53.39,46.17l.23-.13a.46.46,0,0,1,.47.05l-.22.13A.48.48,0,0,0,53.39,46.17Z"/><g class="cls-3"><path class="cls-5" d="M54.56,47.66l-.22.13a.47.47,0,0,0,.19-.42,1.47,1.47,0,0,0-.66-1.15l.22-.13a1.45,1.45,0,0,1,.67,1.14A.47.47,0,0,1,54.56,47.66Z"/><g class="cls-15"><path class="cls-2" d="M53.87,46.22l.22-.13a1.13,1.13,0,0,1,.3.24l-.23.14a1.11,1.11,0,0,0-.29-.25Z"/><path class="cls-2" d="M54.16,46.47l.23-.14a1.85,1.85,0,0,1,.21.33l-.22.13a1.51,1.51,0,0,0-.22-.32Z"/><path class="cls-2" d="M54.38,46.79l.22-.13a1.26,1.26,0,0,1,.16.57.47.47,0,0,1-.2.43l-.22.13a.47.47,0,0,0,.19-.42,1.39,1.39,0,0,0-.15-.58Z"/></g><path class="cls-8" d="M54.56,47.66l-.22.13a.47.47,0,0,0,.19-.42,1.47,1.47,0,0,0-.66-1.15l.22-.13a1.45,1.45,0,0,1,.67,1.14A.47.47,0,0,1,54.56,47.66Z"/></g><path class="cls-2" d="M53.87,46.22a1.47,1.47,0,0,1,.66,1.15c0,.42-.3.59-.67.38a1.47,1.47,0,0,1-.66-1.15C53.2,46.18,53.5,46,53.87,46.22Z"/><path class="cls-2" d="M53.87,46.4a1.1,1.1,0,0,1,.5.87c0,.33-.23.46-.51.29a1.1,1.1,0,0,1-.5-.87C53.36,46.37,53.59,46.24,53.87,46.4Z"/></g><path class="cls-2" d="M51.6,53.69V48a.62.62,0,0,1,.3-.52l1.76-1h0a.37.37,0,0,1,.21,0h0l.14.11v0a.84.84,0,0,1,.15.18l0,.06a.16.16,0,0,1,0,.07.08.08,0,0,1,0,0l0,0s0,0,0,0a1.46,1.46,0,0,1,0,.2v.11h0v0h0a.32.32,0,0,1-.1.1l0,0h0l-1.43.83v5.38h0v.05a.4.4,0,0,1-.12.1l0,0a.05.05,0,0,0,0,0,1.1,1.1,0,0,1-.8,0l0,0,0,0-.11-.09a.13.13,0,0,1,0-.06Z"/><path class="cls-10" d="M51.6,48v5.73a.13.13,0,0,0,0,.06l.11.09,0,0,0,0,.19,0V48.18a.67.67,0,0,1,.34-.59l1.75-1,0,0v0l-.14-.11h0a.37.37,0,0,0-.21,0h0l-1.76,1A.62.62,0,0,0,51.6,48Z"/><path class="cls-11" d="M52.36,48.12v5.82l.24-.06a.05.05,0,0,1,0,0l0,0a.4.4,0,0,0,.12-.1v-.05h0V48.31l1.43-.83,0,0a.32.32,0,0,0,.1-.1h0v0h0v-.11a1.46,1.46,0,0,0,0-.2l0,0,0,0v0h0v0h0V47h0a.24.24,0,0,1-.11.13l0,0Z"/><g class="cls-12"><path class="cls-2" d="M53.42,46.45a.37.37,0,0,1,.36,0,1.1,1.1,0,0,1,.5.87.43.43,0,0,1-.06.24.37.37,0,0,0,.15-.33,1.1,1.1,0,0,0-.5-.87C53.67,46.29,53.5,46.32,53.42,46.45Z"/></g><polygon class="cls-2" points="83.44 40.84 83.44 52.45 71.74 58.94 71.74 47.34 83.44 40.84"/><g class="cls-3"><polygon class="cls-1" points="79.95 47.16 82.02 45.97 82.01 43.03 79.94 44.22 79.95 47.16 79.95 47.16"/><polygon class="cls-16" points="79.94 44.8 82.02 45.97 81.79 43.11 79.72 44.3 79.94 44.8"/><polygon class="cls-1" points="82.02 45.97 81.76 45.81 79.69 47.01 79.95 47.16 82.02 45.97"/><polygon class="cls-1" points="82.01 43.03 81.75 42.88 81.76 45.81 82.02 45.97 82.01 43.03"/><polygon class="cls-1" points="79.72 44.09 79.58 44.02 79.59 47.48 79.73 47.55 79.72 44.09"/><polygon class="cls-1" points="82.24 42.64 82.11 42.56 79.58 44.02 79.72 44.09 82.24 42.64"/><path class="cls-1" d="M82.25,46.1l-2.52,1.45V44.09l2.52-1.45ZM80,47.16,82,46V43l-2.07,1.19v2.94Z"/></g><polygon class="cls-1" points="75.91 46.15 75.91 52.61 73.17 54.19 73.17 47.71 73.17 47.71 75.91 46.15"/><polygon class="cls-1" points="75.59 46.34 75.58 52.49 73.17 53.84 73.17 54.19 75.91 52.6 75.91 46.15 75.59 46.34"/><polygon class="cls-1" points="75.58 52.49 75.91 52.6 75.91 46.15 75.59 46.34 75.58 52.49"/><polygon class="cls-1" points="75.33 46.78 75.33 48.47 74.6 48.88 74.6 47.2 75.33 46.78"/><polygon class="cls-1" points="75.21 48.41 75.21 46.86 75.33 46.78 75.33 48.47 74.6 48.88 74.6 48.75 75.21 48.41"/><polygon class="cls-1" points="75.21 48.41 75.33 48.47 74.6 48.88 74.6 48.75 75.21 48.41"/><polygon class="cls-1" points="74.17 47.43 74.17 49.11 73.44 49.5 73.44 47.82 74.17 47.43"/><polygon class="cls-1" points="74.05 49.05 74.05 47.5 74.17 47.43 74.17 49.11 73.44 49.5 73.44 49.37 74.05 49.05"/><polygon class="cls-1" points="74.05 49.05 74.17 49.11 73.44 49.5 73.44 49.37 74.05 49.05"/><polygon class="cls-1" points="75.33 48.87 75.33 52.1 74.6 52.52 74.6 49.29 75.33 48.87"/><polygon class="cls-1" points="75.21 52.05 75.21 48.95 75.33 48.87 75.33 52.1 74.6 52.52 74.6 52.39 75.21 52.05"/><polygon class="cls-1" points="75.21 52.05 75.33 52.1 74.6 52.52 74.6 52.39 75.21 52.05"/><polygon class="cls-1" points="74.17 49.52 74.17 52.75 73.44 53.13 73.44 49.91 74.17 49.52"/><polygon class="cls-1" points="74.05 52.69 74.05 49.59 74.17 49.52 74.17 52.75 73.44 53.13 73.44 53.01 74.05 52.69"/><polygon class="cls-1" points="74.05 52.69 74.17 52.75 73.44 53.13 73.44 53.01 74.05 52.69"/><polygon class="cls-1" points="70.92 47.45 65.65 44.48 65.65 47.67 70.92 50.63 70.92 47.45"/><polygon class="cls-1" points="65.88 44.62 65.88 47.54 70.92 50.37 70.92 47.45 65.88 44.62"/><polygon class="cls-1" points="65.88 45 65.88 45.26 70.92 48.03 70.92 47.76 65.88 45"/><polygon class="cls-1" points="65.88 45.48 65.88 45.74 70.92 48.51 70.92 48.24 65.88 45.48"/><polygon class="cls-1" points="65.88 46.03 65.88 46.3 70.92 49.06 70.92 48.79 65.88 46.03"/><polygon class="cls-1" points="65.88 46.59 65.88 46.85 70.92 49.62 70.92 49.35 65.88 46.59"/><polygon class="cls-1" points="65.88 47.14 65.88 47.41 70.92 50.17 70.92 49.91 65.88 47.14"/><path class="cls-2" d="M58,25.25a1.42,1.42,0,0,1-.63,1.1.53.53,0,0,1-.39.07.42.42,0,0,1-.25-.44,1.33,1.33,0,0,1,.25-.72,1.28,1.28,0,0,1,.39-.38.46.46,0,0,1,.4-.06l.09.05A.46.46,0,0,1,58,25.25Z"/><path class="cls-2" d="M80.91,38.85v2.51h0a.35.35,0,0,1-.2.28.88.88,0,0,1-.26.09,1.15,1.15,0,0,1-.37,0H80l-.23-.08a.34.34,0,0,1-.19-.28v-.7h0V39.23l-22.51-13h0a.31.31,0,0,1-.18-.33.86.86,0,0,1,0-.16,1.17,1.17,0,0,1,.17-.38l0-.06a.86.86,0,0,1,.25-.22.38.38,0,0,1,.3-.05h0l.06,0L80.57,38.27A.67.67,0,0,1,80.91,38.85Z"/><path class="cls-17" d="M80.91,38.85v2.51h0a.35.35,0,0,1-.2.28.88.88,0,0,1-.26.09v-3L57.11,25.29a.86.86,0,0,1,.25-.22.38.38,0,0,1,.3-.05h0l.06,0L80.57,38.27A.67.67,0,0,1,80.91,38.85Z"/><path class="cls-18" d="M80,39v2.76l-.23-.08a.34.34,0,0,1-.19-.28v-.7h0V39.23l-22.51-13h0a.31.31,0,0,1-.18-.33.86.86,0,0,1,0-.16Z"/><path class="cls-2" d="M59.67,26.11v.83h0a.17.17,0,0,0,.08.11.56.56,0,0,0,.49,0c.08,0,.12-.1.11-.15v-.8h0l0,0a.51.51,0,0,0-.48,0,.2.2,0,0,0-.09.06Z"/><path class="cls-2" d="M59.79,26a.54.54,0,0,1,.48,0c.13.08.11.2,0,.28a.56.56,0,0,1-.49,0C59.63,26.18,59.65,26.05,59.79,26Z"/><path class="cls-2" d="M59.85,25.61v.49h0a.07.07,0,0,0,0,.06.26.26,0,0,0,.23,0,.1.1,0,0,0,.06-.07V25.6h0a.27.27,0,0,0-.23,0s0,0,0,0Z"/><path class="cls-2" d="M59.91,25.54a.27.27,0,0,1,.23,0c.06,0,0,.1,0,.13a.23.23,0,0,1-.23,0C59.83,25.64,59.84,25.58,59.91,25.54Z"/><g class="cls-3"><g class="cls-3"><path class="cls-5" d="M59.56,25.26v.1a.84.84,0,0,1,.39-.1v-.11A1,1,0,0,0,59.56,25.26Z"/><g class="cls-19"><g class="cls-3"><path class="cls-2" d="M59.56,25.26v.1a.84.84,0,0,1,.39-.1v-.11a1,1,0,0,0-.39.11Z"/></g></g><path class="cls-8" d="M59.56,25.26v.1a.84.84,0,0,1,.39-.1v-.11A1,1,0,0,0,59.56,25.26Z"/></g><g class="cls-3"><path class="cls-5" d="M60.08,25.15v.11a.81.81,0,0,1,.39.1v-.1A1,1,0,0,0,60.08,25.15Z"/><g class="cls-20"><g class="cls-3"><path class="cls-2" d="M60.08,25.15v.11a.81.81,0,0,1,.39.1v-.1a1,1,0,0,0-.39-.11Z"/></g></g><path class="cls-8" d="M60.08,25.15v.11a.81.81,0,0,1,.39.1v-.1A1,1,0,0,0,60.08,25.15Z"/></g><polygon class="cls-2" points="60.08 25.39 60.08 25.49 60.09 25.25 60.09 25.15 60.08 25.39"/><g class="cls-3"><path class="cls-5" d="M59.38,25.48v.1a.31.31,0,0,1,.18-.22v-.1A.31.31,0,0,0,59.38,25.48Z"/><g class="cls-21"><g class="cls-3"><path class="cls-2" d="M59.38,25.48v.1a.31.31,0,0,1,.18-.22v-.1a.31.31,0,0,0-.18.22Z"/></g></g><path class="cls-8" d="M59.38,25.48v.1a.31.31,0,0,1,.18-.22v-.1A.31.31,0,0,0,59.38,25.48Z"/></g><g class="cls-3"><path class="cls-5" d="M60.47,25.26v.1a.34.34,0,0,1,.18.22v-.1A.34.34,0,0,0,60.47,25.26Z"/><g class="cls-22"><g class="cls-3"><path class="cls-2" d="M60.47,25.26v.1a.34.34,0,0,1,.18.22v-.1a.34.34,0,0,0-.18-.22Z"/></g></g><path class="cls-8" d="M60.47,25.26v.1a.34.34,0,0,1,.18.22v-.1A.34.34,0,0,0,60.47,25.26Z"/></g><polygon class="cls-2" points="59.38 25.56 59.38 25.66 59.79 25.66 59.79 25.56 59.38 25.56"/><polygon class="cls-2" points="60.24 25.56 60.24 25.66 60.65 25.66 60.65 25.56 60.24 25.56"/><g class="cls-3"><path class="cls-5" d="M59.79,25.56v.1a.17.17,0,0,0,.06.06.14.14,0,0,0,.09,0v-.1a.14.14,0,0,1-.09,0A.17.17,0,0,1,59.79,25.56Z"/><g class="cls-23"><g class="cls-3"><path class="cls-2" d="M59.79,25.56v.1a.17.17,0,0,0,.06.06.14.14,0,0,0,.09,0v-.1a.14.14,0,0,1-.09,0,.17.17,0,0,1-.06-.06Z"/></g></g><path class="cls-8" d="M59.79,25.56v.1a.17.17,0,0,0,.06.06.14.14,0,0,0,.09,0v-.1a.14.14,0,0,1-.09,0A.17.17,0,0,1,59.79,25.56Z"/></g><g class="cls-3"><path class="cls-5" d="M60.08,25.65v.1a.19.19,0,0,0,.16-.09v-.1a.19.19,0,0,1-.16.09Z"/><g class="cls-24"><g class="cls-3"><path class="cls-2" d="M60.08,25.65v.1a.19.19,0,0,0,.16-.09v-.1a.19.19,0,0,1-.16.09Z"/></g></g><path class="cls-8" d="M60.08,25.65v.1a.19.19,0,0,0,.16-.09v-.1a.19.19,0,0,1-.16.09Z"/></g><polygon class="cls-2" points="60.08 25.89 60.08 25.99 60.08 25.75 60.08 25.65 60.08 25.89"/><g class="cls-3"><path class="cls-5" d="M59.19,25.53v.1a.4.4,0,0,0,.24.33,1.27,1.27,0,0,0,1.17,0,.4.4,0,0,0,.24-.34v-.1a.41.41,0,0,1-.24.34,1.27,1.27,0,0,1-1.17,0A.4.4,0,0,1,59.19,25.53Z"/><g class="cls-25"><g class="cls-3"><path class="cls-2" d="M59.19,25.53v.1a.4.4,0,0,0,.24.33,1.27,1.27,0,0,0,1.17,0,.4.4,0,0,0,.24-.34v-.1a.41.41,0,0,1-.24.34,1.27,1.27,0,0,1-1.17,0,.4.4,0,0,1-.24-.33Z"/></g></g><path class="cls-8" d="M59.19,25.53v.1a.4.4,0,0,0,.24.33,1.27,1.27,0,0,0,1.17,0,.4.4,0,0,0,.24-.34v-.1a.41.41,0,0,1-.24.34,1.27,1.27,0,0,1-1.17,0A.4.4,0,0,1,59.19,25.53Z"/></g><path class="cls-2" d="M60.6,25.18a.36.36,0,0,1,0,.68,1.27,1.27,0,0,1-1.17,0c-.33-.19-.32-.49,0-.68A1.33,1.33,0,0,1,60.6,25.18Zm-1,.08a.31.31,0,0,0-.18.22h.41a.1.1,0,0,1,.06-.05.25.25,0,0,1,.09,0v-.24a1,1,0,0,0-.39.11Zm.38.63v-.24a.14.14,0,0,1-.09,0,.17.17,0,0,1-.06-.06h-.41a.34.34,0,0,0,.18.23.93.93,0,0,0,.38.1Zm.53-.63a1,1,0,0,0-.39-.11v.24l.1,0a.1.1,0,0,1,.06.05h.41a.34.34,0,0,0-.18-.22Zm0,.53a.4.4,0,0,0,.19-.23h-.41a.19.19,0,0,1-.16.09v.24a.89.89,0,0,0,.38-.1Z"/></g><polygon class="cls-2" points="62.52 58.41 51.31 51.93 60.52 46.61 71.74 53.08 62.52 58.41"/><polygon class="cls-2" points="71.74 58.94 71.74 53.08 62.52 58.41 62.52 64.29 71.74 58.94"/><polygon class="cls-2" points="51.31 51.93 51.31 57.82 62.52 64.29 62.52 58.41 51.31 51.93"/><polygon class="cls-2" points="62.52 57.61 51.3 51.14 60.52 45.84 71.74 52.31 62.52 57.61"/><polygon class="cls-2" points="52.99 51.14 60.52 46.81 70.06 52.31 62.52 56.64 52.99 51.14"/><polygon class="cls-2" points="60.52 47.39 69.55 52.6 70.06 52.31 60.52 46.81 52.99 51.14 53.49 51.43 60.52 47.39"/><polygon class="cls-2" points="71.74 53.11 71.74 52.31 62.52 57.61 62.52 58.41 71.74 53.11"/><polygon class="cls-2" points="51.3 51.14 51.3 51.94 62.52 58.41 62.52 57.61 51.3 51.14"/><polygon class="cls-1" points="30.18 30.78 30.17 25.82 39.74 31.32 39.74 36.27 30.18 30.78"/><polygon class="cls-1" points="30.51 26.41 30.51 30.57 32.29 31.59 32.29 27.43 30.51 26.41"/><polygon class="cls-1" points="39.4 31.51 32.29 27.43 32.29 31.59 39.4 35.68 39.4 31.51"/><polygon class="cls-1" points="39.4 34.22 39.4 35.68 30.52 30.58 32.29 30.17 39.4 34.22"/><polygon class="cls-1" points="33.7 28.17 33.7 32.52 33.51 32.41 33.51 28.05 33.7 28.17"/><polygon class="cls-1" points="36.73 29.89 36.73 34.25 36.54 34.14 36.54 29.78 36.73 29.89"/><g class="cls-3"><g class="cls-3"><path class="cls-5" d="M29.25,48.89v.72a1.93,1.93,0,0,1-1.14,1.59,6.1,6.1,0,0,1-5.52,0,2,2,0,0,1-1.15-1.61v-.73a2,2,0,0,0,1.15,1.62,6.07,6.07,0,0,0,5.52,0A1.92,1.92,0,0,0,29.25,48.89Z"/><g class="cls-26"><g class="cls-3"><path class="cls-2" d="M29.25,48.89v.72a1.93,1.93,0,0,1-1.14,1.59,5.08,5.08,0,0,1-1.76.59v-.73a4.7,4.7,0,0,0,1.76-.59,1.92,1.92,0,0,0,1.14-1.58Z"/><path class="cls-2" d="M26.35,51.06v.73a6.84,6.84,0,0,1-2,0v-.72a6.84,6.84,0,0,0,2,0Z"/><path class="cls-2" d="M24.38,51.07v.72a5.17,5.17,0,0,1-1.79-.59A2.9,2.9,0,0,1,22.3,51v-.72l.29.19a5.39,5.39,0,0,0,1.79.59Z"/><path class="cls-2" d="M21.49,49.23a1.5,1.5,0,0,1,0-.37v.73a1.64,1.64,0,0,0,0,.37,2.06,2.06,0,0,0,.81,1v-.72A2.08,2.08,0,0,1,21.49,49.23Z"/></g></g><path class="cls-8" d="M29.25,48.89v.72a1.93,1.93,0,0,1-1.14,1.59,6.1,6.1,0,0,1-5.52,0,2,2,0,0,1-1.15-1.61v-.73a2,2,0,0,0,1.15,1.62,6.07,6.07,0,0,0,5.52,0A1.92,1.92,0,0,0,29.25,48.89Z"/></g><path class="cls-2" d="M28.1,47.28c1.53.88,1.53,2.31,0,3.19a6.07,6.07,0,0,1-5.52,0c-1.53-.89-1.54-2.32,0-3.2A6.06,6.06,0,0,1,28.1,47.28Z"/></g><g class="cls-3"><g class="cls-3"><path class="cls-5" d="M29,41.83l0,7a1.82,1.82,0,0,1-1.07,1.5,5.74,5.74,0,0,1-5.23,0,1.82,1.82,0,0,1-1.09-1.52l0-6.95a1.84,1.84,0,0,0,1.09,1.53,5.8,5.8,0,0,0,5.23,0A1.84,1.84,0,0,0,29,41.83Z"/><g class="cls-27"><g class="cls-3"><path class="cls-2" d="M29,41.83l0,7a1.82,1.82,0,0,1-1.07,1.5,4.71,4.71,0,0,1-1.67.56l0-7A4.69,4.69,0,0,0,28,43.34,1.84,1.84,0,0,0,29,41.83Z"/><path class="cls-2" d="M26.29,43.89l0,7a6.17,6.17,0,0,1-1.87,0l0-6.94a6.1,6.1,0,0,0,1.86,0Z"/><path class="cls-2" d="M24.43,43.9l0,6.94a4.62,4.62,0,0,1-1.69-.56,2.61,2.61,0,0,1-.28-.17l0-7,.28.18a4.75,4.75,0,0,0,1.69.56Z"/><path class="cls-2" d="M21.69,42.16a1.39,1.39,0,0,1,0-.35l0,6.95a1.39,1.39,0,0,0,0,.35,2,2,0,0,0,.77,1l0-7A1.92,1.92,0,0,1,21.69,42.16Z"/></g></g><path class="cls-8" d="M29,41.83l0,7a1.82,1.82,0,0,1-1.07,1.5,5.74,5.74,0,0,1-5.23,0,1.82,1.82,0,0,1-1.09-1.52l0-6.95a1.84,1.84,0,0,0,1.09,1.53,5.8,5.8,0,0,0,5.23,0A1.84,1.84,0,0,0,29,41.83Z"/></g><path class="cls-2" d="M28,40.31c1.45.83,1.46,2.19,0,3a5.8,5.8,0,0,1-5.23,0c-1.45-.84-1.46-2.2,0-3A5.74,5.74,0,0,1,28,40.31Z"/><path class="cls-2" d="M27.35,43l-.17.09-.16.08a4.53,4.53,0,0,1-3.34,0l-.17-.07L23.35,43c-1-.58-1.1-1.48-.3-2.12l.13-.1.16-.1a4.41,4.41,0,0,1,4,0l.16.11.13.09C28.43,41.5,28.34,42.4,27.35,43Z"/></g><g class="cls-3"><g class="cls-3"><path class="cls-1" d="M33.51,53.64v.55a.47.47,0,0,1-.28.4,1.53,1.53,0,0,1-1.38,0,.5.5,0,0,1-.29-.4v-.56a.48.48,0,0,0,.29.41,1.53,1.53,0,0,0,1.38,0A.51.51,0,0,0,33.51,53.64Z"/><g class="cls-28"><g class="cls-3"><path class="cls-1" d="M33.51,53.64v.55a.47.47,0,0,1-.28.4,1.52,1.52,0,0,1-.44.15v-.56a1.25,1.25,0,0,0,.45-.14.51.51,0,0,0,.28-.4Z"/><path class="cls-1" d="M32.78,54.18v.56a2,2,0,0,1-.49,0v-.56a1.35,1.35,0,0,0,.49,0Z"/><path class="cls-1" d="M32.29,54.18v.56a1.26,1.26,0,0,1-.45-.15.18.18,0,0,1-.07-.05V54l.08,0a1.2,1.2,0,0,0,.44.14Z"/><path class="cls-1" d="M31.57,53.73a.34.34,0,0,1,0-.1v.56a.28.28,0,0,0,0,.09.51.51,0,0,0,.21.26V54A.52.52,0,0,1,31.57,53.73Z"/></g></g></g><path class="cls-1" d="M33.22,53.24c.38.22.39.58,0,.8a1.53,1.53,0,0,1-1.38,0c-.39-.22-.39-.58,0-.8A1.53,1.53,0,0,1,33.22,53.24Z"/><path class="cls-1" d="M33.18,53.85l-.12.09,0,0a.05.05,0,0,0,0,0,1.24,1.24,0,0,1-.89,0l0,0,0,0a.85.85,0,0,1-.14-.1.3.3,0,0,1,.06-.46l0,0,0,0a1.17,1.17,0,0,1,1.06,0l0,0,0,0A.29.29,0,0,1,33.18,53.85Z"/><path class="cls-1" d="M33.21,53.46l-.08-.05a1.14,1.14,0,0,0-1.05,0c-.22.13-.28.32-.15.48-.21-.17-.19-.41.07-.56a1.17,1.17,0,0,1,1.06,0A.39.39,0,0,1,33.21,53.46Z"/></g><path class="cls-2" d="M27.07,48.9c0,.44.31.63.7.4a1.54,1.54,0,0,0,.7-1.21c0-.45-.31-.63-.7-.41A1.56,1.56,0,0,0,27.07,48.9Z"/><g class="cls-3"><path class="cls-5" d="M28.47,47.64l-.25-.15a.55.55,0,0,0-.52,0l.25.15A.5.5,0,0,1,28.47,47.64Z"/><g class="cls-29"><path class="cls-2" d="M28.47,47.64l-.25-.15a.53.53,0,0,0-.18-.05l.25.15a.37.37,0,0,1,.18,0Z"/><path class="cls-2" d="M28.29,47.59,28,47.44a.69.69,0,0,0-.34.1l.25.15a.66.66,0,0,1,.34-.1Z"/></g><path class="cls-8" d="M28.47,47.64l-.25-.15a.55.55,0,0,0-.52,0l.25.15A.5.5,0,0,1,28.47,47.64Z"/><g class="cls-3"><path class="cls-5" d="M27.18,49.28l.25.15a.52.52,0,0,1-.21-.47A1.57,1.57,0,0,1,28,47.69l-.25-.15A1.6,1.6,0,0,0,27,48.81.51.51,0,0,0,27.18,49.28Z"/><g class="cls-30"><path class="cls-2" d="M28,47.69l-.25-.15a1.44,1.44,0,0,0-.33.28l.25.14a1.4,1.4,0,0,1,.33-.27Z"/><path class="cls-2" d="M27.62,48l-.25-.14a2.25,2.25,0,0,0-.24.36l.25.14a2.25,2.25,0,0,1,.24-.36Z"/><path class="cls-2" d="M27.38,48.32l-.25-.14a1.47,1.47,0,0,0-.16.63.51.51,0,0,0,.21.47l.25.15a.52.52,0,0,1-.21-.47,1.51,1.51,0,0,1,.16-.64Z"/></g><path class="cls-8" d="M27.18,49.28l.25.15a.52.52,0,0,1-.21-.47A1.57,1.57,0,0,1,28,47.69l-.25-.15A1.6,1.6,0,0,0,27,48.81.51.51,0,0,0,27.18,49.28Z"/></g><path class="cls-2" d="M28,47.69A1.57,1.57,0,0,0,27.22,49c0,.46.33.65.73.42a1.58,1.58,0,0,0,.73-1.27C28.68,47.64,28.35,47.46,28,47.69Z"/><path class="cls-2" d="M28,47.89a1.23,1.23,0,0,0-.56,1c0,.35.25.49.56.32a1.23,1.23,0,0,0,.56-1C28.51,47.86,28.26,47.71,28,47.89Z"/></g><path class="cls-2" d="M33.19,53.78V51.21a.66.66,0,0,0-.33-.58l-4.68-2.71h0a.3.3,0,0,0-.23,0h0a.79.79,0,0,0-.15.12h0a.87.87,0,0,0-.17.21l0,.06a.25.25,0,0,1,0,.07s0,0,0,.06l0,0s0,0,0,.05a1,1,0,0,0-.05.22.41.41,0,0,0,0,.11v0h0v0h0V49h0a.29.29,0,0,0,.1.12h0l4.34,2.51v2.19h0v.06a.85.85,0,0,0,.14.1l0,0,0,0A1.24,1.24,0,0,0,33,54a.05.05,0,0,1,0,0l0,0,.12-.09a.17.17,0,0,0,0-.07Z"/><path class="cls-10" d="M33.19,51.21v2.57a.17.17,0,0,1,0,.07l-.12.09,0,0a.05.05,0,0,0,0,0l-.21.06v-2.6a.78.78,0,0,0-.38-.66l-4.68-2.7.05-.05h0a.79.79,0,0,1,.15-.12h0a.3.3,0,0,1,.23,0h0l4.68,2.71A.66.66,0,0,1,33.19,51.21Z"/><path class="cls-11" d="M32.36,51.39v2.67L32.09,54l0,0,0,0a.85.85,0,0,1-.14-.1v-.06h0V51.59l-4.34-2.51h0a.23.23,0,0,1-.1-.12h0V48.9h0v0h0v0a.41.41,0,0,1,0-.11,1,1,0,0,1,.05-.22s0,0,0-.05l0,0v0h0v0h0v0h0a.37.37,0,0,0,.13.15l0,0Z"/><g class="cls-12"><path class="cls-2" d="M28.45,48a.39.39,0,0,0-.4,0,1.23,1.23,0,0,0-.56,1,.48.48,0,0,0,.06.26.38.38,0,0,1-.16-.35,1.23,1.23,0,0,1,.56-1A.35.35,0,0,1,28.45,48Z"/></g><g class="cls-3"><g class="cls-3"><path class="cls-5" d="M22.88,52.58v.72a1.94,1.94,0,0,1-1.13,1.59,6.1,6.1,0,0,1-5.52,0,2,2,0,0,1-1.16-1.61v-.72a2,2,0,0,0,1.16,1.61,6.1,6.1,0,0,0,5.52,0A2,2,0,0,0,22.88,52.58Z"/><g class="cls-31"><g class="cls-3"><path class="cls-2" d="M22.88,52.58v.72a1.94,1.94,0,0,1-1.13,1.59,5,5,0,0,1-1.77.59v-.72a5.21,5.21,0,0,0,1.77-.59,2,2,0,0,0,1.13-1.59Z"/><path class="cls-2" d="M20,54.76v.72a6.44,6.44,0,0,1-2,0v-.72a6.78,6.78,0,0,0,2,0Z"/><path class="cls-2" d="M18,54.76v.72a4.85,4.85,0,0,1-1.79-.59,2.2,2.2,0,0,1-.3-.19V54l.3.19a5,5,0,0,0,1.79.59Z"/><path class="cls-2" d="M15.12,52.92a1.49,1.49,0,0,1,0-.36v.72a1.57,1.57,0,0,0,0,.37,2,2,0,0,0,.81,1.05V54A2,2,0,0,1,15.12,52.92Z"/></g></g><path class="cls-8" d="M22.88,52.58v.72a1.94,1.94,0,0,1-1.13,1.59,6.1,6.1,0,0,1-5.52,0,2,2,0,0,1-1.16-1.61v-.72a2,2,0,0,0,1.16,1.61,6.1,6.1,0,0,0,5.52,0A2,2,0,0,0,22.88,52.58Z"/></g><path class="cls-2" d="M21.73,51c1.53.88,1.54,2.31,0,3.2a6.1,6.1,0,0,1-5.52,0c-1.53-.89-1.54-2.32,0-3.2A6.1,6.1,0,0,1,21.73,51Z"/></g><g class="cls-3"><g class="cls-3"><path class="cls-5" d="M22.67,45.53l0,6.94A1.86,1.86,0,0,1,21.57,54a5.8,5.8,0,0,1-5.23,0,1.86,1.86,0,0,1-1.09-1.53l0-6.94A1.84,1.84,0,0,0,16.37,47a5.74,5.74,0,0,0,5.23,0A1.82,1.82,0,0,0,22.67,45.53Z"/><g class="cls-32"><g class="cls-3"><path class="cls-2" d="M22.67,45.53l0,6.94A1.86,1.86,0,0,1,21.57,54a4.91,4.91,0,0,1-1.67.56l0-6.95A4.91,4.91,0,0,0,21.6,47a1.82,1.82,0,0,0,1.07-1.5Z"/><path class="cls-2" d="M19.93,47.59l0,6.95a6.44,6.44,0,0,1-1.86,0l0-6.95a6.44,6.44,0,0,0,1.86,0Z"/><path class="cls-2" d="M18.07,47.59l0,6.95a4.87,4.87,0,0,1-1.7-.56l-.27-.18,0-6.95.28.18a4.87,4.87,0,0,0,1.7.56Z"/><path class="cls-2" d="M15.33,45.85a1,1,0,0,1-.05-.34l0,6.94a1.34,1.34,0,0,0,.05.35,1.87,1.87,0,0,0,.77,1l0-6.95A1.86,1.86,0,0,1,15.33,45.85Z"/></g></g><path class="cls-8" d="M22.67,45.53l0,6.94A1.86,1.86,0,0,1,21.57,54a5.8,5.8,0,0,1-5.23,0,1.86,1.86,0,0,1-1.09-1.53l0-6.94A1.84,1.84,0,0,0,16.37,47a5.74,5.74,0,0,0,5.23,0A1.82,1.82,0,0,0,22.67,45.53Z"/></g><path class="cls-2" d="M21.58,44c1.45.84,1.46,2.19,0,3a5.74,5.74,0,0,1-5.23,0c-1.45-.84-1.46-2.19,0-3A5.74,5.74,0,0,1,21.58,44Z"/><path class="cls-2" d="M21,46.67a.65.65,0,0,1-.16.09l-.17.08a4.58,4.58,0,0,1-3.34,0l-.17-.08L17,46.67c-1-.57-1.1-1.48-.29-2.12l.13-.1.15-.09a4.41,4.41,0,0,1,4,0l.16.1.13.1C22.07,45.2,22,46.1,21,46.67Z"/></g><g class="cls-3"><g class="cls-3"><path class="cls-1" d="M27.14,57.33v.56a.49.49,0,0,1-.29.39,1.47,1.47,0,0,1-1.38,0,.49.49,0,0,1-.29-.4v-.55a.5.5,0,0,0,.29.4,1.53,1.53,0,0,0,1.38,0A.47.47,0,0,0,27.14,57.33Z"/><g class="cls-33"><g class="cls-3"><path class="cls-1" d="M27.14,57.33v.56a.49.49,0,0,1-.29.39,1,1,0,0,1-.44.15v-.55a1.52,1.52,0,0,0,.44-.15.47.47,0,0,0,.28-.4Z"/><path class="cls-1" d="M26.42,57.88v.55a1.35,1.35,0,0,1-.49,0v-.55a2,2,0,0,0,.49,0Z"/><path class="cls-1" d="M25.93,57.88v.55a1.14,1.14,0,0,1-.45-.15l-.07,0v-.56l.07,0a1.49,1.49,0,0,0,.45.15Z"/><path class="cls-1" d="M25.2,57.42s0-.06,0-.09v.55a.29.29,0,0,0,0,.09.46.46,0,0,0,.2.27v-.56A.55.55,0,0,1,25.2,57.42Z"/></g></g></g><path class="cls-1" d="M26.86,56.93a.42.42,0,0,1,0,.8,1.53,1.53,0,0,1-1.38,0,.42.42,0,0,1,0-.8A1.53,1.53,0,0,1,26.86,56.93Z"/><path class="cls-1" d="M26.82,57.54a.4.4,0,0,1-.12.1l-.05,0,0,0a1.21,1.21,0,0,1-.88,0l-.05,0,0,0a.75.75,0,0,1-.13-.11.29.29,0,0,1,0-.45l0,0,0,0a1.21,1.21,0,0,1,1.05,0l0,0,0,0A.29.29,0,0,1,26.82,57.54Z"/><path class="cls-1" d="M26.85,57.15l-.08,0a1.17,1.17,0,0,0-1.06,0c-.22.13-.27.32-.15.48-.21-.17-.18-.4.08-.56a1.21,1.21,0,0,1,1.05,0A.75.75,0,0,1,26.85,57.15Z"/></g><path class="cls-2" d="M20.7,52.59c0,.45.32.63.7.41a1.57,1.57,0,0,0,.71-1.22c0-.45-.32-.63-.71-.41A1.58,1.58,0,0,0,20.7,52.59Z"/><g class="cls-3"><path class="cls-5" d="M22.1,51.33l-.25-.14a.5.5,0,0,0-.52.05l.25.14A.53.53,0,0,1,22.1,51.33Z"/><g class="cls-34"><path class="cls-2" d="M22.1,51.33l-.25-.14a.35.35,0,0,0-.18,0l.25.14a.35.35,0,0,1,.18,0Z"/><path class="cls-2" d="M21.92,51.28l-.25-.14a.69.69,0,0,0-.34.1l.25.14a.69.69,0,0,1,.34-.1Z"/></g><path class="cls-8" d="M22.1,51.33l-.25-.14a.5.5,0,0,0-.52.05l.25.14A.53.53,0,0,1,22.1,51.33Z"/><g class="cls-3"><path class="cls-5" d="M20.81,53l.25.14a.52.52,0,0,1-.21-.47,1.64,1.64,0,0,1,.73-1.27l-.25-.14a1.62,1.62,0,0,0-.73,1.27A.52.52,0,0,0,20.81,53Z"/><g class="cls-35"><path class="cls-2" d="M21.58,51.38l-.25-.14a1.35,1.35,0,0,0-.32.27l.25.15a1.22,1.22,0,0,1,.32-.28Z"/><path class="cls-2" d="M21.26,51.66,21,51.51a1.41,1.41,0,0,0-.24.36L21,52a1.36,1.36,0,0,1,.24-.35Z"/><path class="cls-2" d="M21,52l-.25-.14a1.39,1.39,0,0,0-.17.64.52.52,0,0,0,.21.47l.25.14a.52.52,0,0,1-.21-.47A1.43,1.43,0,0,1,21,52Z"/></g><path class="cls-8" d="M20.81,53l.25.14a.52.52,0,0,1-.21-.47,1.64,1.64,0,0,1,.73-1.27l-.25-.14a1.62,1.62,0,0,0-.73,1.27A.52.52,0,0,0,20.81,53Z"/></g><path class="cls-2" d="M21.58,51.38a1.64,1.64,0,0,0-.73,1.27c0,.47.33.65.74.42a1.62,1.62,0,0,0,.73-1.27C22.32,51.34,22,51.15,21.58,51.38Z"/><path class="cls-2" d="M21.58,51.58a1.23,1.23,0,0,0-.56,1c0,.35.26.5.57.32a1.25,1.25,0,0,0,.55-1C22.14,51.55,21.89,51.41,21.58,51.58Z"/></g><path class="cls-2" d="M26.83,57.48V54.9a.68.68,0,0,0-.33-.57l-4.69-2.71,0,0h0a.28.28,0,0,0-.22,0h0a.61.61,0,0,0-.16.12h0l-.17.21,0,.06a.2.2,0,0,0,0,.08l0,.05,0,0,0,0a1.42,1.42,0,0,0,0,.22s0,.07,0,.1v0h0v0h0v0h0a.29.29,0,0,0,.1.12l0,0h0l4.33,2.51v2.19h0a.11.11,0,0,0,0,.05.75.75,0,0,0,.13.11l0,0,.05,0a1.21,1.21,0,0,0,.88,0l0,0,.05,0a.4.4,0,0,0,.12-.1s0,0,0-.06Z"/><path class="cls-10" d="M26.83,54.9v2.57s0,.05,0,.07a.4.4,0,0,1-.12.1l-.05,0,0,0-.21.06v-2.6a.73.73,0,0,0-.38-.65l-4.67-2.71,0-.05h0a.61.61,0,0,1,.16-.12h0a.28.28,0,0,1,.22,0h0l0,0,4.69,2.71A.68.68,0,0,1,26.83,54.9Z"/><path class="cls-11" d="M26,55.08v2.67a1.11,1.11,0,0,1-.26-.07l-.05,0,0,0a.75.75,0,0,1-.13-.11.13.13,0,0,1,0-.06h0V55.29l-4.33-2.51,0,0a.29.29,0,0,1-.1-.12h0v0h0v0h0v0s0-.07,0-.1a1.42,1.42,0,0,1,0-.22l0,0,0,0,0,0v0h0v0h0v.05h0a.26.26,0,0,0,.12.15l0,0Z"/><g class="cls-12"><path class="cls-2" d="M22.08,51.64a.4.4,0,0,0-.4,0,1.23,1.23,0,0,0-.56,1,.44.44,0,0,0,.07.26.43.43,0,0,1-.17-.36,1.23,1.23,0,0,1,.56-1C21.8,51.46,22,51.49,22.08,51.64Z"/></g><g class="cls-3"><g class="cls-3"><path class="cls-5" d="M16.26,56.44v.73a2,2,0,0,1-1.13,1.59,6.1,6.1,0,0,1-5.52,0,1.94,1.94,0,0,1-1.15-1.61v-.73A1.93,1.93,0,0,0,9.61,58a6,6,0,0,0,5.52,0A1.94,1.94,0,0,0,16.26,56.44Z"/><g class="cls-36"><g class="cls-3"><path class="cls-2" d="M16.26,56.44v.73a2,2,0,0,1-1.13,1.59,5,5,0,0,1-1.77.58v-.72A5,5,0,0,0,15.13,58a1.94,1.94,0,0,0,1.13-1.59Z"/><path class="cls-2" d="M13.36,58.62v.72a6.78,6.78,0,0,1-2,0v-.73a6.44,6.44,0,0,0,2,0Z"/><path class="cls-2" d="M11.4,58.62v.73a5.24,5.24,0,0,1-1.79-.59c-.11-.06-.2-.13-.29-.19v-.73a2.08,2.08,0,0,0,.29.19,4.85,4.85,0,0,0,1.79.59Z"/><path class="cls-2" d="M8.51,56.79a1.18,1.18,0,0,1,0-.37v.73a1.12,1.12,0,0,0,0,.36,2,2,0,0,0,.81,1.06v-.73A1.92,1.92,0,0,1,8.51,56.79Z"/></g></g><path class="cls-8" d="M16.26,56.44v.73a2,2,0,0,1-1.13,1.59,6.1,6.1,0,0,1-5.52,0,1.94,1.94,0,0,1-1.15-1.61v-.73A1.93,1.93,0,0,0,9.61,58a6,6,0,0,0,5.52,0A1.94,1.94,0,0,0,16.26,56.44Z"/></g><path class="cls-2" d="M15.11,54.83c1.53.89,1.54,2.32,0,3.2a6,6,0,0,1-5.52,0c-1.53-.88-1.54-2.31,0-3.2A6.1,6.1,0,0,1,15.11,54.83Z"/></g><g class="cls-3"><g class="cls-3"><path class="cls-5" d="M16.06,49.39l0,7A1.82,1.82,0,0,1,15,57.84a5.74,5.74,0,0,1-5.23,0,1.84,1.84,0,0,1-1.09-1.52l0-7a1.84,1.84,0,0,0,1.09,1.52,5.74,5.74,0,0,0,5.23,0A1.82,1.82,0,0,0,16.06,49.39Z"/><g class="cls-37"><g class="cls-3"><path class="cls-2" d="M16.06,49.39l0,7A1.82,1.82,0,0,1,15,57.84a4.71,4.71,0,0,1-1.67.56l0-6.95A4.71,4.71,0,0,0,15,50.89a1.82,1.82,0,0,0,1.08-1.5Z"/><path class="cls-2" d="M13.31,51.45l0,6.95a6.44,6.44,0,0,1-1.86,0l0-6.95a6.11,6.11,0,0,0,1.86,0Z"/><path class="cls-2" d="M11.45,51.45l0,6.95a4.87,4.87,0,0,1-1.7-.56,2.53,2.53,0,0,1-.27-.18l0-6.94a1.78,1.78,0,0,0,.27.17,4.67,4.67,0,0,0,1.7.56Z"/><path class="cls-2" d="M8.71,49.72a1.41,1.41,0,0,1-.05-.35l0,7a1.33,1.33,0,0,0,0,.34,1.88,1.88,0,0,0,.77,1l0-6.94A1.91,1.91,0,0,1,8.71,49.72Z"/></g></g><path class="cls-8" d="M16.06,49.39l0,7A1.82,1.82,0,0,1,15,57.84a5.74,5.74,0,0,1-5.23,0,1.84,1.84,0,0,1-1.09-1.52l0-7a1.84,1.84,0,0,0,1.09,1.52,5.74,5.74,0,0,0,5.23,0A1.82,1.82,0,0,0,16.06,49.39Z"/></g><path class="cls-2" d="M15,47.87c1.44.83,1.45,2.19,0,3a5.74,5.74,0,0,1-5.23,0c-1.45-.83-1.45-2.19,0-3A5.74,5.74,0,0,1,15,47.87Z"/><path class="cls-2" d="M14.37,50.54l-.17.09L14,50.7a4.58,4.58,0,0,1-3.34,0l-.16-.08a.8.8,0,0,1-.16-.08c-1-.58-1.11-1.48-.3-2.12l.13-.1.15-.1a4.41,4.41,0,0,1,4,0l.16.1.14.1C15.45,49.06,15.36,50,14.37,50.54Z"/></g><g class="cls-3"><g class="cls-3"><path class="cls-1" d="M20.53,61.2v.55a.49.49,0,0,1-.29.4,1.53,1.53,0,0,1-1.38,0,.49.49,0,0,1-.28-.4v-.56a.49.49,0,0,0,.29.4,1.53,1.53,0,0,0,1.38,0A.51.51,0,0,0,20.53,61.2Z"/><g class="cls-38"><g class="cls-3"><path class="cls-1" d="M20.53,61.2v.55a.49.49,0,0,1-.29.4,1.43,1.43,0,0,1-.44.15v-.56a1,1,0,0,0,.44-.15.51.51,0,0,0,.29-.39Z"/><path class="cls-1" d="M19.8,61.74v.56a2,2,0,0,1-.49,0v-.56a1.35,1.35,0,0,0,.49,0Z"/><path class="cls-1" d="M19.31,61.74v.56a1.59,1.59,0,0,1-.45-.15l-.07,0v-.55l.07,0a1.14,1.14,0,0,0,.45.15Z"/><path class="cls-1" d="M18.59,61.28a.29.29,0,0,1,0-.09v.56a.28.28,0,0,0,0,.09.52.52,0,0,0,.2.26v-.55A.46.46,0,0,1,18.59,61.28Z"/></g></g></g><path class="cls-1" d="M20.24,60.79c.38.23.38.58,0,.8a1.53,1.53,0,0,1-1.38,0c-.38-.22-.38-.57,0-.8A1.53,1.53,0,0,1,20.24,60.79Z"/><path class="cls-1" d="M20.2,61.41l-.12.09,0,0,0,0a1.21,1.21,0,0,1-.88,0l0,0-.05,0a.47.47,0,0,1-.13-.11.29.29,0,0,1,.05-.45l0,0,0,0a1.17,1.17,0,0,1,1.06,0l0,0,0,0A.29.29,0,0,1,20.2,61.41Z"/><path class="cls-1" d="M20.23,61,20.15,61a1.14,1.14,0,0,0-1,0c-.23.13-.28.33-.16.49-.21-.17-.18-.41.08-.56a1.17,1.17,0,0,1,1.06,0A.64.64,0,0,1,20.23,61Z"/></g><path class="cls-2" d="M14.08,56.45c0,.45.32.63.71.41a1.57,1.57,0,0,0,.7-1.22c0-.44-.32-.62-.7-.4A1.55,1.55,0,0,0,14.08,56.45Z"/><g class="cls-3"><path class="cls-5" d="M15.49,55.2l-.25-.15a.52.52,0,0,0-.53.05l.25.15A.52.52,0,0,1,15.49,55.2Z"/><g class="cls-39"><path class="cls-2" d="M15.49,55.2l-.25-.15a.41.41,0,0,0-.19,0l.25.15a.32.32,0,0,1,.19.05Z"/><path class="cls-2" d="M15.3,55.15,15.05,55a.72.72,0,0,0-.34.1l.25.15a.62.62,0,0,1,.34-.1Z"/></g><path class="cls-8" d="M15.49,55.2l-.25-.15a.52.52,0,0,0-.53.05l.25.15A.52.52,0,0,1,15.49,55.2Z"/><g class="cls-3"><path class="cls-5" d="M14.2,56.84l.25.15a.51.51,0,0,1-.22-.48A1.62,1.62,0,0,1,15,55.25l-.25-.15A1.64,1.64,0,0,0,14,56.37.5.5,0,0,0,14.2,56.84Z"/><g class="cls-40"><path class="cls-2" d="M15,55.25l-.25-.15a1.37,1.37,0,0,0-.32.28l.25.14a1.31,1.31,0,0,1,.32-.27Z"/><path class="cls-2" d="M14.64,55.52l-.25-.14a1.45,1.45,0,0,0-.24.35l.25.15a1.74,1.74,0,0,1,.24-.36Z"/><path class="cls-2" d="M14.4,55.88l-.25-.15a1.39,1.39,0,0,0-.17.64.5.5,0,0,0,.22.47l.25.15a.51.51,0,0,1-.22-.48,1.39,1.39,0,0,1,.17-.63Z"/></g><path class="cls-8" d="M14.2,56.84l.25.15a.51.51,0,0,1-.22-.48A1.62,1.62,0,0,1,15,55.25l-.25-.15A1.64,1.64,0,0,0,14,56.37.5.5,0,0,0,14.2,56.84Z"/></g><path class="cls-2" d="M15,55.25a1.62,1.62,0,0,0-.73,1.26c0,.47.33.66.74.42a1.62,1.62,0,0,0,.73-1.26C15.7,55.2,15.37,55,15,55.25Z"/><path class="cls-2" d="M15,55.45a1.25,1.25,0,0,0-.55,1c0,.36.25.5.56.32a1.19,1.19,0,0,0,.55-1C15.52,55.41,15.27,55.27,15,55.45Z"/></g><path class="cls-2" d="M20.21,61.34V58.77a.68.68,0,0,0-.33-.58L15.2,55.48h0a.3.3,0,0,0-.23,0h0a.64.64,0,0,0-.15.13h0a1.2,1.2,0,0,0-.17.21l0,0s0,0,0,.08l0,.05,0,0s0,0,0,.05a.9.9,0,0,0-.06.22v.12h0v0h0v0h0a.25.25,0,0,0,.1.12l0,0h0l4.33,2.51v2.19h0a.09.09,0,0,0,0,0,.47.47,0,0,0,.13.11l.05,0,0,0a1.21,1.21,0,0,0,.88,0l0,0,0,0,.12-.09a.2.2,0,0,0,0-.07Z"/><path class="cls-10" d="M20.21,58.77v2.57a.2.2,0,0,1,0,.07l-.12.09,0,0,0,0-.21.07V59a.76.76,0,0,0-.38-.66l-4.67-2.71,0,0h0a.64.64,0,0,1,.15-.13h0a.3.3,0,0,1,.23,0h0l4.68,2.71A.68.68,0,0,1,20.21,58.77Z"/><path class="cls-11" d="M19.38,59v2.66a.77.77,0,0,1-.27-.07l0,0-.05,0a.47.47,0,0,1-.13-.11.09.09,0,0,1,0,0h0V59.15l-4.33-2.51,0,0a.25.25,0,0,1-.1-.12h0v0h0v0h0v-.12a.9.9,0,0,1,.06-.22s0,0,0-.05l0,0,0,0v0h0v0h0v0h0a.33.33,0,0,0,.12.14l0,0Z"/><g class="cls-12"><path class="cls-2" d="M15.46,55.51a.37.37,0,0,0-.4,0,1.22,1.22,0,0,0-.56,1,.47.47,0,0,0,.07.26.39.39,0,0,1-.16-.36,1.25,1.25,0,0,1,.55-1C15.18,55.32,15.37,55.36,15.46,55.51Z"/></g><polygon class="cls-2" points="41.03 30.2 61.8 18.21 50.09 11.45 29.33 23.44 41.03 30.2"/><polygon class="cls-2" points="60.03 18.21 50.09 12.47 31.1 23.44 41.03 29.17 60.03 18.21"/><polygon class="cls-2" points="50.09 13.06 31.61 23.73 31.1 23.44 50.09 12.47 60.03 18.21 59.52 18.5 50.09 13.06"/><polygon class="cls-2" points="29.33 24.28 29.33 23.44 41.03 30.2 41.03 31.03 29.33 24.28"/><polygon class="cls-2" points="61.8 18.21 61.8 19.05 41.03 31.03 41.03 30.2 61.8 18.21"/><g class="cls-3"><g class="cls-3"><path class="cls-1" d="M51.93,65.22v.56a.47.47,0,0,0,.28.39,1.53,1.53,0,0,0,1.38,0,.49.49,0,0,0,.29-.4v-.55a.5.5,0,0,1-.29.4,1.53,1.53,0,0,1-1.38,0A.49.49,0,0,1,51.93,65.22Z"/><g class="cls-41"><g class="cls-3"><path class="cls-1" d="M51.93,65.22v.56a.47.47,0,0,0,.28.39,1.1,1.1,0,0,0,.44.15v-.55a1.52,1.52,0,0,1-.44-.15.49.49,0,0,1-.28-.4Z"/><path class="cls-1" d="M52.65,65.77v.55a2,2,0,0,0,.49,0v-.55a2,2,0,0,1-.49,0Z"/><path class="cls-1" d="M53.14,65.77v.55a1.14,1.14,0,0,0,.45-.15l.07,0v-.56l-.07.05a1.49,1.49,0,0,1-.45.15Z"/><path class="cls-1" d="M53.87,65.31s0-.06,0-.09v.55a.29.29,0,0,1,0,.09.46.46,0,0,1-.2.27v-.56A.55.55,0,0,0,53.87,65.31Z"/></g></g></g><path class="cls-1" d="M52.22,64.82c-.39.22-.39.58,0,.8a1.53,1.53,0,0,0,1.38,0c.38-.22.39-.58,0-.8A1.53,1.53,0,0,0,52.22,64.82Z"/><path class="cls-1" d="M52.25,65.43a.94.94,0,0,0,.12.09l.05,0,0,0a1.21,1.21,0,0,0,.88,0l0,0,0,0a.5.5,0,0,0,.14-.1.3.3,0,0,0-.06-.46l0,0,0,0a1.14,1.14,0,0,0-1,0l0,0,0,0A.29.29,0,0,0,52.25,65.43Z"/><path class="cls-1" d="M52.22,65,52.3,65a1.17,1.17,0,0,1,1.06,0c.22.13.27.32.15.48.21-.17.18-.41-.08-.56a1.14,1.14,0,0,0-1,0A.53.53,0,0,0,52.22,65Z"/></g><path class="cls-2" d="M58.37,60.48c0,.45-.32.63-.7.4a1.52,1.52,0,0,1-.7-1.21c0-.45.31-.63.7-.41A1.58,1.58,0,0,1,58.37,60.48Z"/><g class="cls-3"><path class="cls-5" d="M57,59.22l.25-.14a.5.5,0,0,1,.52.05l-.25.14A.5.5,0,0,0,57,59.22Z"/><g class="cls-42"><path class="cls-2" d="M57,59.22l.25-.14a.27.27,0,0,1,.18,0l-.25.14a.35.35,0,0,0-.18,0Z"/><path class="cls-2" d="M57.15,59.17,57.4,59a.6.6,0,0,1,.34.1l-.25.14a.69.69,0,0,0-.34-.1Z"/></g><path class="cls-8" d="M57,59.22l.25-.14a.5.5,0,0,1,.52.05l-.25.14A.5.5,0,0,0,57,59.22Z"/><g class="cls-3"><path class="cls-5" d="M58.26,60.87,58,61a.52.52,0,0,0,.21-.47,1.61,1.61,0,0,0-.73-1.27l.25-.14a1.62,1.62,0,0,1,.73,1.26A.53.53,0,0,1,58.26,60.87Z"/><g class="cls-43"><path class="cls-2" d="M57.49,59.27l.25-.14a1,1,0,0,1,.32.27l-.25.15a1.06,1.06,0,0,0-.32-.28Z"/><path class="cls-2" d="M57.81,59.55l.25-.15a1.41,1.41,0,0,1,.24.36l-.25.14a1.21,1.21,0,0,0-.24-.35Z"/><path class="cls-2" d="M58.05,59.9l.25-.14a1.39,1.39,0,0,1,.17.63.53.53,0,0,1-.21.48L58,61a.52.52,0,0,0,.21-.47,1.39,1.39,0,0,0-.17-.64Z"/></g><path class="cls-8" d="M58.26,60.87,58,61a.52.52,0,0,0,.21-.47,1.61,1.61,0,0,0-.73-1.27l.25-.14a1.62,1.62,0,0,1,.73,1.26A.53.53,0,0,1,58.26,60.87Z"/></g><path class="cls-2" d="M57.49,59.27a1.61,1.61,0,0,1,.73,1.27c0,.47-.33.65-.74.42a1.64,1.64,0,0,1-.73-1.27C56.75,59.23,57.08,59,57.49,59.27Z"/><path class="cls-2" d="M57.49,59.47a1.23,1.23,0,0,1,.56,1,.34.34,0,0,1-.56.32,1.23,1.23,0,0,1-.56-1C56.93,59.44,57.18,59.29,57.49,59.47Z"/></g><path class="cls-2" d="M52.24,65.36V62.79a.65.65,0,0,1,.33-.57l4.69-2.72h0a.28.28,0,0,1,.22,0h0a.61.61,0,0,1,.16.12h0a1.2,1.2,0,0,1,.17.21l0,.06a.56.56,0,0,1,0,.08L58,60s0,0,0,0,0,0,0,.06a1.6,1.6,0,0,1,0,.21s0,.07,0,.11v0h0v0h0v0h0a.29.29,0,0,1-.1.12h0l-4.34,2.51v2.18h0v.06a.5.5,0,0,1-.14.1l0,0,0,0a1.21,1.21,0,0,1-.88,0l0,0-.05,0a.94.94,0,0,1-.12-.09s0,0,0-.07Z"/><path class="cls-10" d="M52.24,62.79v2.57s0,0,0,.07a.94.94,0,0,0,.12.09l.05,0,0,0a.83.83,0,0,0,.21.06V63a.75.75,0,0,1,.38-.65l4.67-2.71,0-.05h0a.61.61,0,0,0-.16-.12h0a.28.28,0,0,0-.22,0h0l-4.68,2.72A.64.64,0,0,0,52.24,62.79Z"/><path class="cls-11" d="M53.08,63v2.67a1.11,1.11,0,0,0,.26-.07l0,0,0,0a.5.5,0,0,0,.14-.1v-.06h0V63.18l4.34-2.51,0,0a.29.29,0,0,0,.1-.12h0v0h0v0h0v0s0-.07,0-.11a1.6,1.6,0,0,0,0-.21s0,0,0-.06,0,0,0,0l0,0v0h0v0h0v.05h0a.32.32,0,0,1-.13.15l0,0Z"/><g class="cls-12"><path class="cls-2" d="M57,59.53a.4.4,0,0,1,.4,0,1.23,1.23,0,0,1,.56,1,.54.54,0,0,1-.06.27.43.43,0,0,0,.16-.36,1.23,1.23,0,0,0-.56-1C57.27,59.35,57.09,59.38,57,59.53Z"/></g><g class="cls-3"><g class="cls-3"><path class="cls-1" d="M54.87,66.91v.56a.47.47,0,0,0,.28.39,1.53,1.53,0,0,0,1.38,0,.49.49,0,0,0,.29-.4v-.55a.48.48,0,0,1-.29.4,1.53,1.53,0,0,1-1.38,0A.47.47,0,0,1,54.87,66.91Z"/><g class="cls-44"><g class="cls-3"><path class="cls-1" d="M54.87,66.91v.56a.47.47,0,0,0,.28.39,1.1,1.1,0,0,0,.44.15v-.55a1.52,1.52,0,0,1-.44-.15.47.47,0,0,1-.28-.4Z"/><path class="cls-1" d="M55.59,67.46V68a2,2,0,0,0,.49,0v-.55a2.09,2.09,0,0,1-.5,0Z"/><path class="cls-1" d="M56.09,67.46V68a1.09,1.09,0,0,0,.45-.15l.07,0v-.56l-.08,0a1.52,1.52,0,0,1-.44.15Z"/><path class="cls-1" d="M56.81,67a.28.28,0,0,0,0-.09v.55s0,.06,0,.09a.53.53,0,0,1-.21.27v-.56A.59.59,0,0,0,56.81,67Z"/></g></g></g><path class="cls-1" d="M55.16,66.51c-.38.22-.39.58,0,.8a1.53,1.53,0,0,0,1.38,0c.39-.22.39-.58,0-.8A1.53,1.53,0,0,0,55.16,66.51Z"/><path class="cls-1" d="M55.2,67.12a.38.38,0,0,0,.12.09l0,0,0,0a1.21,1.21,0,0,0,.88,0l0,0,0,0a.5.5,0,0,0,.14-.1.3.3,0,0,0-.06-.46l0,0-.05,0a1.14,1.14,0,0,0-1,0l0,0,0,0A.28.28,0,0,0,55.2,67.12Z"/><path class="cls-1" d="M55.17,66.73l.07,0a1.17,1.17,0,0,1,1.06,0c.22.13.27.32.15.48.21-.17.19-.41-.08-.56a1.14,1.14,0,0,0-1,0A.5.5,0,0,0,55.17,66.73Z"/></g><path class="cls-2" d="M61.31,62.17c0,.45-.31.63-.7.4a1.52,1.52,0,0,1-.7-1.21c0-.45.31-.63.7-.41A1.56,1.56,0,0,1,61.31,62.17Z"/><g class="cls-3"><path class="cls-5" d="M59.91,60.91l.25-.14a.5.5,0,0,1,.52,0l-.25.14A.5.5,0,0,0,59.91,60.91Z"/><g class="cls-45"><path class="cls-2" d="M59.91,60.91l.25-.14a.27.27,0,0,1,.18-.05l-.25.14a.35.35,0,0,0-.18,0Z"/><path class="cls-2" d="M60.09,60.86l.25-.14a.6.6,0,0,1,.34.1l-.25.14a.69.69,0,0,0-.34-.1Z"/></g><path class="cls-8" d="M59.91,60.91l.25-.14a.5.5,0,0,1,.52,0l-.25.14A.5.5,0,0,0,59.91,60.91Z"/><g class="cls-3"><path class="cls-5" d="M61.2,62.56,61,62.7a.52.52,0,0,0,.21-.47A1.61,1.61,0,0,0,60.43,61l.25-.14a1.59,1.59,0,0,1,.73,1.26A.53.53,0,0,1,61.2,62.56Z"/><g class="cls-46"><path class="cls-2" d="M60.43,61l.25-.14a1.19,1.19,0,0,1,.33.27l-.25.15a1.23,1.23,0,0,0-.33-.28Z"/><path class="cls-2" d="M60.76,61.24l.25-.15a2.25,2.25,0,0,1,.24.36l-.25.14a1.8,1.8,0,0,0-.24-.35Z"/><path class="cls-2" d="M61,61.59l.25-.14a1.51,1.51,0,0,1,.16.63.53.53,0,0,1-.21.48L61,62.7a.52.52,0,0,0,.21-.47,1.51,1.51,0,0,0-.16-.64Z"/></g><path class="cls-8" d="M61.2,62.56,61,62.7a.52.52,0,0,0,.21-.47A1.61,1.61,0,0,0,60.43,61l.25-.14a1.59,1.59,0,0,1,.73,1.26A.53.53,0,0,1,61.2,62.56Z"/></g><path class="cls-2" d="M60.43,61a1.61,1.61,0,0,1,.73,1.27c0,.47-.33.65-.73.42a1.6,1.6,0,0,1-.74-1.27C59.7,60.92,60,60.73,60.43,61Z"/><path class="cls-2" d="M60.43,61.16a1.23,1.23,0,0,1,.56,1c0,.35-.25.5-.56.32a1.23,1.23,0,0,1-.56-1C59.87,61.13,60.12,61,60.43,61.16Z"/></g><path class="cls-2" d="M55.18,67.05V64.48a.65.65,0,0,1,.34-.57l4.68-2.72h0a.3.3,0,0,1,.23,0h0l.15.12h0a1.73,1.73,0,0,1,.17.21l0,.06,0,.08s0,0,0,.05l0,0s0,0,0,.06A1.6,1.6,0,0,1,61,62a.41.41,0,0,1,0,.11v0h0v0h0v0h0a.29.29,0,0,1-.1.12l0,0h0l-4.34,2.51v2.18h0v.06a.5.5,0,0,1-.14.1l0,0,0,0a1.21,1.21,0,0,1-.88,0l0,0,0,0a.38.38,0,0,1-.12-.09.14.14,0,0,1,0-.07Z"/><path class="cls-10" d="M55.18,64.48v2.57a.14.14,0,0,0,0,.07.27.27,0,0,0,.12.09l0,0,0,0a.83.83,0,0,0,.21.06v-2.6a.75.75,0,0,1,.38-.65l4.68-2.71-.05,0h0l-.15-.12h0a.3.3,0,0,0-.23,0h0l-4.68,2.72A.64.64,0,0,0,55.18,64.48Z"/><path class="cls-11" d="M56,64.66v2.67a1.34,1.34,0,0,0,.27-.07.05.05,0,0,1,0,0l0,0a.5.5,0,0,0,.14-.1v-.06h0V64.87l4.34-2.51,0,0a.29.29,0,0,0,.1-.12h0v0h0v0h0v0A.41.41,0,0,0,61,62a.8.8,0,0,0,0-.21s0,0,0-.06l0,0v0h0v0h0v.05h0a.28.28,0,0,1-.13.15l0,0Z"/><g class="cls-12"><path class="cls-2" d="M59.93,61.22a.39.39,0,0,1,.4,0,1.23,1.23,0,0,1,.56,1,.53.53,0,0,1-.06.26.4.4,0,0,0,.16-.36,1.23,1.23,0,0,0-.56-1A.35.35,0,0,0,59.93,61.22Z"/></g><g class="cls-3"><g class="cls-3"><path class="cls-1" d="M48.62,63.57v.56a.49.49,0,0,0,.28.39,1.53,1.53,0,0,0,1.38,0,.47.47,0,0,0,.29-.4v-.55a.49.49,0,0,1-.28.4,1.53,1.53,0,0,1-1.38,0A.5.5,0,0,1,48.62,63.57Z"/><g class="cls-47"><g class="cls-3"><path class="cls-1" d="M48.62,63.57v.56a.49.49,0,0,0,.28.39,1.09,1.09,0,0,0,.45.15v-.56a1.2,1.2,0,0,1-.44-.14.5.5,0,0,1-.29-.4Z"/><path class="cls-1" d="M49.35,64.11v.56a2,2,0,0,0,.49,0v-.55a1.61,1.61,0,0,1-.49,0Z"/><path class="cls-1" d="M49.84,64.12v.55a1.1,1.1,0,0,0,.44-.15l.08,0v-.56l-.07,0a1.59,1.59,0,0,1-.45.15Z"/><path class="cls-1" d="M50.56,63.66a.28.28,0,0,0,0-.09v.55a.28.28,0,0,1,0,.09.51.51,0,0,1-.2.27v-.56A.47.47,0,0,0,50.56,63.66Z"/></g></g></g><path class="cls-1" d="M48.91,63.17a.42.42,0,0,0,0,.8,1.53,1.53,0,0,0,1.38,0,.42.42,0,0,0,0-.8A1.53,1.53,0,0,0,48.91,63.17Z"/><path class="cls-1" d="M49,63.78a.38.38,0,0,0,.12.09l0,0,0,0a1.21,1.21,0,0,0,.88,0l0,0,0,0a.39.39,0,0,0,.14-.1.3.3,0,0,0-.06-.46l0,0,0,0a1.17,1.17,0,0,0-1.06,0l0,0,0,0A.3.3,0,0,0,49,63.78Z"/><path class="cls-1" d="M48.92,63.39l.08,0a1.14,1.14,0,0,1,1,0c.23.13.28.32.15.48.21-.17.19-.41-.07-.56a1.17,1.17,0,0,0-1.06,0A.49.49,0,0,0,48.92,63.39Z"/></g><path class="cls-2" d="M55.06,56.12c0,.45-.31.63-.7.41a1.56,1.56,0,0,1-.7-1.22c0-.45.31-.63.7-.4A1.52,1.52,0,0,1,55.06,56.12Z"/><g class="cls-3"><path class="cls-5" d="M53.66,54.86l.25-.14a.5.5,0,0,1,.52.05l-.25.14A.53.53,0,0,0,53.66,54.86Z"/><g class="cls-48"><path class="cls-2" d="M53.66,54.86l.25-.14a.41.41,0,0,1,.19,0l-.25.14a.41.41,0,0,0-.19,0Z"/><path class="cls-2" d="M53.85,54.81l.25-.14a.65.65,0,0,1,.33.1l-.25.14a.65.65,0,0,0-.33-.1Z"/></g><path class="cls-8" d="M53.66,54.86l.25-.14a.5.5,0,0,1,.52.05l-.25.14A.53.53,0,0,0,53.66,54.86Z"/><g class="cls-3"><path class="cls-5" d="M55,56.51l-.25.14a.51.51,0,0,0,.22-.47,1.64,1.64,0,0,0-.74-1.27l.25-.14A1.6,1.6,0,0,1,55.17,56,.52.52,0,0,1,55,56.51Z"/><g class="cls-49"><path class="cls-2" d="M54.18,54.91l.25-.14a1.4,1.4,0,0,1,.33.27l-.25.15a1.44,1.44,0,0,0-.33-.28Z"/><path class="cls-2" d="M54.51,55.19l.25-.15a2.25,2.25,0,0,1,.24.36l-.25.15a1.88,1.88,0,0,0-.24-.36Z"/><path class="cls-2" d="M54.75,55.55,55,55.4a1.53,1.53,0,0,1,.17.64.52.52,0,0,1-.22.47l-.25.14a.51.51,0,0,0,.22-.47,1.49,1.49,0,0,0-.17-.63Z"/></g><path class="cls-8" d="M55,56.51l-.25.14a.51.51,0,0,0,.22-.47,1.64,1.64,0,0,0-.74-1.27l.25-.14A1.6,1.6,0,0,1,55.17,56,.52.52,0,0,1,55,56.51Z"/></g><path class="cls-2" d="M54.18,54.91a1.64,1.64,0,0,1,.74,1.27c0,.47-.33.66-.74.42a1.59,1.59,0,0,1-.73-1.27C53.45,54.87,53.78,54.68,54.18,54.91Z"/><path class="cls-2" d="M54.18,55.12a1.22,1.22,0,0,1,.56,1c0,.35-.25.5-.56.32a1.23,1.23,0,0,1-.56-1C53.62,55.08,53.88,54.94,54.18,55.12Z"/></g><path class="cls-2" d="M48.94,63.71V58.43a.65.65,0,0,1,.33-.57L54,55.15l0,0h0a.3.3,0,0,1,.23,0h0a.79.79,0,0,1,.15.12h0l.16.21a.21.21,0,0,1,0,.06s0,0,0,.08,0,0,0,0l0,.05a.08.08,0,0,1,0,0,.54.54,0,0,1,0,.22.34.34,0,0,1,0,.1v0h0v0h0a.23.23,0,0,1-.1.12l0,0h0l-4.33,2.51v4.89h0s0,0,0,.06a.39.39,0,0,1-.14.1l0,0,0,0a1.21,1.21,0,0,1-.88,0l0,0,0,0a.38.38,0,0,1-.12-.09.15.15,0,0,1,0-.07Z"/><path class="cls-10" d="M48.94,58.43v5.28a.15.15,0,0,0,0,.07.38.38,0,0,0,.12.09l0,0,0,0a.65.65,0,0,0,.21.06V58.67a.74.74,0,0,1,.37-.65l4.68-2.71,0-.05h0a.79.79,0,0,0-.15-.12h0a.3.3,0,0,0-.23,0h0l0,0-4.68,2.71A.65.65,0,0,0,48.94,58.43Z"/><path class="cls-11" d="M49.77,58.61V64a1.07,1.07,0,0,0,.27-.07l0,0,0,0a.39.39,0,0,0,.14-.1s0,0,0-.06h0V58.82l4.33-2.51,0,0a.23.23,0,0,0,.1-.12h0v0h0v0a.34.34,0,0,0,0-.1.54.54,0,0,0,0-.22.08.08,0,0,0,0,0s0,0,0-.05v0h0v0h0v0h0a.31.31,0,0,1-.12.15l0,0Z"/><g class="cls-12"><path class="cls-2" d="M53.69,55.17a.4.4,0,0,1,.4,0,1.2,1.2,0,0,1,.55,1,.53.53,0,0,1-.06.26.4.4,0,0,0,.16-.36,1.25,1.25,0,0,0-.56-1C54,55,53.78,55,53.69,55.17Z"/></g><polygon class="cls-2" points="69.36 57.68 70.98 56.77 70.98 53.84 69.36 54.75 69.36 57.68"/><polygon class="cls-2" points="70.88 54.02 70.87 56.7 70.87 56.71 69.47 57.5 69.47 57.5 69.47 54.81 70.88 54.02"/><polygon class="cls-2" points="70.87 56.7 70.87 56.71 69.47 57.5 69.47 57.5 69.47 56.92 70.38 56.42 70.87 56.7"/><polygon class="cls-2" points="34.5 23.88 39.98 27.05 39.98 25.45 34.5 22.29 34.5 23.88"/><polygon class="cls-2" points="43.23 25.17 39.98 27.05 39.98 25.45 43.23 23.58 43.23 25.17"/><polygon class="cls-2" points="43.23 23.59 39.98 25.46 34.5 22.29 37.75 20.42 43.23 23.59"/><polygon class="cls-2" points="41.98 23.59 37.75 21.14 35.75 22.29 39.98 24.74 41.98 23.59"/><g class="cls-50"><polygon class="cls-2" points="56.67 31.59 56.91 31.45 56.91 20.87 56.67 21 56.67 31.59"/><polygon class="cls-2" points="54.44 32.87 54.68 32.74 54.68 22.14 54.44 22.27 54.44 32.87"/><polygon class="cls-2" points="56.79 23.55 56.79 23.28 54.56 24.56 54.56 24.84 56.79 23.55"/><polygon class="cls-2" points="56.79 25.54 56.79 25.27 54.56 26.55 54.56 26.82 56.79 25.54"/><polygon class="cls-2" points="56.79 27.53 56.79 27.26 54.56 28.54 54.56 28.82 56.79 27.53"/><polygon class="cls-2" points="56.79 22.55 56.79 22.28 54.56 23.57 54.56 23.84 56.79 22.55"/><polygon class="cls-2" points="56.79 24.54 56.79 24.27 54.56 25.56 54.56 25.83 56.79 24.54"/><polygon class="cls-2" points="56.79 26.53 56.79 26.26 54.56 27.55 54.56 27.82 56.79 26.53"/><polygon class="cls-2" points="56.79 28.52 56.79 28.25 54.56 29.54 54.56 29.81 56.79 28.52"/><polygon class="cls-2" points="56.79 29.52 56.79 29.25 54.56 30.53 54.56 30.81 56.79 29.52"/><polygon class="cls-2" points="56.79 30.51 56.79 30.24 54.56 31.53 54.56 31.8 56.79 30.51"/></g><path class="cls-2" d="M63.2,37.53a.28.28,0,0,1-.22,0c-.06,0-.06-.09,0-.13a.26.26,0,0,1,.21,0C63.25,37.44,63.26,37.49,63.2,37.53Z"/><path class="cls-2" d="M63.37,37.47v-4h-.56v4a.14.14,0,0,0,.08.11.47.47,0,0,0,.4,0A.13.13,0,0,0,63.37,37.47Z"/><path class="cls-2" d="M63.29,33.61a.41.41,0,0,1-.4,0c-.11-.06-.11-.16,0-.22a.41.41,0,0,1,.4,0C63.4,33.45,63.4,33.55,63.29,33.61Z"/><path class="cls-2" d="M59.68,39.55a.22.22,0,0,1-.22,0,.06.06,0,0,1,0-.12.2.2,0,0,1,.21,0C59.74,39.46,59.74,39.52,59.68,39.55Z"/><path class="cls-2" d="M59.85,39.49v-4h-.56v4a.14.14,0,0,0,.08.11.41.41,0,0,0,.4,0A.13.13,0,0,0,59.85,39.49Z"/><path class="cls-2" d="M59.77,35.64a.47.47,0,0,1-.4,0c-.1-.07-.11-.17,0-.23a.47.47,0,0,1,.4,0A.12.12,0,0,1,59.77,35.64Z"/><path class="cls-2" d="M56.15,37.53a.28.28,0,0,1-.22,0c-.06,0-.06-.09,0-.13a.28.28,0,0,1,.22,0C56.21,37.44,56.21,37.49,56.15,37.53Z"/><path class="cls-2" d="M56.32,37.47v-4h-.55v4a.12.12,0,0,0,.08.11.45.45,0,0,0,.39,0C56.3,37.56,56.33,37.51,56.32,37.47Z"/><path class="cls-2" d="M56.24,33.61a.39.39,0,0,1-.39,0c-.11-.06-.11-.16,0-.22a.39.39,0,0,1,.39,0C56.35,33.45,56.35,33.55,56.24,33.61Z"/><g class="cls-3"><g class="cls-3"><path class="cls-5" d="M63.38,18.53l0,15.29a1.89,1.89,0,0,1-1.11,1.55,6,6,0,0,1-5.36,0,1.91,1.91,0,0,1-1.12-1.57l0-15.3a1.9,1.9,0,0,0,1.12,1.57,5.89,5.89,0,0,0,5.36,0A1.91,1.91,0,0,0,63.38,18.53Z"/><g class="cls-51"><g class="cls-3"><path class="cls-2" d="M63.38,18.53l0,15.29a1.89,1.89,0,0,1-1.11,1.55,5.07,5.07,0,0,1-1.71.57l0-15.3a4.86,4.86,0,0,0,1.71-.57,1.91,1.91,0,0,0,1.11-1.54Z"/><path class="cls-2" d="M60.56,20.64l0,15.3a6.79,6.79,0,0,1-1.91,0l0-15.3a6.12,6.12,0,0,0,1.91,0Z"/><path class="cls-2" d="M58.65,20.64l0,15.3a5,5,0,0,1-1.74-.57,2,2,0,0,1-.28-.19l0-15.29.28.18a4.82,4.82,0,0,0,1.74.57Z"/><path class="cls-2" d="M55.84,18.86a1.49,1.49,0,0,1-.05-.36l0,15.3a1.49,1.49,0,0,0,.05.36,1.91,1.91,0,0,0,.79,1l0-15.29A1.92,1.92,0,0,1,55.84,18.86Z"/></g></g><path class="cls-8" d="M63.38,18.53l0,15.29a1.89,1.89,0,0,1-1.11,1.55,6,6,0,0,1-5.36,0,1.91,1.91,0,0,1-1.12-1.57l0-15.3a1.9,1.9,0,0,0,1.12,1.57,5.89,5.89,0,0,0,5.36,0A1.91,1.91,0,0,0,63.38,18.53Z"/></g><path class="cls-2" d="M61.64,19.7a1,1,0,0,1-.17.1l-.17.07a4.72,4.72,0,0,1-3.43,0l-.17-.08-.16-.09c-1-.59-1.13-1.52-.31-2.17a.71.71,0,0,1,.14-.1l.15-.1a4.51,4.51,0,0,1,4.11,0l.16.1.14.1C62.75,18.19,62.66,19.11,61.64,19.7Z"/><path class="cls-2" d="M62.23,17.83a1.69,1.69,0,0,0-.31-.21,4.49,4.49,0,0,0-4.1,0c-.88.51-1.07,1.26-.59,1.87-.82-.65-.72-1.57.29-2.16a4.51,4.51,0,0,1,4.11,0A2,2,0,0,1,62.23,17.83Z"/></g><path class="cls-2" d="M62.27,20.49a5.93,5.93,0,0,1-5.38,0c-1.49-.86-1.5-2.25,0-3.11a6,6,0,0,1,5.38,0C63.74,18.24,63.75,19.64,62.27,20.49Z"/><path class="cls-2" d="M63.2,19a1.51,1.51,0,0,1-.72,1.19,2.23,2.23,0,0,1-.3.2,5.22,5.22,0,0,1-2.59.61A5.37,5.37,0,0,1,57,20.33a3.53,3.53,0,0,1-.35-.24,1.52,1.52,0,0,1-.68-1.17,1.71,1.71,0,0,1,1-1.39,5.72,5.72,0,0,1,5.2,0A1.73,1.73,0,0,1,63.2,19Z"/><path class="cls-2" d="M57,17.83a5.22,5.22,0,0,1,2.59-.61,5.3,5.3,0,0,1,2.61.62,1.85,1.85,0,0,1,1,1.27.86.86,0,0,0,0-.16,1.73,1.73,0,0,0-1-1.41,5.72,5.72,0,0,0-5.2,0,1.71,1.71,0,0,0-1,1.39.86.86,0,0,0,0,.16A1.83,1.83,0,0,1,57,17.83Z"/><path class="cls-2" d="M62.27,21.9a6,6,0,0,1-5.38,0,1.93,1.93,0,0,1-1.12-1.52v-.49h0a2,2,0,0,0,1.12,1.45,6,6,0,0,0,5.38,0,2,2,0,0,0,1.1-1.42v.31A1.82,1.82,0,0,1,62.27,21.9Z"/><path class="cls-2" d="M62.27,27.5a6,6,0,0,1-5.38,0A1.94,1.94,0,0,1,55.77,26v-.5h0a2,2,0,0,0,1.12,1.45,5.93,5.93,0,0,0,5.38,0,2,2,0,0,0,1.1-1.42v.31A1.82,1.82,0,0,1,62.27,27.5Z"/><path class="cls-2" d="M62.27,24.76a5.93,5.93,0,0,1-5.38,0,1.94,1.94,0,0,1-1.12-1.52v-.5h0a2,2,0,0,0,1.12,1.45,5.93,5.93,0,0,0,5.38,0,2,2,0,0,0,1.1-1.42v.31A1.8,1.8,0,0,1,62.27,24.76Z"/><path class="cls-2" d="M62.27,30a6,6,0,0,1-5.38,0,1.93,1.93,0,0,1-1.12-1.52V28h0a2,2,0,0,0,1.12,1.46,6,6,0,0,0,5.38,0A2,2,0,0,0,63.37,28v.31A1.82,1.82,0,0,1,62.27,30Z"/><path class="cls-2" d="M62.27,32.46a6,6,0,0,1-5.38,0,1.93,1.93,0,0,1-1.12-1.52v-.5h0a2,2,0,0,0,1.12,1.46,6,6,0,0,0,5.38,0,2,2,0,0,0,1.1-1.42v.31A1.82,1.82,0,0,1,62.27,32.46Z"/><path class="cls-2" d="M62.27,34.94a6,6,0,0,1-5.38,0,1.93,1.93,0,0,1-1.12-1.52v-.49h0a2,2,0,0,0,1.12,1.45,6,6,0,0,0,5.38,0A2,2,0,0,0,63.37,33v.31A1.82,1.82,0,0,1,62.27,34.94Z"/><path class="cls-2" d="M71.19,41.05a.28.28,0,0,1-.22,0c-.06,0-.06-.1,0-.13a.28.28,0,0,1,.22,0C71.25,41,71.25,41,71.19,41.05Z"/><path class="cls-2" d="M71.36,41V37H70.8v4a.14.14,0,0,0,.08.12.45.45,0,0,0,.39,0C71.34,41.07,71.37,41,71.36,41Z"/><path class="cls-2" d="M71.28,37.13a.45.45,0,0,1-.39,0c-.11-.06-.11-.16,0-.23a.44.44,0,0,1,.39,0C71.39,37,71.39,37.07,71.28,37.13Z"/><path class="cls-2" d="M67.67,43.07a.22.22,0,0,1-.22,0c-.06,0-.06-.09,0-.13a.24.24,0,0,1,.22,0A.06.06,0,0,1,67.67,43.07Z"/><path class="cls-2" d="M67.84,43v-4h-.56v4a.12.12,0,0,0,.08.11.45.45,0,0,0,.39,0C67.82,43.1,67.85,43.05,67.84,43Z"/><path class="cls-2" d="M67.76,39.16a.45.45,0,0,1-.39,0c-.11-.07-.11-.17,0-.23a.39.39,0,0,1,.39,0C67.87,39,67.87,39.09,67.76,39.16Z"/><path class="cls-2" d="M64.14,41.05a.28.28,0,0,1-.22,0c-.06,0-.06-.1,0-.13a.28.28,0,0,1,.22,0C64.2,41,64.2,41,64.14,41.05Z"/><path class="cls-2" d="M64.32,41V37h-.56v4a.17.17,0,0,0,.08.12.47.47,0,0,0,.4,0A.17.17,0,0,0,64.32,41Z"/><path class="cls-2" d="M64.24,37.13a.47.47,0,0,1-.4,0c-.11-.06-.11-.16,0-.23a.44.44,0,0,1,.39,0C64.34,37,64.34,37.07,64.24,37.13Z"/><g class="cls-3"><g class="cls-3"><path class="cls-5" d="M71.37,22l0,15.3a1.87,1.87,0,0,1-1.1,1.54,5.91,5.91,0,0,1-5.37,0,1.88,1.88,0,0,1-1.12-1.56l0-15.3a1.91,1.91,0,0,0,1.12,1.57,6,6,0,0,0,5.37,0A1.9,1.9,0,0,0,71.37,22Z"/><g class="cls-52"><g class="cls-3"><path class="cls-2" d="M71.37,22l0,15.3a1.87,1.87,0,0,1-1.1,1.54,4.92,4.92,0,0,1-1.72.58l0-15.3a5.13,5.13,0,0,0,1.72-.57A1.9,1.9,0,0,0,71.37,22Z"/><path class="cls-2" d="M68.55,24.16l0,15.3a6.79,6.79,0,0,1-1.91,0l0-15.3a6.79,6.79,0,0,0,1.91,0Z"/><path class="cls-2" d="M66.64,24.16l0,15.3a5.1,5.1,0,0,1-1.74-.58,2.68,2.68,0,0,1-.28-.18l0-15.3.28.19a4.89,4.89,0,0,0,1.74.57Z"/><path class="cls-2" d="M63.83,22.38a1.49,1.49,0,0,1,0-.36l0,15.3a1.49,1.49,0,0,0,0,.36,2,2,0,0,0,.79,1l0-15.3A1.92,1.92,0,0,1,63.83,22.38Z"/></g></g><path class="cls-8" d="M71.37,22l0,15.3a1.87,1.87,0,0,1-1.1,1.54,5.91,5.91,0,0,1-5.37,0,1.88,1.88,0,0,1-1.12-1.56l0-15.3a1.91,1.91,0,0,0,1.12,1.57,6,6,0,0,0,5.37,0A1.9,1.9,0,0,0,71.37,22Z"/></g><path class="cls-2" d="M69.63,23.22l-.17.09-.17.08a4.69,4.69,0,0,1-3.42,0l-.17-.08-.17-.09c-1-.59-1.13-1.52-.3-2.18l.13-.1.16-.1a4.55,4.55,0,0,1,4.1,0l.17.11.13.1C70.75,21.7,70.65,22.63,69.63,23.22Z"/><path class="cls-2" d="M70.22,21.34a1.84,1.84,0,0,0-.31-.2,4.49,4.49,0,0,0-4.1,0c-.87.5-1.07,1.25-.59,1.87-.82-.66-.72-1.58.3-2.17a4.55,4.55,0,0,1,4.1,0A2,2,0,0,1,70.22,21.34Z"/></g><path class="cls-2" d="M70.26,24a6,6,0,0,1-5.38,0c-1.49-.86-1.5-2.25,0-3.11a6,6,0,0,1,5.39,0C71.74,21.76,71.74,23.15,70.26,24Z"/><path class="cls-2" d="M71.19,22.46a1.53,1.53,0,0,1-.72,1.2l-.3.2a5.29,5.29,0,0,1-2.58.61A5.37,5.37,0,0,1,65,23.85l-.36-.24a1.54,1.54,0,0,1-.68-1.17A1.72,1.72,0,0,1,65,21a5.82,5.82,0,0,1,5.21,0A1.74,1.74,0,0,1,71.19,22.46Z"/><path class="cls-2" d="M65,21.35a5.25,5.25,0,0,1,2.59-.62,5.37,5.37,0,0,1,2.62.63,1.86,1.86,0,0,1,1,1.27,1,1,0,0,0,0-.17,1.74,1.74,0,0,0-1-1.41A5.82,5.82,0,0,0,65,21a1.72,1.72,0,0,0-1,1.4s0,.11,0,.16A1.79,1.79,0,0,1,65,21.35Z"/><path class="cls-2" d="M70.26,25.42a6,6,0,0,1-5.38,0,1.93,1.93,0,0,1-1.12-1.52v-.5h0a2,2,0,0,0,1.12,1.46,6,6,0,0,0,5.38,0,1.92,1.92,0,0,0,1.1-1.42v.31A1.8,1.8,0,0,1,70.26,25.42Z"/><path class="cls-2" d="M70.26,31a5.93,5.93,0,0,1-5.38,0,1.93,1.93,0,0,1-1.12-1.51V29h0a2,2,0,0,0,1.12,1.45,5.93,5.93,0,0,0,5.38,0A1.92,1.92,0,0,0,71.36,29v.31A1.79,1.79,0,0,1,70.26,31Z"/><path class="cls-2" d="M70.26,28.28a5.93,5.93,0,0,1-5.38,0,1.93,1.93,0,0,1-1.12-1.51v-.5h0a2,2,0,0,0,1.12,1.45,5.93,5.93,0,0,0,5.38,0,1.92,1.92,0,0,0,1.1-1.42v.31A1.8,1.8,0,0,1,70.26,28.28Z"/><path class="cls-2" d="M70.26,33.49a5.93,5.93,0,0,1-5.38,0A1.94,1.94,0,0,1,63.76,32v-.5h0a2,2,0,0,0,1.12,1.45,5.93,5.93,0,0,0,5.38,0,2,2,0,0,0,1.1-1.43v.32A1.78,1.78,0,0,1,70.26,33.49Z"/><path class="cls-2" d="M70.26,36a6,6,0,0,1-5.38,0,1.93,1.93,0,0,1-1.12-1.52V34h0a2,2,0,0,0,1.12,1.46,6,6,0,0,0,5.38,0A2,2,0,0,0,71.36,34v.31A1.8,1.8,0,0,1,70.26,36Z"/><path class="cls-2" d="M70.26,38.46a6,6,0,0,1-5.38,0,1.93,1.93,0,0,1-1.12-1.52v-.5h0a2,2,0,0,0,1.12,1.46,6,6,0,0,0,5.38,0,1.92,1.92,0,0,0,1.1-1.42v.31A1.8,1.8,0,0,1,70.26,38.46Z"/><g class="cls-3"><g class="cls-3"><path class="cls-1" d="M75.16,43.57v.55a.47.47,0,0,1-.28.4,1.53,1.53,0,0,1-1.38,0,.5.5,0,0,1-.29-.4v-.56a.5.5,0,0,0,.29.41,1.53,1.53,0,0,0,1.38,0A.49.49,0,0,0,75.16,43.57Z"/><g class="cls-53"><g class="cls-3"><path class="cls-1" d="M75.16,43.57v.55a.47.47,0,0,1-.28.4,1.52,1.52,0,0,1-.44.15v-.56a1.26,1.26,0,0,0,.44-.14.49.49,0,0,0,.28-.4Z"/><path class="cls-1" d="M74.44,44.11v.56a2,2,0,0,1-.49,0v-.56a1.35,1.35,0,0,0,.49,0Z"/><path class="cls-1" d="M74,44.11v.56a1.14,1.14,0,0,1-.45-.15l-.07-.05v-.55l.07,0a1.25,1.25,0,0,0,.45.14Z"/><path class="cls-1" d="M73.22,43.66s0-.07,0-.1v.56a.29.29,0,0,0,0,.09.44.44,0,0,0,.2.26v-.55A.55.55,0,0,1,73.22,43.66Z"/></g></g></g><path class="cls-1" d="M74.87,43.17c.39.22.39.58,0,.8a1.53,1.53,0,0,1-1.38,0c-.38-.22-.39-.58,0-.8A1.53,1.53,0,0,1,74.87,43.17Z"/><path class="cls-1" d="M74.84,43.78l-.12.09,0,0,0,0a1.21,1.21,0,0,1-.88,0l0,0,0,0a.85.85,0,0,1-.14-.1.3.3,0,0,1,.06-.46l0,0,0,0a1.14,1.14,0,0,1,1,0l.05,0,0,0A.3.3,0,0,1,74.84,43.78Z"/><path class="cls-1" d="M74.87,43.39l-.08,0a1.17,1.17,0,0,0-1.06,0c-.22.13-.27.32-.15.48-.21-.17-.18-.41.08-.56a1.14,1.14,0,0,1,1,0A.53.53,0,0,1,74.87,43.39Z"/></g><path class="cls-2" d="M68.72,35.8c0,.45.32.63.7.41a1.54,1.54,0,0,0,.7-1.22c0-.44-.31-.62-.7-.4A1.57,1.57,0,0,0,68.72,35.8Z"/><g class="cls-3"><path class="cls-5" d="M70.12,34.55l-.25-.15a.5.5,0,0,0-.52.05l.25.15A.5.5,0,0,1,70.12,34.55Z"/><g class="cls-54"><path class="cls-2" d="M70.12,34.55l-.25-.15a.35.35,0,0,0-.18,0l.25.15a.27.27,0,0,1,.18,0Z"/><path class="cls-2" d="M69.94,34.5l-.25-.15a.69.69,0,0,0-.34.1l.25.15a.6.6,0,0,1,.34-.1Z"/></g><path class="cls-8" d="M70.12,34.55l-.25-.15a.5.5,0,0,0-.52.05l.25.15A.5.5,0,0,1,70.12,34.55Z"/><g class="cls-3"><path class="cls-5" d="M68.83,36.19l.25.15a.53.53,0,0,1-.21-.48,1.62,1.62,0,0,1,.73-1.26l-.25-.15a1.64,1.64,0,0,0-.73,1.27A.52.52,0,0,0,68.83,36.19Z"/><g class="cls-55"><path class="cls-2" d="M69.6,34.6l-.25-.15a1.06,1.06,0,0,0-.32.28l.25.14a1,1,0,0,1,.32-.27Z"/><path class="cls-2" d="M69.28,34.87,69,34.73a1.36,1.36,0,0,0-.24.35l.25.15a1.41,1.41,0,0,1,.24-.36Z"/><path class="cls-2" d="M69,35.23l-.25-.15a1.43,1.43,0,0,0-.17.64.52.52,0,0,0,.21.47l.25.15a.53.53,0,0,1-.21-.48,1.39,1.39,0,0,1,.17-.63Z"/></g><path class="cls-8" d="M68.83,36.19l.25.15a.53.53,0,0,1-.21-.48,1.62,1.62,0,0,1,.73-1.26l-.25-.15a1.64,1.64,0,0,0-.73,1.27A.52.52,0,0,0,68.83,36.19Z"/></g><path class="cls-2" d="M69.6,34.6a1.62,1.62,0,0,0-.73,1.26c0,.47.33.66.74.42A1.62,1.62,0,0,0,70.34,35C70.34,34.55,70,34.36,69.6,34.6Z"/><path class="cls-2" d="M69.6,34.8a1.23,1.23,0,0,0-.56,1c0,.36.26.5.56.32a1.22,1.22,0,0,0,.56-1C70.16,34.76,69.91,34.62,69.6,34.8Z"/></g><path class="cls-2" d="M74.85,43.71V38.12a.68.68,0,0,0-.33-.58l-4.69-2.71h0a.28.28,0,0,0-.22,0h0l-.16.13h0a1.2,1.2,0,0,0-.17.21l0,.05,0,.08,0,.06,0,0,0,0a1.74,1.74,0,0,0,0,.22s0,.07,0,.1v0h0v0h0v0h0a.2.2,0,0,0,.1.12l0,0h0l4.34,2.51v5.21h0v.06a.85.85,0,0,0,.14.1l0,0,0,0a1.21,1.21,0,0,0,.88,0l0,0,0,0,.12-.09s0-.05,0-.07Z"/><path class="cls-10" d="M74.85,38.12v5.59s0,0,0,.07l-.12.09,0,0,0,0-.21.06V38.36A.78.78,0,0,0,74,37.7L69.37,35l0,0h0l.16-.13h0a.28.28,0,0,1,.22,0h0l4.68,2.71A.67.67,0,0,1,74.85,38.12Z"/><path class="cls-11" d="M74,38.3V44l-.26-.07,0,0,0,0a.85.85,0,0,1-.14-.1v-.06h0V38.5L69.18,36l0,0a.2.2,0,0,1-.1-.12h0v0h0v0h0v0s0-.07,0-.1a1.74,1.74,0,0,1,0-.22l0,0s0,0,0,0l0,0v0h0v0h0v.05h0a.35.35,0,0,0,.13.14l0,0Z"/><g class="cls-12"><path class="cls-2" d="M70.1,34.86a.4.4,0,0,0-.4,0,1.22,1.22,0,0,0-.56,1,.48.48,0,0,0,.06.26.41.41,0,0,1-.16-.36,1.23,1.23,0,0,1,.56-1C69.82,34.67,70,34.71,70.1,34.86Z"/></g><g class="cls-3"><g class="cls-3"><path class="cls-1" d="M71.93,42.48V43a.47.47,0,0,1-.28.39,1.5,1.5,0,0,1-1.34,0A.47.47,0,0,1,70,43v-.55a.49.49,0,0,0,.28.4,1.53,1.53,0,0,0,1.35,0A.49.49,0,0,0,71.93,42.48Z"/><g class="cls-56"><g class="cls-3"><path class="cls-1" d="M71.93,42.48V43a.47.47,0,0,1-.28.39,1.15,1.15,0,0,1-.43.14V43a1.15,1.15,0,0,0,.43-.14.49.49,0,0,0,.28-.39Z"/><path class="cls-1" d="M71.22,43v.54a1.29,1.29,0,0,1-.48,0V43a1.93,1.93,0,0,0,.48,0Z"/><path class="cls-1" d="M70.74,43v.54a1.15,1.15,0,0,1-.43-.14l-.07,0v-.54l.07,0a1.26,1.26,0,0,0,.44.14Z"/><path class="cls-1" d="M70,42.56a.29.29,0,0,1,0-.09V43a.19.19,0,0,0,0,.08.42.42,0,0,0,.2.26v-.54A.5.5,0,0,1,70,42.56Z"/></g></g></g><path class="cls-1" d="M71.65,42.09c.37.21.37.56,0,.78a1.53,1.53,0,0,1-1.35,0c-.37-.22-.37-.57,0-.78A1.46,1.46,0,0,1,71.65,42.09Z"/><path class="cls-1" d="M71.61,42.68a.27.27,0,0,1-.12.09l0,0,0,0a1.16,1.16,0,0,1-.86,0l0,0,0,0a.45.45,0,0,1-.13-.1.28.28,0,0,1,.06-.44l0,0,0,0a1.1,1.1,0,0,1,1,0l0,0,0,0A.28.28,0,0,1,71.61,42.68Z"/><path class="cls-1" d="M71.64,42.3l-.08,0a1.17,1.17,0,0,0-1,0c-.22.13-.27.32-.15.47-.2-.16-.18-.39.08-.54a1.1,1.1,0,0,1,1,0Z"/></g><path class="cls-2" d="M68.32,39.41c0,.43.31.61.69.39a1.53,1.53,0,0,0,.68-1.18c0-.44-.31-.62-.68-.4A1.52,1.52,0,0,0,68.32,39.41Z"/><g class="cls-3"><path class="cls-5" d="M69.69,38.18,69.45,38a.48.48,0,0,0-.51.05l.24.14A.48.48,0,0,1,69.69,38.18Z"/><g class="cls-57"><path class="cls-2" d="M69.69,38.18,69.45,38a.41.41,0,0,0-.18,0l.24.14a.35.35,0,0,1,.18,0Z"/><path class="cls-2" d="M69.51,38.13,69.27,38a.65.65,0,0,0-.33.1l.24.14a.65.65,0,0,1,.33-.1Z"/></g><path class="cls-8" d="M69.69,38.18,69.45,38a.48.48,0,0,0-.51.05l.24.14A.48.48,0,0,1,69.69,38.18Z"/><g class="cls-3"><path class="cls-5" d="M68.43,39.78l.24.14a.5.5,0,0,1-.2-.45,1.54,1.54,0,0,1,.71-1.24l-.24-.14a1.55,1.55,0,0,0-.72,1.23A.49.49,0,0,0,68.43,39.78Z"/><g class="cls-58"><path class="cls-2" d="M69.18,38.23l-.24-.14a1.11,1.11,0,0,0-.32.26l.24.15a1.31,1.31,0,0,1,.32-.27Z"/><path class="cls-2" d="M68.86,38.5l-.24-.15a1.92,1.92,0,0,0-.23.35l.24.14a1.56,1.56,0,0,1,.23-.34Z"/><path class="cls-2" d="M68.63,38.84l-.24-.14a1.35,1.35,0,0,0-.17.62.49.49,0,0,0,.21.46l.24.14a.5.5,0,0,1-.2-.45,1.51,1.51,0,0,1,.16-.63Z"/></g><path class="cls-8" d="M68.43,39.78l.24.14a.5.5,0,0,1-.2-.45,1.54,1.54,0,0,1,.71-1.24l-.24-.14a1.55,1.55,0,0,0-.72,1.23A.49.49,0,0,0,68.43,39.78Z"/></g><path class="cls-2" d="M69.18,38.23a1.54,1.54,0,0,0-.71,1.24c0,.45.32.63.71.4a1.55,1.55,0,0,0,.72-1.23C69.9,38.18,69.58,38,69.18,38.23Z"/><path class="cls-2" d="M69.18,38.42a1.22,1.22,0,0,0-.54.95c0,.34.24.48.54.31a1.2,1.2,0,0,0,.55-.94C69.73,38.39,69.48,38.25,69.18,38.42Z"/></g><path class="cls-2" d="M71.62,42.62V40.11a.64.64,0,0,0-.32-.56l-1.89-1.09,0,0h0a.28.28,0,0,0-.22,0h0a.44.44,0,0,0-.15.12h0a1.56,1.56,0,0,0-.16.2l0,.06a.2.2,0,0,0,0,.08l0,.05,0,0a.08.08,0,0,1,0,0,1.6,1.6,0,0,0,0,.21v.13h0v0h0v0h0a.25.25,0,0,0,.1.12l0,0h0l1.55.89v2.14h0s0,0,0,.05a.45.45,0,0,0,.13.1l0,0,0,0a1.16,1.16,0,0,0,.86,0l0,0,0,0a.27.27,0,0,0,.12-.09.13.13,0,0,0,0-.06Z"/><path class="cls-10" d="M71.62,40.11v2.51a.13.13,0,0,1,0,.06.27.27,0,0,1-.12.09l0,0,0,0-.21.06V40.34a.74.74,0,0,0-.37-.64L69,38.62l0,0h0a.44.44,0,0,1,.15-.12h0a.28.28,0,0,1,.22,0h0l0,0,1.89,1.09A.64.64,0,0,1,71.62,40.11Z"/><path class="cls-11" d="M70.81,40.28v2.61l-.26-.07,0,0,0,0a.45.45,0,0,1-.13-.1s0,0,0-.05h0V40.48l-1.55-.89,0,0a.25.25,0,0,1-.1-.12h0v0h0v0h0v-.13a1.6,1.6,0,0,1,0-.21.08.08,0,0,0,0,0l0,0,0,0v0h0v0h0V39h0a.29.29,0,0,0,.13.14l0,0Z"/><g class="cls-12"><path class="cls-2" d="M69.67,38.48a.38.38,0,0,0-.39,0,1.17,1.17,0,0,0-.55.94.5.5,0,0,0,.06.26.4.4,0,0,1-.15-.35,1.22,1.22,0,0,1,.54-.95C69.39,38.3,69.57,38.33,69.67,38.48Z"/></g></g></g></svg>