<?xml version="1.0" encoding="UTF-8" standalone="no"?>
<!-- Created with Inkscape (http://www.inkscape.org/) -->

<svg
   xmlns:dc="http://purl.org/dc/elements/1.1/"
   xmlns:cc="http://creativecommons.org/ns#"
   xmlns:rdf="http://www.w3.org/1999/02/22-rdf-syntax-ns#"
   xmlns:svg="http://www.w3.org/2000/svg"
   xmlns="http://www.w3.org/2000/svg"
   xmlns:sodipodi="http://sodipodi.sourceforge.net/DTD/sodipodi-0.dtd"
   xmlns:inkscape="http://www.inkscape.org/namespaces/inkscape"
   width="84.517509mm"
   height="84.649971mm"
   viewBox="0 0 299.47149 299.94084"
   id="svg3361"
   version="1.1"
   inkscape:version="0.91 r13725"
   sodipodi:docname="logo_phil-lidar1.svg">
  <defs
     id="defs3363" />
  <sodipodi:namedview
     id="base"
     pagecolor="#ffffff"
     bordercolor="#666666"
     borderopacity="1.0"
     inkscape:pageopacity="0.0"
     inkscape:pageshadow="2"
     inkscape:zoom="1.4"
     inkscape:cx="178.24909"
     inkscape:cy="136.69925"
     inkscape:document-units="px"
     inkscape:current-layer="layer1"
     showgrid="false"
     inkscape:window-width="905"
     inkscape:window-height="663"
     inkscape:window-x="1593"
     inkscape:window-y="901"
     inkscape:window-maximized="0"
     fit-margin-top="0"
     fit-margin-left="0"
     fit-margin-right="0"
     fit-margin-bottom="0" />
  <metadata
     id="metadata3366">
    <rdf:RDF>
      <cc:Work
         rdf:about="">
        <dc:format>image/svg+xml</dc:format>
        <dc:type
           rdf:resource="http://purl.org/dc/dcmitype/StillImage" />
        <dc:title></dc:title>
      </cc:Work>
    </rdf:RDF>
  </metadata>
  <g
     inkscape:label="Layer 1"
     inkscape:groupmode="layer"
     id="layer1"
     transform="translate(0.22631557,-1.1634509)">
    <g
       id="g3398"
       transform="translate(-7.8571389,-5.7142857)">
      <path
         style="fill:#a4d1e5"
         d="m 145.14284,306.61664 c -0.275,-0.27227 -3.425,-0.72997 -7,-1.0171 -3.575,-0.28714 -11.14487,-1.70462 -16.82194,-3.14996 C 67.05201,288.63312 26.390306,248.53604 12.117177,194.76226 8.4665119,181.00844 7.6380544,173.69346 7.6584189,155.39303 c 0.017963,-16.14218 0.4855916,-20.62063 3.4457761,-33 C 16.740327,98.822959 26.382112,79.487113 41.854676,60.72534 62.490937,35.702155 89.286269,19.094349 123.14284,10.342758 c 9.81265,-2.5364731 14.7862,-2.9497307 35.5,-2.9497307 20.70907,0 23.53064,0.3002782 37.15063,3.9536547 52.28763,14.025455 92.7263,54.403102 106.86345,106.702188 3.55874,13.16523 3.99294,17.6755 3.93203,40.84416 -0.0496,18.87287 -0.27032,21.36966 -2.78053,31.4567 -3.22553,12.9615 -4.36361,16.40161 -8.97836,27.13915 -15.94202,37.09372 -50.58751,68.80487 -88.94766,81.41417 -5.65513,1.85888 -17.50704,4.91592 -25.23956,6.5102 -3.89002,0.80203 -34.84552,1.85138 -35.5,1.20339 z m 37.92608,-13.22483 c 18.76127,-3.65746 35.33855,-10.47433 51.28103,-21.08767 31.96979,-21.28315 53.66952,-54.99844 60.44279,-93.91111 1.97665,-11.35594 1.34466,-39.23652 -1.14472,-50.5 -11.7876,-53.334284 -52.11569,-94.071046 -106.00518,-107.07941 -12.4042,-2.994245 -39.17541,-3.802783 -52,-1.570493 -21.8518,3.803594 -44.960223,13.592277 -61.582893,26.086389 -21.859404,16.430201 -40.410178,42.134083 -48.76133,67.563514 -5.003344,15.23528 -6.52587,25.53391 -6.504863,44 0.01596,14.02961 0.435805,19.38393 2.11713,27 12.385058,56.10189 53.71262,97.44949 108.851456,108.90424 5.43427,1.12894 11.4555,2.24626 13.3805,2.48294 7.09003,0.87172 31.75091,-0.29468 39.92608,-1.8884 z m -41.92608,-4.04819 c -0.825,-0.17458 -3.1875,-0.59277 -5.25,-0.92931 -3.65814,-0.59692 -3.75,-0.71741 -3.75,-4.91871 0,-8.85305 -6.82859,-14.11111 -28.10191,-21.63863 -6.577176,-2.32732 -13.141101,-5.36198 -15.035645,-6.95134 l -3.362445,-2.8208 2.088975,-2.8459 c 1.148936,-1.56525 4.298792,-4.52746 6.999679,-6.5827 7.263376,-5.52708 39.414276,-21.80923 39.409586,-19.95817 -9.7e-4,0.38223 -5.17597,5.10996 -11.5,10.50606 -11.63279,9.9259 -13.82857,13.21885 -9.24824,13.86936 1.2375,0.17575 8.1,-0.012 15.25,-0.41727 14.16398,-0.8028 33.04561,0.44651 42.00057,2.77898 12.12659,3.15858 20.84824,10.00331 23.33887,18.31628 0.63831,2.13048 1.16056,6.84155 1.16056,10.46904 l 0,6.59543 -4.25,1.15507 c -10.02647,2.72501 -20.07352,3.84764 -33.75,3.77113 -7.975,-0.0446 -15.175,-0.22395 -16,-0.39852 z m 106.91508,-68.58447 c -18.62404,-14.04565 -35.12758,-25.44026 -42.60546,-29.41629 -5.02426,-2.67142 -10.35594,-3.10196 -16.80962,-1.35739 -9.04997,2.4464 -30.29964,14.63268 -45.2479,25.94881 -3.6027,2.72731 -6.93304,4.95875 -7.40076,4.95875 -0.46772,0 -20.29355,-13.05 -44.0574,-29 -34.591879,-23.21764 -43.856312,-29 -46.463451,-29 -3.737589,0 -12.384396,3.19013 -16.403158,6.05175 -3.879542,2.76247 -4.927331,2.43921 -4.927331,-1.5202 0,-3.19216 0.73519,-4.03664 9.229428,-10.60142 10.760974,-8.31663 19.372559,-12.94481 23.992055,-12.89423 3.241931,0.0355 4.482655,0.90369 82.855087,57.97697 l 2.57658,1.87634 10.42342,-6.98711 c 23.3617,-15.65999 42.86292,-26.36891 50.18108,-27.55649 3.34319,-0.54252 5.75728,0.87679 38.68246,22.74262 26.23221,17.42099 34.97256,23.71221 34.5469,24.86651 -0.98798,2.67913 -9.85521,17.04526 -10.52089,17.04526 -0.34977,0 -8.47274,-5.91025 -18.05104,-13.13388 z m 3.08492,-40.99309 c -17.325,-11.61524 -32.82307,-21.6887 -34.44015,-22.38546 -2.42924,-1.04669 -3.81912,-1.00581 -7.99834,0.23529 -10.73902,3.18914 -27.98638,13.36238 -45.81705,27.02486 -9.26669,7.10045 -9.86802,7.40056 -12,5.98885 -1.23446,-0.81739 -19.98361,-14.36751 -41.66478,-30.11137 -42.694936,-31.00307 -41.601714,-30.41348 -49.57968,-26.73892 -5.400967,2.48762 -18.424704,11.97386 -27.113051,19.74861 -3.912178,3.50081 -7.399678,6.36511 -7.75,6.36511 -0.350322,0 -0.636949,-1.31814 -0.636949,-2.92919 0,-3.22526 3.922041,-7.34617 20.5,-21.53946 16.0788,-13.76593 28.264258,-20.6361 33.884288,-19.10398 1.163641,0.31723 19.440712,13.20879 40.615712,28.64791 21.175,15.43912 39.68793,28.93354 41.13985,29.98759 l 2.63985,1.91645 7.36015,-6.16871 c 18.04951,-15.12771 45.26218,-29.81061 55.24972,-29.81061 2.32751,0 10.31703,4.8081 32.81813,19.75 25.31542,16.81075 29.74542,20.11192 29.76698,22.1819 0.0321,3.08312 -3.97852,18.0695 -4.83423,18.06393 -0.35225,-0.002 -14.81545,-9.50756 -32.14045,-21.1228 z m -97.02899,-14.19641 c -3.04095,-2.29714 -9.69651,-7.22119 -14.79015,-10.94233 l -9.26117,-6.76572 3.40978,-6.23428 c 1.87537,-3.42886 6.2309,-11.63429 9.67893,-18.23429 12.20578,-23.36348 17.22679,-32.598149 17.54889,-32.276043 0.1793,0.179292 0.62543,17.977253 0.99141,39.551013 0.55487,32.70871 0.43997,39.21284 -0.69164,39.15165 -0.74638,-0.0404 -3.84511,-1.95285 -6.88605,-4.25 z m 12.02899,-36.25995 c 0,-26.76917 0.32504,-38.474991 1.06155,-38.22949 0.58385,0.194617 3.8757,5.744617 7.31522,12.33333 3.43952,6.58872 9.93685,18.99943 14.43851,27.57935 l 8.18483,15.59986 -8.75006,5.79486 c -4.81253,3.18718 -11.51386,7.97974 -14.89184,10.65014 -3.37799,2.67041 -6.41549,4.85528 -6.75,4.85528 -0.33452,0 -0.60821,-17.3625 -0.60821,-38.58333 z m -48,10.01732 c -4.125,-3.01597 -7.61648,-5.82185 -7.75883,-6.23529 -0.14236,-0.41344 5.48264,-6.09867 12.5,-12.63385 7.01735,-6.53518 16.37798,-15.29825 20.80139,-19.4735 4.42341,-4.175244 9.09748,-8.491353 10.38681,-9.591353 l 2.34424,-2 -1.7568,3.5 c -6.18967,12.331473 -27.8507,51.992733 -28.37734,51.958793 -0.35171,-0.0227 -4.01447,-2.50883 -8.13947,-5.5248 z m 79.66206,-0.76735 c -1.87927,-3.39165 -7.59746,-14.26664 -12.7071,-24.16664 -5.10965,-9.9 -9.88982,-18.887631 -10.62261,-19.972509 -1.52593,-2.259097 -1.74071,-3.849126 -0.45397,-3.360827 1.51645,0.575471 46.12162,44.071316 46.12162,44.974586 0,0.47231 -0.49619,0.85875 -1.10265,0.85875 -0.60645,0 -4.8637,1.76249 -9.46055,3.91664 l -8.3579,3.91665 -3.41684,-6.16665 z M 157.42656,85.022905 C 154.86012,82.45646 152.92102,81.85903 139.09964,79.376446 121.9779,76.301054 118.35658,75.278554 119.73,73.907319 c 0.5494,-0.548526 7.64922,-0.474145 17.83244,0.186821 16.40987,1.065121 16.96847,1.037867 18.54141,-0.904632 0.89199,-1.101562 2.5606,-2.505271 3.70802,-3.119353 2.52655,-1.352165 3.70665,-6.095735 1.70736,-6.862933 -2.80378,-1.075915 -1.24598,-2.313219 2.87361,-2.282392 3.74835,0.02805 4.04344,0.188608 2.5,1.360243 -2.60166,1.974939 -2.02087,7.607954 0.78441,7.607954 0.72624,0 2.25328,1.18593 3.39344,2.635401 l 2.073,2.635401 12.74958,-0.680563 c 7.01226,-0.374309 14.88707,-0.943213 17.49957,-1.264231 3.87397,-0.476025 4.75,-0.297923 4.75,0.965706 0,0.888526 -1.17295,1.786958 -2.75,2.106393 -1.5125,0.30636 -9.275,1.760708 -17.25,3.231884 -12.40165,2.287776 -14.97536,3.086949 -17.7848,5.522437 -4.44321,3.851794 -9.06519,3.843734 -12.93148,-0.02255 z"
         id="path3412"
         inkscape:connector-curvature="0" />
      <path
         style="fill:#5babd5"
         d="M 142.14284,305.77178 C 90.428029,299.82954 46.458226,269.54419 23.76654,224.23702 -2.06502,172.66064 3.4160059,112.09431 38.072244,66.156395 46.038106,55.597399 62.826747,39.590379 73.14284,32.718564 91.433202,20.534883 111.74518,12.450147 133.27153,8.7856654 149.18152,6.0772678 172.27118,6.5235703 187.49537,9.8337636 247.44274,22.868116 291.16879,66.733877 304.31917,127.03084 c 3.24673,14.88688 3.28373,44.79167 0.0731,59.1207 -4.01448,17.91688 -12.94485,40.13081 -20.56553,51.15593 -16.86365,24.39726 -36.67274,42.08639 -60.49414,54.02004 -23.42503,11.73511 -55.34507,17.41393 -81.18976,14.44427 z m 36.52982,-11.35138 c 30.84131,-5.00231 56.61119,-18.33556 78.64411,-40.6902 39.08912,-39.6599 50.25154,-99.78767 28.21647,-151.99154 C 272.20564,70.163895 243.87197,41.830226 212.29721,28.502627 159.526,6.2280771 99.035735,17.838127 59.200047,57.886956 38.907836,78.287741 26.428686,101.46782 20.435103,129.89303 c -2.815705,13.35378 -2.536015,42.14559 0.543207,55.91878 8.487237,37.96293 31.711723,70.57651 64.1353,90.06365 15.6697,9.41777 35.00006,16.38808 52.37548,18.88603 9.92018,1.42616 31.38373,1.24839 41.18357,-0.34109 z m -33.02982,-4.96178 c -0.55,-0.22691 -3.5875,-0.70437 -6.75,-1.06103 l -5.75,-0.64847 0,-3.47771 c 0,-9.44345 -7.15558,-15.08658 -29,-22.87036 -20.852227,-7.43023 -21.707399,-9.94441 -6.748133,-19.83927 9.683943,-6.40548 35.748133,-19.69149 35.748133,-18.22232 0,0.1894 -4.94004,4.54095 -10.97786,9.6701 -6.03783,5.12914 -11.22758,9.97646 -11.53279,10.77181 -1.23465,3.21747 1.45718,3.59098 26.30046,3.64934 22.08621,0.0519 25.52457,0.28536 32.37927,2.19858 12.97096,3.62034 19.65681,8.19873 23.40471,16.02728 2.30754,4.81993 2.63803,17.86013 0.48649,19.19546 -3.13126,1.94337 -19.27907,4.23229 -32.56028,4.61535 -7.7,0.22208 -14.45,0.21814 -15,-0.009 z m 109.12359,-64.19279 c -14.57204,-11.24382 -37.79998,-27.79429 -44.60864,-31.78473 -9.22762,-5.40816 -12.49304,-6.09361 -19.94037,-4.18569 -3.45782,0.88585 -9.95166,3.45165 -14.43076,5.70176 -8.79645,4.41898 -28.53249,17.00657 -35.37,22.5589 l -4.22617,3.43182 -37.344871,-24.94617 C 78.305942,182.32133 58.721984,169.18863 55.325713,166.85793 46.585044,160.85964 41.872382,161.07491 29.9816,168.01566 l -4.661239,2.72081 -0.637327,-2.53932 c -0.806651,-3.21395 0.639441,-4.87674 10.959806,-12.60215 8.374428,-6.26875 18.589357,-11.69984 22.007894,-11.70118 1.104341,-4.3e-4 12.383467,7.53671 25.064724,16.74921 33.643602,24.44093 57.759802,41.82222 59.104542,42.59848 0.65258,0.37671 6.89131,-3.04697 14,-7.6829 26.26703,-17.13004 42.14985,-25.6072 48.4193,-25.84289 2.94635,-0.11077 8.47437,3.20382 36.93425,22.14567 18.40811,12.25176 33.88458,22.65876 34.39216,23.12666 0.55954,0.51579 0.43207,1.94409 -0.32376,3.62785 -2.10996,4.70033 -8.54228,14.25933 -9.59911,14.26511 -0.55,0.003 -5.44438,-3.42381 -10.87641,-7.61518 z m -6.09434,-47.53722 c -32.24345,-21.53485 -33.05963,-22.00668 -37,-21.3896 -8.87383,1.38966 -35.94536,17.16587 -52.31087,30.48467 l -6.28162,5.11219 -39.71838,-28.84056 C 91.516112,147.233 72.384944,133.43324 70.847515,132.42918 c -2.455528,-1.60365 -3.306442,-1.67555 -7,-0.59146 -6.925129,2.03259 -16.251572,8.5582 -36.391205,25.46254 l -3.46364,2.90723 0.325085,-3.35586 c 0.281411,-2.90501 2.138779,-4.95318 13.825085,-15.24528 21.945657,-19.3275 35.70238,-27.5304 41.245823,-24.59418 1.239797,0.65669 20.029177,14.08746 41.754177,29.84616 21.725,15.75869 40.03736,28.97426 40.69413,29.36792 0.7084,0.42461 4.57267,-2.0128 9.5,-5.99219 18.85098,-15.22432 45.28955,-29.34103 54.95155,-29.34103 0.98047,0 15.34387,9.02669 31.91866,20.05932 l 30.13599,20.05932 -0.6792,3.69068 c -1.3889,7.5472 -3.88315,15.18842 -4.93508,15.11877 -0.59733,-0.0395 -15.92289,-9.98118 -34.0568,-22.09251 z M 145.42283,158.61052 c -7.82101,-5.61962 -14.23351,-10.51719 -14.25,-10.88348 -0.0392,-0.87152 27.93878,-54.045185 29.08841,-55.284013 0.50998,-0.549543 0.8816,15.363353 0.8816,37.750003 0,21.285 -0.3375,38.68537 -0.75,38.66749 -0.4125,-0.0179 -7.14901,-4.63039 -14.97001,-10.25 z m 21.72001,-29.35847 c 0,-21.59422 0.37406,-37.352324 0.87377,-36.809023 1.066,1.159001 28.12623,52.954773 28.12623,53.836193 0,0.34481 -3.2625,2.70796 -7.25,5.25146 -3.9875,2.54349 -9.95,6.72649 -13.25,9.29555 -3.3,2.56906 -6.5625,5.01162 -7.25,5.42792 -0.99129,0.60026 -1.25,-7.05787 -1.25,-37.0021 z m -49,9.66347 c -3.575,-2.66755 -6.5,-5.38849 -6.5,-6.04653 0,-1.18756 42.69778,-42.03646 43.3299,-41.453655 0.18145,0.167291 -0.32445,1.355708 -1.12422,2.640928 -0.79977,1.28522 -3.13012,5.486764 -5.17855,9.336767 -16.73921,31.46115 -21.84369,40.49146 -22.85702,40.43629 -0.64356,-0.035 -4.09511,-2.24624 -7.67011,-4.9138 z m 81.21608,1.72751 c -1.07087,-1.7875 -6.57308,-12.25 -12.22713,-23.25 -5.65406,-11 -10.59474,-20.450003 -10.97929,-21.000003 -0.38456,-0.55 -1.01732,-1.9 -1.40614,-3 -0.75354,-2.131799 3.49561,1.793576 29.02985,26.817803 15.43581,15.1275 16.03318,15.85848 13.68831,16.75 -1.34854,0.51271 -2.67282,0.9322 -2.94287,0.9322 -0.27004,0 -3.21193,1.35 -6.53752,3 -3.3256,1.65 -6.18866,3 -6.36235,3 -0.1737,0 -1.19199,-1.4625 -2.26286,-3.25 z M 160.49984,86.901446 c -1.17865,-0.475644 -2.80132,-1.804684 -3.60592,-2.953421 -1.2096,-1.726937 -4.51827,-2.64649 -19.107,-5.31026 -24.70229,-4.510413 -23.13233,-5.864489 4.32476,-3.730076 l 12.46883,0.969281 2.03117,-2.397769 c 1.11714,-1.318772 3.04366,-2.905992 4.28116,-3.527155 2.74756,-1.379135 3.03226,-5.744715 0.5,-7.666973 -1.55007,-1.176674 -1.29874,-1.332073 2.2,-1.360243 3.07222,-0.02474 3.68333,0.234864 2.75,1.168197 -1.72189,1.721886 -1.55738,7.8 0.21111,7.8 0.7761,0 2.56963,1.376829 3.9856,3.059621 l 2.5745,3.059621 13.21429,-1.059621 c 27.48508,-2.20396 28.67578,-0.821483 3.3145,3.84835 -12.80131,2.357136 -17.37047,3.590587 -18.5,4.9941 -2.95982,3.677768 -6.59667,4.739247 -10.643,3.106348 z"
         id="path3410"
         inkscape:connector-curvature="0" />
      <path
         style="fill:#0089e1"
         d="m 131.14284,303.94146 c -19.8294,-3.61718 -40.033567,-11.92304 -58,-23.84359 C 61.82415,272.58803 41.247902,252.03015 33.902968,240.89303 16.338542,214.2601 8.1332686,187.48108 8.164798,156.89303 8.2047763,118.10832 21.332867,84.261076 47.573584,55.288104 78.264166,21.401935 127.8796,2.61337 172.84939,7.8481719 c 35.97522,4.1877701 66.85741,19.3732351 91.70748,45.0946251 48.13248,49.820143 56.15821,124.423593 19.63651,182.531763 -21.99949,35.00248 -54.57276,57.96773 -95.78833,67.53399 -13.15641,3.05365 -42.9733,3.53942 -57.26221,0.93291 z m 39.14405,-8.09118 c 18.45666,-1.85843 32.83333,-5.98809 49.28789,-14.15785 13.3097,-6.60833 23.11109,-13.51518 34.21462,-24.11041 12.30987,-11.74634 21.13947,-23.64765 28.33248,-38.18899 11.32605,-22.89667 14.51141,-36.87945 14.46565,-63.5 -0.0283,-16.45145 -0.32536,-19.74544 -2.68286,-29.74735 C 276.83862,53.741361 209.47299,7.7176028 136.27118,18.451507 119.34802,20.933024 97.149163,29.071464 83.723661,37.716232 51.665081,58.358958 29.656716,89.155331 21.112347,125.32844 c -7.093407,30.03037 -3.013926,65.45292 10.709942,92.99553 19.914307,39.96627 58.999822,69.11468 101.868301,75.96929 16.9086,2.70366 22.74325,2.9519 36.5963,1.55702 z m -24.32528,-6.93748 c -12.31863,-1.23236 -12.81817,-1.45788 -12.82251,-5.78882 -0.008,-7.84235 -6.46383,-13.63912 -21.45337,-19.2628 -4.42359,-1.65961 -11.02805,-4.15061 -14.676578,-5.53555 -3.648528,-1.38494 -7.420338,-3.38731 -8.381799,-4.44971 -1.637058,-1.80893 -1.642426,-2.09294 -0.0845,-4.47064 0.914987,-1.39645 3.786796,-4.09752 6.381798,-6.00239 5.217379,-3.82984 34.102729,-18.95866 34.822799,-18.23859 0.24966,0.24967 -3.94674,4.25041 -9.32534,8.89055 -7.41725,6.39888 -9.77927,9.02856 -9.77927,10.88739 l 0,2.45079 23.5,0.10067 c 25.89928,0.11094 34.46711,1.25294 45.05758,6.00566 10.44384,4.68691 14.94242,11.72762 14.94242,23.3863 0,8.31853 0.47393,7.96951 -14.02552,10.32886 -12.51116,2.03582 -24.71579,2.64265 -34.15571,1.69828 z m 100.65452,-70.23557 c -30.60094,-22.97349 -43.21264,-30.79499 -49.61852,-30.77233 -10.77884,0.0381 -33.01799,11.33235 -54.82786,27.84448 -3.0102,2.27901 -5.83746,4.14365 -6.2828,4.14365 -0.44534,0 -19.90605,-12.83347 -43.246019,-28.51882 -23.339968,-15.68535 -43.717302,-28.77502 -45.282964,-29.08815 -3.866281,-0.77326 -10.726387,1.18164 -16.48015,4.69629 -2.620762,1.60087 -4.983262,2.91068 -5.25,2.91068 -0.266737,0 -0.483297,-1.2375 -0.481245,-2.75 0.0029,-2.1471 1.263521,-3.75488 5.75,-7.33356 12.137099,-9.68127 21.35257,-14.91644 26.257418,-14.91644 2.990294,0 14.139906,7.73623 75.13642,52.13387 l 10.64757,7.75006 8.56316,-5.84331 c 13.25829,-9.04718 32.3528,-20.5373 40.73767,-24.51391 13.76142,-6.52648 9.96914,-7.91741 49.0681,17.9971 18.88476,12.51669 34.49172,22.88758 34.68213,23.04644 0.54018,0.45065 -5.60687,11.60962 -8.10536,14.71395 l -2.24084,2.78421 -19.02671,-14.28421 z m 2.54572,-40.87651 -33.3374,-22.1359 -4.48808,0.61516 c -8.50913,1.16631 -31.00371,14.06492 -49.64732,28.46826 -4.37459,3.37963 -8.3566,6.14479 -8.84893,6.14479 -0.49232,0 -9.51311,-6.27963 -20.0462,-13.95474 -10.53309,-7.67511 -29.05108,-21.16136 -41.15108,-29.96945 -15.181693,-11.05138 -22.829768,-16.02418 -24.677337,-16.04526 -5.785921,-0.066 -19.924205,9.04294 -36.072663,23.24077 -6.709199,5.89878 -6.75,5.91737 -6.75,3.0753 0,-2.3667 1.797217,-4.46701 10.431129,-12.19029 15.086126,-13.49496 23.139187,-19.7703 31.068871,-24.21037 11.356105,-6.35864 9.784123,-6.98175 42.5,16.84636 44.10472,32.123 54.01228,39.20768 54.82993,39.20768 0.41615,0 3.43716,-2.27261 6.71335,-5.05025 12.71104,-10.77672 33.19745,-23.31415 45.65028,-27.93741 11.1548,-4.14135 9.97809,-4.61194 42.30644,16.91904 15.95,10.62286 29.38123,19.66274 29.84718,20.08863 0.89366,0.81683 -2.77,16.80281 -4.17222,18.20503 -0.4502,0.4502 -15.82038,-9.14261 -34.15595,-21.31735 z m -103.3773,-19.52481 -14.6525,-10.61712 3.89742,-7.13288 c 2.14358,-3.92308 8.48098,-15.90788 14.08312,-26.63288 5.60213,-10.725 10.58064,-19.907421 11.06335,-20.405376 0.50405,-0.519977 0.9054,15.336526 0.94285,37.250006 0.0359,20.98545 -0.10286,38.15537 -0.30827,38.15537 -0.20541,0 -6.9671,-4.7777 -15.02597,-10.61712 z m 21.375,-29.13739 0.0167,-37.745493 4.29212,8 c 2.36066,4.400003 8.85531,16.787163 14.43255,27.527013 l 10.14043,19.52701 -4.69926,2.90077 c -2.58459,1.59542 -9.08676,6.19374 -14.44926,10.21848 l -9.75,7.3177 0.0167,-37.74548 z m -48.70976,9.46098 c -3.95618,-2.86356 -7.10618,-5.48231 -7,-5.81944 0.23554,-0.7479 33.81913,-32.46586 38.64741,-36.500486 3.36243,-2.809723 3.27592,-2.553864 -3.25051,9.613456 -3.68768,6.875 -9.74215,18.23154 -13.45436,25.23674 -3.71222,7.00521 -6.97449,12.72312 -7.24949,12.70647 -0.275,-0.0166 -3.73687,-2.37319 -7.69305,-5.23674 z m 79.41103,-1.60131 c -8.29362,-15.44672 -22.70936,-43.444336 -22.47374,-43.647482 0.14067,-0.121276 10.03842,9.294872 21.99501,20.924782 l 21.73926,21.14528 -8.85705,4.09128 -8.85706,4.09129 -3.54642,-6.60515 z M 157.79318,84.049944 c -2.45144,-2.558746 -4.29533,-3.123149 -18.43709,-5.643479 -18.20955,-3.245284 -23.03013,-4.782931 -12.71325,-4.055215 28.82638,2.033311 28.31548,2.046076 30.52488,-0.762726 1.11501,-1.417504 2.91555,-2.859203 4.00121,-3.203776 1.52439,-0.483823 1.97391,-1.522078 1.97391,-4.559109 0,-2.162936 0.37206,-3.932612 0.82681,-3.932612 0.45474,0 0.63711,1.292439 0.40527,2.872086 -0.27927,1.902797 0.15774,3.337114 1.2949,4.25 0.94403,0.757853 3.02812,2.680627 4.63131,4.272831 l 2.91488,2.894917 10.71341,-0.667738 c 5.89238,-0.367256 13.63842,-0.910336 17.21342,-1.206845 10.6504,-0.883338 4.94179,1.057239 -12,4.079261 -13.54006,2.415232 -15.91536,3.127787 -18.7848,5.635164 -4.40714,3.851055 -8.8921,3.860778 -12.56486,0.02724 z"
         id="path3408"
         inkscape:connector-curvature="0" />
      <path
         style="fill:#0385ce"
         d="m 131.14284,303.94146 c -19.8294,-3.61718 -40.033567,-11.92304 -58,-23.84359 C 61.82415,272.58803 41.247902,252.03015 33.902968,240.89303 16.338542,214.2601 8.1332686,187.48108 8.164798,156.89303 8.2047763,118.10832 21.332867,84.261076 47.573584,55.288104 78.264166,21.401935 127.8796,2.61337 172.84939,7.8481719 c 35.97522,4.1877701 66.85741,19.3732351 91.70748,45.0946251 48.13248,49.820143 56.15821,124.423593 19.63651,182.531763 -21.99949,35.00248 -54.57276,57.96773 -95.78833,67.53399 -13.15641,3.05365 -42.9733,3.53942 -57.26221,0.93291 z m 39.14405,-8.09118 c 18.45666,-1.85843 32.83333,-5.98809 49.28789,-14.15785 13.3097,-6.60833 23.11109,-13.51518 34.21462,-24.11041 12.30987,-11.74634 21.13947,-23.64765 28.33248,-38.18899 11.32605,-22.89667 14.51141,-36.87945 14.46565,-63.5 -0.0283,-16.45145 -0.32536,-19.74544 -2.68286,-29.74735 C 276.83862,53.741361 209.47299,7.7176028 136.27118,18.451507 119.34802,20.933024 97.149163,29.071464 83.723661,37.716232 51.665081,58.358958 29.656716,89.155331 21.112347,125.32844 c -7.093407,30.03037 -3.013926,65.45292 10.709942,92.99553 19.914307,39.96627 58.999822,69.11468 101.868301,75.96929 16.9086,2.70366 22.74325,2.9519 36.5963,1.55702 z m -27.89405,-7.64658 c 0.9625,-0.25152 2.5375,-0.25152 3.5,0 0.9625,0.25153 0.175,0.45733 -1.75,0.45733 -1.925,0 -2.7125,-0.2058 -1.75,-0.45733 z m 24.5,-0.0164 c 1.2375,-0.23836 3.2625,-0.23836 4.5,0 1.2375,0.23835 0.225,0.43337 -2.25,0.43337 -2.475,0 -3.4875,-0.19502 -2.25,-0.43337 z m -31,-0.95655 c 0.6875,-0.27741 1.8125,-0.27741 2.5,0 0.6875,0.27741 0.125,0.50439 -1.25,0.50439 -1.375,0 -1.9375,-0.22698 -1.25,-0.50439 z m -1.9375,-4.02083 c 0.72187,-0.28887 1.58437,-0.25335 1.91667,0.0789 0.33229,0.33229 -0.25834,0.56864 -1.3125,0.52522 -1.16495,-0.048 -1.4019,-0.28494 -0.60417,-0.60416 z m 52.05994,-25.06689 c -1.24387,-1.58606 -1.2085,-1.62143 0.37756,-0.37756 0.9625,0.75485 1.75,1.54235 1.75,1.75 0,0.82304 -0.82119,0.29331 -2.12756,-1.37244 z m -97.467452,-4.5 -1.904988,-2.25 2.25,1.90499 c 2.114445,1.79022 2.705241,2.59501 1.904988,2.59501 -0.189757,0 -1.202257,-1.0125 -2.25,-2.25 z m 75.407512,-4.43311 c 0.72187,-0.28887 1.58437,-0.25335 1.91667,0.0789 0.33229,0.33229 -0.25834,0.56864 -1.3125,0.52522 -1.16495,-0.048 -1.4019,-0.28494 -0.60417,-0.60416 z m -49.0625,-1.02262 c 1.2375,-0.23836 3.2625,-0.23836 4.5,0 1.2375,0.23835 0.225,0.43337 -2.25,0.43337 -2.475,0 -3.4875,-0.19502 -2.25,-0.43337 z m 41.51903,0.0127 c 0.97297,-0.25354 2.32297,-0.23687 3,0.0371 0.67703,0.27393 -0.11903,0.48137 -1.76903,0.46099 -1.65,-0.0204 -2.20394,-0.2445 -1.23097,-0.49804 z m -20.51903,-1.03918 c 2.3375,-0.21053 6.1625,-0.21053 8.5,0 2.3375,0.21054 0.425,0.3828 -4.25,0.3828 -4.675,0 -6.5875,-0.17226 -4.25,-0.3828 z m -44.75,-0.64535 c 0,-0.20765 0.7875,-0.99515 1.75,-1.75 1.586056,-1.24387 1.621426,-1.2085 0.377555,0.37756 -1.306369,1.66575 -2.127555,2.19548 -2.127555,1.37244 z m 18,-2.30079 c 0,-0.55642 1.0125,-1.86892 2.25,-2.91666 l 2.25,-1.90499 -1.98934,2.5 c -1.09414,1.375 -2.10664,2.6875 -2.25,2.91667 -0.14336,0.22916 -0.26066,-0.0386 -0.26066,-0.59502 z m -13,-1.0811 c 0,-0.4177 1.0125,-1.38145 2.25,-2.14166 2.24201,-1.37729 2.24323,-1.37459 0.345012,0.75946 -2.038086,2.29128 -2.595012,2.58792 -2.595012,1.3822 z m 22,-8.13356 c 0,-0.49116 0.73865,-1.17646 1.64144,-1.52289 1.37248,-0.52667 1.43434,-0.38034 0.37756,0.89301 -1.44013,1.73524 -2.019,1.91584 -2.019,0.62988 z m 147,-3.5 c 0,-0.21616 0.69837,-0.661 1.55194,-0.98855 0.88992,-0.34149 1.29132,-0.17385 0.94098,0.39301 -0.58726,0.95021 -2.49292,1.40545 -2.49292,0.59554 z m -141.75,-1.26927 c -1.67905,-0.67751 -1.58105,-1.99671 0.19907,-2.6798 1.03592,-0.39752 1.26765,-0.0716 0.81277,1.14301 -0.57613,1.53841 -0.45312,1.55723 1.30093,0.19907 1.79266,-1.38806 1.83481,-1.36941 0.56479,0.25 -0.75485,0.9625 -1.42985,1.71447 -1.5,1.67105 -0.0702,-0.0434 -0.69006,-0.30592 -1.37756,-0.58333 z m 13.75,-16.73073 c 0,-0.21616 0.69837,-0.661 1.55194,-0.98855 0.88992,-0.34149 1.29132,-0.17385 0.94098,0.39301 -0.58726,0.95021 -2.49292,1.40545 -2.49292,0.59554 z m 106,-0.60699 c -0.90129,-0.58246 -1.02463,-0.97549 -0.30902,-0.98469 0.65504,-0.008 1.4691,0.43469 1.80902,0.98469 0.7673,1.24153 0.42112,1.24153 -1.5,0 z m 20,-5.05902 c 0,-0.58246 0.45,-0.7809 1,-0.44098 0.55,0.33992 1,0.81648 1,1.05902 0,0.24254 -0.45,0.44098 -1,0.44098 -0.55,0 -1,-0.47656 -1,-1.05902 z m -13.98099,-30.03329 -33.3374,-22.1359 -4.48808,0.61516 c -8.50913,1.16631 -31.00371,14.06492 -49.64732,28.46826 -4.37459,3.37963 -8.3566,6.14479 -8.84893,6.14479 -0.49232,0 -9.51311,-6.27963 -20.0462,-13.95474 -10.53309,-7.67511 -29.05108,-21.16136 -41.15108,-29.96945 -15.181693,-11.05138 -22.829768,-16.02418 -24.677337,-16.04526 -5.785921,-0.066 -19.924205,9.04294 -36.072663,23.24077 -6.709199,5.89878 -6.75,5.91737 -6.75,3.0753 0,-2.3667 1.797217,-4.46701 10.431129,-12.19029 15.086126,-13.49496 23.139187,-19.7703 31.068871,-24.21037 11.356105,-6.35864 9.784123,-6.98175 42.5,16.84636 44.10472,32.123 54.01228,39.20768 54.82993,39.20768 0.41615,0 3.43716,-2.27261 6.71335,-5.05025 12.71104,-10.77672 33.19745,-23.31415 45.65028,-27.93741 11.1548,-4.14135 9.97809,-4.61194 42.30644,16.91904 15.95,10.62286 29.38123,19.66274 29.84718,20.08863 0.89366,0.81683 -2.77,16.80281 -4.17222,18.20503 -0.4502,0.4502 -15.82038,-9.14261 -34.15595,-21.31735 z m -123.14657,15.34231 c -1.26951,-1.61876 -1.22245,-1.63998 0.62756,-0.28297 1.1,0.80687 2.1875,1.59437 2.41667,1.75 0.22916,0.15563 -0.0532,0.28297 -0.62756,0.28297 -0.57432,0 -1.66182,-0.7875 -2.41667,-1.75 z m 68.88922,-5.95726 c 1.24391,-0.23919 3.04391,-0.23011 4,0.0202 0.95609,0.25029 -0.0617,0.446 -2.26166,0.4349 -2.2,-0.0111 -2.98225,-0.21589 -1.73834,-0.45508 z m -10.76166,-8.68575 c 0,-0.21616 0.69837,-0.661 1.55194,-0.98855 0.88992,-0.34149 1.29132,-0.17385 0.94098,0.39301 -0.58726,0.95021 -2.49292,1.40545 -2.49292,0.59554 z m -91.127555,-9.35699 c -1.243871,-1.58606 -1.208501,-1.62143 0.377555,-0.37756 0.9625,0.75485 1.75,1.54235 1.75,1.75 0,0.82304 -0.821186,0.29331 -2.127555,-1.37244 z m 67.206505,-1.83333 c 0.048,-1.16495 0.28494,-1.4019 0.60416,-0.60417 0.28887,0.72187 0.25335,1.58437 -0.0789,1.91667 -0.3323,0.33229 -0.56864,-0.25834 -0.52522,-1.3125 z M 25.685545,164.96213 c -0.316431,-0.512 -0.192988,-1.1672 0.274316,-1.45601 0.467305,-0.28881 0.849646,0.13009 0.849646,0.9309 0,1.68617 -0.315337,1.83349 -1.123962,0.52511 z m 134.907475,-34.5691 c 3.4e-4,-19.25 0.13469,-26.98348 0.29856,-17.1855 0.16386,9.79798 0.16358,25.54798 -6.2e-4,35 -0.16421,9.45203 -0.29828,1.4355 -0.29794,-17.8145 z m 10.54982,33.12244 c 0,-0.20765 0.7875,-0.99515 1.75,-1.75 1.58606,-1.24387 1.62143,-1.2085 0.37756,0.37756 -1.30637,1.66575 -2.12756,2.19548 -2.12756,1.37244 z m 3,-4.00581 c 0,-0.21085 0.90062,-0.61888 2.00138,-0.90674 1.10076,-0.28785 1.7492,-0.11534 1.44098,0.38337 -0.53825,0.87091 -3.44236,1.31244 -3.44236,0.52337 z m -6.67993,-9.61663 c 0,-3.575 0.1815,-5.0375 0.40333,-3.25 0.22182,1.7875 0.22182,4.7125 0,6.5 -0.22183,1.7875 -0.40333,0.325 -0.40333,-3.25 z m -100.32007,1 c -0.901292,-0.58246 -1.024633,-0.97549 -0.309017,-0.98469 0.655041,-0.008 1.469098,0.43469 1.809017,0.98469 0.767305,1.24153 0.421123,1.24153 -1.5,0 z m 65.17965,-2.28354 c -0.73844,-0.88977 -0.74707,-1.73343 -0.0281,-2.75 0.87623,-1.23894 0.95705,-1.21386 0.52095,0.16168 -0.28391,0.89548 -0.0114,2.13298 0.60566,2.75 0.61703,0.61703 0.86196,1.12186 0.5443,1.12186 -0.31765,0 -1.05691,-0.57759 -1.64279,-1.28354 z m 4.38464,-11.00959 c 0.37553,-0.98622 0.93469,-1.54122 1.24258,-1.23333 0.30789,0.30789 6.4e-4,1.11479 -0.68278,1.79313 -0.98762,0.98026 -1.10248,0.8654 -0.5598,-0.5598 z m 4,-8 c 0.37553,-0.98622 0.93469,-1.54122 1.24258,-1.23333 0.30789,0.30789 6.4e-4,1.11479 -0.68278,1.79313 -0.98762,0.98026 -1.10248,0.8654 -0.5598,-0.5598 z m 68.00871,-3.22834 c -1.05985,-0.80183 -1.69459,-1.69027 -1.41054,-1.97433 0.28406,-0.28405 1.33345,0.3863 2.33199,1.48967 2.12638,2.34962 1.78263,2.53042 -0.92145,0.48466 z m -4.573,-4.47853 c -0.90129,-0.58246 -1.02463,-0.97549 -0.30902,-0.98469 0.65504,-0.008 1.4691,0.43469 1.80902,0.98469 0.7673,1.24153 0.42112,1.24153 -1.5,0 z m -72.43571,-7.70687 c -0.54268,-1.4252 -0.42782,-1.54006 0.5598,-0.5598 0.68342,0.67834 0.99067,1.48524 0.68278,1.79313 -0.30789,0.30789 -0.86705,-0.24711 -1.24258,-1.23333 z M 167.4152,99.893027 c 0,-2.475 0.19502,-3.4875 0.43337,-2.25 0.23836,1.2375 0.23836,3.262503 0,4.500003 -0.23835,1.2375 -0.43337,0.225 -0.43337,-2.250003 z m 9.07936,-3.760081 c 0.36341,-0.588004 0.0954,-1.297007 -0.59549,-1.575561 -0.89914,-0.362499 -0.91769,-0.528904 -0.0652,-0.585411 1.72088,-0.114073 2.54754,1.655607 1.17082,2.506463 -0.69784,0.431292 -0.9039,0.291725 -0.51008,-0.345491 z m -15.53922,-9.923033 c 0.72187,-0.288871 1.58437,-0.253344 1.91667,0.07895 0.33229,0.332292 -0.25834,0.568641 -1.3125,0.52522 -1.16495,-0.04798 -1.4019,-0.284941 -0.60417,-0.604167 z m -10,-6 c 0.72187,-0.288871 1.58437,-0.253344 1.91667,0.07895 0.33229,0.332292 -0.25834,0.568641 -1.3125,0.52522 -1.16495,-0.04798 -1.4019,-0.284941 -0.60417,-0.604167 z m -11,-2 c 0.72187,-0.288871 1.58437,-0.253344 1.91667,0.07895 0.33229,0.332292 -0.25834,0.568641 -1.3125,0.52522 -1.16495,-0.04798 -1.4019,-0.284941 -0.60417,-0.604167 z m 46,0 c 0.72187,-0.288871 1.58437,-0.253344 1.91667,0.07895 0.33229,0.332292 -0.25834,0.568641 -1.3125,0.52522 -1.16495,-0.04798 -1.4019,-0.284941 -0.60417,-0.604167 z m 6,-1 c 0.72187,-0.288871 1.58437,-0.253344 1.91667,0.07895 0.33229,0.332292 -0.25834,0.568641 -1.3125,0.52522 -1.16495,-0.04798 -1.4019,-0.284941 -0.60417,-0.604167 z m 6,-1 c 0.72187,-0.288871 1.58437,-0.253344 1.91667,0.07895 0.33229,0.332292 -0.25834,0.568641 -1.3125,0.52522 -1.16495,-0.04798 -1.4019,-0.284941 -0.60417,-0.604167 z m -74.3125,-1.316886 c 0.33992,-0.55 1.60398,-0.968372 2.80902,-0.929715 2.11236,0.06776 2.11922,0.101124 0.19098,0.929715 -2.75248,1.182783 -3.731,1.182783 -3,0 z m 17.3125,0.316886 c 0.72187,-0.288871 1.58437,-0.253344 1.91667,0.07895 0.33229,0.332292 -0.25834,0.568641 -1.3125,0.52522 -1.16495,-0.04798 -1.4019,-0.284941 -0.60417,-0.604167 z m 60.1875,-0.316886 -2.5,-0.80064 2.69098,-0.09968 c 1.48004,-0.05482 2.9691,0.35032 3.30902,0.90032 0.70255,1.136742 0.0495,1.136742 -3.5,0 z m -37.84211,-11 c 0,-1.375 0.22698,-1.9375 0.50439,-1.25 0.27741,0.6875 0.27741,1.8125 0,2.5 -0.27741,0.6875 -0.50439,0.125 -0.50439,-1.25 z"
         id="path3406"
         inkscape:connector-curvature="0" />
      <path
         style="fill:#0882bc"
         d="m 141.89424,305.34451 c -0.13827,-0.11989 -2.5014,-0.4851 -5.2514,-0.81159 -9.92479,-1.17829 -21.31908,-3.99871 -32,-7.92094 -7.074187,-2.59776 -17.5,-7.83528 -17.5,-8.79131 0,-0.5102 -0.3375,-0.87435 -0.75,-0.80922 -2.096636,0.33105 -3.291655,-0.242 -2.654508,-1.27293 0.437019,-0.70711 0.274845,-0.88339 -0.418492,-0.45488 -1.013328,0.62627 -3.690629,-0.9229 -16.087786,-9.30889 -4.490469,-3.03755 -25.272284,-23.23198 -24.599782,-23.90449 0.273815,-0.27381 -0.286792,-1.04838 -1.245793,-1.72126 -2.006507,-1.40787 -9.221616,-11.17843 -7.443022,-10.0792 0.771747,0.47697 0.975774,0.20409 0.593073,-0.79321 -0.320871,-0.83618 -1.103216,-1.42205 -1.738546,-1.30194 -0.635329,0.12011 -1.087644,-0.59912 -1.005144,-1.59829 0.0825,-0.99916 -0.108626,-1.55804 -0.424725,-1.24194 -0.811067,0.81107 -4.210741,-4.58126 -4.218686,-6.69139 -0.0036,-0.9625 -0.424026,-1.75 -0.934226,-1.75 -1.757283,0 -11.228117,-22.03821 -12.540159,-29.1804 -0.870011,-4.73595 -0.994907,-5.16979 -1.91046,-6.63613 -0.452108,-0.72409 -0.580684,-1.55786 -0.285724,-1.85282 0.294961,-0.29496 0.13855,-1.58244 -0.347579,-2.86105 -1.7305913,-4.5518 -2.4523139,-13.197 -2.4601937,-29.4696 -0.011052,-22.82263 0.7708349,-27.67637 8.1350247,-50.5 2.951049,-9.146105 10.86939,-25.500003 12.346764,-25.500003 0.54448,0 0.989964,-0.9 0.989964,-2 0,-1.1 0.45,-2 1,-2 0.55,0 1,-0.689123 1,-1.531385 0,-0.842261 0.672415,-1.789415 1.494256,-2.104785 0.821841,-0.31537 1.264313,-0.945457 0.983271,-1.400193 -0.281043,-0.454736 0.336053,-1.420083 1.371324,-2.145215 1.035271,-0.725132 2.006139,-1.768422 2.157484,-2.318422 0.629163,-2.286437 3.278311,-5.442113 4.127826,-4.917084 0.503466,0.311159 0.80417,0.194795 0.668232,-0.258586 -0.44117,-1.471389 3.385053,-6.326516 4.4615,-5.661235 0.574818,0.355257 0.755099,0.176652 0.400624,-0.3969 -0.810343,-1.311164 13.082971,-14.54029 14.409382,-13.720523 0.53661,0.331643 0.852005,0.19199 0.700878,-0.31034 -0.440911,-1.465538 6.057641,-6.456937 7.359261,-5.652492 0.690615,0.426824 0.90916,0.296073 0.530149,-0.317179 -1.18154,-1.911773 20.249343,-14.619809 22.924027,-13.593436 1.106294,0.424524 1.500153,0.279773 1.081574,-0.397501 -0.830815,-1.344289 1.765543,-2.3936 4.080212,-1.649007 1.35883,0.437114 1.44106,0.342772 0.367872,-0.422061 -1.108104,-0.789719 -0.949893,-1.122195 0.797988,-1.676951 1.25721,-0.399025 2.80448,-0.173764 3.65502,0.53212 1.21345,1.007079 1.36382,0.934586 0.84826,-0.408952 -0.81989,-2.136602 2.41349,-3.460048 3.77612,-1.54559 0.78528,1.103301 0.87842,1.036781 0.44457,-0.317505 -0.4299,-1.341975 0.25391,-1.858703 3.15567,-2.384583 2.03747,-0.369249 5.2795,-1.27531 7.2045,-2.01347 1.925,-0.73816 5.075,-1.558301 7,-1.822536 1.925,-0.264236 5.75,-0.9967678 8.5,-1.6278496 11.332,-2.6005167 55.78493,-0.8264206 53.94363,2.1528656 -0.30113,0.487238 0.0756,0.646773 0.8372,0.354524 4.33763,-1.6645028 42.71917,13.273199 42.71917,16.62586 0,0.575545 0.35899,0.82458 0.79775,0.553411 1.02191,-0.631575 3.66373,0.982629 3.82725,2.338525 0.27726,2.298965 0.43635,2.488182 1.14946,1.36716 0.51133,-0.803811 2.7139,0.244289 7.04641,3.353061 6.22776,4.468704 6.28106,4.547392 4.49085,6.630067 -1.81061,2.106403 -1.81013,2.106693 0.7857,0.473862 l 2.59741,-1.633828 8.68429,8.724708 c 4.77635,4.79859 8.33252,9.111121 7.90258,9.583402 -0.42993,0.472282 -0.29076,0.579217 0.30927,0.237635 1.09964,-0.62599 6.08175,5.155921 5.6443,6.550408 -0.1294,0.4125 0.22482,0.75 0.78716,0.75 1.61424,0 12.18522,16.855003 11.38402,18.151364 -0.41045,0.664129 -0.2804,0.888768 0.30506,0.526933 1.04132,-0.643571 7.82564,13.034368 10.57566,21.321706 3.09431,9.32485 5.74628,19.85849 6.19214,24.5952 0.25393,2.69764 0.86618,7.3206 1.36056,10.27324 1.29548,7.73706 1.36583,22.73687 0.13663,29.13156 -0.58147,3.025 -1.05932,7.075 -1.06189,9 -0.003,2.48587 -0.21929,2.97424 -0.74536,1.68549 -0.45847,-1.12315 -0.74987,0.21041 -0.76479,3.5 -0.0133,2.92298 -0.87337,7.78951 -1.91136,10.81451 -1.03799,3.025 -1.99888,6.175 -2.13532,7 -0.63928,3.86562 -5.75849,14.87038 -6.65863,14.31407 -0.59585,-0.36826 -0.69601,-0.11801 -0.2449,0.61191 0.82088,1.32821 -5.15976,14.07402 -6.60386,14.07402 -0.46772,0 -0.85039,0.6375 -0.85039,1.41667 0,0.77916 -0.3375,1.56666 -0.75,1.75 -0.4125,0.18333 -1.6014,2.0079 -2.64199,4.05459 -1.0406,2.04669 -2.2781,3.48264 -2.75,3.19098 -0.47191,-0.29165 -0.85801,0.20805 -0.85801,1.11045 0,2.2738 -6.87869,10.45976 -8.87046,10.55626 -1.12774,0.0546 -1.22579,0.24054 -0.31841,0.60371 1.02138,0.40879 0.93659,0.93862 -0.38365,2.39747 -0.93212,1.02999 -2.15416,1.58879 -2.71564,1.24178 -0.56147,-0.34701 -0.73128,-0.16239 -0.37736,0.41027 0.61623,0.99709 -1.014,3.00472 -2.58448,3.18278 -0.4125,0.0468 -0.6375,0.2628 -0.5,0.48005 0.56945,0.89977 -3.59939,4.50709 -4.53816,3.9269 -0.5616,-0.34709 -0.71907,-0.14263 -0.35004,0.45448 0.36895,0.59698 0.21348,1.36807 -0.34549,1.71353 -0.55897,0.34546 -1.01631,0.0766 -1.01631,-0.59757 0,-0.67413 -0.3375,-0.88818 -0.75,-0.47568 -0.4125,0.4125 -0.75,1.275 -0.75,1.91666 0,0.64167 -4.04097,4.20165 -8.97994,7.91108 -6.22692,4.67674 -9.59924,6.59566 -11,6.25923 -1.11103,-0.26685 -1.42599,-0.21631 -0.69991,0.11231 2.0013,0.90576 -2.21645,3.52678 -4.4889,2.78951 -1.27671,-0.41421 -1.44575,-0.31626 -0.55824,0.32344 0.89758,0.64697 -1.31897,2.14934 -7.51603,5.09434 -4.83396,2.29722 -9.27518,4.17676 -9.86937,4.17676 -0.59418,0 -2.57605,0.74616 -4.40415,1.65814 -1.8281,0.91197 -5.22894,1.69947 -7.55743,1.75 -2.3285,0.0505 -3.74961,0.3912 -3.15803,0.75706 1.31729,0.81466 -6.97021,3.16305 -8.75096,2.47971 -0.70033,-0.26874 -1.71628,-0.0457 -2.25766,0.49571 -1.44613,1.44613 -19.07795,2.9461 -32.00798,2.72297 -6.18673,-0.10677 -11.36173,-0.29222 -11.5,-0.41211 z m 35.7486,-10.10212 c 1.65,-0.18912 4.125,-0.56704 5.5,-0.83981 1.375,-0.27277 3.85716,-0.70296 5.5159,-0.95597 1.65875,-0.253 4.68821,-1.15874 6.73214,-2.01275 2.04392,-0.85401 4.06177,-1.48056 4.48409,-1.39234 0.42233,0.0882 2.34298,-0.54318 4.26813,-1.40312 1.92514,-0.85993 4.74412,-1.32573 6.2644,-1.03511 2.34023,0.44737 2.6592,0.2549 2.07981,-1.25497 -0.44452,-1.15841 -0.30428,-1.54849 0.40018,-1.1131 0.59649,0.36865 1.23546,0.29557 1.41994,-0.16241 0.18448,-0.45797 3.71041,-2.54225 7.83541,-4.63172 8.75603,-4.43527 13.99776,-7.86931 23.13398,-15.15587 3.64868,-2.91 6.91118,-5.0887 7.25,-4.84155 0.33881,0.24715 0.3869,0.14524 0.10687,-0.22645 -0.81309,-1.07926 3.68475,-5.32815 4.90451,-4.63304 0.60755,0.34622 0.77104,0.26126 0.36332,-0.18882 -1.04352,-1.15189 1.22592,-3.61856 2.60463,-2.83099 0.62518,0.35712 0.79821,0.27618 0.38451,-0.17986 -0.4137,-0.45605 -0.008,-1.65161 0.90179,-2.6568 1.35697,-1.49943 1.94096,-1.60379 3.25218,-0.58115 1.37976,1.0761 1.42882,1.0292 0.35888,-0.34313 -1.04199,-1.3365 -0.35604,-2.7555 4.308,-8.91181 3.05102,-4.02721 6.24166,-8.66492 7.09031,-10.30602 1.22824,-2.37515 1.74562,-2.69912 2.53634,-1.58819 0.78653,1.10506 0.87971,1.04057 0.44753,-0.30974 -0.30368,-0.94882 1.73977,-6.49407 4.60632,-12.5 2.83368,-5.93705 5.19465,-11.01964 5.2466,-11.29464 1.2491,-6.61215 1.74724,-7.96784 2.70926,-7.37328 0.61376,0.37932 0.82422,0.22962 0.47394,-0.33713 -0.72348,-1.17062 1.42065,-12.34606 2.26822,-11.82223 0.80924,0.50014 1.45845,-11.82415 1.47324,-27.96736 0.0151,-16.45024 -0.67026,-28.6871 -1.52964,-27.31222 -0.33506,0.53605 -0.90081,-0.84896 -1.25721,-3.07779 -0.35641,-2.22883 -1.87118,-7.77788 -3.36617,-12.33121 -1.49498,-4.55333 -2.61741,-9.09242 -2.49428,-10.08687 0.12313,-0.99446 -0.22545,-1.5304 -0.77463,-1.19099 -0.88528,0.54714 -1.18015,-0.14364 -0.91309,-2.13912 0.047,-0.351008 -0.29052,-0.915506 -0.75,-1.254441 -1.39315,-1.027665 -7.33541,-12.851259 -7.33541,-14.595612 0,-0.896381 -0.45,-1.351669 -1,-1.01175 -0.55,0.339919 -1,0.199871 -1,-0.311216 0,-0.511088 -2.22997,-3.98803 -4.95548,-7.72654 -2.72552,-3.738509 -4.75547,-7.120916 -4.51101,-7.51646 0.24446,-0.395544 -0.33808,-1.332658 -1.29452,-2.082477 -1.59361,-1.249332 -1.62523,-1.196103 -0.3783,0.636693 0.74838,1.1 -0.0205,0.464344 -1.70854,-1.412568 -1.68808,-1.876913 -2.79336,-3.858942 -2.45619,-4.404509 0.33718,-0.545567 0.15367,-0.708023 -0.4078,-0.361013 -1.06515,0.658296 -4.09321,-2.086135 -4.2169,-3.82191 -0.0392,-0.55 -0.40876,-1.001468 -0.82126,-1.003263 -1.55756,-0.0068 -8.20589,-5.759094 -7.66593,-6.632771 0.31053,-0.502435 0.15425,-0.78987 -0.34727,-0.638743 -1.56642,0.472019 -15.24102,-9.659252 -14.7705,-10.943198 0.2455,-0.669886 0.005,-1.490835 -0.53475,-1.82433 -0.53961,-0.333495 -0.91666,-0.235406 -0.83791,0.217975 0.37217,2.142423 -0.49171,1.991802 -5.84364,-1.01886 -3.1625,-1.779025 -7.2125,-3.834184 -9,-4.56702 -1.7875,-0.732837 -3.25,-1.754394 -3.25,-2.270127 0,-0.515733 -0.34196,-0.726355 -0.75991,-0.468049 -0.41794,0.258306 -2.33044,-0.237705 -4.25,-1.102248 -4.0477,-1.823039 -4.46035,-1.956892 -6.54911,-2.124366 -0.85746,-0.06875 -1.30684,-0.533034 -0.99862,-1.031741 0.30822,-0.498708 -0.34022,-0.671224 -1.44098,-0.383369 -1.16372,0.304319 -2.00138,0.03131 -2.00138,-0.652276 0,-0.646606 -0.39174,-0.933541 -0.87053,-0.637632 -0.47879,0.295909 -3.51629,-0.18341 -6.75,-1.065153 -7.44205,-2.029243 -9.57431,-2.257874 -28.01061,-3.003433 -11.89845,-0.48117 -17.34639,-0.243506 -25.5,1.112425 -11.93148,1.984187 -26.2031,6.297427 -36.549369,11.046134 -3.949279,1.812632 -7.436779,3.039423 -7.75,2.726203 -0.31322,-0.31322 -0.569491,-0.116723 -0.569491,0.43666 0,1.044491 -4.932784,3.808187 -6.25,3.501694 -0.4125,-0.09598 -0.75,0.210233 -0.75,0.680478 0,1.122812 -8.969729,6.72555 -10.198453,6.370233 -0.522614,-0.151127 -0.699646,0.130639 -0.393405,0.626147 0.608436,0.984471 -6.697613,6.427072 -9.101126,6.779833 -0.819653,0.1203 -1.786545,0.549191 -2.148647,0.953091 -0.362103,0.403901 0.241631,0.415047 1.341631,0.02477 1.1,-0.390277 -1.341574,2.665712 -5.42572,6.791087 -4.084145,4.125375 -7.866174,7.228465 -8.404508,6.895757 -0.538334,-0.332709 -0.691686,-0.140382 -0.340782,0.427392 0.350904,0.567775 -0.979678,3.150936 -2.956849,5.740358 -1.97717,2.589422 -5.506125,7.808027 -7.842122,11.5969 -2.335996,3.788874 -4.608032,6.562742 -5.048968,6.164152 -0.440936,-0.398591 -0.504428,-0.204975 -0.141093,0.430258 0.639322,1.11775 -2.981726,9.216516 -4.675368,10.456835 -0.459476,0.33649 -0.757724,0.91268 -0.662775,1.28041 0.09495,0.36773 -0.377858,2.11742 -1.050683,3.88819 -0.672825,1.77078 -1.362572,3.88643 -1.53277,4.70145 -0.170198,0.81501 -0.786759,1.64095 -1.370137,1.83541 -0.583377,0.19446 -0.823571,0.73722 -0.533764,1.20614 0.289808,0.46892 -0.410396,4.14298 -1.556007,8.16459 -2.498369,8.77038 -2.573977,9.22544 -3.95641,23.81201 -0.992124,10.46828 -0.790579,19.67462 0.667706,30.5 0.296362,2.2 0.693789,5.35 0.883172,7 0.189383,1.65 1.254136,6.10201 2.366119,9.89336 1.111983,3.79135 1.783544,7.27885 1.492356,7.75 -0.291187,0.47115 -0.05287,0.85664 0.529586,0.85664 0.582459,0 1.059017,1.425 1.059017,3.16667 0,1.74166 0.295627,2.87104 0.656949,2.50971 0.670411,-0.67041 5.361628,9.49914 5.743391,12.45044 0.11574,0.89475 0.973011,2.38939 1.905048,3.32142 1.601848,1.60185 2.114303,2.99918 1.788256,4.87609 -0.07876,0.45338 0.270799,0.56847 0.776795,0.25574 1.527078,-0.94378 2.257178,2.55416 0.896814,4.29668 -1.105164,1.41563 -1.059593,1.46113 0.35628,0.35576 1.372289,-1.07134 1.878797,-0.8779 3.273053,1.25 0.907236,1.38462 1.434601,2.51749 1.171922,2.51749 -0.26268,0 0.514447,1.06548 1.726947,2.36773 6.735298,7.23387 13.764929,16.72555 13.138167,17.73967 -0.44039,0.71257 -0.182054,0.9695 0.677182,0.67351 0.764058,-0.2632 4.483267,2.18011 8.264909,5.42959 3.781642,3.24947 7.916987,6.5904 9.189655,7.42429 1.525837,0.99976 2.10043,2.08648 1.687056,3.19068 -0.546074,1.45867 -0.409384,1.49761 1.060345,0.30209 1.555383,-1.2652 2.140275,-0.87214 1.780875,1.19677 -0.07876,0.45338 0.277811,0.56413 0.792377,0.24611 0.514566,-0.31802 4.238215,1.36161 8.274777,3.73251 4.036561,2.3709 10.039202,5.38219 13.339202,6.69176 3.3,1.30957 6.27531,2.78493 6.6118,3.27857 0.3365,0.49365 0.90649,0.825 1.26665,0.73633 1.56834,-0.38609 6.62155,1.23854 6.62155,2.12886 0,0.53876 0.35696,0.75895 0.79324,0.48931 0.43629,-0.26963 5.06622,0.51738 10.28875,1.74893 5.22252,1.23155 12.17806,2.36333 15.45675,2.51507 3.27869,0.15173 6.18626,0.51531 6.46126,0.80795 0.45029,0.47917 21.05624,-0.49717 28.5,-1.35037 z m -62.6875,-47.03247 c 0.72187,-0.28887 1.58437,-0.25335 1.91667,0.0789 0.33229,0.33229 -0.25834,0.56864 -1.3125,0.52522 -1.16495,-0.048 -1.4019,-0.28494 -0.60417,-0.60416 z m 134.20651,-70.4092 -33.3374,-22.1359 -4.48808,0.61516 c -8.50913,1.16631 -31.00371,14.06492 -49.64732,28.46826 -4.37459,3.37963 -8.3566,6.14479 -8.84893,6.14479 -0.49232,0 -9.51311,-6.27963 -20.0462,-13.95474 -10.53309,-7.67511 -29.05108,-21.16136 -41.15108,-29.96945 -15.181693,-11.05138 -22.829768,-16.02418 -24.677337,-16.04526 -5.785921,-0.066 -19.924205,9.04294 -36.072663,23.24077 -6.709199,5.89878 -6.75,5.91737 -6.75,3.0753 0,-2.3667 1.797217,-4.46701 10.431129,-12.19029 15.086126,-13.49496 23.139187,-19.7703 31.068871,-24.21037 11.356105,-6.35864 9.784123,-6.98175 42.5,16.84636 44.10472,32.123 54.01228,39.20768 54.82993,39.20768 0.41615,0 3.43716,-2.27261 6.71335,-5.05025 12.71104,-10.77672 33.19745,-23.31415 45.65028,-27.93741 11.1548,-4.14135 9.97809,-4.61194 42.30644,16.91904 15.95,10.62286 29.38123,19.66274 29.84718,20.08863 0.89366,0.81683 -2.77,16.80281 -4.17222,18.20503 -0.4502,0.4502 -15.82038,-9.14261 -34.15595,-21.31735 z m -19.01901,102.65133 c 0,-0.24254 -0.45,-0.7191 -1,-1.05902 -0.55,-0.33992 -1,-0.14148 -1,0.44098 0,0.58246 0.45,1.05902 1,1.05902 0.55,0 1,-0.19844 1,-0.44098 z M 66.600135,264.96213 c 0.316431,-0.512 0.192988,-1.1672 -0.274316,-1.45601 -0.467305,-0.28881 -0.849646,0.13009 -0.849646,0.9309 0,1.68617 0.315337,1.83349 1.123962,0.52511 z m -14.095669,-13.5691 c -0.316582,-0.825 -0.752459,-1.5 -0.968615,-1.5 -0.216156,0 -0.393011,0.675 -0.393011,1.5 0,0.825 0.435877,1.5 0.968615,1.5 0.532739,0 0.709594,-0.675 0.393011,-1.5 z m -2.361626,-3.5 c 0,-0.55 -0.198442,-1 -0.440983,-1 -0.242541,0 -0.719098,0.45 -1.059017,1 -0.339919,0.55 -0.141476,1 0.440983,1 0.582459,0 1.059017,-0.45 1.059017,-1 z m -5,-4 c 0,-0.55 -0.198442,-1 -0.440983,-1 -0.242541,0 -0.719098,0.45 -1.059017,1 -0.339919,0.55 -0.141476,1 0.440983,1 0.582459,0 1.059017,-0.45 1.059017,-1 z M 284.9711,217.87782 c -0.22213,-0.6664 -0.98136,0.0769 -1.68717,1.65179 -1.20131,2.68048 -1.1755,2.75789 0.40388,1.21163 0.92794,-0.90848 1.50543,-2.19702 1.28329,-2.86342 z M 17.825954,204.70553 c -0.319226,-0.79773 -0.556183,-0.56078 -0.604167,0.60417 -0.04342,1.05416 0.192928,1.64479 0.52522,1.3125 0.332291,-0.3323 0.367818,-1.1948 0.07895,-1.91667 z m -3,-17 c -0.319226,-0.79773 -0.556183,-0.56078 -0.604167,0.60417 -0.04342,1.05416 0.192928,1.64479 0.52522,1.3125 0.332291,-0.3323 0.367818,-1.1948 0.07895,-1.91667 z m -3,-18 c -0.319226,-0.79773 -0.556183,-0.56078 -0.604167,0.60417 -0.04342,1.05416 0.192928,1.64479 0.52522,1.3125 0.332291,-0.3323 0.367818,-1.1948 0.07895,-1.91667 z m 0,-28 c -0.319226,-0.79773 -0.556183,-0.56078 -0.604167,0.60417 -0.04342,1.05416 0.192928,1.64479 0.52522,1.3125 0.332291,-0.3323 0.367818,-1.1948 0.07895,-1.91667 z m 287.999996,-25 c -0.31922,-0.79773 -0.55618,-0.56078 -0.60416,0.60417 -0.0434,1.05416 0.19293,1.64479 0.52522,1.3125 0.33229,-0.3323 0.36781,-1.1948 0.0789,-1.91667 z M 17.930603,106.75632 c -0.249648,-0.74895 -0.702941,-0.29566 -1.05655,1.05655 -0.434975,1.66335 -0.304831,2.05378 0.437237,1.31171 0.581102,-0.5811 0.859794,-1.64682 0.619313,-2.36826 z M 280.14284,73.893027 c 0,-0.55 -0.47656,-1 -1.05902,-1 -0.58246,0 -0.7809,0.45 -0.44098,1 0.33992,0.55 0.81648,1 1.05902,1 0.24254,0 0.44098,-0.45 0.44098,-1 z m -227.5,-11 c 0.339919,-0.55 0.168034,-1 -0.381966,-1 -0.55,0 -1.278115,0.45 -1.618034,1 -0.339919,0.55 -0.168034,1 0.381966,1 0.55,0 1.278115,-0.45 1.618034,-1 z m 23.5,-28.440983 c 0,-0.242541 -0.45,-0.719098 -1,-1.059017 -0.55,-0.339919 -1,-0.141476 -1,0.440983 0,0.582459 0.45,1.059017 1,1.059017 0.55,0 1,-0.198442 1,-0.440983 z m 12,-6.559017 c 0,-0.55 -0.476558,-1 -1.059017,-1 -0.582459,0 -0.780902,0.45 -0.440983,1 0.339919,0.55 0.816476,1 1.059017,1 0.242541,0 0.440983,-0.45 0.440983,-1 z m 35.25,-14.66228 c -0.6875,-0.277413 -1.8125,-0.277413 -2.5,0 -0.6875,0.277412 -0.125,0.504386 1.25,0.504386 1.375,0 1.9375,-0.226974 1.25,-0.504386 z"
         id="path3404"
         inkscape:connector-curvature="0" />
      <path
         style="fill:#027ec1"
         d="m 138.64284,304.21486 c -13.20546,-1.94395 -12.25536,-1.77521 -18.28308,-3.24711 -4.65003,-1.13549 -5.13512,-1.48687 -4.04823,-2.9324 1.03958,-1.38261 1.01318,-1.44465 -0.16692,-0.39232 -1.79295,1.59883 -5.38348,1.67664 -4.40628,0.0955 0.44404,-0.71847 0.27411,-0.88293 -0.44993,-0.43545 -1.61779,0.99985 -5.10491,-0.25419 -4.75843,-1.71123 0.1568,-0.65935 0.0963,-0.86131 -0.13436,-0.44881 -0.75272,1.34594 -2.63056,0.7916 -11.058199,-3.26441 -4.567986,-2.19846 -8.054865,-4.40262 -7.74862,-4.89814 0.306245,-0.49551 -0.419714,-0.64557 -1.613241,-0.33345 -1.721659,0.45022 -2.03837,0.22433 -1.532765,-1.09326 0.350507,-0.91342 0.201409,-1.66075 -0.33133,-1.66075 -0.532738,0 -0.968615,0.43482 -0.968615,0.96627 0,1.2453 -5.947655,-2.26165 -9.641454,-5.68495 -1.5722,-1.45706 -3.083546,-2.61143 -3.358546,-2.56526 -0.275,0.0462 -0.392898,-0.30487 -0.261996,-0.78007 0.130902,-0.47521 -0.505418,-0.57874 -1.414045,-0.23006 -1.108414,0.42534 -1.414113,0.24896 -0.928987,-0.53599 0.400471,-0.64798 0.181162,-1.16994 -0.491564,-1.16994 -1.907007,0 -8.006451,-5.02426 -7.363125,-6.06518 0.317763,-0.51415 -0.09829,-0.93482 -0.924562,-0.93482 -0.826272,0 -2.20283,-1.00013 -3.059017,-2.22251 -0.856187,-1.22237 -1.556704,-1.81893 -1.556704,-1.32568 0,0.49325 -1.138263,-0.17252 -2.529473,-1.4795 -1.39121,-1.30697 -2.296365,-2.98379 -2.011455,-3.72625 0.284911,-0.74246 0.109453,-1.09743 -0.389907,-0.78881 -1.434209,0.88639 -4.042616,-2.3329 -3.432343,-4.23619 0.377974,-1.17881 0.271353,-1.3339 -0.338403,-0.49226 -0.678846,0.937 -1.235535,0.81506 -2.344332,-0.51355 -0.799748,-0.95828 -2.694596,-3.23684 -4.210774,-5.06347 -1.516178,-1.82662 -2.50212,-3.73302 -2.190983,-4.23645 0.311137,-0.50343 0.06259,-0.91533 -0.55233,-0.91533 -0.614919,0 -0.893423,-0.36343 -0.618898,-0.80762 0.274525,-0.44419 -0.590449,-1.62586 -1.922164,-2.62594 -1.331716,-1.00008 -2.178212,-2.21165 -1.881102,-2.69238 0.297109,-0.48073 0.171886,-0.87406 -0.278272,-0.87406 -0.450159,0 -1.409938,-0.94709 -2.132842,-2.10464 -1.088458,-1.7429 -1.086833,-1.98797 0.0095,-1.42585 0.728104,0.37334 0.450317,-0.0296 -0.617305,-0.89535 -1.067668,-0.86579 -1.560424,-1.57416 -1.095059,-1.57416 0.465364,0 0.0141,-0.91937 -1.002804,-2.04303 -1.802708,-1.99197 -1.800644,-2.02451 0.08254,-1.30187 1.125727,0.43199 0.511355,-0.52769 -1.472734,-2.30047 -2.527628,-2.25844 -3.404198,-3.86457 -3.404198,-6.23749 0,-1.7577 -0.299869,-2.71063 -0.666375,-2.11761 -0.976465,1.57995 -3.910448,-6.5636 -3.325191,-9.2294 0.346704,-1.5792 0.215461,-1.87302 -0.431215,-0.96537 -1.04864,1.47184 -5.218907,-13.16386 -7.35275,-25.80476 -1.5859275,-9.39504 -1.5552056,-35.36974 0.05204,-44 0.665785,-3.575 1.221949,-7.175 1.235918,-8 0.05195,-3.0683 4.073961,-15.56029 5.541938,-17.21275 0.836843,-0.94202 1.284044,-2.33165 0.99378,-3.08806 -0.290264,-0.75642 0.05523,-2.68568 0.767774,-4.28725 3.067834,-6.895546 9.686171,-20.122199 11.282612,-22.548142 6.80496,-10.340778 11.653394,-16.863801 12.534528,-16.863801 0.568485,0 0.770084,-0.263526 0.447997,-0.585613 -0.836068,-0.836068 3.380468,-5.453196 4.402959,-4.821262 0.467127,0.2887 0.849321,-0.162526 0.849321,-1.002723 0,-1.013985 0.559515,-1.312926 1.664045,-0.889078 1.171571,0.449573 1.43425,0.266738 0.887581,-0.617791 -1.080592,-1.748435 5.198529,-8.116638 7.233232,-7.335849 0.92532,0.355078 1.285658,0.175431 0.899944,-0.448668 -0.353809,-0.572474 0.247371,-2.067801 1.335955,-3.322949 1.088584,-1.255147 1.979243,-2.026632 1.979243,-1.714411 0,0.312221 1.608547,-0.856424 3.574549,-2.59699 1.966003,-1.740566 3.746631,-2.939666 3.956953,-2.664666 0.210322,0.275 0.999899,-0.344475 1.754616,-1.376612 1.195072,-1.634358 1.68472,-1.710041 3.793047,-0.58628 2.222572,1.184655 2.306791,1.152096 1.028334,-0.397554 -1.630847,-1.976792 -1.957606,-1.576246 4.5031,-5.519963 5.23979,-3.198451 6.945011,-3.827604 5.932106,-2.188689 -0.316431,0.511996 -0.117988,1.213553 0.440983,1.559017 0.558972,0.345463 1.016312,-0.0037 1.016312,-0.775914 0,-1.680575 3.153226,-4.714005 4.900169,-4.714005 0.683479,0 1.921824,-0.679136 2.751879,-1.509191 0.830056,-0.830055 1.926365,-1.251364 2.436243,-0.936242 0.509878,0.315122 1.663991,-0.163992 2.564701,-1.064698 1.20709,-1.20709 1.83104,-1.324723 2.37324,-0.447424 0.5414,0.876007 1.22903,0.903541 2.60468,0.104297 1.79649,-1.043744 1.7914,-1.089836 -0.13091,-1.186619 -2,-0.100694 -2,-0.100694 0,-0.893916 1.11717,-0.443081 2.26963,-0.375045 2.61084,0.154131 0.33596,0.521044 0.8616,0.293866 1.16809,-0.504842 0.61892,-1.612867 12.40842,-5.025227 23.22107,-6.7211163 3.85,-0.6038461 8.0502,-1.3176461 9.33379,-1.5862224 1.46066,-0.3056286 2.0933,-0.099202 1.69098,0.5517613 -0.9604,1.5539624 0.7219,1.2560344 3.36627,-0.5961508 3.43794,-2.4080324 23.84437,-1.4460994 25.79076,1.2157437 0.72501,0.9915115 1.3182,1.2667395 1.3182,0.6116185 0,-0.6551214 0.92656,-1.1911297 2.05902,-1.1911297 1.13246,0 1.85043,0.3375 1.59549,0.75 -0.25494,0.4124997 1.406,0.7923197 3.69098,0.8440437 4.84111,0.109586 10.00918,0.806127 13.93139,1.877643 2.36893,0.647174 2.59638,0.99879 1.54822,2.393467 -1.03355,1.375253 -1.00606,1.436362 0.17313,0.384846 1.79672,-1.602186 3.44546,-1.576511 7.35064,0.114469 1.73312,0.750457 6.52378,2.662957 10.64591,4.249999 4.12213,1.587043 8.19141,3.560532 9.04284,4.385532 0.85143,0.825 2.42878,1.653114 3.50522,1.840254 1.07644,0.187139 2.66759,0.974639 3.5359,1.75 0.86831,0.77536 2.08998,1.409746 2.71482,1.409746 0.62484,0 1.61774,0.9 2.20644,2 0.76724,1.4336 0.76049,2 -0.0238,2 -0.60181,0 -0.79945,0.476928 -0.43919,1.059841 0.42329,0.684885 1.06329,0.502957 1.80902,-0.514235 1.02594,-1.399393 1.5979,-1.277869 5.154,1.095065 4.48038,2.989711 8.03349,6.359329 6.70559,6.359329 -0.47976,0 -0.87229,0.650694 -0.87229,1.445986 0,1.139663 0.42684,1.217552 2.01486,0.367669 1.71806,-0.91948 2.55797,-0.506442 5.7019,2.804013 2.02787,2.135283 4.53369,4.402956 5.56848,5.039274 1.03479,0.636318 1.76893,1.648818 1.63143,2.25 -0.1375,0.601182 0.25972,1.093058 0.8827,1.093058 0.62299,0 1.9981,0.997804 3.0558,2.217342 1.79667,2.071575 1.80874,2.257454 0.18367,2.827498 -1.10335,0.387033 -1.33959,0.857262 -0.64604,1.285902 0.60136,0.371661 1.73492,0.429567 2.51902,0.128681 0.92461,-0.354809 3.06517,1.664712 6.09092,5.746528 2.56591,3.461477 4.21218,6.444631 3.65838,6.629232 -0.5538,0.1846 -0.7647,0.72755 -0.46866,1.206553 0.29605,0.479004 1.27267,0.589097 2.17028,0.244651 1.01702,-0.390267 1.38395,-0.224879 0.97372,0.438889 -0.36207,0.585835 0.0648,1.342632 0.94858,1.681772 1.37356,0.527085 1.40902,0.860573 0.24425,2.296744 -1.06762,1.316383 -1.07759,1.508638 -0.0461,0.888029 1.39229,-0.837674 4.39397,2.25856 3.53578,3.647151 -0.25868,0.418565 0.0328,0.761028 0.6477,0.761028 0.61492,0 0.86234,0.413721 0.54983,0.91938 -0.31252,0.505659 0.0399,1.527445 0.78304,2.270636 2.24945,2.249445 3.69329,5.578235 3.09537,7.136391 -0.31052,0.809211 -0.0891,1.765182 0.49213,2.12438 0.6431,0.397454 0.82362,0.04562 0.46119,-0.898849 -0.32755,-0.853566 -0.37938,-1.551938 -0.11518,-1.551938 2.04417,0 10.97999,29.859873 12.26959,41.000003 0.35018,3.025 1.04785,7.69892 1.55036,10.38649 1.23562,6.60834 1.1509,16.97939 -0.19751,24.17985 -0.61116,3.26351 -1.11741,6.94616 -1.125,8.18366 -0.008,1.2375 -0.34621,2.25 -0.75246,2.25 -0.40625,0 -0.73863,1.72283 -0.73863,3.82851 0,5.23396 -2.40174,14.20979 -3.6035,13.46707 -0.53908,-0.33318 -0.66165,-0.0923 -0.27302,0.53648 0.38787,0.62759 0.26807,2.60962 -0.26622,4.4045 -1.67059,5.61214 -5.05287,14.09345 -5.85879,14.69132 -0.42416,0.31467 -0.9002,1.34559 -1.05788,2.29094 -0.36274,2.17489 -6.92237,13.94674 -8.51715,15.2848 -0.65789,0.55199 -1.34501,1.67699 -1.52693,2.5 -0.18191,0.82301 -0.97888,1.86154 -1.77103,2.30784 -0.79215,0.4463 -1.17925,1.2338 -0.86023,1.75 0.31903,0.5162 0.1035,0.93854 -0.47896,0.93854 -0.58246,0 -1.06621,0.5625 -1.07499,1.25 -0.009,0.6875 -1.35398,2.825 -2.98932,4.75 -1.63534,1.925 -3.47432,4.09293 -4.08662,4.81762 -0.6123,0.72469 -1.80576,1.05189 -2.65213,0.72711 -1.15585,-0.44355 -1.27646,-0.27371 -0.48458,0.68238 0.79218,0.95646 -0.59487,2.88874 -5.57959,7.77289 -3.64862,3.575 -6.87188,6.5 -7.16282,6.5 -0.29093,0 -0.45533,0.225 -0.36533,0.5 0.34773,1.06246 -18.69872,14.48379 -20.15505,14.20253 -0.84713,-0.16361 -1.42062,0.28639 -1.27441,1 0.15906,0.77637 -0.73825,1.32265 -2.23418,1.36016 -1.52594,0.0383 -2.386,0.57508 -2.20741,1.37777 0.19503,0.87659 -0.38893,1.13686 -1.75138,0.78057 -1.12771,-0.29491 -1.78695,-0.11865 -1.47062,0.39318 0.31534,0.51024 -1.01959,1.59327 -2.9665,2.40675 -4.16708,1.74111 -4.93984,1.83131 -4.10409,0.47904 0.33992,-0.55 0.12175,-1 -0.48482,-1 -0.60657,0 -0.97063,0.7011 -0.80902,1.55799 0.20888,1.10753 -1.84625,2.39529 -7.10795,4.45389 -9.02284,3.53011 -13.62889,4.65579 -12.6643,3.09505 0.39558,-0.64005 -0.0186,-1.10693 -0.98188,-1.10693 -1.12122,0 -1.46381,0.52692 -1.04768,1.61134 0.42516,1.10795 0.18425,1.44477 -0.77115,1.07815 -0.76422,-0.29326 -1.81576,-0.10693 -2.33676,0.41407 -0.521,0.521 -2.26333,1.13543 -3.87185,1.3654 -27.97972,4.00029 -33.85556,4.21837 -49.92459,1.85287 z m 0.22917,-1.926 c -0.3323,-0.33229 -1.1948,-0.36781 -1.91667,-0.0789 -0.79773,0.31922 -0.56078,0.55618 0.60417,0.60416 1.05416,0.0434 1.64479,-0.19293 1.3125,-0.52522 z m 41,-2 c -0.3323,-0.33229 -1.1948,-0.36781 -1.91667,-0.0789 -0.79773,0.31922 -0.56078,0.55618 0.60417,0.60416 1.05416,0.0434 1.64479,-0.19293 1.3125,-0.52522 z m -5.26459,-4.50766 c 2.89281,-0.80312 4.06427,-0.80162 4.33334,0.006 0.20281,0.60844 0.8078,1.10625 1.34443,1.10625 0.53663,0 0.72872,-0.39959 0.42688,-0.88799 -0.30185,-0.48839 1.52913,-1.19959 4.06883,-1.58044 2.5397,-0.38085 5.30893,-0.95773 6.15383,-1.28195 0.96289,-0.3695 1.28229,-0.17866 0.85584,0.51134 -0.37419,0.60547 -0.22301,1.3835 0.33596,1.72896 0.55897,0.34546 1.01631,-0.22294 1.01631,-1.26312 0,-1.29014 1.11241,-2.23265 3.5,-2.96542 2.60108,-0.79829 3.50393,-0.77717 3.51531,0.0822 0.0104,0.78531 0.25108,0.81728 0.75,0.0996 0.91514,-1.31634 7.40364,-4.02479 8.67022,-3.61916 1.78973,0.57318 5.55118,-0.86679 5.30861,-2.03226 -0.13428,-0.64517 0.59858,-1.35589 1.62857,-1.57938 1.03,-0.22349 5.91762,-2.83329 10.8614,-5.79956 4.94377,-2.96627 9.45808,-5.10311 10.03179,-4.74853 0.60952,0.3767 0.74412,0.16089 0.32383,-0.51916 -0.43747,-0.70784 0.49383,-1.84585 2.37693,-2.90451 1.70293,-0.95737 4.98579,-3.43652 7.29526,-5.50922 2.30946,-2.0727 4.74739,-3.55812 5.41762,-3.30093 0.67023,0.2572 1.00907,-0.0784 0.75298,-0.74579 -0.64076,-1.66977 6.2393,-8.00559 7.70775,-7.09804 0.74445,0.4601 0.89988,0.2873 0.42815,-0.47599 -1.00871,-1.63212 1.39862,-4.33733 3.23324,-3.63332 1.17527,0.451 1.23954,0.27719 0.31113,-0.84148 -0.93444,-1.12593 -0.56012,-1.92316 1.85855,-3.95833 1.66576,-1.40202 3.02866,-3.01204 3.02866,-3.5782 0,-0.56615 0.9,-1.51104 2,-2.09974 1.1,-0.5887 2,-1.78317 2,-2.65437 0,-1.72574 6.89019,-13.63652 8.2035,-14.18104 0.44493,-0.18448 0.54779,-0.85948 0.22857,-1.5 -0.31921,-0.64052 0.0848,-0.35016 0.89777,0.64525 0.9385,1.14909 1.7173,1.42291 2.13318,0.75 0.36026,-0.58291 0.26517,-1.05984 -0.21131,-1.05984 -1.57348,0 -0.50208,-5.77336 2.14399,-11.55314 1.43236,-3.1287 2.6043,-6.30917 2.6043,-7.0677 0,-0.75854 0.40787,-1.37916 0.90638,-1.37916 0.49851,0 0.67103,-0.9 0.38337,-2 -0.29241,-1.11819 -0.0307,-2 0.59362,-2 0.61415,0 1.04089,-0.3375 0.94831,-0.75 -0.22664,-1.00992 1.16989,-8.37625 1.94324,-10.25 0.34049,-0.825 0.70776,-2.625 0.81614,-4 0.10838,-1.375 0.76138,-7.5625 1.45111,-13.75 1.0135,-9.09197 1.00684,-13.40803 -0.0347,-22.5 -0.70883,-6.1875 -1.38027,-12.6 -1.49209,-14.25 -0.11182,-1.65 -0.49632,-3.675 -0.85444,-4.5 -0.35813,-0.825 -0.79687,-2.85 -0.97498,-4.5 -0.17812,-1.65 -0.85532,-3.98292 -1.50489,-5.18426 -1.53978,-2.84773 -1.50685,-4.62127 0.069,-3.71443 0.72624,0.41793 0.90083,0.33791 0.41667,-0.19098 -0.45834,-0.50068 -1.06267,-0.68533 -1.34298,-0.41033 -0.6555,0.6431 -3.50558,-6.94812 -3.47286,-9.25 0.0136,-0.9625 -0.39723,-1.75 -0.91305,-1.75 -0.51582,0 -0.93785,-0.47656 -0.93785,-1.05902 0,-0.58246 0.44485,-0.78409 0.98855,-0.44806 0.56243,0.3476 0.73707,-0.0444 0.40514,-0.909367 -0.32087,-0.836175 -1.07649,-1.422047 -1.67916,-1.301937 -0.60266,0.120109 -1.27823,-0.622412 -1.50127,-1.650049 -0.25149,-1.158719 0.006,-1.613795 0.67915,-1.198062 0.6735,0.416241 0.85976,0.08423 0.49135,-0.875827 -0.32633,-0.850406 -0.97083,-1.312889 -1.43221,-1.027738 -0.78687,0.486313 -5.95155,-7.301896 -5.95155,-8.974789 0,-0.423023 0.675,-0.51011 1.5,-0.193528 0.825,0.316583 1.5,0.139728 1.5,-0.393011 0,-0.532738 -1.17314,-0.968615 -2.60699,-0.968615 -1.94526,0 -2.45582,-0.393928 -2.01145,-1.551938 0.32754,-0.853566 0.19648,-1.305309 -0.29125,-1.003874 -0.48774,0.301435 -2.35594,-1.741408 -4.15157,-4.539652 -1.79563,-2.798244 -3.89856,-5.721501 -4.67319,-6.496126 -0.77462,-0.774626 -1.08759,-1.40841 -0.69548,-1.40841 0.39211,0 -1.53663,-2.1375 -4.2861,-4.75 -2.74947,-2.6125 -5.27402,-5.5375 -5.61012,-6.5 -0.33609,-0.9625 -1.25359,-1.75 -2.03887,-1.75 -0.78529,0 -2.73993,-1.494435 -4.34364,-3.320967 -1.60372,-1.826532 -3.67534,-3.612408 -4.6036,-3.968615 -0.92825,-0.356207 -1.68774,-1.363329 -1.68774,-2.23805 0,-0.874721 -0.39378,-1.347031 -0.87507,-1.049576 -0.48129,0.297454 -2.84379,-0.886519 -5.25,-2.63105 -2.40621,-1.744531 -7.52493,-4.950266 -11.37493,-7.123855 -3.85,-2.17359 -7.28719,-4.395712 -7.6382,-4.93805 -0.351,-0.542337 -1.20803,-0.633887 -1.90451,-0.203444 -0.77704,0.48024 -1.0168,0.37892 -0.62055,-0.262235 0.38312,-0.619903 -0.87492,-1.33014 -3.0932,-1.746292 -2.05643,-0.385788 -4.00915,-1.138617 -4.33939,-1.672954 -0.33024,-0.534336 -2.13127,-1.208623 -4.00229,-1.498416 -1.87102,-0.289792 -3.53594,-0.888534 -3.69981,-1.330537 -0.16387,-0.442004 -1.17637,-0.57393 -2.25,-0.29317 -1.07363,0.280761 -1.95205,0.08006 -1.95205,-0.446005 0,-0.777927 -9.247,-3.023419 -16,-3.885356 -0.825,-0.105301 -5.775,-0.739599 -11,-1.409551 -12.72932,-1.632158 -24.13615,-0.857863 -45,3.054598 -3.49614,0.655608 -5.0577,0.48805 -7,-0.751111 l -2.5,-1.594967 2,2.287702 2,2.287702 -2.37523,-0.740034 c -1.63215,-0.508517 -2.16116,-0.393671 -1.69098,0.367099 0.64949,1.050896 -0.49308,1.388275 -4.66114,1.376352 -0.95004,-0.0027 -1.52163,0.327929 -1.27018,0.734771 0.52234,0.845164 -7.19382,3.996011 -9.785903,3.996011 -0.944112,0 -1.716567,0.476558 -1.716567,1.059017 0,0.582459 -0.45,0.780902 -1,0.440983 -0.55,-0.339919 -1,-0.185498 -1,0.343158 0,0.828812 -5.799822,3.44452 -6.888197,3.106563 -0.213508,-0.0663 -0.663508,0.256098 -1,0.716435 -0.98764,1.351138 -13.083511,9.333844 -14.143197,9.333844 -0.532733,0 -0.968606,0.45 -0.968606,1 0,0.55 -0.497736,1 -1.10608,1 -0.608344,0 -1.951227,1.07443 -2.984184,2.387622 -1.032957,1.313193 -3.063321,2.685093 -4.511919,3.048668 -1.448598,0.363575 -2.382338,0.912522 -2.074977,1.219883 0.30736,0.30736 -1.102041,2.355916 -3.132002,4.552345 -3.842256,4.157343 -8.503589,7.145398 -9.536075,6.112911 -0.917296,-0.917296 -2.676782,4.457616 -2.019722,6.169887 0.318415,0.829776 0.193292,1.511759 -0.278052,1.515517 -0.471344,0.0038 -1.923022,1.572231 -3.225952,3.485494 -1.302929,1.913264 -2.834958,3.19066 -3.404508,2.838659 -0.571394,-0.353141 -0.738063,-0.158665 -0.371846,0.433886 0.365035,0.590638 0.06492,1.672667 -0.66692,2.404508 -0.731841,0.731841 -1.356047,1.697702 -1.387123,2.146358 -0.104148,1.503584 -3.746187,7.684262 -4.528044,7.684262 -0.424928,0 -0.772596,0.477866 -0.772596,1.061925 0,0.584059 -1.08051,3.396559 -2.401133,6.25 -1.320623,2.853441 -2.703021,6.207108 -3.071996,7.452598 -0.368975,1.24548 -0.975965,2.07617 -1.348867,1.84596 -0.372902,-0.23021 -0.74656,0.72204 -0.83035,2.11611 -0.08379,1.39407 -0.55287,2.81339 -1.0424,3.15404 -0.489529,0.34065 -0.985658,1.94416 -1.102507,3.56335 -0.116849,1.61919 -0.684023,3.23543 -1.260386,3.59164 -0.576364,0.35622 -0.97089,1.05642 -0.876726,1.55602 0.09416,0.4996 0.101972,1.80836 0.01735,2.90836 -0.139259,1.81024 -0.289454,1.7628 -1.582986,-0.5 -1.620097,-2.83406 -2.049319,-1.89493 -0.476829,1.0433 0.998993,1.86663 -0.453822,19.19904 -1.79244,21.38422 -0.967891,1.57999 -0.15186,23.05921 1.195828,31.47608 0.933851,5.83229 0.981502,8.31446 0.176424,9.19012 -0.817119,0.88876 -0.779017,1.01678 0.147017,0.49397 1.215857,-0.68645 1.414194,0.008 1.732292,6.06608 0.0622,1.18457 0.645175,2.79489 1.295499,3.57848 0.650324,0.7836 1.346341,2.2894 1.546703,3.34623 0.760628,4.01202 1.955355,7.54754 3.720304,11.00939 1.00474,1.97074 1.554219,4.2935 1.221063,5.16169 -0.382424,0.99658 -0.200966,1.32837 0.492204,0.89996 0.99031,-0.61204 2.891664,2.85263 2.472031,4.50457 -0.09138,0.35975 0.46771,1.18015 1.242434,1.82311 0.774723,0.64297 1.133864,1.88495 0.79809,2.75996 -0.383856,1.00031 -0.206377,1.34117 0.478069,0.91816 0.978781,-0.60492 2.936517,4.62785 2.453806,6.55869 -0.09818,0.39271 0.40542,0.48994 1.119103,0.21608 0.766034,-0.29396 2.643007,1.57836 4.581826,4.57047 2.663319,4.1102 3.054278,5.34548 2.067953,6.53393 -0.747035,0.90012 -0.815381,1.46551 -0.177154,1.46551 0.571511,0 1.273342,-0.5625 1.559623,-1.25 0.369188,-0.8866 0.974859,-0.68567 2.083334,0.69113 1.830389,2.27347 2.066669,3.9883 0.408313,2.96338 -0.738273,-0.45628 -0.882071,-0.27271 -0.39885,0.50916 0.415613,0.67247 1.352158,0.99378 2.081211,0.71402 1.303586,-0.50024 6.962423,5.8922 6.968884,7.87231 0.0018,0.55 0.453263,1.00689 1.003263,1.01531 0.55,0.008 1.610543,0.40217 2.356763,0.875 1.14235,0.72383 1.14235,1.01288 0,1.82902 -1.035048,0.73949 -0.943501,0.8365 0.38608,0.40913 1.98869,-0.63922 6.04197,3.10169 5.068068,4.67749 -0.34096,0.55169 -0.141008,0.70708 0.444338,0.34531 1.659771,-1.02579 4.422041,0.44435 3.813676,2.02972 -0.31512,0.82119 -0.109389,1.15305 0.486505,0.78476 1.394685,-0.86196 5.94457,2.21942 5.94457,4.02593 0,0.94075 0.584453,1.22128 1.673609,0.80334 1.267903,-0.48654 1.517925,-0.23652 1.031385,1.03138 -0.427755,1.11471 -0.132074,1.67361 0.885408,1.67361 0.840197,0 1.228985,-0.48322 0.863972,-1.07382 -0.366332,-0.59274 0.250269,-0.50307 1.3763,0.20015 1.121977,0.70068 1.810618,1.64505 1.530313,2.0986 -0.280306,0.45354 -0.138698,0.76018 0.314683,0.68143 2.472586,-0.42953 4.32433,0.27817 4.32433,1.65266 0,0.85746 0.397229,1.31351 0.88273,1.01346 0.485502,-0.30006 5.20315,1.47338 10.483662,3.94098 5.280508,2.4676 10.028988,4.48654 10.552168,4.48654 0.52318,0 2.21804,0.51915 3.76634,1.15366 1.54831,0.63451 3.32281,1.26165 3.94334,1.39364 0.62054,0.132 3.72064,0.99362 6.88912,1.91472 3.16848,0.9211 8.46106,1.85676 11.7613,2.07924 3.30024,0.22247 6.23764,0.6417 6.52755,0.93162 1.00427,1.00426 27.7117,0.51099 31.65837,-0.58471 z m 75.00626,-117.96919 c -38.27502,-25.58492 -35.20265,-24.56676 -50.93545,-16.87955 -9.69887,4.73897 -29.58935,17.63627 -38.91619,25.23386 -3.1914,2.59969 -6.20292,4.72671 -6.69227,4.72671 -0.48936,0 -19.4606,-13.49122 -42.15833,-29.98049 -27.804157,-20.19895 -42.084259,-29.98367 -43.7686,-29.99023 -5.922014,-0.0231 -16.296141,6.39067 -32.699989,20.21656 -5.059994,4.26479 -9.447494,7.75416 -9.75,7.75416 -1.276729,0 -0.410205,-4.13951 1.203647,-5.75 12.34876,-12.323 32.427117,-28.44706 41.386319,-33.23555 9.20487,-4.91981 9.709671,-4.74983 30.227411,10.1785 52.133032,37.93101 64.889312,46.91945 65.959422,46.47695 0.64526,-0.26682 5.28644,-3.7892 10.31375,-7.82751 17.5239,-14.07652 41.7497,-26.78858 51.12239,-26.82557 3.8781,-0.0153 6.85724,1.70953 33,19.10601 15.80538,10.51756 29.10049,19.45349 29.54469,19.85764 0.82008,0.74613 -2.86481,16.91177 -4.15972,18.24869 -0.38843,0.40104 -15.54312,-9.18854 -33.67708,-21.31018 z M 48.14284,67.107313 c 0,-0.667857 0.435877,-1.214286 0.968615,-1.214286 0.532739,0 0.691508,-0.7875 0.352822,-1.75 -0.504302,-1.433154 -0.370588,-1.522388 0.738527,-0.492857 1.133968,1.052601 1.076563,1.534902 -0.352821,2.964286 -1.068347,1.068347 -1.707143,1.252769 -1.707143,0.492857 z m 63.80687,226.259257 c -0.30789,-0.30789 -0.86705,0.24711 -1.24258,1.23333 -0.54268,1.4252 -0.42782,1.54006 0.5598,0.5598 0.68342,-0.67834 0.99067,-1.48524 0.68278,-1.79313 z m 118.19313,-12.41452 c 0,-0.51754 -0.45,-1.2191 -1,-1.55902 -0.55,-0.33992 -1,0.0835 -1,0.94098 0,0.85746 0.45,1.55902 1,1.55902 0.55,0 1,-0.42344 1,-0.94098 z m 10.5,-8.05902 c 0.33992,-0.55 0.14148,-1 -0.44098,-1 -0.58246,0 -1.05902,0.45 -1.05902,1 0,0.55 0.19844,1 0.44098,1 0.24254,0 0.7191,-0.45 1.05902,-1 z M 53.043685,258.83175 c -1.903487,-1.17642 -2.352595,-0.34182 -0.751725,1.39697 0.781792,0.84915 1.507545,1.03878 1.722765,0.45013 0.204536,-0.55942 -0.232432,-1.39062 -0.97104,-1.8471 z m -0.539219,-7.43872 c -0.316582,-0.825 -0.752459,-1.5 -0.968615,-1.5 -0.216156,0 -0.393011,0.675 -0.393011,1.5 0,0.825 0.435877,1.5 0.968615,1.5 0.532739,0 0.709594,-0.675 0.393011,-1.5 z M 283.53983,233.0597 c 0.28327,-0.45834 -0.12038,-0.83334 -0.89699,-0.83334 -0.77661,0 -1.18026,0.375 -0.89699,0.83334 0.28326,0.45833 0.68691,0.83333 0.89699,0.83333 0.21008,0 0.61373,-0.375 0.89699,-0.83333 z M 20.14284,207.89303 c 0,-0.55 -0.198442,-1 -0.440983,-1 -0.242541,0 -0.719098,0.45 -1.059017,1 -0.339919,0.55 -0.141476,1 0.440983,1 0.582459,0 1.059017,-0.45 1.059017,-1 z m 275.80687,-16.52646 c -0.30789,-0.30789 -0.86705,0.24711 -1.24258,1.23333 -0.54268,1.4252 -0.42782,1.54006 0.5598,0.5598 0.68342,-0.67834 0.99067,-1.48524 0.68278,-1.79313 z M 15.14284,188.39303 c 0,-0.825 -0.176855,-1.5 -0.393011,-1.5 -0.216156,0 -0.652033,0.675 -0.968615,1.5 -0.316583,0.825 -0.139728,1.5 0.393011,1.5 0.532738,0 0.968615,-0.675 0.968615,-1.5 z m 1.683114,-13.6875 c -0.319226,-0.79773 -0.556183,-0.56078 -0.604167,0.60417 -0.04342,1.05416 0.192928,1.64479 0.52522,1.3125 0.332291,-0.3323 0.367817,-1.1948 0.07895,-1.91667 z m -5,-5 c -0.319226,-0.79773 -0.556183,-0.56078 -0.604167,0.60417 -0.04342,1.05416 0.192928,1.64479 0.52522,1.3125 0.332291,-0.3323 0.367818,-1.1948 0.07895,-1.91667 z m 0,-28 c -0.319226,-0.79773 -0.556183,-0.56078 -0.604167,0.60417 -0.04342,1.05416 0.192928,1.64479 0.52522,1.3125 0.332291,-0.3323 0.367818,-1.1948 0.07895,-1.91667 z m 4.979167,-5.0625 c -0.277413,-0.6875 -0.504386,-0.125 -0.504386,1.25 0,1.375 0.226973,1.9375 0.504386,1.25 0.277412,-0.6875 0.277412,-1.8125 0,-2.5 z m 282.937719,-20.35 c -0.35589,-0.92744 -0.87208,-1.46126 -1.14708,-1.18626 -0.275,0.275 -0.20881,1.25882 0.14708,2.18626 0.35589,0.92744 0.87208,1.46126 1.14708,1.18626 0.275,-0.275 0.20881,-1.25882 -0.14708,-2.18626 z m -270.6,-19.56667 c 0,-1.191666 -0.313025,-1.853641 -0.695611,-1.471055 -1.080811,1.080811 -1.232569,3.637722 -0.215905,3.637722 0.501334,0 0.911516,-0.975 0.911516,-2.166667 z m 256,-6.210888 c 0,-0.207656 -0.7875,-0.995156 -1.75,-1.75 -1.58606,-1.243871 -1.62143,-1.208501 -0.37756,0.377555 1.30637,1.665748 2.12756,2.195479 2.12756,1.372445 z M 36.683959,83.826496 c 1.026063,-1.660205 0.105112,-1.890424 -1.330546,-0.33261 -0.709184,0.769528 -0.848242,1.399141 -0.309017,1.399141 0.539226,0 1.277029,-0.479939 1.639563,-1.066531 z m -1.890456,-5.401444 c -0.309823,-0.807386 -0.132968,-1.733944 0.393011,-2.059017 0.525979,-0.325073 0.956326,-0.08793 0.956326,0.526992 0,0.614919 0.498043,0.810226 1.106763,0.434017 0.775316,-0.479172 0.710492,-0.928926 -0.216462,-1.501815 -1.702483,-1.052192 -3.938244,0.779285 -3.223871,2.640911 0.301151,0.784788 0.772548,1.426887 1.047548,1.426887 0.275,0 0.246508,-0.660589 -0.06331,-1.467975 z M 262.14284,59.893027 c 0,-0.55 -0.19844,-1 -0.44098,-1 -0.24254,0 -0.7191,0.45 -1.05902,1 -0.33992,0.55 -0.14148,1 0.44098,1 0.58246,0 1.05902,-0.45 1.05902,-1 z m -207.5,-1 c -0.339919,-0.55 -0.06648,-1 0.60765,-1 0.674126,0 0.955622,-0.270061 0.625548,-0.600136 -0.898211,-0.898211 -2.855465,0.593287 -2.190493,1.669234 0.316431,0.511996 0.800329,0.930902 1.075329,0.930902 0.275,0 0.221885,-0.45 -0.118034,-1 z m 3.183114,-4.1875 c -0.319226,-0.797733 -0.556183,-0.560776 -0.604167,0.604167 -0.04342,1.054166 0.192928,1.644791 0.52522,1.3125 0.332291,-0.332292 0.367818,-1.194792 0.07895,-1.916667 z m 175.084816,-18.8125 c -0.68696,-1.1 -1.66052,-2 -2.16346,-2 -0.50295,0 -0.1,0.9 0.89553,2 0.99549,1.1 1.96904,2 2.16346,2 0.19442,0 -0.20857,-0.9 -0.89553,-2 z m -151.275009,0.01145 c 0.350339,-0.56686 -0.05106,-0.734507 -0.940983,-0.393011 -1.732417,0.664791 -2.049387,1.381557 -0.610955,1.381557 0.517541,0 1.215913,-0.444846 1.551938,-0.988546 z m 3.190193,-7.198954 c -0.319226,-0.797733 -0.556183,-0.560776 -0.604167,0.604167 -0.04342,1.054166 0.192928,1.644791 0.52522,1.3125 0.332291,-0.332292 0.367818,-1.194792 0.07895,-1.916667 z M 121.87201,15.288861 c -0.3323,-0.332292 -1.1948,-0.367818 -1.91667,-0.07895 -0.79773,0.319226 -0.56078,0.556182 0.60417,0.604166 1.05416,0.04342 1.64479,-0.192927 1.3125,-0.525219 z m 1.52083,-2.058114 c -0.6875,-0.277413 -1.8125,-0.277413 -2.5,0 -0.6875,0.277412 -0.125,0.504386 1.25,0.504386 1.375,0 1.9375,-0.226974 1.25,-0.504386 z m 67.47917,0.05811 c -0.3323,-0.332292 -1.1948,-0.367818 -1.91667,-0.07895 -0.79773,0.319226 -0.56078,0.556182 0.60417,0.604166 1.05416,0.04342 1.64479,-0.192927 1.3125,-0.525219 z"
         id="path3402"
         inkscape:connector-curvature="0" />
      <path
         style="fill:#0d0e10"
         d="m 249.61368,177.81201 c -38.27502,-25.58492 -35.20265,-24.56676 -50.93545,-16.87955 -9.69887,4.73897 -29.58935,17.63627 -38.91619,25.23386 -3.1914,2.59969 -6.20292,4.72671 -6.69227,4.72671 -0.48936,0 -19.4606,-13.49122 -42.15833,-29.98049 -27.804157,-20.19895 -42.084259,-29.98367 -43.7686,-29.99023 -5.922014,-0.0231 -16.296141,6.39067 -32.699989,20.21656 -5.059994,4.26479 -9.447494,7.75416 -9.75,7.75416 -1.276729,0 -0.410205,-4.13951 1.203647,-5.75 12.34876,-12.323 32.427117,-28.44706 41.386319,-33.23555 9.20487,-4.91981 9.709671,-4.74983 30.227411,10.1785 52.133032,37.93101 64.889312,46.91945 65.959422,46.47695 0.64526,-0.26682 5.28644,-3.7892 10.31375,-7.82751 17.5239,-14.07652 41.7497,-26.78858 51.12239,-26.82557 3.8781,-0.0153 6.85724,1.70953 33,19.10601 15.80538,10.51756 29.10049,19.45349 29.54469,19.85764 0.82008,0.74613 -2.86481,16.91177 -4.15972,18.24869 -0.38843,0.40104 -15.54312,-9.18854 -33.67708,-21.31018 z"
         id="path3400"
         inkscape:connector-curvature="0" />
    </g>
  </g>
</svg>
