<svg xmlns="http://www.w3.org/2000/svg" viewBox="0 0 800.00001 384.767" height="384.767" width="800"><defs><clipPath id="a"><path d="M0 0h3508v2480H0V0z" clip-rule="evenodd"/></clipPath><clipPath id="b"><path d="M0 0h3508v2480H0V0z" clip-rule="evenodd"/></clipPath></defs><path d="M535.404 117.952h4.439v-2.22h2.22v-2.22H555.382v-2.22h2.219v4.44h2.22v-2.22H566.48h-2.22v2.22h-6.66v4.44l-2.219 2.219-2.22-2.22 2.22 2.22h-2.22v4.44H546.502v4.439H533.183l2.22-2.22v-2.22h-2.22V120.171l2.22-2.22zM435.515 206.74v4.44h2.22v2.22l2.22-2.22h4.44v-2.22 2.22h2.22v4.44h2.219v4.44-2.22 2.22l2.22-2.22 2.22 2.22h-2.22l2.22 2.22h-2.22 2.22-6.66v8.878h2.22l2.22 2.22h-19.978l-2.22-2.22h-2.22v2.22h-2.22v-4.44l2.22-2.22v-2.22l2.22-2.219v-6.66h-2.22V213.4h2.22l-2.22-2.22v-4.44h8.88z" opacity=".98" fill="#eee" fill-rule="evenodd" stroke="#333" stroke-width=".894" stroke-linecap="square" stroke-linejoin="bevel" stroke-miterlimit="10"/><path d="M426.637 206.74h-2.22l2.22-2.219v2.22zM444.394 104.633l2.22 2.22h-2.22v2.22h-2.22v-6.66h2.22v2.22zM513.206 142.369h6.66l2.22-2.22 2.219-2.22v4.44h-2.22v4.44l-6.66-2.22-2.219-2.22zM255.717 317.728h-2.22v-2.22h-4.44v-4.44 2.22h2.22l2.22 2.22h2.22v2.22z" opacity=".98" fill="#eee" fill-rule="evenodd" stroke="#333" stroke-width=".894" stroke-linecap="square" stroke-linejoin="bevel" stroke-miterlimit="10"/><path d="M257.937 244.476l2.22-2.22 2.22 2.22 4.438 2.22v2.22h4.44l2.22 2.22-2.22 4.44h6.66l2.219-2.22v-2.22l2.22 2.22-2.22 2.22h-2.22l-2.22 2.219-2.22 4.44v2.22l-2.219 2.219v4.44l2.22 2.22 2.22 2.219-2.22 4.44h-11.099V286.651h-2.22l-2.22-2.22-2.22 2.22 2.22 2.22h2.22-2.22l-2.22 2.219v4.44h-4.439v2.22l2.22 2.219h2.22v2.22h-4.44v2.22l-2.22 2.22h-2.22l2.22 2.219v2.22H242.399l-2.22-2.22v-2.22h-2.22v-2.22l2.22-2.22v-2.22l2.22-2.219V291.091l-2.22-2.22h2.22V279.992h2.22l-2.22-2.22v-2.22h2.22v-2.219l2.22-2.22v-2.22h-2.22v-4.439l2.22-2.22-2.22-2.22 2.22-2.22v-2.219l2.22-2.22v-4.44h2.22l2.22-4.439h-2.22l2.22-2.22 4.439 2.22zM495.448 104.633h2.22l2.22 2.22v2.22h2.22v2.22l-2.22-2.22h-2.22v-2.22h-2.22v-2.22zM269.035 373.221l-2.22 2.22-4.439-2.22h-8.879 11.099v-2.22h2.22l2.22 2.22zM47.062 371.001h-6.66l-2.22-2.22h6.66l2.22 2.22zM300.112 368.782h4.439v4.44h-11.099l-4.44 2.219-4.439-2.22h-4.44 2.22l4.44-2.22h2.22l2.22-2.22h2.22l4.439-2.22 2.22 2.22zM131.412 357.683H138.07h-2.22l-2.22 2.22h-2.22l-2.22-2.22h2.22zM122.533 357.683h2.22-6.66 4.44zM182.466 353.244l2.22 2.22 2.219-2.22v2.22h-11.099l-2.22-2.22h8.88zM249.058 351.024v4.44h-8.88 2.22H235.74l-2.22-2.22h6.66l2.22-2.22v-2.22l2.22-2.22 2.219 2.22v2.22h2.22z" opacity=".98" fill="#eee" fill-rule="evenodd" stroke="#333" stroke-width=".894" stroke-linecap="square" stroke-linejoin="bevel" stroke-miterlimit="10"/><path d="M271.255 337.705h-8.879v4.44h-4.44v2.22h-2.22v2.22h4.44v2.219h2.22v2.22h2.22v4.44l2.22 2.219-2.22 2.22h-4.44l-2.22 2.22H251.278l-2.22 2.22H229.08l2.22 2.219h6.66l-2.22 2.22h-6.66l-2.219 2.22h4.44l2.22 2.22H242.398l2.22 2.219h15.538l4.439 2.22H271.255v2.22l2.22-2.22H286.794l4.439-2.22h11.098l4.44 2.22v-2.22H320.09l4.439-2.22H337.848l-2.22-2.22h-13.32v-2.22l4.44-2.22h8.88l2.22-2.219H351.165l2.22-2.22H362.264l2.219-2.22h2.22l-2.22-2.219h2.22l2.22-2.22H375.582v-2.22H384.462l2.22-2.22 2.219 2.22H402.22l4.439-2.22h8.879v-2.219l2.22 2.22H426.637l2.22-2.22 2.219 2.22h2.22l4.44-2.22h4.439l2.22 2.22H464.371l2.22-2.22h4.44l2.219-2.22h2.22l2.22 2.22H488.79v-2.22h8.878l2.22-2.22H508.767l2.22-2.22h4.439l2.22-2.219H524.305l2.22 2.22 2.22 2.22H535.403l2.22 2.22 2.22-2.22h11.098l2.22 2.22v2.219h-2.22l-2.22 2.22h4.44l-2.22 2.22h-2.22l2.22 2.22H557.6v-2.22h2.22l2.22-2.22v-2.22H573.14v-2.22h4.439v-2.22H590.897l2.22-2.22h2.22l2.22 2.22H619.753l2.22-2.22h2.219l2.22-2.219h4.44v2.22H648.61l2.219-2.22 2.22 2.22H659.709l2.22 2.22h4.439l2.22-2.22h28.857l2.219-2.22v2.22h22.198l2.22 2.22h-2.22 2.22l2.219 2.22H744.059v2.219H752.938l2.22 2.22H772.915l2.22 2.22h4.439v2.22h-2.22l-2.22 2.219h-4.44v2.22h-4.439l-2.22 2.22h-2.22v4.439h2.22v2.22h4.44-2.22l-4.44 2.22H755.158v2.22h-2.22l4.44 2.219 2.22 2.22h6.66l2.219 2.22h6.66l6.658 2.22h17.759H2.666h15.538l6.66-2.22 2.219 2.22h8.879l6.66 2.219H82.577l2.22-2.22H67.038v-2.22H60.38v-2.22h2.22l-4.44-2.22h-4.44H71.48l2.22-2.219h2.22v-2.22H55.94v-2.22H49.282v-4.439h2.22l2.22 2.22H67.04l4.439-2.22h4.44v-2.22H89.236l4.44-2.22h51.053l4.44-2.219v2.22h11.099l2.219 2.22h2.22l4.44-2.22h2.219l2.22 2.22h4.439v-2.22h-4.44l-2.22-2.22v-2.22h8.88l2.22 2.22h17.758l2.22-2.22 2.219 2.22H249.058l2.22-2.22v-4.44h-2.22v-2.219l2.22-2.22v-4.44h2.22l2.219-2.219h2.22l2.22-2.22H266.815l2.22-2.22h4.439l-2.22 2.22zM550.942 302.19h2.22l2.22 2.22h-4.44v-2.22zM721.861 284.432l2.22 2.22 2.22-2.22h2.22v4.44l-2.22 2.219v-2.22l-2.22 2.22-2.22-2.22-2.22-2.22v-2.22h2.22zM717.422 224.499v2.22h4.44v4.44l2.22 2.219v2.22l2.219 2.22h2.22v2.219l2.22 2.22v2.22h2.22v2.22l2.219 2.219h2.22v2.22l2.22 2.22V262.234l-2.22 2.22v2.219l-2.22 2.22v2.22l-2.22 2.22v2.219l-2.22 2.22h-2.22l-2.22 2.22h-2.219v2.219l-2.22-2.22h-2.22l2.22-2.22-2.22 2.22H710.763l-2.219-2.22v-4.439h-2.22v-2.22l-2.22 2.22h-2.22l2.22-2.22v-4.44l-2.22 2.22v2.22h-2.219v-2.22h-2.22v-2.22h-4.44v-2.219H684.126l-2.219 2.22H675.247v2.22h-4.44v2.22l-2.22-2.22h-4.439v2.22h-2.22v2.22h-4.439l-2.22-2.22v-8.88h-2.22l2.22-2.22-2.22-2.22v-2.219l-2.22-2.22v-2.22l2.22 2.22v-2.22l-2.22-2.22v-4.439l2.22-2.22v2.22-2.22h2.22l2.22-2.219h4.44l2.22-2.22h4.439v-2.22h2.22v-2.22l2.22-2.219v2.22-2.22h2.219v-2.22l2.22-2.22h2.22v-2.22h2.22v2.22h4.439v-2.22h2.22v-2.219h4.439v-2.22h-2.22 4.44l2.22 2.22v-2.22l2.219 2.22v-2.22l2.22 2.22v-2.22 4.44h-2.22 2.22l-2.22 2.22 2.22 2.22h2.22v2.22h2.22l2.219 2.219h2.22l2.22-2.22V220.06h2.22v-2.22 2.22h2.219v4.44zM435.515 89.095v4.44H426.636v-2.22l-2.22 2.22h-4.439v-2.22h8.88l-2.22-2.22h4.439l2.22-2.22 2.22 2.22zM499.888 109.073l2.22 2.22h-2.22l-2.22-2.22h2.22z" opacity=".98" fill="#eee" fill-rule="evenodd" stroke="#333" stroke-width=".894" stroke-linecap="square" stroke-linejoin="bevel" stroke-miterlimit="10"/><path d="M504.327 104.633h4.44v2.22h2.22-2.22v2.22l-2.22 2.22v-2.22h-2.22l-2.22 2.22v-2.22h-2.22v-2.22l-2.219-2.22h6.66zM464.372 204.521v-4.44h2.22v4.44h-2.22zM406.659 82.436h4.44l2.22 2.22h-2.22v2.22h-2.22l-2.22-2.22h-2.22v-2.22h2.22zM404.44 182.324h-2.22v-8.88H400l2.22-2.219h2.22v-2.22l2.219 2.22v4.44h-2.22V182.324z" opacity=".98" fill="#eee" fill-rule="evenodd" stroke="#333" stroke-width=".894" stroke-linecap="square" stroke-linejoin="bevel" stroke-miterlimit="10"/><path d="M395.56 175.665h-4.44v-2.22h-2.219v-2.22l2.22-2.22v-2.22h4.44v-2.22h2.219l2.22-2.219v4.44l2.22 2.22h2.22v2.22h-2.22l-2.22 2.219v-2.22 2.22l-2.22-2.22-2.22 2.22v2.22zM604.215 146.808v4.44-2.22l-2.22-2.22h-2.22v2.22l-2.219-2.22v2.22-2.22h-2.22v-8.879h2.22v2.22h4.44l2.22 2.22h-2.22v4.44-2.22h2.22v2.22zM448.834 97.974v2.22h8.879l2.22-2.22v2.22h2.22l-2.22 2.22-2.22 2.22h-8.88v-6.66zM229.08 144.588l-2.22-2.22v-2.22h2.22v4.44zM229.08 137.93h-2.22 2.22zM229.08 137.93v2.219-4.44 2.22zM442.175 97.974v2.22h-2.22v2.22l-2.22-2.22h-2.22v-2.22h-2.22v-2.22h6.66l2.22 2.22zM451.054 77.996h2.22l2.22-2.22 2.219-2.22h2.22l2.22-2.219 2.219 2.22h2.22v2.22h2.22v2.22h2.22-2.22v2.219h-2.22v2.22H451.053v-4.44zM202.443 157.907v-2.22l2.22 2.22v-2.22 6.66h-2.22v-4.44zM257.937 124.61zM262.376 244.476l-2.22-2.22-2.22 2.22-4.439-2.22-2.22 2.22-2.22-2.22V235.598h-2.22v-2.22l2.22-2.219-2.22-2.22v-2.22h2.22v-4.439l-2.22-4.44 2.22 2.22v-2.22h2.22l2.22-2.22h2.22v4.44l2.22 2.22h2.22l2.22 2.22h4.439v6.66h4.439v2.219h2.22v4.44l-2.22 2.219v-2.22h-6.66l-2.219 2.22v4.44z" opacity=".98" fill="#eee" fill-rule="evenodd" stroke="#333" stroke-width=".894" stroke-linecap="square" stroke-linejoin="bevel" stroke-miterlimit="10"/><path d="M273.475 262.234l2.22-4.44 2.22-2.219h2.219l2.22-2.22-2.22-2.22v-4.439l-2.22 2.22v-4.44h-4.44v-4.439h-2.219l2.22-2.22v-4.44h-2.22v-2.219h-4.44v-6.66h-4.439l-2.22-2.219h-2.22l-2.22-2.22v-4.44h-2.219l-2.22 2.22h-2.22v2.22l-2.22-2.22-2.219 2.22v-4.44l-2.22 2.22h-2.22v-2.22h-2.22V208.96l2.22-2.22 2.22-2.219h4.44v-8.879h-2.22 2.22v-2.22h4.44v-2.22 2.22h2.22v2.22h2.219v-2.22h2.22l2.22-2.22h-2.22v-4.439h2.22v2.22l2.219-2.22h4.44v-2.22h2.22l-2.22 2.22h2.22v6.66H277.914v-2.22h-2.22H284.573v-2.22l2.22-2.22v2.22l2.219 4.44h2.22l-2.22 2.22h4.44v2.219l2.22-2.22h2.219l4.44 2.22v2.22h11.098l2.22 2.22 2.22 2.22 2.22 2.219h2.219l2.22 2.22v2.22l-2.22 2.22v2.219l-4.44 4.44v2.22l-2.22 2.219v4.44l-2.219 4.439v4.44l-2.22 2.219v2.22l-2.22 2.22h-4.439l-2.22 2.22h-2.22l-2.22 2.219h-2.219l-2.22 2.22V257.795l-2.22 2.22-2.22 2.22-2.219 2.22-2.22 2.219v2.22h-2.22v-2.22l-2.22-2.22-2.219-2.22h-4.44zM653.05 186.763l2.22-2.22v2.22h-2.22zM601.996 135.71h2.22v2.22h-6.66l-2.22-2.22 2.22-2.22h4.44v2.22zM455.493 235.598l2.22 2.22 2.22 2.219 2.22 2.22 2.219 2.22h-2.22l-2.22 2.22-2.22 2.219h-2.219v2.22h-6.66v2.22h-4.439v-4.44h-2.22v-6.66h2.22v-6.658h2.22l4.44-2.22v2.22l2.22-2.22h2.22v2.22zM433.296 180.104h4.44l2.219-2.22 2.22-2.22h4.44v-2.22h2.219v-2.219 2.22h2.22v4.44h2.22l2.22 2.22v2.219h2.219v2.22h2.22-4.44v2.22h-2.22v-2.22l-2.22 2.22H444.395l-2.22-2.22-2.22 2.22v2.219h-4.439v2.22h-2.22v-2.22l-2.219-2.22v-4.44l2.22-2.219zM260.156 93.534h2.22v2.22l-4.44-2.22v-2.22l2.22 2.22zM264.596 86.875h-6.66 6.66zM126.972 89.095h-4.44v-2.22H115.874v-2.22h6.66v2.22h4.44v2.22zM275.694 84.655v2.22-2.22l2.22 2.22h4.44v2.22h2.22v2.22l-2.22 2.22h-2.22l2.22-2.22h-2.22l-2.22 2.22v-2.22H269.035l2.22-2.22h-2.22l2.22-2.22 2.22-2.22 2.22-2.22h2.22l-2.22 2.22zM106.994 75.777h2.22l-2.22 4.439h2.22-2.22v-2.22h-2.22v-2.22h2.22zM224.64 58.019v2.22h-2.22v-2.22h2.22zM220.201 58.019h-4.44 4.44zM211.322 51.36h4.44l2.22 2.22h2.22v2.219l2.219-2.22v2.22h-4.44l-2.22-2.22-2.22 2.22H206.883l2.22-2.22 2.22-2.22zM233.52 46.92h-4.44l2.22-2.22h2.22v2.22zM189.125 42.48l-2.22 2.22-2.22-2.22-2.22 2.22-2.22-2.22h2.22v-2.22l2.22 2.22h4.44z" opacity=".98" fill="#eee" fill-rule="evenodd" stroke="#333" stroke-width=".894" stroke-linecap="square" stroke-linejoin="bevel" stroke-miterlimit="10"/><path d="M200.223 42.48v2.22l2.22-2.22 2.22 2.22v2.22h4.44l2.22-2.22v-2.22H220.201v4.44l-4.44 2.22h-6.66l-2.22 2.22v2.22h-4.439l-2.22 2.219v2.22H193.564l-2.22 4.44v4.439h2.22l2.22 2.22h4.44l2.22 2.22h2.219l2.22 2.219H217.982v4.44l2.22 2.219 4.439 2.22 2.22-2.22-2.22-4.44 2.22-2.22h2.219l2.22-2.219v-2.22l-2.22-2.22h-2.22l2.22-2.22v-2.219l-2.22-4.44h13.319l2.22 2.22h4.439v6.66h6.66l2.219-2.22 2.22-2.22 2.22 2.22 2.22 2.22 2.219 4.439 2.22 2.22h2.22l4.439 2.22 2.22 2.22h2.22v2.219l-2.22 2.22h-4.44l-4.44 2.22h-13.318l-2.22 2.22h-2.22l-2.22 4.439-4.439 2.22h2.22l4.44-4.44 4.44-2.22h2.219l2.22 2.22h-2.22l2.22 4.44 2.22 2.22h4.439l2.22-4.44v2.22l2.22 2.22h-4.44l-4.44 2.219h-2.22l-2.22 2.22h-2.219v-2.22l4.44-2.22h-6.66v-4.44h-4.44v2.22l-2.219 2.22h-8.879l-2.22 2.22h-2.22v2.22H224.64l2.22 2.22H220.201l-2.22 2.22h-2.22v-2.22h2.22v-6.66h-2.22v-2.22h-2.22l-2.219-2.22h-4.44l-2.22-2.22H191.345v-2.219H178.026l-8.879 2.22-6.66-2.22h-37.735l-2.22-2.22h-4.439v-4.439h-4.44v-2.22l-2.219-2.22 2.22-2.22h-2.22l-2.22-2.219-2.22-2.22-2.22-2.22h-2.219v-2.22h-4.44l-2.22 2.22-2.219-2.22-2.22-2.219h-2.22V42.48h2.22l4.44 2.22h2.22l2.22-2.22H109.214l4.439-2.22v2.22l2.22-2.22h2.22l4.439 2.22 2.22-2.22v2.22h15.538l2.22 2.22H149.17l-4.44 2.22H162.488l-2.22-2.22h11.099l4.44 2.22H182.465V44.7h4.439v2.22l2.22-2.22h2.22v-2.22h-2.22l-2.22-2.22v-2.219h8.879l2.22 2.22-2.22 2.22h4.44z" opacity=".98" fill="#eee" fill-rule="evenodd" stroke="#333" stroke-width=".894" stroke-linecap="square" stroke-linejoin="bevel" stroke-miterlimit="10"/><path d="M146.95 33.602v2.22h11.099l2.22 2.219 2.219-2.22-2.22-2.22h4.44l2.22 2.22 2.22 2.22v2.22h8.878l-2.22 2.22h-2.22v2.22h-4.439l-2.22-2.22h-4.44l-4.439 2.22H149.17v-2.22H140.29l2.22-2.22h8.88H138.07l4.44-2.22H135.851l2.22-2.22h2.22l4.439-2.22h2.22z" opacity=".98" fill="#eee" fill-rule="evenodd" stroke="#333" stroke-width=".894" stroke-linecap="square" stroke-linejoin="bevel" stroke-miterlimit="10"/><path d="M169.147 33.602l-2.22 2.22-2.22-2.22h4.44zM231.3 33.602v2.22h-6.66l-2.22-2.22h8.88z" opacity=".98" fill="#eee" fill-rule="evenodd" stroke="#333" stroke-width=".894" stroke-linecap="square" stroke-linejoin="bevel" stroke-miterlimit="10"/><path d="M209.102 33.602l2.22 2.22 2.22-2.22h4.44l4.439 2.22h11.099l2.22 2.219h4.439l2.22 2.22h8.879l2.22 2.22-4.44 2.22h4.44l4.439 2.219 2.22 2.22h4.439-2.22l-2.22 4.44-4.44-2.22-2.219-2.22h-4.44v2.22h2.22l4.44 2.22 2.22 2.219-2.22 2.22h-2.22l-4.44-2.22 2.22 2.22h2.22v2.22l-4.44-2.22h-6.659l-2.22-2.22h2.22l-4.44-2.22H226.86l2.22-2.22h8.879-2.22l2.22-2.22 2.22-2.219-2.22-2.22h-6.66v-2.22h-4.439v-2.22l-2.22 2.22h-11.099l-6.658-2.22h-4.44l2.22-2.219h-2.22l-2.22-2.22 2.22-2.22h8.88-2.22zM178.026 33.602h6.66l-2.22 2.22h4.439v2.219h-8.879l-4.44-2.22h4.44l-2.22-2.22h2.22zM193.564 35.821H186.905v-2.22h2.22l2.22-2.22h4.439l4.44 2.22-4.44 2.22h-2.22zM133.631 38.041l-6.659 2.22v-2.22h-4.44v-2.22l2.22-2.22h2.22l-2.22-2.22H140.291l2.22 2.22h2.219-2.22l-6.659 2.22-2.22 2.22z" opacity=".98" fill="#eee" fill-rule="evenodd" stroke="#333" stroke-width=".894" stroke-linecap="square" stroke-linejoin="bevel" stroke-miterlimit="10"/><path d="M193.564 31.382H186.905v-2.22h6.66v2.22zM182.466 26.942h2.22v2.22h-2.22l-2.22 2.22-2.22-2.22h-4.44v-2.22h8.88zM160.268 26.942l2.22 2.22 2.22-2.22 2.22 2.22h-2.22l-6.66 2.22h-8.879l4.44-2.22H140.29l2.22-2.22h8.88l4.439 2.22h2.22l-2.22-2.22h4.44z" opacity=".98" fill="#eee" fill-rule="evenodd" stroke="#333" stroke-width=".894" stroke-linecap="square" stroke-linejoin="bevel" stroke-miterlimit="10"/><path d="M191.344 24.723l2.22 2.22h6.66l2.22 2.22h19.977l2.22 2.219H195.783v-2.22l-2.219-2.22H184.685l2.22-2.22h4.44zM142.51 24.723v2.22H135.851l-4.44 2.22-2.22-2.22h2.22l4.44-2.22h6.66zM193.564 24.723H186.905h6.66zM155.829 24.723h-6.66l2.22-2.22h2.22l4.44 2.22h-2.22zM158.048 22.503H151.39h6.66zM189.125 22.503l-4.44 2.22-2.22-2.22h6.66zM178.026 22.503l2.22 2.22-4.44-2.22h-8.879 2.22-2.22v-2.22h4.44l6.659 2.22zM206.883 20.283h4.44-4.44l-4.44 2.22h-8.879v-2.22H186.905v-2.22h4.44v-2.22h4.439l2.22 2.22H206.883v2.22z" opacity=".98" fill="#eee" fill-rule="evenodd" stroke="#333" stroke-width=".894" stroke-linecap="square" stroke-linejoin="bevel" stroke-miterlimit="10"/><path d="M249.058 11.404h6.659l4.44 2.22h4.439l-6.66 2.22H251.278h4.44l-4.44 2.22h-4.44l-4.439 2.22H231.3h2.22-2.22l2.22 2.219h-2.22l-2.22 2.22h-4.44v2.22l4.44-2.22v2.22h-26.637l4.44-2.22h-2.22 8.879l-4.44-2.22h-2.22 4.44v-2.22h-2.22v-2.22H220.202h-17.759l-2.22-2.22h-2.22l2.22-2.22h17.759l2.22-2.219h28.856zM419.977 91.315v2.22h2.22-4.44l-2.22 2.22h-2.219v-4.44h6.66zM249.058 311.069v4.439h4.44l-2.22 2.22h-8.88l-2.22-2.22-2.22-2.22-2.219-2.22 2.22 2.22h2.22l2.22 2.22 2.22-2.22v-2.22h4.439z" opacity=".98" fill="#eee" fill-rule="evenodd" stroke="#333" stroke-width=".894" stroke-linecap="square" stroke-linejoin="bevel" stroke-miterlimit="10"/><path d="M249.058 242.257l2.22 2.22h2.22l-2.22 4.439h-2.22v4.44l-2.22 2.22v2.219l-2.22 2.22 2.22 2.22-2.22 2.22v4.439h2.22v2.22l-2.22 2.22v2.219h-2.22v2.22l2.22 2.22h-2.22V288.871h-2.22l2.22 2.219v6.66l-2.22 2.219v2.22l-2.22 2.22v2.22h2.22v2.219l2.22 2.22h6.66-4.44l-2.22 2.22h-2.22l-2.22-2.22h-2.219l-2.22-2.22h2.22l-2.22-2.22v-6.66l2.22-2.219h-2.22l2.22-2.22v-2.22h2.22l2.22-4.439h-2.22v2.22h-2.22v-4.44l2.22-4.439v-4.44l2.22-4.439 2.22-4.44v-11.099l2.22-2.219v-19.978h2.219v-2.22 2.22h2.22v6.66zM644.17 155.687h-4.439v-2.22h2.22l2.22-2.22 2.22 2.22h-2.22v2.22zM681.906 86.875h4.44l2.22 2.22v2.22h4.439l2.22-2.22h4.439l-2.22 2.22-2.22 2.22v2.22h-4.439V102.413h-4.44l-2.22 2.22h-4.439l-2.22 2.219-2.219 2.22h-4.44l-2.22 2.22v-2.22l2.22-2.22h-4.439l-2.22 2.22h-2.22l-2.22 2.22h2.22v2.219h8.88v2.22h-4.44l-2.22 2.22v2.22h2.22v2.219l2.22 2.22v4.44l2.22 2.219h-2.22v2.22l-2.22 2.22-2.22 4.439-2.22 2.22-2.22 2.22-4.439 2.22h-4.44l-4.439 2.219h-2.22v2.22h-2.22v-2.22h-4.439l-2.22-2.22h-2.219v-2.22l-2.22 2.22H624.193v2.22h-4.44v-2.22l-2.22-2.22v-2.22l-2.219 2.22v-4.44h2.22v-4.439l-2.22-2.22h-2.22v-2.22h-4.44l-2.219 2.22-2.22 2.22h-2.22v-2.22h-4.439l-2.22 2.22v-2.22 2.22h-4.439l-2.22-2.22h-2.22l-2.22-2.22-2.219-2.219h-6.66l-2.219-2.22v-2.22h2.22l-2.22-2.219v-2.22l-2.22-2.22h-2.22l-2.22-2.22v-2.219h-2.219v-2.22h-2.22v-2.22l2.22-2.22h4.44v-2.219h4.44l4.439-2.22v-2.22l-2.22-2.22 4.44-2.219h2.219l2.22-4.44h4.44v-2.219h2.219l2.22-2.22 2.22 2.22 4.439 2.22v4.44h4.44l2.22 2.219h4.439v2.22l2.22 2.22h11.098l4.44 2.22h2.22l4.439-2.22H644.17l2.22-2.22v-4.44h2.22l2.219 2.22 2.22-2.22h2.22l2.22-2.22H664.148v-2.22h-2.22v-2.219l-2.22 2.22h-4.44v-2.22l2.22-2.22h2.22l4.44-2.22 2.219-2.22v-2.219l2.22-2.22H677.467v2.22l2.22 2.22 2.22 2.22v2.22zM395.56 186.763h-2.22l-2.22-2.22-2.219 2.22h-4.44v-4.44h-2.22v-4.439h2.22l-2.22-2.22v-2.22h8.88v2.22h4.44v4.44l-2.22 2.22 2.22 2.22v2.22zM428.856 191.203H419.977v-2.22h-2.22v-4.44l2.22-2.22 2.22-2.219 2.22 2.22v-2.22h2.22v-4.44h2.22v-2.22l2.219-2.219v-2.22 4.44l2.22 2.22h-2.22v-2.22l-2.22 2.22 2.22 2.22h2.22v2.22l-2.22 2.219v4.44l2.22 2.219v2.22h2.22l-2.22 2.22-2.22-2.22h-2.22zM466.592 188.983v2.22h2.22l-2.22 2.22-2.22 2.22V208.96l2.22 2.22v2.22h-4.44V220.06l2.22 2.22v2.219h-2.22v-2.22h-2.22v-2.22H453.274v-2.22h-2.22l-2.22 2.22v-2.22 2.22-4.44h-2.219v-4.439h-2.22v-2.22 2.22h-4.44l-2.219 2.22v-2.22h-2.22v-4.44h-8.879v2.22-4.439h6.66v-2.22h2.22l-2.22-2.22 2.22-2.219 2.22-2.22v-2.22l2.219-2.22v-4.439l2.22-2.22 2.22 2.22H451.053l2.22-2.22v2.22h2.22v-2.22h4.439v2.22h4.439l2.22 2.22z" opacity=".98" fill="#eee" fill-rule="evenodd" stroke="#333" stroke-width=".894" stroke-linecap="square" stroke-linejoin="bevel" stroke-miterlimit="10"/><path d="M426.637 204.521l-2.22 2.22v-6.66h2.22v-2.219l2.22 2.22 2.219-2.22v-2.22h-2.22l2.22-2.22h-2.22v-2.22h2.22l2.22 2.22 2.22-2.22v-2.219h4.439v2.22l-2.22 2.22v2.22l-2.22 2.219-2.22 2.22 2.22 2.22h-2.22v2.22H426.637zM233.52 195.642h-4.44l-2.22-2.22v-2.22h2.22V177.885h2.22v-2.22h2.22v-2.22l2.22-2.219h4.439l2.22-2.22v2.22h-2.22v2.22l-2.22 2.22h2.22v4.44l2.22 2.219 2.22-2.22v2.22H251.277V191.203l2.22 2.22h-2.22v-2.22 2.22h-4.44v2.22h-2.22 2.22v8.879l-2.22-2.22v-2.22h-6.66v-2.22h-2.219v-2.22h-2.22zM217.981 177.884h-2.22v-2.22h-2.22v-2.22 2.22h-2.219v-4.439l2.22 2.22v-2.22 2.22h2.22v2.22h2.22v2.22zM217.981 144.588h4.44l2.22 2.22h4.439v2.22h4.44v2.22h2.22v2.22h-6.66v-2.22h-2.22v-2.22h-4.44v-2.22h-4.439 2.22-4.44l-2.22 2.22v-2.22h2.22l2.22-2.22zM471.031 117.952h4.44-4.44zM473.251 117.952l2.22 2.22h-4.44v-2.22h2.22zM435.515 89.095l-2.22-2.22-2.219 2.22h-2.22v-2.22h-2.22v-2.22h4.44v-2.22h2.22v2.22h4.44l2.219 2.22-2.22 2.22h-2.22z" opacity=".98" fill="#eee" fill-rule="evenodd" stroke="#333" stroke-width=".894" stroke-linecap="square" stroke-linejoin="bevel" stroke-miterlimit="10"/><path d="M419.977 75.777h8.88l2.219 2.22v4.439h2.22-2.22v2.22h-4.44v2.22h2.22v2.219h-2.22l2.22 2.22H415.537v-2.22l2.22-2.22h-4.439v-2.22l-2.22-2.22h2.22v-2.219l2.22-2.22h-2.22 4.44v-2.22h2.22zM495.448 169.005v2.22h-2.22 2.22l-2.22 2.22v-2.22h-2.22l2.22-2.22h2.22z" opacity=".98" fill="#eee" fill-rule="evenodd" stroke="#333" stroke-width=".894" stroke-linecap="square" stroke-linejoin="bevel" stroke-miterlimit="10"/><path d="M426.637 73.557v2.22l-2.22-2.22h-2.22l4.44-2.22v2.22zM422.197 71.337l-2.22 2.22v2.22h-2.22v-6.66h4.44v2.22zM242.398 153.467h4.44l2.22 2.22h-4.44l-2.22 2.22v-4.44zM424.417 144.588l-6.66 4.44-6.659 4.44H404.44v-2.22h-2.22l-4.44-4.44-6.658-4.44-8.88-6.659v-2.22l2.22-2.22h2.22l2.22-2.219h4.44v-2.22l2.22-2.22h2.219v-4.439l-2.22-2.22H400v-2.22H411.099l2.22-2.219h2.219v2.22h2.22v4.44h-2.22v2.219l2.22 2.22h2.22V142.369h4.439v2.22zM222.42 202.301l2.22-2.22h-2.22v-4.439h2.22l2.22-2.22 2.22 2.22h4.44v2.22l-2.22 2.22-2.22 2.22h-2.22v2.22h-4.44v-2.22zM475.47 131.27v4.44h-2.219v-2.22l-2.22-2.22v2.22l2.22 2.22 2.22 2.22v2.219l2.22 4.44 2.22 2.22h-24.418V131.268l-2.22-2.219v-2.22h8.88v2.22l2.219-2.22h4.44v2.22l2.22-2.22 2.219 2.22 2.22-2.22v4.44zM493.229 169.005l-2.22-2.22-2.22-2.219h-8.879v-4.44l2.22-2.22h2.22v2.22l2.22 2.22 4.439 2.22v2.22h2.22l2.22 2.22h-2.22zM380.022 104.633l2.22-2.22-2.22-2.22H397.78l2.22 2.22h4.44l2.219 2.22h-6.66v8.879h-2.22l-2.219 2.22h-4.44l-2.219 2.22v-2.22h-2.22l-2.22-2.22v-6.66h2.22v-2.219h-4.44v-2.22l-2.219 2.22zM453.273 69.117v-2.22h-2.22v-2.22H462.154l-2.22 2.22v2.22h-6.66z" opacity=".98" fill="#eee" fill-rule="evenodd" stroke="#333" stroke-width=".894" stroke-linecap="square" stroke-linejoin="bevel" stroke-miterlimit="10"/><path d="M482.13 164.566h6.66l2.219 2.22 2.22 2.22-2.22 2.22h2.22v2.219l2.22 2.22 6.659 4.44 2.22-2.22-6.66 6.659-2.22 2.22h-2.22l-2.22 2.219-2.219-2.22-2.22 2.22h-2.22l-4.439-2.22h-2.22v-2.22l-2.22-2.22v-2.219h-4.439l2.22-2.22v-2.22l2.22-2.22v-2.219l2.22-2.22 2.22-2.22v-2.219h2.219zM462.152 42.48v2.22l2.22 2.22v2.22l2.22 2.22-2.22 2.22h2.22v2.219l2.22 2.22-2.22 2.22-4.44 2.22H453.273l-4.44 2.219v-2.22h-2.219v-6.66h2.22l4.44-2.219 2.22-2.22-4.44-2.22V46.92l-4.44-2.22-2.22-2.22h2.22l2.22 2.22h4.44l2.22-2.22h2.219l2.22-2.22 4.439 2.22h-2.22zM795.113 233.378v2.22h-2.22v-2.22h2.22zM797.332 231.158l-2.22 2.22v-2.22h4.44-2.22zM2.667 231.158H.447h2.22zM264.596 308.849H273.475h-2.22l-2.22 2.22v-2.22l-2.22 2.22-2.22-2.22zM419.977 102.413v2.22h-2.22v-2.22l2.22-2.22v2.22zM406.659 84.655l2.22 2.22H417.758l-2.22 2.22v2.22h-2.22v4.44h2.22-2.22l2.22 2.219v2.22h-8.88l-2.219 2.22H400l-2.22-2.22v-6.66l-2.219-2.22h-4.44v-2.219h6.66v-2.22H400l2.22-2.22 2.22-2.22v2.22h2.219zM424.417 202.301l-2.22-2.22h-2.22l-2.22-2.219v-2.22h2.22v-2.22h4.44v-2.22h4.44v2.22h2.219l-2.22 2.22h2.22v2.22l-2.22 2.22-2.22-2.22v2.22h-2.22v2.22zM388.901 75.777l-2.22 2.22v-2.22h-2.22v-2.22h2.22l2.22 2.22z" opacity=".98" fill="#eee" fill-rule="evenodd" stroke="#333" stroke-width=".894" stroke-linecap="square" stroke-linejoin="bevel" stroke-miterlimit="10"/><path d="M393.34 66.898l-2.22 2.22h6.66l-2.22 2.22-2.22 2.219h2.22l2.22 2.22H400v4.439h2.22v2.22l-2.22 2.22h-8.88l-2.219 2.22v-2.22l2.22-2.22h2.22-4.44l2.22-2.22v-2.22h4.44l-2.22-2.22h-2.22l-2.22-2.22h2.22-2.22v-2.219h-2.22l2.22-2.22v-2.22h4.44zM491.009 104.633v-2.22l-2.22-2.22h-2.22 6.66l2.22 2.22h4.439l2.22 2.22H491.008zM402.22 184.544h-4.44v2.22h-2.22v-2.22l-2.22-2.22 2.22-2.22v-6.66l2.22-2.219 2.22 2.22v-2.22 11.099l2.22 2.22zM382.242 180.104h-2.22v-2.22h-2.22v-2.22l-2.22-2.22-2.22 2.22-2.219 2.22v-2.22h-2.22v-2.22l-2.22-2.219h4.44v-2.22h6.66v2.22l2.219-2.22h2.22v6.66l2.22 2.22h-2.22v2.22zM364.484 166.786h6.66-6.66z" opacity=".98" fill="#eee" fill-rule="evenodd" stroke="#333" stroke-width=".894" stroke-linecap="square" stroke-linejoin="bevel" stroke-miterlimit="10"/><path d="M366.704 171.225h-2.22v-2.22h6.66v2.22h-4.44zM419.977 193.423v-2.22h4.44v2.22h-4.44zM451.054 117.952H457.713l-4.44 2.22v-2.22h-2.22zM457.713 104.633v2.22h-6.66 2.22l-2.22 2.22-2.22-2.22v2.22h2.22l-2.22 2.22h4.44v2.219h-4.44l2.22 2.22h-4.439v-4.44h-2.22v-4.44h2.22l2.22-2.219h8.879zM297.892 13.624l6.659-2.22h35.516l15.538 2.22h-24.418 8.88l6.659 2.22 4.44-2.22v2.22h-2.22H373.363l-8.88 2.22h-8.878 6.66l-2.22 2.22-2.22 2.219v2.22l2.22 2.22h-6.66 4.44v2.22h-2.22l2.22 2.219h-4.44l2.22 2.22h-6.66l2.22 2.22h-4.439 2.22l2.22 2.219 2.22 2.22h-6.66l-2.22-2.22v2.22h-2.22 8.88l-6.66 2.22-4.44 2.22h-8.878l-2.22 2.219-4.44 2.22-4.439 2.22H313.43l-2.22 2.22-2.22 2.219-2.22 2.22v2.22l-2.219 2.22h-11.099l-2.22-2.22v-2.22l-4.439-2.22-2.22-2.22v-2.22l-2.22-2.22V46.92l2.22-2.22h2.22v-2.22h2.22-8.88v-2.22h6.66l-4.44-2.219h-4.439l2.22-2.22h-2.22l-2.22-2.22-2.22-2.22-2.219-2.219-6.66-2.22h-17.758l-4.439-2.22H253.498h-11.1l-4.44-2.22h8.88l8.879-2.219-6.66-2.22h2.22l8.88-2.22h2.219l4.44-2.22h13.318l2.22 2.22 6.659-2.22h4.44l4.439 2.22h4.44l-4.44-2.22zM200.223 166.786h-2.22v-2.22h-2.22v-2.22l2.22-2.22h2.22-2.22v-2.22h4.44v4.44h2.22-2.22v2.22l-2.22 2.22zM284.573 191.203h-4.44v-4.44l2.22-2.22h2.22l2.22 2.22-2.22 2.22v2.22zM269.035 177.884v2.22h2.22v2.22h2.22v4.44h-2.22l2.22 2.219v2.22l2.22 2.22h-6.66v-6.66h-2.22l2.22-2.22h-4.44v-2.22h2.22v-2.219l2.22-2.22z" opacity=".98" fill="#eee" fill-rule="evenodd" stroke="#333" stroke-width=".894" stroke-linecap="square" stroke-linejoin="bevel" stroke-miterlimit="10"/><path d="M206.883 169.005v-2.22h-2.22v-2.219h-2.22v-2.22h6.66v-2.22l2.22 2.22h4.439v2.22-2.22 2.22h-4.44v2.22l-2.22-2.22v2.22h-2.22v2.22zM439.955 95.754h2.22v2.22l-2.22-2.22h-6.66v2.22h2.22v2.22h2.22l2.22 2.22h-2.22l-2.22-2.22-2.22-2.22h-2.219v-2.22l-2.22 2.22v-2.22h4.44v-2.22h2.22l2.22 2.22h2.219zM237.959 153.467h4.44v2.22h-6.66 4.44v-2.22h-2.22z" opacity=".98" fill="#eee" fill-rule="evenodd" stroke="#333" stroke-width=".894" stroke-linecap="square" stroke-linejoin="bevel" stroke-miterlimit="10"/><path d="M435.515 93.534v-4.44l2.22 2.22h2.22v-2.22h8.879v2.22l-2.22 2.22h-4.44l-2.22 2.22h-2.219l-2.22-2.22zM666.368 217.84l-4.44-2.22h4.44v2.22zM675.247 217.84h-2.22v-2.22l2.22-2.22 2.22 2.22-2.22 2.22zM659.709 213.4h4.44-4.44v2.22h-2.22l2.22-2.22zM670.807 213.4H664.148h6.66zM639.731 208.96h8.88v2.22h4.439l2.22 2.22H644.17l-2.22-2.22H635.292v-2.22h-2.22l2.22-2.22h2.22l2.22 2.22zM697.444 208.96v-2.22 2.22zM681.906 202.301h-4.44 4.44zM688.565 202.301H681.906l2.22-2.22h2.22l2.22 2.22zM697.444 197.862v2.22l2.22 2.22 2.22-2.22 2.22-2.22h2.22l2.219 2.22h4.44v15.538l-2.22-2.22h-6.66l2.22-2.22v-2.22l-2.22-2.22-4.439-2.219-4.44-2.22v2.22h-2.22v-2.22l-2.219-2.22h4.44-2.22l-2.22-2.219h-2.22v-2.22h6.66l2.22 2.22zM677.467 193.423l-2.22 2.22h-8.879v2.219l2.22-2.22h4.44v2.22l-2.22-2.22v2.22h-2.22l2.22 4.44 2.22 2.22v2.219h-2.22v-2.22h-2.22l-2.22-2.22v-2.22 6.66h-2.22v-4.44l-2.22-2.22h2.22v-4.439h2.22v-2.22h2.22l2.22 2.22h4.439l2.22-2.22zM684.126 193.423v2.22h-2.22 2.22-2.22v-4.44l2.22 2.22zM659.709 193.423l2.22 2.22h-2.22l-2.22 2.219v6.66-2.22l-4.44 2.22v-2.22h-4.439l-2.22-2.22v2.22l-2.22-2.22v-2.22h-2.22v-2.22h-2.219l2.22-2.22v-2.22 2.22l2.22 2.22h2.22l2.22-2.22h4.439l2.22-2.22v-4.439h4.439v2.22l2.22 2.22-2.22 2.22zM633.072 206.74h-4.44l-2.22-2.219v-2.22l-2.219-2.22h-2.22v-4.439h-2.22l-2.22-2.22-2.219-2.22v-2.219h-2.22l-2.22-2.22v-2.22h4.44l2.22 2.22 2.22 2.22 2.22 2.22h2.219l2.22 2.22 2.22 2.22 2.22 2.219v2.22h2.219l2.22 2.22-2.22 2.22v2.219zM570.92 117.952l2.22 2.22v2.219l2.219 2.22h-2.22v2.22l2.22 2.22h4.44l-2.22 2.219v2.22h2.22v2.22H586.457l2.22 2.22H595.336v-4.44 2.22l2.22 2.22H604.215v-2.22h-2.22 2.22l2.22-2.22 2.219-2.22h4.44v2.22h2.219v2.22h-2.22l-2.22 2.22-2.22 2.219v4.44l-2.219-2.22v4.44h-2.22v-2.22h-2.22v2.22-4.44h2.22l-2.22-2.22h-4.439v-2.22h-2.22v8.88h2.22l-2.22 2.219h-4.439l2.22 2.22h-2.22l-2.22 2.22-4.44 2.22v2.219h-2.219v2.22h-2.22l-2.22 2.22v4.439l-2.22 2.22v4.439l-2.219 2.22h2.22l-2.22 2.22h-2.22v2.22l-2.22-2.22v-4.44l-2.22-2.22-2.219-2.22v-4.439l-2.22-2.22v-4.44l-2.22-4.439v-4.44l-2.22 2.22h-2.219l-2.22-4.439-2.22-2.22v-2.22h6.66l-2.22-2.22v-2.219h-2.22l2.22-2.22h2.22l2.22-2.22 2.22-2.22 2.22-2.219v-2.22l2.219-2.22h-2.22v-2.219l-2.22-2.22h6.66l2.22-2.22zM386.681 77.996v2.22l-4.44 2.22h-2.219v-4.44l2.22-2.22 2.22-2.22v2.22h2.22v2.22zM517.646 113.512H524.305v-2.22h2.22l2.22 2.22h2.22l2.219 2.22h2.22v2.22l-2.22 2.22V126.83h2.22v2.22l-2.22 2.219h2.22v2.22h2.22v2.22h2.22v2.22h-4.44v2.219h-8.88l-2.22-2.22v-2.22l-2.219 2.22h-4.44l-2.22-2.22h-2.219l-2.22-2.22v-4.439l-2.22 2.22-2.219-2.22v2.22-2.22h-2.22v-4.44l-2.22-2.219h-2.22v-2.22l2.22-2.22h-2.22l-2.219-4.439v-4.44l2.22 2.22h2.22l2.22-2.22h2.219v2.22l2.22 2.22h2.22v2.22H517.645v-2.22z" opacity=".98" fill="#eee" fill-rule="evenodd" stroke="#333" stroke-width=".894" stroke-linecap="square" stroke-linejoin="bevel" stroke-miterlimit="10"/><path d="M499.888 117.952h2.22l-2.22 2.22v2.219h2.22l2.22 2.22v4.44h2.219v2.219h-2.22v-2.22l-2.22 2.22h-4.439l-6.66-4.44h-2.219l-2.22-2.22-2.22-2.219 6.66-2.22v-4.44l2.22-2.219h4.439l2.22 4.44zM368.923 49.14v2.22h2.22l-2.22 2.22-6.659 2.219h-11.099l2.22-2.22h-4.44l2.22-2.22h-4.439l2.22-2.22h2.22l4.439 2.22 2.22-2.22 4.44 2.22 2.219-2.22h4.44zM477.69 124.61l-2.22 2.22h2.22-2.22 2.22l-2.22 4.44v-6.66l2.22-2.219v2.22zM433.296 111.292v4.44h-2.22l-2.22-2.22h-2.22v-2.22h6.66zM419.977 104.633v4.44l-2.22 2.22v-4.44l2.22-2.22z" opacity=".98" fill="#eee" fill-rule="evenodd" stroke="#333" stroke-width=".894" stroke-linecap="square" stroke-linejoin="bevel" stroke-miterlimit="10"/><path d="M426.637 93.534h2.22v2.22h-2.22v2.22l2.22 2.22 2.219 2.22 2.22 2.22h2.22-2.22 2.22l2.22 2.219h2.219v2.22l-2.22-2.22h-2.22v2.22h2.22v2.22h-2.22v2.219h-2.22v-2.22h2.22l-2.22-2.22v-2.22h-2.219l-2.22-2.219h-2.22l-2.22-2.22h-2.219v-2.22l-2.22-2.22h-2.22l-2.22 2.22v-2.22l-2.219-2.219h2.22-2.22 2.22l2.22-2.22H424.417l2.22-2.22v2.22zM229.08 155.687h2.22v2.22h-2.22l-2.22-2.22h2.22zM477.69 124.61h2.22l4.44-2.219 2.22 2.22-4.44 2.22v2.22l-2.22 2.219h-4.44l2.22-4.44v-2.22zM697.444 120.171v2.22h-2.22v2.22h-2.22v-4.44l2.22 2.22v-2.22h2.22z" opacity=".98" fill="#eee" fill-rule="evenodd" stroke="#333" stroke-width=".894" stroke-linecap="square" stroke-linejoin="bevel" stroke-miterlimit="10"/><path d="M710.763 113.512v4.44l-4.44 2.22h-2.22l-4.439 2.219v-2.22h-4.44l-2.22 2.22h-4.439 4.44l-2.22 4.44h-2.22v-2.22h-2.22v-2.22h2.22v-2.22h2.22l2.22-2.22H699.664l2.22-4.439 2.22 2.22 2.22-2.22 2.219-2.22 2.22-2.22-2.22-2.22 2.22-2.219h2.22v4.44l-2.22 2.22v2.219z" opacity=".98" fill="#eee" fill-rule="evenodd" stroke="#333" stroke-width=".894" stroke-linecap="square" stroke-linejoin="bevel" stroke-miterlimit="10"/><path d="M717.422 97.974l2.22 2.22 2.22-2.22v2.22l-2.22 2.22-2.22 2.22-4.44-2.22v2.22h-4.439v-2.22l2.22-2.22h2.22v-4.44l4.439 2.22zM555.381 102.413l-2.22 2.22-2.22 2.22-2.219-2.22h-2.22v-2.22l-4.44-2.22h-4.439l-2.22-2.22h-2.22l-4.439-2.219-6.659 2.22v6.66l-2.22-2.22h-4.44v2.22-2.22l-2.219-2.22-2.22-2.22h2.22v-2.22h4.44v-2.22h-2.22l-2.22-2.22-2.22 2.22h-4.439v-2.22h-2.22l-2.22-2.219 2.22-2.22h-2.22l2.22-2.22 2.22 2.22v-2.22l4.44-2.22H519.865l2.22 2.22 2.219-2.22h4.44l2.22 2.22h4.439v-2.22h-4.44l2.22-2.219h2.22l-2.22-2.22 2.22-2.22h15.538l2.22-2.22h2.22l2.219 2.22h4.44v2.22h2.22l4.439-2.22 2.22 2.22 6.659 6.66v-2.22l2.22 2.22 4.439-2.22v2.22h4.44v2.22h4.439l-2.22 2.219h-2.22v2.22h-4.44l-2.219 4.44h-2.22l-4.44 2.219 2.22 2.22v2.22H566.48l-2.219-2.22h-2.22v2.22H555.381zM488.79 195.642l2.219 2.22-2.22 2.22v2.22h-2.22v2.22l-4.44-2.22-6.658-4.44-2.22-2.22h2.22v-2.22h2.22l-2.22-4.439v-2.22l2.22-2.22v2.22h2.22l4.439 2.22h2.22l2.22-2.22 2.219 2.22-2.22 2.22v4.44z" opacity=".98" fill="#eee" fill-rule="evenodd" stroke="#333" stroke-width=".894" stroke-linecap="square" stroke-linejoin="bevel" stroke-miterlimit="10"/><path d="M555.381 102.413h6.66v-2.22h2.22l2.219 2.22H577.579l-4.44 2.22h-4.44v2.22h-4.439l-2.22 2.22H553.161v-2.22l2.22 2.22 2.22-2.22h4.44l-4.44-2.22h-2.22l2.22-2.22h-2.22zM628.632 173.445v-2.22l-2.22-2.22v-4.439h6.66l2.22 2.22v-2.22h2.22v4.44l-4.44 2.22 2.22 2.219h-6.66zM684.126 111.292l2.22 2.22v4.44l-2.22 2.22h-4.44v-6.66l2.22-2.22h2.22zM444.394 102.413v2.22-4.44h2.22v2.22h-2.22zM504.327 131.27h2.22v2.22h-2.22v-2.22h-2.22l2.22-2.22v2.22z" opacity=".98" fill="#eee" fill-rule="evenodd" stroke="#333" stroke-width=".894" stroke-linecap="square" stroke-linejoin="bevel" stroke-miterlimit="10"/><path d="M633.072 164.566v-2.22l-2.22-2.22v-2.22l-2.22-2.219-2.22 2.22v-2.22l-2.219 2.22v-4.44h-2.22v-2.22l2.22-2.22v-2.219h2.22v2.22l2.22 2.22h2.22v2.22h-2.22l4.439 2.22v2.219l2.22 2.22 2.22 2.22v2.219h-2.22v2.22l-2.22-2.22zM477.69 122.391v-2.22h2.22v2.22h-2.22zM384.462 186.763h-4.44v-2.22l-2.22-2.22h-2.22v-2.219h2.22v-2.22h2.22v2.22h2.22v2.22h2.22v4.44zM431.076 146.808l-2.22-2.22h-4.44v-2.22h-4.439V129.05h2.22l-2.22-2.22h2.22v-2.22h2.22v-2.219l2.22 2.22H433.296v2.22h2.22l4.439 2.22h4.44l-2.22-2.22 2.22-2.22H451.053l2.22 2.22h2.22-2.22v2.22l2.22 2.219v19.978h-4.44v2.22l-8.88-4.44-8.878-4.44-2.22 2.22zM579.798 180.104v2.22l-2.22 2.22-2.22-2.22v-4.44l2.22-2.22 2.22 2.22v2.22zM462.152 257.795l2.22 2.22-2.22 2.22h-2.22l-2.22-2.22h2.22l2.22-2.22zM448.834 75.777v-2.22h-2.22v-2.22h8.88l2.219 2.22-2.22 2.22-2.22 2.22h-2.22v-2.22h-2.22zM413.318 84.655v2.22h-2.22v-2.22h2.22z" opacity=".98" fill="#eee" fill-rule="evenodd" stroke="#333" stroke-width=".894" stroke-linecap="square" stroke-linejoin="bevel" stroke-miterlimit="10"/><path d="M446.614 71.337v-2.22h13.319v2.22h2.22l-2.22 2.22h-2.22l-2.22-2.22h-8.879zM388.901 117.952h6.66l2.219 2.22v4.439h-2.22l-2.22 2.22v2.22h-4.439l-2.22 2.219h-2.22l-2.22 2.22v2.22h-2.219v2.22h-6.66v4.439l-2.219 2.22-2.22 2.22v2.219h-6.659 2.22v-4.44h2.22v-2.22l2.22-2.22v-2.219h2.22v-2.22l2.219-2.22h4.44v-2.22h2.219V124.61l2.22-2.219h2.22l2.22-2.22v-2.22h2.219zM457.713 89.095h4.44l2.219 2.22v2.22h2.22-4.44v2.22-2.22l-2.22-2.22-2.22-2.22zM508.767 222.28l2.22 2.219v6.66l-2.22-2.22V237.817l-2.22 2.219-2.22 4.44v4.439l-2.22 2.22h-4.439v-2.22h-2.22v-8.879h2.22v-4.44l-2.22-2.22 2.22-2.219 2.22-2.22h2.22l2.22-2.22h2.219l-2.22-2.22h2.22v-2.219h2.22zM184.685 140.149v11.099l2.22 2.22 2.22 2.22H198.004l2.22-2.22v-2.22l2.22-2.22H209.102v2.22h-2.22v4.44h-2.22v2.219l-2.22-2.22v2.22h-4.44v2.22h2.22-2.22l-2.22 2.22v2.219l-2.219-2.22-2.22-2.22h-2.22l-2.219 2.22h-2.22l-2.22-2.22h-2.22l-2.219-2.22h-4.44l-2.22-2.219-2.219-2.22h-2.22V146.808h-2.22v-2.22l-2.22-2.22-2.219-2.22h-2.22v-2.219l-2.22-2.22h-2.22v-2.22h-2.219v-4.439h-2.22v-2.22h-2.22v4.44h2.22v2.22h2.22v2.22l2.22 2.22v2.219h2.22v2.22l2.22 2.22v2.22h-2.22v-4.44h-4.44v-4.44h-2.22l-2.22-2.22h-2.219 2.22v-4.44h-2.22v-2.219h-2.22v-2.22l-2.22-2.22h8.88l4.439 2.22h13.319v2.22h2.22v2.22h2.219v2.22l2.22-2.22h4.439v2.22l2.22 2.22v2.22h2.22l2.22 2.219zM444.394 104.633v-2.22h4.44v2.22l-2.22 2.22-2.22-2.22zM373.363 164.566h2.22v-2.22H388.9v-11.098l-2.22-8.88h4.44l6.659 4.44 4.44 4.44h2.22v2.22h4.439v6.658h-2.22v2.22h-4.44v2.22H400v-2.22l-2.22 2.22h-2.219v2.22h-4.44v2.22l-2.219 2.22v2.219h-6.66v-4.44h-2.219l-2.22 2.22v-2.22h-2.22v-2.22h-2.22v-2.219zM431.076 117.952zM431.076 115.732zM619.754 151.248l-2.22 2.22-2.22 2.22v2.219l2.22 2.22v4.439l2.22 2.22V173.445l-2.22 2.22v-8.88l-2.22-2.219v-4.44h-2.22l-2.22 2.22h-2.22V155.687l-2.219-2.22-2.22-2.22v-4.439h2.22v-4.44l2.22 2.22v-4.44l2.22-2.219 2.22-2.22h2.22v-2.22l2.219 2.22v4.44h-2.22v4.44l2.22-2.22v2.22l2.22 2.22v2.219h4.439l-2.22 2.22h-2.22z" opacity=".98" fill="#eee" fill-rule="evenodd" stroke="#333" stroke-width=".894" stroke-linecap="square" stroke-linejoin="bevel" stroke-miterlimit="10"/><path d="M442.175 102.413v2.22l-2.22-2.22v-2.22h2.22l2.22 2.22h-2.22zM593.117 86.875h2.22l4.439-2.22h8.879l2.22 2.22h4.44l2.219-2.22-2.22-2.22 2.22-2.219 2.22 2.22H626.413v2.22H635.292l2.22 2.22H648.61l4.439-2.22 2.22 2.22h2.22l-2.22 2.219v2.22h4.439l2.22-2.22v2.22h2.22v2.22h-6.66l-2.22 2.22h-2.22l-2.22 2.219-2.219-2.22h-2.22v4.44l-2.22 2.22H635.292l-4.439 2.22h-2.22l-4.439-2.22H613.094l-2.22-2.22v-2.22h-4.439l-2.22-2.22h-4.44v-4.44l-4.439-2.219-2.22-2.22zM475.47 220.06h8.88l2.22-2.22h2.22V231.159h-2.22l-2.22 2.219h-2.22l-2.22 2.22h-2.22v2.22h-2.22v2.219l2.22 2.22V248.916h-2.22l-2.219 2.22h-2.22v2.22h-2.22v-8.88l2.22-2.22v-11.098h-2.22v-2.22h-2.22v-2.22l6.66-2.22v2.22h2.22v4.44h2.22v-6.66h-2.22v-4.439zM373.363 164.566v-2.22l-2.22-2.22h-6.66V151.247h-2.219l2.22-2.22h8.879l-2.22-2.219 2.22-2.22h2.22v-4.44h6.659v-4.439l8.879 6.66h-4.44l2.22 8.879v11.098h-13.319v2.22h-2.22z" opacity=".98" fill="#eee" fill-rule="evenodd" stroke="#333" stroke-width=".894" stroke-linecap="square" stroke-linejoin="bevel" stroke-miterlimit="10"/><path d="M475.47 220.06v4.439h2.22v6.66h-2.22v-4.44h-2.219v-2.22h-2.22v-2.22h2.22v-6.66h-2.22 2.22l2.22 2.22v2.22zM624.193 182.324v2.22l2.22-2.22v2.22l2.22 2.22v4.439l2.22 2.22h-4.44l-2.22-2.22v-2.22h-2.22v-6.66h2.22zM661.928 186.763H655.27v4.44l-2.22 2.22h-4.439l-2.22 2.22h-2.22l-2.22-2.22v-2.22l2.22 2.22h2.22v-2.22l2.22-2.22h2.22l2.22-2.22h2.22v-2.22l2.22-2.22h2.219v2.22h4.44l-2.22 2.22zM435.515 257.795l-2.22-2.22-2.219-2.22V244.476l-2.22-2.22v-2.219l-2.22-2.22-2.22-2.22v-2.22h2.22v-2.219h2.22l2.22 2.22h24.418-2.22l-2.22 2.22v-2.22l-4.44 2.22h-2.22v6.659h-2.22v15.538l-2.22 2.22-2.219-2.22h-2.22zM766.256 242.257h2.22l2.22 2.22h-2.22l-2.22-2.22h-2.22v-2.22h2.22v2.22zM404.44 171.225v-2.22h-2.22l-2.22-2.22v-2.219h2.22v-2.22h4.439v-2.22h2.22v-6.659h2.22l6.659-4.44 6.659-4.439h4.44l2.219 2.22 2.22 2.22V160.127l-4.44 2.22v4.439h2.22v2.22h-2.22v-2.22H422.197l-2.22 2.22-4.44-2.22H408.879l-2.22 2.22v2.22l-2.219-2.22v2.22z" opacity=".98" fill="#eee" fill-rule="evenodd" stroke="#333" stroke-width=".894" stroke-linecap="square" stroke-linejoin="bevel" stroke-miterlimit="10"/><path d="M417.758 186.763h-6.66v-2.22l-2.22-2.22h-4.439V175.665h2.22V169.006l2.22-2.22H415.538l4.44 2.22 2.219-2.22h6.66v2.22h2.219v2.22l-2.22 2.22v2.22h-2.22v4.44h-2.22v2.219l-2.219-2.22-2.22 2.22-2.22 2.22v2.22zM211.322 171.225h-2.22v-2.22h-2.22v-2.22 2.22-2.22h2.22v-2.219l2.22 2.22v-2.22h4.44v-2.22 11.099h-2.22v-2.22 2.22l-2.22-2.22zM413.318 77.996h2.22l-2.22 2.22v2.22h-2.22l2.22 2.22-2.22-2.22h-4.44l2.22-4.44h4.44zM462.152 38.041l6.66 2.22h-2.22l2.22 2.22h-6.66 2.22l-4.44-2.22-2.22 2.22h-2.219l-2.22 2.22h-4.44l-2.219-2.22h-2.22l-2.22 2.22H435.516v2.219l-2.22 2.22-4.439 4.44h-2.22l-2.22 2.219v4.44h2.22v2.22l-2.22 2.219v2.22l-2.219-2.22-4.44 2.22H411.099v-2.22l-2.22-4.44 2.22-2.22 6.66-2.22 4.439-2.219 4.44-2.22 4.439-4.439 4.44-2.22 6.659-2.22 4.44-2.22h4.439l2.22-2.219 4.439 2.22 4.44-2.22zM453.273 24.723H444.394h2.22l-2.22-2.22h6.66l2.22 2.22z" opacity=".98" fill="#eee" fill-rule="evenodd" stroke="#333" stroke-width=".894" stroke-linecap="square" stroke-linejoin="bevel" stroke-miterlimit="10"/><path d="M439.955 20.283l6.66 2.22h-4.44l-2.22 2.22h-2.22v2.22h-4.44l-4.439-2.22h2.22l-2.22-2.22h-4.44l-2.219-2.22 6.66-2.22v2.22h4.439v-2.22h2.22l4.439 2.22z" opacity=".98" fill="#eee" fill-rule="evenodd" stroke="#333" stroke-width=".894" stroke-linecap="square" stroke-linejoin="bevel" stroke-miterlimit="10"/><path d="M455.493 18.063h4.44l-4.44 2.22H439.954l-2.219-2.22h17.759zM595.336 135.71v2.22H588.677l-2.22-2.22H579.798v-2.22h-2.22v-2.22l2.22-2.22h2.22l2.22 2.22 2.22 2.22h2.22l2.219 2.22h4.44zM784.014 284.432v2.22-2.22l2.22 2.22-2.22 2.22-2.22 2.219h2.22-2.22l-2.22 2.22-2.22 2.22-2.219 2.22h-6.66v-2.22h2.22l2.22-2.22v-2.22h4.44l2.22-2.22v-2.22l2.22-2.22h2.219z" opacity=".98" fill="#eee" fill-rule="evenodd" stroke="#333" stroke-width=".894" stroke-linecap="square" stroke-linejoin="bevel" stroke-miterlimit="10"/><path d="M786.234 275.553l2.22 2.22v-2.22 2.22H795.113v2.22l-2.22 2.219h-2.22 2.22l-2.22 2.22v2.22h-4.44l2.22-2.22-2.22-2.22h-2.219l2.22-2.22v-4.44h-2.22v-2.219l-2.22-2.22h2.22v2.22h2.22v2.22zM528.744 149.028v2.22h-2.22v4.44h-2.22v2.219h-2.219l-2.22 2.22v-2.22l-2.22 2.22-2.22-2.22v-4.44h4.44l2.22-6.659v-4.44h2.22l2.22 2.22h2.22l2.22 2.22v2.22h-2.22zM524.305 140.149v-2.22 2.22zM566.48 113.512v2.22l2.22 2.22h2.22l-2.22 2.22h-6.66l2.22 2.219v2.22h2.22l-2.22 2.22v2.22l-2.22 2.219-2.22 2.22-2.22 2.22h-2.219l-2.22 2.22h2.22v2.219l2.22 2.22h-6.66v2.22h-2.219v-2.22l-2.22-2.22H535.403v-2.22h4.44v-2.22h-2.22v-2.22h-2.22v-2.22h-2.22H546.504v-4.439H553.161v-4.439h2.22l-2.22-2.22 2.22 2.22 2.219-2.22v-4.44h6.66v-2.219h2.219zM229.08 180.104h-2.22v-2.22h-4.44v2.22h-2.219v-2.22h-2.22v-2.22 2.22h2.22v-2.22 2.22h2.22v-2.22h4.44l2.219 2.22v2.22zM246.838 233.378v2.22h-2.22l-2.22-2.22-4.44-2.22-4.439-2.22-2.22-2.22v-2.22l-2.22-2.219-2.219-4.44-2.22-4.439v-2.22l-2.22-2.22h-2.219l2.22-2.22-2.22-2.219 2.22-2.22v2.22h4.44v-2.22h2.219l2.22-2.22 2.22-2.219v-2.22h2.22v2.22h2.219v2.22h6.66v2.22l2.219 2.22h-4.44l-2.22 2.219-2.22 2.22V215.62h2.22v2.22h2.22l2.22-2.22v4.44l2.22-2.22 2.22 4.44v4.439h-2.22v2.22l2.22 2.22-2.22 2.219zM679.686 177.884v4.44l-2.22-2.22v4.44l-2.219-2.22h-2.22l2.22-2.22h-4.44v2.22l-2.22-2.22 2.22-2.22h6.66v-2.22h2.22v2.22zM673.027 173.445v2.22h-2.22v-2.22h2.22l2.22-2.22-2.22 2.22zM661.928 175.665l-2.22 2.22v-2.22h2.22v-2.22l2.22-2.22v2.22l-2.22 2.22z" opacity=".98" fill="#eee" fill-rule="evenodd" stroke="#333" stroke-width=".894" stroke-linecap="square" stroke-linejoin="bevel" stroke-miterlimit="10"/><path d="M668.588 171.225h4.44l-2.22 2.22h-2.22l2.22-2.22h-2.22zM677.467 169.005v4.44h-2.22v-4.44h2.22zM668.588 166.786v2.22h-2.22v-2.22h2.22z" opacity=".98" fill="#eee" fill-rule="evenodd" stroke="#333" stroke-width=".894" stroke-linecap="square" stroke-linejoin="bevel" stroke-miterlimit="10"/><path d="M668.588 155.687h2.22v4.44l-2.22 2.22v2.219h2.22l2.22 2.22 2.219 2.22-2.22-2.22H666.368v-2.22l-2.22-2.22v-2.22h2.22v-4.439h2.22zM744.059 208.96l-2.22-2.22h2.22v2.22h2.22-2.22zM735.18 206.74l-2.22 2.22h-4.44v-2.22h6.66v-2.219h2.22l-2.22 2.22zM726.3 211.18l2.22 2.22v2.22h4.44-2.22l2.22 2.22h-6.66v-2.22l-2.219-2.22-4.44-2.22h-2.219v2.22l-2.22 2.22h-2.22v-15.538l2.22 2.22h4.44l2.22 2.22v2.219l4.439 2.22h-2.22l2.22 2.22zM739.62 204.521h-2.22v-2.22h-2.22l-2.22-2.22h2.22l2.22 2.22h2.22v2.22zM433.296 82.436h-2.22v-6.66h19.978v6.66l2.22 2.22h-2.22l-2.22 2.22h-8.88l-2.219-2.22h-4.44v-2.22zM253.497 155.687h2.22v2.22h-4.44v-2.22h2.22zM688.565 102.413l-2.22 2.22v2.22h-4.439v2.22l2.22 2.22h-2.22l-2.22 2.219h-4.439v-2.22h2.22v-2.22h-2.22l2.22-2.22 2.22-2.219h4.439l2.22-2.22h2.22zM380.022 104.633l2.22-2.22v2.22h4.44v2.22h-2.22V115.732h-2.22v-4.44h-2.22v-2.22l2.22-2.22v-2.219h-2.22zM262.376 244.476v-4.439l2.22-2.22H271.255v2.22h2.22v4.44h4.44v4.439l2.219-2.22v6.66l-2.22 2.22H271.255l2.22-4.44-2.22-2.22h-4.44v-2.22l-4.439-2.22zM510.986 142.369v-2.22l2.22-2.22v4.44h-2.22zM448.834 91.315l2.22-2.22v2.22h4.44l2.219-2.22 2.22 2.22 2.22 2.22v2.22h2.219v2.219h-2.22v2.22h-2.22v-2.22l-2.22 2.22H448.834v-2.22h-2.219v-2.22h-2.22v-2.22h2.22l2.22-2.22zM717.422 84.655l2.22 4.44-2.22-2.22-2.22 4.44 2.22 2.22h-2.22v2.22l-2.22-2.22 2.22-2.22-2.22-2.22 2.22-2.22v-2.22l-2.22-2.22v-4.439h2.22v-2.22 2.22l2.22 2.22v4.44z" opacity=".98" fill="#eee" fill-rule="evenodd" stroke="#333" stroke-width=".894" stroke-linecap="square" stroke-linejoin="bevel" stroke-miterlimit="10"/><path d="M448.834 75.777h-6.66l4.44-2.22h2.22v2.22zM11.546 49.14h2.22v-2.22l6.659 2.22 4.44 2.22h-6.66v2.22h-6.66l-2.219-2.22h-4.44v-2.22l-2.22 2.22-2.219 2.22V44.7h6.66l6.659 2.22-2.22 2.22zM799.552 40.26h-4.44v-2.219h4.44v2.22zM4.887 40.26H.447v-2.219h6.66l-2.22 2.22zM717.422 33.602h-8.879 8.879zM732.96 29.162l-2.22 2.22h-4.44l-2.219-2.22h8.88zM721.861 29.162l-2.22 2.22H706.324l-4.44-2.22h2.22l2.22-2.22h6.66l8.878 2.22zM526.525 40.26h-8.88v-2.219h-4.439v-2.22h2.22l4.44-2.22h-2.22l4.44-2.22v-2.219h4.439l8.879-2.22h15.538l-8.88 2.22h-6.658l-6.66 2.22-4.44 2.22-2.219 2.22v2.219l4.44 2.22z" opacity=".98" fill="#eee" fill-rule="evenodd" stroke="#333" stroke-width=".894" stroke-linecap="square" stroke-linejoin="bevel" stroke-miterlimit="10"/><path d="M635.292 26.942h15.538l2.22 2.22h-4.44l-4.44 2.22h-2.22 2.22l4.44 2.22h15.539l8.878 2.22v-2.22h11.099l2.22 2.22-2.22 2.219h2.22l4.44 2.22 2.219-2.22h15.538v-2.22h22.197l2.22 2.22 4.44 2.22 11.098-2.22 2.22 2.22h2.22v2.22H770.696l4.44 2.22 2.219-2.22v-2.22l6.659 2.22h11.099l4.44 2.22v8.878h-6.66 2.22v2.22l2.22 2.22h-4.44l-6.66 2.22h-2.219l-2.22 2.22h-4.44v2.219l-4.439-2.22-4.44 2.22-2.219-2.22-2.22 2.22h-2.22l-2.22 2.22v2.22h2.22v2.22h-2.22l-2.219 2.219 2.22 2.22h-4.44v2.22l-4.439 2.219v2.22h-4.44l-2.22-4.44V71.337l2.22-2.22 4.44-2.22 4.44-2.22 2.22-2.219 4.439-2.22 2.22-2.22h-2.22l-2.22 2.22-4.44 2.22-2.22-2.22h-6.658l-4.44 4.44h2.22l-6.66 2.22h-2.22v-2.22h-19.977l-8.879 4.44-6.659 6.659h2.22l2.22 2.22h2.22v-2.22h2.219l4.44 2.22v2.219l-2.22 2.22V89.095l-4.44 4.44-4.44 2.22-2.219 4.439h-2.22l-2.22 2.22h-2.22v-2.22l-4.439 2.22h2.22v-6.66h4.44v-2.22l2.22-2.22 2.219-2.219h-4.44l-2.22 2.22h-4.439v-2.22l-2.22-2.22h-4.439v-2.22l-2.22-2.22-2.22-2.219v-2.22H668.588l-2.219 2.22v2.22l-2.22 2.22-4.44 2.22h-4.439l-2.22-2.22-4.439 2.22h-11.099l-2.22-2.22H626.413v-2.22H619.754l-2.22-2.22-2.219 2.22 2.22 2.22-2.22 2.22h-4.44l-2.22-2.22H599.776l-4.439 2.22H588.677v-2.22h-4.44v-2.22l-4.439 2.22-2.22-2.22v2.22l-6.659-6.66-2.22-2.22-4.439 2.22h-2.22v-2.22h-4.44l-2.219-2.22h-2.22l-2.22 2.22H535.405l-2.22 2.22 2.22 2.22h-2.22l-2.22 2.22h4.44v2.22h-4.44l-2.22-2.22h-4.44l-2.219 2.22-2.22-2.22H510.986l-4.439 2.22v2.22l-2.22-2.22-2.22 2.22h2.22l-2.22 2.219 2.22 2.22h2.22v2.22h2.22l-2.22 2.22h-2.22l-2.22 2.219 2.22 2.22v2.22l2.22 2.22h-4.44l-2.22-2.22h-4.439l-2.22-2.22H486.57l-2.22-2.22h-2.22l-2.219-2.22h2.22l2.22-2.22h-2.22l4.44-2.22h-2.22 2.22v-2.219l2.22-2.22h-4.44l-2.22-2.22h-4.44v-2.22h-2.22l-2.219-2.219h-4.44v-2.22h2.22-2.22v-2.22h-2.22v-2.22h-2.219l-2.22-2.219h-2.22v-4.44l2.22-2.22h-2.22l4.44-2.219h-2.22l4.44-2.22 2.22-2.22-2.22-2.22V53.58h-2.22l2.22-2.22-2.22-2.22V46.92l-2.22-2.22v-2.22h17.759l8.878 4.44h2.22v2.22h-2.22l-4.44 2.22-11.098-2.22 2.22 2.22v2.22h4.44l2.219 2.219v-2.22h-2.22l2.22-2.22 4.44 2.22h2.22l-2.22-2.22 6.659-2.22h4.439l-2.22-2.219h2.22l-2.22-2.22h6.66v2.22h-2.22l2.22 2.22h2.22l2.219-2.22h4.44l6.659-2.22h2.22-2.22H535.404l-2.22-2.22h8.879l8.879 2.22h2.22l-2.22-2.22h-4.44 2.22l-2.22-2.22v-2.219h4.44l2.22-2.22v-2.22l6.659 2.22-2.22 2.22h2.22v4.44l2.22 2.22v2.219l-4.44 2.22h4.44l2.22-2.22h2.219l-2.22-2.22-2.22-2.22 2.22-2.22-2.22-2.219 2.22-2.22h2.22v2.22h2.22-2.22l4.44-2.22h4.439l4.44 2.22-2.22-2.22v-2.22H590.897v-2.22l2.22-2.219h11.099l2.22-2.22h4.439l2.22 2.22 4.439-2.22H624.193v-2.22h11.099-4.44l4.44 2.22zM633.072 22.503l-13.318 2.22 4.439-4.44h2.22l6.659 2.22zM513.206 18.063H502.107h2.22-6.659H513.207zM619.754 22.503h-4.44l-6.66-2.22h-2.219l-2.22-2.22h-2.22l4.44-2.22h4.44l4.44 2.22 6.658 2.22-2.22 2.22zM466.592 197.862v2.22h-2.22v-2.22h2.22zM382.242 135.71v4.439h-6.66v4.44h-2.22l-2.219 2.22 2.22 2.219h-8.88l-2.219 2.22v-2.22h6.66v-2.22l2.22-2.22 2.219-2.22v-4.439H380.022v-2.22h2.22zM493.229 160.126v-2.22h-2.22v-2.219l-2.22-2.22v-2.22h-2.22v-4.439l-2.22-2.22v-2.22h-2.22v-2.22h-2.219v-2.219l-2.22-2.22v-2.22h-2.22v-2.22h4.44l2.22-2.219v-2.22l4.44-2.22 2.22 2.22h2.219l6.659 4.44h6.66v2.22h2.219v2.22h2.22l2.22 2.22v4.439h2.22l2.219 2.22 6.66 2.22-2.22 6.658h-4.44l-6.66 2.22h-2.219l-2.22 2.22v2.22l-2.22-2.22H495.449v2.22h-2.22zM473.251 175.665v-6.66h-2.22v2.22l-2.22 2.22v2.22h-2.22l-2.219-2.22v2.22h-6.66l-2.219-2.22-2.22 2.22v2.22h-2.22v-4.44h-2.22v-4.44h-2.219 2.22v-4.44l2.22-2.219v-11.099h4.44v-4.439h24.416l2.22 2.22-2.22 2.22 2.22 2.22v2.22l2.22 2.219h-2.22l-2.22 2.22V166.785l-2.22 2.22-2.22 2.22v2.219l-2.219 2.22z" opacity=".98" fill="#eee" fill-rule="evenodd" stroke="#333" stroke-width=".894" stroke-linecap="square" stroke-linejoin="bevel" stroke-miterlimit="10"/><path d="M473.251 175.665v2.22l-2.22 2.22h4.44v2.219l2.22 2.22-2.22 2.22-2.22 2.219h-6.66l-2.219-2.22h-4.44v-2.22h-2.22v-2.22h-2.219v-2.219l-2.22-2.22h-2.22 2.22v-2.22l2.22-2.22 2.22 2.22H464.372v-2.22l2.22 2.22h2.22v-2.22l2.22-2.219v-2.22h2.219v6.66zM364.484 166.786l-2.22-2.22 2.22-2.22v-2.22h6.66l2.219 2.22v4.44h2.22v2.22H364.483v-2.22h6.66-6.66zM759.597 217.84h-2.22 2.22zM755.157 215.62h-2.22 2.22zM757.377 215.62l-2.22-2.22 2.22 2.22zM752.938 213.4l-2.22-2.22 2.22 2.22zM748.498 211.18h-2.22v-2.22l2.22 2.22zM375.583 182.324l-2.22-2.22-2.22-2.22 2.22-2.22 2.22-2.22 2.22 2.22v4.44h-2.22v2.22zM206.883 166.786h-6.66l2.22-2.22h2.22v2.22h2.22zM506.547 175.665v2.22h-2.22l-2.22 2.22-6.659-4.44-2.22-2.22 2.22-2.22v2.22h6.66l2.22-2.22h2.219v4.44z" opacity=".98" fill="#eee" fill-rule="evenodd" stroke="#333" stroke-width=".894" stroke-linecap="square" stroke-linejoin="bevel" stroke-miterlimit="10"/><path d="M508.767 171.225h2.22v-2.22h2.22v4.44h-2.22v4.44l-2.22 4.439-2.22 2.22-2.22 2.22-2.22 4.439h-2.22l-2.219 2.22-2.22 2.22h-2.22l-2.22 2.219-2.219-2.22v-4.44l2.22-2.219 2.22-2.22h2.22l2.219-2.22 6.66-6.659h2.219V171.225h2.22zM444.394 95.754h2.22v2.22h2.22v4.44h-2.22v-2.22h-2.22v2.22l-2.22-2.22v-4.44h-2.22l2.22-2.22h2.22v2.22zM273.475 184.544h4.44v-2.22l4.439 2.22-2.22 2.22v4.439h-4.44 2.22v2.22h-2.22l-2.22-2.22v-2.22l-2.219-2.22h2.22v-2.22zM439.955 86.875h8.879v2.22h-8.88v2.22h-2.219l-2.22-2.22h2.22l2.22-2.22zM428.856 93.534h6.66-2.22v2.22h-4.44v-2.22zM448.834 51.36h-2.22v2.22l-4.44 2.219-4.439 2.22v4.44h2.22l-2.22 4.439h-2.22v2.22l-2.22 2.22h-2.219v2.219h-4.44v-2.22l-2.22-2.22v-4.44l2.22-2.219v-2.22h-2.22v-4.44l2.22-2.219h2.22l4.44-4.44 2.22-2.219V44.7H442.174l2.22-2.22 2.22 2.22 4.439 2.22v2.22l-2.22 2.22zM437.735 69.117l-2.22 2.22 2.22-2.22zM442.175 69.117h-2.22v2.22-2.22h2.22zM444.394 55.799h2.22-2.22zM471.031 253.355l-2.22 2.22-2.22-2.22 2.22-2.22v2.22h2.22zM484.35 122.391l-4.44 2.22h-2.22v-2.22h2.22v-2.22h-2.22v-2.22h2.22v-2.22h6.66l2.22-2.219h4.439l-2.22 2.22v4.44l-6.66 2.219zM431.076 169.005v-2.22h-2.22v-4.439l4.44-2.22V149.027l-2.22-2.219 2.22-2.22 8.879 4.44 8.879 4.44v8.878l-2.22 2.22v4.44h-2.22 2.22v4.439h-2.22v2.22h-4.44l-2.22 2.22-2.219 2.22h-4.44v-2.22h-2.219l-2.22-2.22 2.22-2.22v2.22h2.22l-2.22-2.22v-4.44zM402.22 182.324v2.22l-2.22-2.22v-11.099 2.22h2.22v8.879zM626.413 169.005h-4.44v-2.22 2.22l-2.22 4.44v2.22l2.22 2.22v2.22l2.22 2.219h2.22l-2.22 2.22v-2.22h-4.44v-2.22h-2.22v-2.22 2.22-4.44l2.22-2.22V166.786l-2.22-2.219v-4.44l-2.219-2.22v-2.219l2.22-2.22 2.22-2.22h2.22v2.22h2.219v4.44l2.22-2.22v2.22l2.22-2.22 2.22 2.22v2.22l2.219 2.22v2.219h-6.66v4.44zM557.6 106.853l-2.219 2.22-2.22-2.22v2.22h8.88v2.22h2.22v2.219h-4.44v2.22h-2.22v-4.44h-2.22v2.22H548.722l2.22-2.22-2.22-2.22h2.22l2.22-2.22h4.439zM535.404 117.952v-2.22h-2.22l-2.22-2.22h-2.22l-2.22-2.22h-2.22v2.22H517.646v-4.44l-2.22-2.22h4.44v-2.219l-2.22-2.22-2.22 2.22v-2.22h4.44l2.22 2.22h4.44-2.22l2.22-2.22h4.44l2.219 2.22h2.22l2.22 2.22 2.219 2.22 2.22 2.22h2.22l2.22 2.219h-4.44v2.22h-2.22v2.22h-4.44zM675.247 213.4h6.66-2.22l-2.22 2.22-2.22-2.22zM264.596 173.445h2.22-2.22zM419.977 129.05v-4.44h-2.22l-2.22-2.219v-2.22h2.22v-4.44l2.22-2.219h2.22v2.22l2.22-2.22v2.22h-2.22V122.39h2.22v2.22h-2.22v2.22h-2.22l2.22 2.22h-2.22z" opacity=".98" fill="#eee" fill-rule="evenodd" stroke="#333" stroke-width=".894" stroke-linecap="square" stroke-linejoin="bevel" stroke-miterlimit="10"/><path d="M479.91 104.633l4.44 2.22 2.22-2.22H495.448v2.22h2.219V113.512h-8.879l-2.22 2.22H479.91v2.22l-2.22-2.22h2.22-19.978v-2.22l-2.22-2.22v-2.22l2.22-2.22h2.22l2.22-2.219h6.66l2.219-2.22h4.44l2.22 2.22z" opacity=".98" fill="#eee" fill-rule="evenodd" stroke="#333" stroke-width=".894" stroke-linecap="square" stroke-linejoin="bevel" stroke-miterlimit="10"/><path d="M459.933 106.853h-2.22v-2.22l2.22-2.22 2.22 2.22-2.22 2.22zM668.588 142.369v4.44l-2.22 2.219v-6.66l2.22-2.22v2.22zM473.251 195.642l2.22 2.22 6.659 4.44 4.44 2.22-2.22 2.219v2.22h2.22V217.84h2.22-2.22l-2.22 2.22h-8.88v-2.22l-2.219-2.22h-2.22v-2.22h-4.44v-2.22l-2.219-2.22v-4.439h2.22V197.862h2.22l4.439-2.22z" opacity=".98" fill="#eee" fill-rule="evenodd" stroke="#333" stroke-width=".894" stroke-linecap="square" stroke-linejoin="bevel" stroke-miterlimit="10"/><path d="M468.811 197.862h-4.439v-2.22l2.22-2.22 2.22-2.22h-2.22v-2.219H473.25l2.22-2.22v2.22l2.22 4.44h-2.22v2.22h-2.22l-4.44 2.219zM468.811 80.216h4.44l2.22 2.22h2.22v2.22h4.439l2.22 2.22h4.44l-2.22 2.219v2.22h-4.44l-2.22 2.22h-4.44l2.22 2.22h2.22l-2.22 2.219h-4.439v-2.22h-2.22 2.22v-2.22h-6.66l-2.219 2.22h-2.22v-2.22h4.44-2.22v-2.22l-2.22-2.219h-4.44l-2.219 2.22h-4.44v-2.22l-2.22 2.22v-4.44l2.22-2.22h2.22l-2.22-2.22H466.593v-2.219h2.22zM273.475 262.234h4.44l2.219 2.22 2.22 2.22v4.44h-8.88l-2.219-2.22v-2.22l2.22-2.22v-2.22zM55.94 153.467v2.22-2.22h-2.22 2.22v-2.22 2.22h2.22-2.22z" opacity=".98" fill="#eee" fill-rule="evenodd" stroke="#333" stroke-width=".894" stroke-linecap="square" stroke-linejoin="bevel" stroke-miterlimit="10"/><path d="M53.72 151.248v-2.22 2.22h2.22-2.22zM53.72 149.028h-2.219 2.22zM51.501 149.028h-2.22 2.22zM47.062 149.028v-2.22 2.22zM191.344 86.875v2.22h13.319l2.22 2.22h4.44l2.219 2.22h2.22v2.22h2.22V102.413h-2.22v2.22h2.22l2.22-2.22H226.86l-2.22-2.22H231.3v-2.22h2.22l2.22-2.22H244.618l2.219-2.22v-2.22h4.44v4.44l2.22 2.22h-4.44l-2.22 2.22h-2.22v4.44-2.22l2.22 2.22h-6.66l-2.22 2.219 2.22-2.22 2.22 2.22H235.74h2.22l-2.22 2.22v2.22-2.22h-2.22v4.439h-2.22 2.22l-2.22-2.22v-2.22 6.66h2.22v2.22l-2.22 2.22h-2.22l-2.219 2.219h-2.22l-2.22 2.22-2.219 2.22v2.22l2.22 2.219v8.879h-2.22l-2.22-2.22v-6.66h-2.22l-2.22-2.219-2.219 2.22v-2.22h-8.879v2.22h-11.099l-2.22 2.22h-2.219l-2.22 2.22v4.439l-2.22-2.22h-2.22v-2.22l-2.219-2.22v-2.22h-4.44l-2.22 2.22v-2.22h-2.219v-2.219h-2.22v-2.22H153.608l-4.439-2.22H140.29v-2.219h-2.22v-2.22h-4.439v-2.22l-2.22-2.22-2.22-2.219v-2.22h-2.219v-2.22l-2.22-2.22V97.974l2.22-2.219-2.22-2.22v-4.439h2.22l2.22 2.22v-4.44h33.296l6.66 2.22 8.878-2.22h13.319zM60.38 69.117l-2.22 2.22v-2.22h4.44-2.22zM33.743 64.678h-2.22l-2.22-2.22h4.44v2.22zM20.425 55.799H27.084l-2.22 2.22-2.22-2.22h-2.22z" opacity=".98" fill="#eee" fill-rule="evenodd" stroke="#333" stroke-width=".894" stroke-linecap="square" stroke-linejoin="bevel" stroke-miterlimit="10"/><path d="M55.94 38.041l2.22 2.22h19.978l2.22 2.22 2.22-2.22 2.22 2.22h4.439v19.977h2.22l2.22 2.22 2.219 2.22 2.22-2.22h4.439v2.22h2.22l2.22 2.22 2.22 2.219 2.219 2.22h2.22l-2.22 2.22-2.22-2.22-2.22-2.22-2.22-2.22-2.219-2.22h-6.66l-4.439-2.22h-2.22l-4.439-2.219-2.22 2.22-4.44-2.22H71.479v2.22H64.82v-2.22l2.22-2.22-2.22 2.22H62.6l-4.439 2.22 2.22 2.22h-2.22l-2.22 2.22h-2.22v2.219h-4.439v2.22H40.402l-2.22 2.22h-2.22l2.22-2.22h4.44l2.22-2.22 4.44-2.22h2.22v-2.22h-4.44l-2.22-2.22-2.22 2.22-2.22-2.22h2.22-4.44l-2.22-2.219h-2.219v-2.22h-2.22l2.22-2.22h2.22v-2.22h8.879V53.58h-2.22 2.22-13.319v-2.22h-4.439l4.44-2.22h11.099-2.22l-2.22-2.219h-2.22l-2.22-2.22h-2.22 4.44l2.22-2.22h2.22l2.22-2.22H49.281l4.439-2.219h2.22zM546.502 113.512l-2.22-2.22h-2.22l-2.219-2.22-2.22-2.22-2.22-2.219h-2.22l-2.219-2.22h-4.44l-2.22 2.22h2.22-4.439v-6.66l6.66-2.219 4.439 2.22h2.22l2.22 2.22h4.439l4.44 2.22v2.22h2.219l2.22 2.219 2.22-2.22 2.22-2.22h2.219l-2.22 2.22h2.22l4.44 2.22h-8.88l-2.22 2.22h-2.219l2.22 2.22-2.22 2.219h-2.22zM242.398 171.225v2.22l-2.22 2.22h2.22v-2.22l2.22-2.22 2.22-2.22v2.22h2.22v2.22H264.596h-2.22v2.22h4.44v2.22h2.22l-2.22 2.22v2.219h-2.22v2.22h2.22v2.22h-4.44l-2.22 2.219v-2.22h-2.22v4.44h2.22l-2.22 2.22h-2.22v2.22h-2.219v-2.22l-2.22-2.22v-8.88H244.618v-2.219l-2.22 2.22-2.22-2.22v-4.44h-2.22l2.22-2.22v-2.219h2.22zM639.731 149.028l-4.44 2.22-2.22 2.22 2.22 2.22 2.22 4.438h2.22v2.22l2.22 4.44v4.44h-2.22l-2.22 2.219-2.22 2.22-2.22 2.22-2.219-2.22h2.22l-2.22-2.22h4.44l-2.22-2.22 4.44-2.22V162.346l-2.22-2.22-2.22-2.22v-2.219l-4.44-2.22h2.22v-2.22h-2.22l-2.22-2.22v-2.219h4.44l2.22-2.22v2.22h2.22l2.22 2.22h2.22zM770.696 231.158v-2.22 2.22zM770.696 226.719v2.22h-2.22v-2.22h2.22zM477.69 124.61v2.22h-2.22 2.22-2.22l2.22-2.22zM517.646 160.126h-2.22v2.22h-2.22l-4.44 2.22h-2.219v2.22l-2.22-2.22v2.22h-4.44v2.22h-4.439v-4.44h-2.22v-4.44h2.22v-2.22h6.66l2.22 2.22v-2.22l2.219-2.219h2.22l6.659-2.22v4.44l2.22 2.22zM468.811 260.015h-2.22v4.44l-4.439 2.219-2.22 2.22H448.834l-2.219 2.22h-6.66v-2.22 2.22-2.22l-2.219-2.22h2.22v-2.22l-2.22-2.22v-2.22l-2.22-2.22h2.22l2.22 2.22 2.22-2.22v-8.878h2.22v4.44h4.439v-2.22h6.66v-2.22h2.219l2.22-2.22 2.22-2.22H468.811v6.66l-2.22 2.22 2.22 2.22 2.22-2.22v4.439l-2.22 2.22zm-6.659-2.22l-2.22 2.22h-2.22l2.22 2.22h2.22l2.22-2.22-2.22-2.22zM471.031 215.62h2.22v6.66h-2.22v2.219h2.22l-6.66 2.22v2.22h-2.219l-2.22 2.22-2.22 2.219H451.054l-2.22-2.22h-2.219v-8.879h6.66-2.22 2.22l-2.22-2.22h2.22l-2.22-2.22h2.22v2.22H459.932v2.22h2.22v2.22h2.219v-2.22l-2.22-2.22V213.4h8.88v2.22z" opacity=".98" fill="#eee" fill-rule="evenodd" stroke="#333" stroke-width=".894" stroke-linecap="square" stroke-linejoin="bevel" stroke-miterlimit="10"/><path d="M468.811 244.476h-4.439l-2.22-2.22-2.22-2.219-2.22-2.22-2.219-2.22v-2.22h4.44l2.22-2.219 2.219-2.22h4.44v2.22h2.22v11.099l-2.22 2.22z" opacity=".98" fill="#eee" fill-rule="evenodd" stroke="#333" stroke-width=".894" stroke-linecap="square" stroke-linejoin="bevel" stroke-miterlimit="10"/><g><circle r="50.535" cy="115.29" cx="224.114" fill="#2c689c" fill-opacity=".37" stroke="#035a72" stroke-width=".145"/><circle r="2.33" cy="115.29" cx="224.114" fill="#ff8f31" stroke="#ff8f31" stroke-width="1.45"/><circle r="31.37" cy="121.351" cx="706.967" fill="#2c689c" fill-opacity=".37" stroke="#035a72" stroke-width=".09"/><circle r="1.447" cy="121.351" cx="706.967" fill="#ff8f31" stroke="#ff8f31" stroke-width=".9"/><circle r="31.37" cy="135.494" cx="197.85" fill="#2c689c" fill-opacity=".37" stroke="#035a72" stroke-width=".09"/><circle r="1.447" cy="135.494" cx="197.85" fill="#ff8f31" stroke="#ff8f31" stroke-width=".9"/><circle r="37.422" cy="99.128" cx="135.22" fill="#2c689c" fill-opacity=".37" stroke="#035a72" stroke-width=".107"/><circle r="1.726" cy="99.128" cx="135.22" fill="#ff8f31" stroke="#ff8f31" stroke-width="1.074"/><circle r="31.37" cy="256.712" cx="453.418" fill="#2c689c" fill-opacity=".37" stroke="#035a72" stroke-width=".09"/><circle r="1.447" cy="256.712" cx="453.418" fill="#ff8f31" stroke="#ff8f31" stroke-width=".9"/><circle r="38.431" cy="102.158" cx="422.104" fill="#2c689c" fill-opacity=".37" stroke="#035a72" stroke-width=".11"/><circle r="1.772" cy="102.158" cx="422.104" fill="#ff8f31" stroke="#ff8f31" stroke-width="1.103"/><circle r="23.3" cy="82.966" cx="438.266" fill="#2c689c" fill-opacity=".37" stroke="#035a72" stroke-width=".067"/><circle r="1.074" cy="82.966" cx="438.266" fill="#ff8f31" stroke="#ff8f31" stroke-width=".669"/></g></svg>